%TF.GenerationSoftware,KiCad,Pcbnew,6.0.1-79c1e3a40b~116~ubuntu20.04.1*%
%TF.CreationDate,2022-02-08T16:17:55-05:00*%
%TF.ProjectId,gameKey-PCB-ThumbCluster,67616d65-4b65-4792-9d50-43422d546875,rev?*%
%TF.SameCoordinates,Original*%
%TF.FileFunction,Legend,Bot*%
%TF.FilePolarity,Positive*%
%FSLAX46Y46*%
G04 Gerber Fmt 4.6, Leading zero omitted, Abs format (unit mm)*
G04 Created by KiCad (PCBNEW 6.0.1-79c1e3a40b~116~ubuntu20.04.1) date 2022-02-08 16:17:55*
%MOMM*%
%LPD*%
G01*
G04 APERTURE LIST*
%ADD10C,0.304800*%
%ADD11C,0.120000*%
G04 APERTURE END LIST*
D10*
X13002380Y5746750D02*
X13123333Y5807226D01*
X13304761Y5807226D01*
X13486190Y5746750D01*
X13607142Y5625797D01*
X13667619Y5504845D01*
X13728095Y5262940D01*
X13728095Y5081511D01*
X13667619Y4839607D01*
X13607142Y4718654D01*
X13486190Y4597702D01*
X13304761Y4537226D01*
X13183809Y4537226D01*
X13002380Y4597702D01*
X12941904Y4658178D01*
X12941904Y5081511D01*
X13183809Y5081511D01*
X12851190Y2976335D02*
X11883571Y2976335D01*
X12367380Y2492526D02*
X12367380Y3460145D01*
X13758333Y1717826D02*
X12911666Y447826D01*
X12911666Y1717826D02*
X13758333Y447826D01*
X12367380Y-992111D02*
X12367380Y-1596873D01*
X12790714Y-326873D02*
X12367380Y-992111D01*
X11944047Y-326873D01*
X13244285Y-2976335D02*
X13062857Y-3036811D01*
X13002380Y-3097288D01*
X12941904Y-3218240D01*
X12941904Y-3399669D01*
X13002380Y-3520621D01*
X13062857Y-3581097D01*
X13183809Y-3641573D01*
X13667619Y-3641573D01*
X13667619Y-2371573D01*
X13244285Y-2371573D01*
X13123333Y-2432050D01*
X13062857Y-2492526D01*
X13002380Y-2613478D01*
X13002380Y-2734430D01*
X13062857Y-2855383D01*
X13123333Y-2915859D01*
X13244285Y-2976335D01*
X13667619Y-2976335D01*
X11974285Y-5565321D02*
X12034761Y-5625797D01*
X12216190Y-5686273D01*
X12337142Y-5686273D01*
X12518571Y-5625797D01*
X12639523Y-5504845D01*
X12700000Y-5383892D01*
X12760476Y-5141988D01*
X12760476Y-4960559D01*
X12700000Y-4718654D01*
X12639523Y-4597702D01*
X12518571Y-4476750D01*
X12337142Y-4416273D01*
X12216190Y-4416273D01*
X12034761Y-4476750D01*
X11974285Y-4537226D01*
X-3514876Y16832619D02*
X-4784876Y16832619D01*
X-4784876Y16348809D01*
X-4724400Y16227857D01*
X-4663923Y16167380D01*
X-4542971Y16106904D01*
X-4361542Y16106904D01*
X-4240590Y16167380D01*
X-4180114Y16227857D01*
X-4119638Y16348809D01*
X-4119638Y16832619D01*
X-2740176Y16076666D02*
X-1470176Y15774285D01*
X-2377319Y15532380D01*
X-1470176Y15290476D01*
X-2740176Y14988095D01*
X514047Y16862857D02*
X574523Y16681428D01*
X574523Y16379047D01*
X514047Y16258095D01*
X453571Y16197619D01*
X332619Y16137142D01*
X211666Y16137142D01*
X90714Y16197619D01*
X30238Y16258095D01*
X-30238Y16379047D01*
X-90714Y16620952D01*
X-151190Y16741904D01*
X-211666Y16802380D01*
X-332619Y16862857D01*
X-453571Y16862857D01*
X-574523Y16802380D01*
X-635000Y16741904D01*
X-695476Y16620952D01*
X-695476Y16318571D01*
X-635000Y16137142D01*
X1953985Y15804523D02*
X1953985Y15381190D01*
X2619223Y15199761D02*
X2619223Y15804523D01*
X1349223Y15804523D01*
X1349223Y15199761D01*
X4663923Y16862857D02*
X3393923Y16862857D01*
X4663923Y16137142D01*
X3393923Y16137142D01*
D11*
%TO.C,J1*%
X-4685000Y25060000D02*
X-4685000Y26290000D01*
X-5060000Y25060000D02*
X-5060000Y22940000D01*
X-5060000Y22940000D02*
X-2685000Y22940000D01*
X2685000Y22940000D02*
X5060000Y22940000D01*
X-5060000Y25060000D02*
X-4685000Y25060000D01*
X685000Y25060000D02*
X3315000Y25060000D01*
X-3315000Y25060000D02*
X-685000Y25060000D01*
X-1315000Y22940000D02*
X1315000Y22940000D01*
X4685000Y22940000D02*
X5060000Y22940000D01*
X5060000Y25060000D02*
X5060000Y22940000D01*
%TO.C,J0*%
X11220000Y315000D02*
X11220000Y-2315000D01*
X11220000Y-3685000D02*
X11220000Y-6060000D01*
X11220000Y5685000D02*
X12450000Y5685000D01*
X9100000Y-1685000D02*
X9100000Y-4315000D01*
X11220000Y4315000D02*
X11220000Y1685000D01*
X11220000Y6060000D02*
X11220000Y5685000D01*
X9100000Y-5685000D02*
X9100000Y-6060000D01*
X9100000Y2315000D02*
X9100000Y-315000D01*
X9100000Y6060000D02*
X9100000Y3685000D01*
X11220000Y6060000D02*
X9100000Y6060000D01*
X11220000Y-6060000D02*
X9100000Y-6060000D01*
%TD*%
M02*
