M48
; DRILL file {KiCad 6.0.11-3.fc37} date Wed 06 Sep 2023 08:48:53 AM EDT
; FORMAT={-:-/ absolute / inch / decimal}
; #@! TF.CreationDate,2023-09-06T08:48:53-04:00
; #@! TF.GenerationSoftware,Kicad,Pcbnew,6.0.11-3.fc37
; #@! TF.FileFunction,MixedPlating,1,2
FMAT,2
INCH
; #@! TA.AperFunction,Plated,PTH,ViaDrill
T1C0.0190
; #@! TA.AperFunction,Plated,PTH,ComponentDrill
T2C0.0394
; #@! TA.AperFunction,Plated,PTH,ComponentDrill
T3C0.0472
; #@! TA.AperFunction,NonPlated,NPTH,ComponentDrill
T4C0.0492
; #@! TA.AperFunction,NonPlated,NPTH,ComponentDrill
T5C0.0571
; #@! TA.AperFunction,NonPlated,NPTH,ComponentDrill
T6C0.0630
%
G90
G05
T1
X-0.375Y0.35
X-0.375Y-0.275
X-0.2Y1.075
X-0.2Y0.825
X-0.1Y0.975
X0.075Y0.975
X0.1Y0.875
X0.1Y-0.05
X0.1Y-0.25
X0.2Y1.075
X0.225Y0.075
X0.25Y0.475
X0.2625Y0.0
X0.2625Y-0.0875
X0.35Y0.325
X0.3537Y-0.1969
X0.375Y-0.275
X0.4463Y0.0394
X0.4463Y-0.1181
T2
X-0.3437Y0.0984
X-0.3437Y0.0
X-0.3437Y-0.0984
X-0.0984Y-0.3437
X0.0Y-0.3437
X0.0984Y-0.3437
T3
X-0.128Y0.4035
X-0.128Y0.2264
X0.128Y0.4035
X0.128Y0.2264
T4
X-0.249Y0.1969
X-0.249Y-0.1969
X0.249Y0.1969
X0.249Y-0.1969
T6
X-0.1693Y0.0
X-0.1181Y0.8071
X0.1181Y1.0433
X0.1693Y0.0
T5
G00X-0.1781Y0.6988
M15
G01X-0.0974Y0.6988
M16
G05
G00X-0.0404Y1.1516
M15
G01X0.0404Y1.1516
M16
G05
G00X0.0974Y0.6988
M15
G01X0.1781Y0.6988
M16
G05
T0
M30
