M48
; DRILL file {KiCad 6.0.1-79c1e3a40b~116~ubuntu20.04.1} date Tue 08 Feb 2022 04:17:55 PM
; FORMAT={-:-/ absolute / inch / decimal}
; #@! TF.CreationDate,2022-02-08T16:17:55-05:00
; #@! TF.GenerationSoftware,Kicad,Pcbnew,6.0.1-79c1e3a40b~116~ubuntu20.04.1
; #@! TF.FileFunction,Plated,1,2,PTH
FMAT,2
INCH
; #@! TA.AperFunction,Plated,PTH,ViaDrill
T1C0.0190
; #@! TA.AperFunction,Plated,PTH,ComponentDrill
T2C0.0394
; #@! TA.AperFunction,Plated,PTH,ComponentDrill
T3C0.0472
%
G90
G05
T1
X-0.375Y0.35
X-0.375Y-0.275
X-0.1575Y0.8858
X-0.0787Y0.9646
X-0.0394Y1.0925
X0.0Y0.8071
X0.0Y0.7185
X0.1Y-0.05
X0.1Y-0.25
X0.1378Y0.8268
X0.1969Y1.0039
X0.225Y0.075
X0.25Y0.475
X0.2625Y0.0
X0.2625Y-0.0875
X0.35Y0.325
X0.3537Y-0.1969
X0.375Y-0.275
X0.4463Y0.0394
X0.4463Y-0.1181
T2
X-0.3437Y0.0984
X-0.3437Y0.0
X-0.3437Y-0.0984
X-0.0984Y-0.3437
X0.0Y-0.3437
X0.0984Y-0.3437
T3
X-0.128Y0.4035
X-0.128Y0.2264
X0.128Y0.4035
X0.128Y0.2264
T0
M30
