%TF.GenerationSoftware,KiCad,Pcbnew,6.0.11-3.fc37*%
%TF.CreationDate,2023-09-06T08:49:03-04:00*%
%TF.ProjectId,gameKey-PCB-ThumbCluster,67616d65-4b65-4792-9d50-43422d546875,rev?*%
%TF.SameCoordinates,Original*%
%TF.FileFunction,Copper,L2,Bot*%
%TF.FilePolarity,Positive*%
%FSLAX46Y46*%
G04 Gerber Fmt 4.6, Leading zero omitted, Abs format (unit mm)*
G04 Created by KiCad (PCBNEW 6.0.11-3.fc37) date 2023-09-06 08:49:03*
%MOMM*%
%LPD*%
G01*
G04 APERTURE LIST*
%TA.AperFunction,SMDPad,CuDef*%
%ADD10R,0.850000X2.350000*%
%TD*%
%TA.AperFunction,WasherPad*%
%ADD11R,3.500000X1.500000*%
%TD*%
%TA.AperFunction,WasherPad*%
%ADD12C,2.000000*%
%TD*%
%TA.AperFunction,ComponentPad*%
%ADD13C,2.000000*%
%TD*%
%TA.AperFunction,SMDPad,CuDef*%
%ADD14R,2.350000X0.850000*%
%TD*%
%TA.AperFunction,ViaPad*%
%ADD15C,0.685800*%
%TD*%
%TA.AperFunction,Conductor*%
%ADD16C,0.254000*%
%TD*%
G04 APERTURE END LIST*
D10*
%TO.P,J2,1,Pin_1*%
%TO.N,/COL*%
X-5000000Y24675000D03*
%TO.P,J2,2,Pin_2*%
%TO.N,/NP*%
X-3000000Y22325000D03*
%TO.P,J2,3,Pin_3*%
%TO.N,/NW*%
X-1000000Y24675000D03*
%TO.P,J2,4,Pin_4*%
%TO.N,/NS*%
X1000000Y22325000D03*
%TO.P,J2,5,Pin_5*%
%TO.N,/NE*%
X3000000Y24675000D03*
%TO.P,J2,6,Pin_6*%
%TO.N,/NN*%
X5000000Y22325000D03*
%TD*%
D11*
%TO.P,NS1,*%
%TO.N,*%
X3500000Y17750000D03*
X-3500000Y17750000D03*
X0Y29250000D03*
%TD*%
D12*
%TO.P,JS1,*%
%TO.N,*%
X6325000Y-5000000D03*
X-6325000Y-5000000D03*
X-6325000Y5000000D03*
X6325000Y5000000D03*
D13*
%TO.P,JS1,1,GND*%
%TO.N,GND*%
X-2500000Y-8730000D03*
X-8730000Y2500000D03*
%TO.P,JS1,2,VCC*%
%TO.N,VCC*%
X2500000Y-8730000D03*
X-8730000Y-2500000D03*
%TO.P,JS1,3,RY*%
%TO.N,/JX*%
X-8730000Y0D03*
%TO.P,JS1,4,RX*%
%TO.N,/JY*%
X0Y-8730000D03*
%TO.P,JS1,5,SW-A*%
%TO.N,/JB*%
X3250000Y5750000D03*
X-3250000Y5750000D03*
%TO.P,JS1,6,SW-B*%
%TO.N,/JC*%
X3250000Y10250000D03*
X-3250000Y10250000D03*
%TD*%
D14*
%TO.P,J1,1,Pin_1*%
%TO.N,GND*%
X11335000Y5000000D03*
%TO.P,J1,2,Pin_2*%
%TO.N,VCC*%
X8985000Y3000000D03*
%TO.P,J1,3,Pin_3*%
%TO.N,/JX*%
X11335000Y1000000D03*
%TO.P,J1,4,Pin_4*%
%TO.N,/JY*%
X8985000Y-1000000D03*
%TO.P,J1,5,Pin_5*%
%TO.N,/JB*%
X11335000Y-3000000D03*
%TO.P,J1,6,Pin_6*%
%TO.N,/JC*%
X8985000Y-5000000D03*
%TD*%
D15*
%TO.N,/NS*%
X2540000Y22225000D03*
%TO.N,/NN*%
X5080000Y27305000D03*
%TO.N,/NE*%
X1905000Y24765000D03*
%TO.N,/NW*%
X-2540000Y24765000D03*
%TO.N,/NP*%
X-5080000Y20955000D03*
%TO.N,/COL*%
X-5080000Y27305000D03*
%TO.N,GND*%
X-9525000Y8890000D03*
X6350000Y12065000D03*
X9525000Y-6985000D03*
X-9525000Y-6985000D03*
X8890000Y8255000D03*
%TO.N,/JB*%
X11335000Y-3000000D03*
%TO.N,VCC*%
X2540000Y-6350000D03*
X6667500Y-2222500D03*
X6667500Y0D03*
%TO.N,/JY*%
X2540000Y-1270000D03*
%TO.N,/JX*%
X11335000Y1000000D03*
X5715000Y1905000D03*
%TO.N,/JC*%
X8985000Y-5000000D03*
%TD*%
D16*
%TO.N,/NS*%
X2540000Y22225000D02*
X1100000Y22225000D01*
X1100000Y22225000D02*
X1000000Y22325000D01*
%TO.N,/NN*%
X5080000Y27305000D02*
X5000000Y27225000D01*
X5000000Y27225000D02*
X5000000Y22325000D01*
%TO.N,/NE*%
X1905000Y24765000D02*
X2910000Y24765000D01*
X2910000Y24765000D02*
X3000000Y24675000D01*
%TO.N,/NW*%
X-2540000Y24765000D02*
X-1090000Y24765000D01*
X-1090000Y24765000D02*
X-1000000Y24675000D01*
%TO.N,/NP*%
X-5080000Y20955000D02*
X-3710000Y22325000D01*
X-3710000Y22325000D02*
X-3000000Y22325000D01*
%TO.N,/COL*%
X-5080000Y27305000D02*
X-5000000Y27225000D01*
X-5000000Y27225000D02*
X-5000000Y24675000D01*
%TO.N,/JB*%
X-3250000Y5750000D02*
X3250000Y5750000D01*
%TO.N,VCC*%
X8985000Y2317500D02*
X6667500Y0D01*
X2777500Y-2222500D02*
X6667500Y-2222500D01*
X-1310000Y-2500000D02*
X2500000Y-2500000D01*
X-1310000Y-2500000D02*
X2540000Y-6350000D01*
X8985000Y3000000D02*
X8985000Y2317500D01*
X-8730000Y-2500000D02*
X-1310000Y-2500000D01*
X2500000Y-2500000D02*
X2777500Y-2222500D01*
%TO.N,/JY*%
X2540000Y-1270000D02*
X8715000Y-1270000D01*
X8715000Y-1270000D02*
X8985000Y-1000000D01*
%TO.N,/JX*%
X-8730000Y0D02*
X-6825000Y1905000D01*
X-6825000Y1905000D02*
X5715000Y1905000D01*
%TO.N,/JC*%
X-3250000Y10250000D02*
X3250000Y10250000D01*
%TD*%
%TA.AperFunction,Conductor*%
%TO.N,GND*%
G36*
X-2316379Y29721499D02*
G01*
X-2269886Y29667843D01*
X-2258500Y29615501D01*
X-2258500Y28451866D01*
X-2251745Y28389684D01*
X-2200615Y28253295D01*
X-2113261Y28136739D01*
X-1996705Y28049385D01*
X-1860316Y27998255D01*
X-1798134Y27991500D01*
X1798134Y27991500D01*
X1860316Y27998255D01*
X1996705Y28049385D01*
X2113261Y28136739D01*
X2200615Y28253295D01*
X2251745Y28389684D01*
X2258500Y28451866D01*
X2258500Y29615501D01*
X2278502Y29683622D01*
X2332158Y29730115D01*
X2384500Y29741501D01*
X7365501Y29741501D01*
X7433622Y29721499D01*
X7480115Y29667843D01*
X7491501Y29615501D01*
X7491501Y17384501D01*
X7471499Y17316380D01*
X7417843Y17269887D01*
X7365501Y17258501D01*
X5884500Y17258501D01*
X5816379Y17278503D01*
X5769886Y17332159D01*
X5758500Y17384501D01*
X5758500Y18548134D01*
X5751745Y18610316D01*
X5700615Y18746705D01*
X5613261Y18863261D01*
X5496705Y18950615D01*
X5360316Y19001745D01*
X5298134Y19008500D01*
X1701866Y19008500D01*
X1639684Y19001745D01*
X1503295Y18950615D01*
X1386739Y18863261D01*
X1299385Y18746705D01*
X1248255Y18610316D01*
X1241500Y18548134D01*
X1241500Y16951866D01*
X1248255Y16889684D01*
X1299385Y16753295D01*
X1386739Y16636739D01*
X1503295Y16549385D01*
X1639684Y16498255D01*
X1701866Y16491500D01*
X4371272Y16491500D01*
X4439393Y16471498D01*
X4485886Y16417842D01*
X4496793Y16354519D01*
X4491910Y16298700D01*
X4491699Y16296293D01*
X4490433Y16286376D01*
X4486425Y16262554D01*
X4486272Y16250002D01*
X4487524Y16241263D01*
X4490228Y16222378D01*
X4491501Y16204516D01*
X4491501Y14544616D01*
X4489756Y14523717D01*
X4486424Y14503907D01*
X4486272Y14491355D01*
X4486960Y14486551D01*
X4486961Y14486539D01*
X4489198Y14470929D01*
X4490001Y14463938D01*
X4502674Y14317511D01*
X4547348Y14148833D01*
X4620325Y13990332D01*
X4719435Y13846717D01*
X4723241Y13842844D01*
X4723244Y13842840D01*
X4786463Y13778505D01*
X4841735Y13722255D01*
X4948883Y13645503D01*
X4979156Y13623819D01*
X4983591Y13620642D01*
X5083967Y13572278D01*
X5099318Y13564881D01*
X5108257Y13560122D01*
X5128619Y13548208D01*
X5134201Y13546011D01*
X5134437Y13545877D01*
X5134701Y13545814D01*
X5140300Y13543611D01*
X5150063Y13541423D01*
X5160508Y13539082D01*
X5180651Y13532755D01*
X5823083Y13270002D01*
X5828966Y13267419D01*
X6491927Y12955930D01*
X6497670Y12953050D01*
X7143863Y12608190D01*
X7149452Y12605022D01*
X7777249Y12227658D01*
X7782669Y12224209D01*
X8390404Y11815344D01*
X8395642Y11811623D01*
X8680326Y11598240D01*
X8981764Y11372298D01*
X8986785Y11368331D01*
X9499919Y10941183D01*
X9549756Y10899697D01*
X9554587Y10895462D01*
X10092915Y10398765D01*
X10097524Y10394290D01*
X10609850Y9870782D01*
X10614224Y9866078D01*
X10889641Y9554335D01*
X11099188Y9317149D01*
X11103315Y9312230D01*
X11333501Y9023241D01*
X11559675Y8739288D01*
X11563548Y8734162D01*
X11990114Y8138697D01*
X11993721Y8133381D01*
X12389372Y7516960D01*
X12392703Y7511467D01*
X12756422Y6875678D01*
X12759469Y6870022D01*
X13090305Y6216522D01*
X13093060Y6210718D01*
X13390163Y5541188D01*
X13392618Y5535251D01*
X13655199Y4851471D01*
X13657349Y4845416D01*
X13831211Y4313037D01*
X13884741Y4149122D01*
X13886579Y4142966D01*
X14078179Y3435999D01*
X14079701Y3429758D01*
X14235020Y2713934D01*
X14236222Y2707622D01*
X14354852Y1984805D01*
X14355730Y1978441D01*
X14437361Y1250536D01*
X14437914Y1244138D01*
X14444976Y1127903D01*
X14482336Y513007D01*
X14482562Y506587D01*
X14483036Y457670D01*
X14489628Y-222607D01*
X14489659Y-225845D01*
X14489558Y-232259D01*
X14461062Y-921797D01*
X14459312Y-964135D01*
X14458884Y-970526D01*
X14424147Y-1345811D01*
X14391371Y-1699900D01*
X14390616Y-1706280D01*
X14367788Y-1864500D01*
X14299658Y-2336703D01*
X14286014Y-2431266D01*
X14284936Y-2437585D01*
X14143523Y-3156262D01*
X14142125Y-3162524D01*
X14056376Y-3505077D01*
X13964248Y-3873114D01*
X13962529Y-3879304D01*
X13748677Y-4579859D01*
X13746645Y-4585954D01*
X13497357Y-5274713D01*
X13495034Y-5280654D01*
X13324080Y-5686963D01*
X13210949Y-5955842D01*
X13208307Y-5961698D01*
X12890200Y-6621479D01*
X12887263Y-6627194D01*
X12535933Y-7269913D01*
X12535932Y-7269914D01*
X12532713Y-7275462D01*
X12149063Y-7899463D01*
X12145567Y-7904836D01*
X11730619Y-8508454D01*
X11726846Y-8513654D01*
X11281680Y-9095324D01*
X11277647Y-9100324D01*
X10983065Y-9447077D01*
X10923717Y-9486043D01*
X10887039Y-9491499D01*
X4005938Y-9491499D01*
X3937817Y-9471497D01*
X3891324Y-9417841D01*
X3881220Y-9347567D01*
X3889529Y-9317281D01*
X3937211Y-9202167D01*
X3937212Y-9202165D01*
X3939105Y-9197594D01*
X3979563Y-9029076D01*
X3993380Y-8971524D01*
X3993381Y-8971518D01*
X3994535Y-8966711D01*
X4013165Y-8730000D01*
X3994535Y-8493289D01*
X3939105Y-8262406D01*
X3937211Y-8257833D01*
X3850135Y-8047611D01*
X3850133Y-8047607D01*
X3848240Y-8043037D01*
X3845654Y-8038817D01*
X3726759Y-7844798D01*
X3726755Y-7844792D01*
X3724176Y-7840584D01*
X3569969Y-7660031D01*
X3389416Y-7505824D01*
X3385208Y-7503245D01*
X3385202Y-7503241D01*
X3191183Y-7384346D01*
X3186963Y-7381760D01*
X3182393Y-7379867D01*
X3182389Y-7379865D01*
X3097034Y-7344510D01*
X3000860Y-7304674D01*
X2945580Y-7260127D01*
X2923159Y-7192764D01*
X2940717Y-7123972D01*
X2975018Y-7086330D01*
X3019412Y-7054076D01*
X3112836Y-6986199D01*
X3232591Y-6853197D01*
X3322077Y-6698203D01*
X3377382Y-6527991D01*
X3380899Y-6494535D01*
X3395400Y-6356565D01*
X3396090Y-6350000D01*
X3377382Y-6172009D01*
X3322077Y-6001797D01*
X3232591Y-5846803D01*
X3112836Y-5713801D01*
X3069602Y-5682389D01*
X2973387Y-5612485D01*
X2973386Y-5612484D01*
X2968045Y-5608604D01*
X2962017Y-5605920D01*
X2962015Y-5605919D01*
X2810577Y-5538495D01*
X2810576Y-5538495D01*
X2804546Y-5535810D01*
X2629486Y-5498600D01*
X2626347Y-5498600D01*
X2561878Y-5472079D01*
X2551607Y-5462874D01*
X439328Y-3350595D01*
X405302Y-3288283D01*
X410367Y-3217468D01*
X452914Y-3160632D01*
X519434Y-3135821D01*
X528423Y-3135500D01*
X2420980Y-3135500D01*
X2432214Y-3136030D01*
X2439719Y-3137708D01*
X2508012Y-3135562D01*
X2511969Y-3135500D01*
X2539983Y-3135500D01*
X2543908Y-3135004D01*
X2543909Y-3135004D01*
X2544004Y-3134992D01*
X2555849Y-3134059D01*
X2585670Y-3133122D01*
X2592282Y-3132914D01*
X2592283Y-3132914D01*
X2600205Y-3132665D01*
X2619749Y-3126987D01*
X2639112Y-3122977D01*
X2651440Y-3121420D01*
X2651442Y-3121420D01*
X2659299Y-3120427D01*
X2666663Y-3117511D01*
X2666668Y-3117510D01*
X2700556Y-3104093D01*
X2711785Y-3100248D01*
X2728465Y-3095402D01*
X2754393Y-3087869D01*
X2761220Y-3083831D01*
X2761223Y-3083830D01*
X2771906Y-3077512D01*
X2789664Y-3068812D01*
X2801215Y-3064239D01*
X2801221Y-3064235D01*
X2808588Y-3061319D01*
X2844491Y-3035234D01*
X2854410Y-3028719D01*
X2885768Y-3010174D01*
X2885772Y-3010171D01*
X2892598Y-3006134D01*
X2906982Y-2991750D01*
X2922016Y-2978909D01*
X2932073Y-2971602D01*
X2938487Y-2966942D01*
X2944218Y-2960015D01*
X2966777Y-2932745D01*
X2974767Y-2923965D01*
X3003827Y-2894905D01*
X3066139Y-2860879D01*
X3092922Y-2858000D01*
X6052762Y-2858000D01*
X6120883Y-2878002D01*
X6126823Y-2882064D01*
X6239455Y-2963896D01*
X6245483Y-2966580D01*
X6245485Y-2966581D01*
X6396923Y-3034005D01*
X6402954Y-3036690D01*
X6490484Y-3055295D01*
X6571557Y-3072528D01*
X6571561Y-3072528D01*
X6578014Y-3073900D01*
X6756986Y-3073900D01*
X6763439Y-3072528D01*
X6763443Y-3072528D01*
X6844516Y-3055295D01*
X6932046Y-3036690D01*
X6938077Y-3034005D01*
X7089515Y-2966581D01*
X7089517Y-2966580D01*
X7095545Y-2963896D01*
X7144716Y-2928171D01*
X7234992Y-2862582D01*
X7234994Y-2862580D01*
X7240336Y-2858699D01*
X7269988Y-2825767D01*
X7355672Y-2730605D01*
X7355673Y-2730604D01*
X7360091Y-2725697D01*
X7449577Y-2570703D01*
X7504882Y-2400491D01*
X7523590Y-2222500D01*
X7513844Y-2129771D01*
X7505311Y-2048588D01*
X7518083Y-1978749D01*
X7566585Y-1926903D01*
X7635418Y-1909508D01*
X7674848Y-1917434D01*
X7699684Y-1926745D01*
X7707532Y-1927598D01*
X7707534Y-1927598D01*
X7758469Y-1933131D01*
X7761866Y-1933500D01*
X9789774Y-1933500D01*
X9857895Y-1953502D01*
X9904388Y-2007158D01*
X9914492Y-2077432D01*
X9884998Y-2142012D01*
X9865339Y-2160326D01*
X9796739Y-2211739D01*
X9709385Y-2328295D01*
X9658255Y-2464684D01*
X9651500Y-2526866D01*
X9651500Y-3473134D01*
X9658255Y-3535316D01*
X9709385Y-3671705D01*
X9796739Y-3788261D01*
X9803919Y-3793642D01*
X9803920Y-3793643D01*
X9865339Y-3839674D01*
X9907854Y-3896533D01*
X9912880Y-3967352D01*
X9878820Y-4029645D01*
X9816489Y-4063635D01*
X9789774Y-4066500D01*
X7761866Y-4066500D01*
X7699684Y-4073255D01*
X7692288Y-4076027D01*
X7692282Y-4076029D01*
X7644217Y-4094048D01*
X7573410Y-4099231D01*
X7511041Y-4065310D01*
X7504177Y-4057897D01*
X7398177Y-3933787D01*
X7394969Y-3930031D01*
X7214416Y-3775824D01*
X7210208Y-3773245D01*
X7210202Y-3773241D01*
X7016183Y-3654346D01*
X7011963Y-3651760D01*
X7007393Y-3649867D01*
X7007389Y-3649865D01*
X6797167Y-3562789D01*
X6797165Y-3562788D01*
X6792594Y-3560895D01*
X6686050Y-3535316D01*
X6566524Y-3506620D01*
X6566518Y-3506619D01*
X6561711Y-3505465D01*
X6325000Y-3486835D01*
X6088289Y-3505465D01*
X6083482Y-3506619D01*
X6083476Y-3506620D01*
X5963950Y-3535316D01*
X5857406Y-3560895D01*
X5852835Y-3562788D01*
X5852833Y-3562789D01*
X5642611Y-3649865D01*
X5642607Y-3649867D01*
X5638037Y-3651760D01*
X5633817Y-3654346D01*
X5439798Y-3773241D01*
X5439792Y-3773245D01*
X5435584Y-3775824D01*
X5255031Y-3930031D01*
X5100824Y-4110584D01*
X5098245Y-4114792D01*
X5098241Y-4114798D01*
X5034436Y-4218919D01*
X4976760Y-4313037D01*
X4974867Y-4317607D01*
X4974865Y-4317611D01*
X4970440Y-4328295D01*
X4885895Y-4532406D01*
X4830465Y-4763289D01*
X4811835Y-5000000D01*
X4830465Y-5236711D01*
X4831619Y-5241518D01*
X4831620Y-5241524D01*
X4866640Y-5387391D01*
X4885895Y-5467594D01*
X4887788Y-5472165D01*
X4887789Y-5472167D01*
X4943191Y-5605919D01*
X4976760Y-5686963D01*
X4979346Y-5691183D01*
X5098241Y-5885202D01*
X5098245Y-5885208D01*
X5100824Y-5889416D01*
X5255031Y-6069969D01*
X5435584Y-6224176D01*
X5439792Y-6226755D01*
X5439798Y-6226759D01*
X5630196Y-6343435D01*
X5638037Y-6348240D01*
X5642607Y-6350133D01*
X5642611Y-6350135D01*
X5831588Y-6428411D01*
X5857406Y-6439105D01*
X5937609Y-6458360D01*
X6083476Y-6493380D01*
X6083482Y-6493381D01*
X6088289Y-6494535D01*
X6325000Y-6513165D01*
X6561711Y-6494535D01*
X6566518Y-6493381D01*
X6566524Y-6493380D01*
X6712391Y-6458360D01*
X6792594Y-6439105D01*
X6818412Y-6428411D01*
X7007389Y-6350135D01*
X7007393Y-6350133D01*
X7011963Y-6348240D01*
X7019804Y-6343435D01*
X7210202Y-6226759D01*
X7210208Y-6226755D01*
X7214416Y-6224176D01*
X7394969Y-6069969D01*
X7504177Y-5942103D01*
X7563627Y-5903294D01*
X7634622Y-5902788D01*
X7644217Y-5905952D01*
X7692282Y-5923971D01*
X7692288Y-5923973D01*
X7699684Y-5926745D01*
X7761866Y-5933500D01*
X10208134Y-5933500D01*
X10270316Y-5926745D01*
X10406705Y-5875615D01*
X10523261Y-5788261D01*
X10610615Y-5671705D01*
X10661745Y-5535316D01*
X10668500Y-5473134D01*
X10668500Y-4526866D01*
X10661745Y-4464684D01*
X10610615Y-4328295D01*
X10523261Y-4211739D01*
X10454661Y-4160326D01*
X10412146Y-4103467D01*
X10407120Y-4032648D01*
X10441180Y-3970355D01*
X10503511Y-3936365D01*
X10530226Y-3933500D01*
X12558134Y-3933500D01*
X12620316Y-3926745D01*
X12756705Y-3875615D01*
X12873261Y-3788261D01*
X12960615Y-3671705D01*
X13011745Y-3535316D01*
X13018500Y-3473134D01*
X13018500Y-2526866D01*
X13011745Y-2464684D01*
X12960615Y-2328295D01*
X12873261Y-2211739D01*
X12756705Y-2124385D01*
X12620316Y-2073255D01*
X12558134Y-2066500D01*
X10530226Y-2066500D01*
X10462105Y-2046498D01*
X10415612Y-1992842D01*
X10405508Y-1922568D01*
X10435002Y-1857988D01*
X10454661Y-1839674D01*
X10516080Y-1793643D01*
X10516081Y-1793642D01*
X10523261Y-1788261D01*
X10610615Y-1671705D01*
X10661745Y-1535316D01*
X10668500Y-1473134D01*
X10668500Y-526866D01*
X10661745Y-464684D01*
X10610615Y-328295D01*
X10523261Y-211739D01*
X10454661Y-160326D01*
X10412146Y-103467D01*
X10407120Y-32648D01*
X10441180Y29645D01*
X10503511Y63635D01*
X10530226Y66500D01*
X12558134Y66500D01*
X12620316Y73255D01*
X12756705Y124385D01*
X12873261Y211739D01*
X12960615Y328295D01*
X13011745Y464684D01*
X13018500Y526866D01*
X13018500Y1473134D01*
X13011745Y1535316D01*
X12960615Y1671705D01*
X12873261Y1788261D01*
X12756705Y1875615D01*
X12620316Y1926745D01*
X12558134Y1933500D01*
X10530226Y1933500D01*
X10462105Y1953502D01*
X10415612Y2007158D01*
X10405508Y2077432D01*
X10435002Y2142012D01*
X10454661Y2160326D01*
X10516080Y2206357D01*
X10516081Y2206358D01*
X10523261Y2211739D01*
X10610615Y2328295D01*
X10661745Y2464684D01*
X10668500Y2526866D01*
X10668500Y3473134D01*
X10661745Y3535316D01*
X10610615Y3671705D01*
X10523261Y3788261D01*
X10453994Y3840174D01*
X10411479Y3897033D01*
X10406453Y3967852D01*
X10440513Y4030145D01*
X10502845Y4064135D01*
X10529559Y4067000D01*
X11062885Y4067000D01*
X11078124Y4071475D01*
X11079329Y4072865D01*
X11081000Y4080548D01*
X11081000Y4085116D01*
X11589000Y4085116D01*
X11593475Y4069877D01*
X11594865Y4068672D01*
X11602548Y4067001D01*
X12554669Y4067001D01*
X12561490Y4067371D01*
X12612352Y4072895D01*
X12627604Y4076521D01*
X12748054Y4121676D01*
X12763649Y4130214D01*
X12865724Y4206715D01*
X12878285Y4219276D01*
X12954786Y4321351D01*
X12963324Y4336946D01*
X13008478Y4457394D01*
X13012105Y4472649D01*
X13017631Y4523514D01*
X13018000Y4530328D01*
X13018000Y4727885D01*
X13013525Y4743124D01*
X13012135Y4744329D01*
X13004452Y4746000D01*
X11607115Y4746000D01*
X11591876Y4741525D01*
X11590671Y4740135D01*
X11589000Y4732452D01*
X11589000Y4085116D01*
X11081000Y4085116D01*
X11081000Y4727885D01*
X11076525Y4743124D01*
X11075135Y4744329D01*
X11067452Y4746000D01*
X9670116Y4746000D01*
X9654877Y4741525D01*
X9653672Y4740135D01*
X9652001Y4732452D01*
X9652001Y4530331D01*
X9652371Y4523510D01*
X9657895Y4472648D01*
X9661521Y4457396D01*
X9706676Y4336946D01*
X9715214Y4321351D01*
X9791715Y4219276D01*
X9804276Y4206715D01*
X9866173Y4160326D01*
X9908688Y4103467D01*
X9913714Y4032649D01*
X9879654Y3970355D01*
X9817323Y3936365D01*
X9790608Y3933500D01*
X7761866Y3933500D01*
X7699684Y3926745D01*
X7692289Y3923973D01*
X7685935Y3922462D01*
X7615035Y3926165D01*
X7557392Y3967611D01*
X7531307Y4033642D01*
X7545062Y4103293D01*
X7549358Y4110880D01*
X7670649Y4308807D01*
X7670655Y4308818D01*
X7673240Y4313037D01*
X7683144Y4336946D01*
X7762211Y4527833D01*
X7762212Y4527835D01*
X7764105Y4532406D01*
X7783360Y4612609D01*
X7818380Y4758476D01*
X7818381Y4758482D01*
X7819535Y4763289D01*
X7838165Y5000000D01*
X7819535Y5236711D01*
X7815385Y5254000D01*
X7811036Y5272115D01*
X9652000Y5272115D01*
X9656475Y5256876D01*
X9657865Y5255671D01*
X9665548Y5254000D01*
X11062885Y5254000D01*
X11078124Y5258475D01*
X11079329Y5259865D01*
X11081000Y5267548D01*
X11081000Y5272115D01*
X11589000Y5272115D01*
X11593475Y5256876D01*
X11594865Y5255671D01*
X11602548Y5254000D01*
X12999884Y5254000D01*
X13015123Y5258475D01*
X13016328Y5259865D01*
X13017999Y5267548D01*
X13017999Y5469669D01*
X13017629Y5476490D01*
X13012105Y5527352D01*
X13008479Y5542604D01*
X12963324Y5663054D01*
X12954786Y5678649D01*
X12878285Y5780724D01*
X12865724Y5793285D01*
X12763649Y5869786D01*
X12748054Y5878324D01*
X12627606Y5923478D01*
X12612351Y5927105D01*
X12561486Y5932631D01*
X12554672Y5933000D01*
X11607115Y5933000D01*
X11591876Y5928525D01*
X11590671Y5927135D01*
X11589000Y5919452D01*
X11589000Y5272115D01*
X11081000Y5272115D01*
X11081000Y5914884D01*
X11076525Y5930123D01*
X11075135Y5931328D01*
X11067452Y5932999D01*
X10115331Y5932999D01*
X10108510Y5932629D01*
X10057648Y5927105D01*
X10042396Y5923479D01*
X9921946Y5878324D01*
X9906351Y5869786D01*
X9804276Y5793285D01*
X9791715Y5780724D01*
X9715214Y5678649D01*
X9706676Y5663054D01*
X9661522Y5542606D01*
X9657895Y5527351D01*
X9652369Y5476486D01*
X9652000Y5469672D01*
X9652000Y5272115D01*
X7811036Y5272115D01*
X7765260Y5462782D01*
X7764105Y5467594D01*
X7745178Y5513289D01*
X7675135Y5682389D01*
X7675133Y5682393D01*
X7673240Y5686963D01*
X7634611Y5750000D01*
X7551759Y5885202D01*
X7551755Y5885208D01*
X7549176Y5889416D01*
X7394969Y6069969D01*
X7214416Y6224176D01*
X7210208Y6226755D01*
X7210202Y6226759D01*
X7016183Y6345654D01*
X7011963Y6348240D01*
X7007393Y6350133D01*
X7007389Y6350135D01*
X6797167Y6437211D01*
X6797165Y6437212D01*
X6792594Y6439105D01*
X6712391Y6458360D01*
X6566524Y6493380D01*
X6566518Y6493381D01*
X6561711Y6494535D01*
X6325000Y6513165D01*
X6088289Y6494535D01*
X6083482Y6493381D01*
X6083476Y6493380D01*
X5937609Y6458360D01*
X5857406Y6439105D01*
X5852835Y6437212D01*
X5852833Y6437211D01*
X5642611Y6350135D01*
X5642607Y6350133D01*
X5638037Y6348240D01*
X5633817Y6345654D01*
X5439798Y6226759D01*
X5439792Y6226755D01*
X5435584Y6224176D01*
X5255031Y6069969D01*
X5100824Y5889416D01*
X5098242Y5885202D01*
X4994491Y5715897D01*
X4941843Y5668266D01*
X4871801Y5656659D01*
X4806604Y5684762D01*
X4766950Y5743653D01*
X4761446Y5771846D01*
X4750188Y5914884D01*
X4744535Y5986711D01*
X4725449Y6066213D01*
X4690260Y6212782D01*
X4689105Y6217594D01*
X4614365Y6398034D01*
X4600135Y6432389D01*
X4600133Y6432393D01*
X4598240Y6436963D01*
X4592907Y6445665D01*
X4476759Y6635202D01*
X4476755Y6635208D01*
X4474176Y6639416D01*
X4319969Y6819969D01*
X4139416Y6974176D01*
X4135208Y6976755D01*
X4135202Y6976759D01*
X3941183Y7095654D01*
X3936963Y7098240D01*
X3932393Y7100133D01*
X3932389Y7100135D01*
X3722167Y7187211D01*
X3722165Y7187212D01*
X3717594Y7189105D01*
X3637391Y7208360D01*
X3491524Y7243380D01*
X3491518Y7243381D01*
X3486711Y7244535D01*
X3250000Y7263165D01*
X3013289Y7244535D01*
X3008482Y7243381D01*
X3008476Y7243380D01*
X2862609Y7208360D01*
X2782406Y7189105D01*
X2777835Y7187212D01*
X2777833Y7187211D01*
X2567611Y7100135D01*
X2567607Y7100133D01*
X2563037Y7098240D01*
X2558817Y7095654D01*
X2364798Y6976759D01*
X2364792Y6976755D01*
X2360584Y6974176D01*
X2180031Y6819969D01*
X2025824Y6639416D01*
X1937041Y6494535D01*
X1907093Y6445665D01*
X1854445Y6398034D01*
X1799660Y6385500D01*
X-1799660Y6385500D01*
X-1867781Y6405502D01*
X-1907093Y6445665D01*
X-1937040Y6494535D01*
X-2025824Y6639416D01*
X-2180031Y6819969D01*
X-2360584Y6974176D01*
X-2364792Y6976755D01*
X-2364798Y6976759D01*
X-2558817Y7095654D01*
X-2563037Y7098240D01*
X-2567607Y7100133D01*
X-2567611Y7100135D01*
X-2777833Y7187211D01*
X-2777835Y7187212D01*
X-2782406Y7189105D01*
X-2862609Y7208360D01*
X-3008476Y7243380D01*
X-3008482Y7243381D01*
X-3013289Y7244535D01*
X-3250000Y7263165D01*
X-3486711Y7244535D01*
X-3491518Y7243381D01*
X-3491524Y7243380D01*
X-3637391Y7208360D01*
X-3717594Y7189105D01*
X-3722165Y7187212D01*
X-3722167Y7187211D01*
X-3932389Y7100135D01*
X-3932393Y7100133D01*
X-3936963Y7098240D01*
X-3941183Y7095654D01*
X-4135202Y6976759D01*
X-4135208Y6976755D01*
X-4139416Y6974176D01*
X-4319969Y6819969D01*
X-4474176Y6639416D01*
X-4476755Y6635208D01*
X-4476759Y6635202D01*
X-4592907Y6445665D01*
X-4598240Y6436963D01*
X-4600133Y6432393D01*
X-4600135Y6432389D01*
X-4614365Y6398034D01*
X-4689105Y6217594D01*
X-4690260Y6212782D01*
X-4725448Y6066213D01*
X-4744535Y5986711D01*
X-4750188Y5914884D01*
X-4761446Y5771846D01*
X-4786732Y5705504D01*
X-4843870Y5663365D01*
X-4914720Y5658806D01*
X-4976788Y5693275D01*
X-4994491Y5715897D01*
X-5098242Y5885202D01*
X-5100824Y5889416D01*
X-5255031Y6069969D01*
X-5435584Y6224176D01*
X-5439792Y6226755D01*
X-5439798Y6226759D01*
X-5633817Y6345654D01*
X-5638037Y6348240D01*
X-5642607Y6350133D01*
X-5642611Y6350135D01*
X-5852833Y6437211D01*
X-5852835Y6437212D01*
X-5857406Y6439105D01*
X-5937609Y6458360D01*
X-6083476Y6493380D01*
X-6083482Y6493381D01*
X-6088289Y6494535D01*
X-6325000Y6513165D01*
X-6561711Y6494535D01*
X-6566518Y6493381D01*
X-6566524Y6493380D01*
X-6712391Y6458360D01*
X-6792594Y6439105D01*
X-6797165Y6437212D01*
X-6797167Y6437211D01*
X-7007389Y6350135D01*
X-7007393Y6350133D01*
X-7011963Y6348240D01*
X-7016183Y6345654D01*
X-7210202Y6226759D01*
X-7210208Y6226755D01*
X-7214416Y6224176D01*
X-7394969Y6069969D01*
X-7549176Y5889416D01*
X-7551755Y5885208D01*
X-7551759Y5885202D01*
X-7634611Y5750000D01*
X-7673240Y5686963D01*
X-7675133Y5682393D01*
X-7675135Y5682389D01*
X-7745178Y5513289D01*
X-7764105Y5467594D01*
X-7765260Y5462782D01*
X-7815384Y5254000D01*
X-7819535Y5236711D01*
X-7838165Y5000000D01*
X-7819535Y4763289D01*
X-7818381Y4758482D01*
X-7818380Y4758476D01*
X-7783360Y4612609D01*
X-7764105Y4532406D01*
X-7762212Y4527835D01*
X-7762211Y4527833D01*
X-7683143Y4336946D01*
X-7673240Y4313037D01*
X-7670654Y4308817D01*
X-7551759Y4114798D01*
X-7551755Y4114792D01*
X-7549176Y4110584D01*
X-7394969Y3930031D01*
X-7214416Y3775824D01*
X-7210208Y3773245D01*
X-7210202Y3773241D01*
X-7056237Y3678891D01*
X-7011963Y3651760D01*
X-7007393Y3649867D01*
X-7007389Y3649865D01*
X-6893538Y3602707D01*
X-6792594Y3560895D01*
X-6716894Y3542721D01*
X-6566524Y3506620D01*
X-6566518Y3506619D01*
X-6561711Y3505465D01*
X-6325000Y3486835D01*
X-6088289Y3505465D01*
X-6083482Y3506619D01*
X-6083476Y3506620D01*
X-5933106Y3542721D01*
X-5857406Y3560895D01*
X-5756462Y3602707D01*
X-5642611Y3649865D01*
X-5642607Y3649867D01*
X-5638037Y3651760D01*
X-5593763Y3678891D01*
X-5439798Y3773241D01*
X-5439792Y3773245D01*
X-5435584Y3775824D01*
X-5255031Y3930031D01*
X-5100824Y4110584D01*
X-5098245Y4114792D01*
X-5098241Y4114798D01*
X-4979346Y4308817D01*
X-4976760Y4313037D01*
X-4966856Y4336946D01*
X-4887789Y4527833D01*
X-4887788Y4527835D01*
X-4885895Y4532406D01*
X-4866640Y4612609D01*
X-4831620Y4758476D01*
X-4831619Y4758482D01*
X-4830465Y4763289D01*
X-4813554Y4978154D01*
X-4788268Y5044496D01*
X-4731130Y5086635D01*
X-4660280Y5091194D01*
X-4598212Y5056725D01*
X-4580510Y5034104D01*
X-4474176Y4860584D01*
X-4319969Y4680031D01*
X-4139416Y4525824D01*
X-4135208Y4523245D01*
X-4135202Y4523241D01*
X-4027749Y4457394D01*
X-3936963Y4401760D01*
X-3932393Y4399867D01*
X-3932389Y4399865D01*
X-3722167Y4312789D01*
X-3717594Y4310895D01*
X-3637391Y4291640D01*
X-3491524Y4256620D01*
X-3491518Y4256619D01*
X-3486711Y4255465D01*
X-3250000Y4236835D01*
X-3013289Y4255465D01*
X-3008482Y4256619D01*
X-3008476Y4256620D01*
X-2862609Y4291640D01*
X-2782406Y4310895D01*
X-2777833Y4312789D01*
X-2567611Y4399865D01*
X-2567607Y4399867D01*
X-2563037Y4401760D01*
X-2472251Y4457394D01*
X-2364798Y4523241D01*
X-2364792Y4523245D01*
X-2360584Y4525824D01*
X-2180031Y4680031D01*
X-2025824Y4860584D01*
X-1907092Y5054336D01*
X-1854445Y5101966D01*
X-1799660Y5114500D01*
X1799660Y5114500D01*
X1867781Y5094498D01*
X1907092Y5054336D01*
X2025824Y4860584D01*
X2180031Y4680031D01*
X2360584Y4525824D01*
X2364792Y4523245D01*
X2364798Y4523241D01*
X2472251Y4457394D01*
X2563037Y4401760D01*
X2567607Y4399867D01*
X2567611Y4399865D01*
X2777833Y4312789D01*
X2782406Y4310895D01*
X2862609Y4291640D01*
X3008476Y4256620D01*
X3008482Y4256619D01*
X3013289Y4255465D01*
X3250000Y4236835D01*
X3486711Y4255465D01*
X3491518Y4256619D01*
X3491524Y4256620D01*
X3637391Y4291640D01*
X3717594Y4310895D01*
X3722167Y4312789D01*
X3932389Y4399865D01*
X3932393Y4399867D01*
X3936963Y4401760D01*
X4027749Y4457394D01*
X4135202Y4523241D01*
X4135208Y4523245D01*
X4139416Y4525824D01*
X4319969Y4680031D01*
X4474176Y4860584D01*
X4580509Y5034103D01*
X4633157Y5081734D01*
X4703199Y5093341D01*
X4768396Y5065238D01*
X4808050Y5006347D01*
X4813554Y4978154D01*
X4830465Y4763289D01*
X4831619Y4758482D01*
X4831620Y4758476D01*
X4866640Y4612609D01*
X4885895Y4532406D01*
X4887788Y4527835D01*
X4887789Y4527833D01*
X4966857Y4336946D01*
X4976760Y4313037D01*
X4979346Y4308817D01*
X5098241Y4114798D01*
X5098245Y4114792D01*
X5100824Y4110584D01*
X5255031Y3930031D01*
X5435584Y3775824D01*
X5439792Y3773245D01*
X5439798Y3773241D01*
X5593763Y3678891D01*
X5638037Y3651760D01*
X5642607Y3649867D01*
X5642611Y3649865D01*
X5756462Y3602707D01*
X5857406Y3560895D01*
X5933106Y3542721D01*
X6083476Y3506620D01*
X6083482Y3506619D01*
X6088289Y3505465D01*
X6325000Y3486835D01*
X6561711Y3505465D01*
X6566518Y3506619D01*
X6566524Y3506620D01*
X6716894Y3542721D01*
X6792594Y3560895D01*
X6893538Y3602707D01*
X7007389Y3649865D01*
X7007393Y3649867D01*
X7011963Y3651760D01*
X7016183Y3654346D01*
X7016193Y3654351D01*
X7140842Y3730737D01*
X7209375Y3749276D01*
X7277052Y3727820D01*
X7322385Y3673181D01*
X7330982Y3602707D01*
X7324659Y3579077D01*
X7311030Y3542721D01*
X7311029Y3542715D01*
X7308255Y3535316D01*
X7301500Y3473134D01*
X7301500Y2526866D01*
X7308255Y2464684D01*
X7359385Y2328295D01*
X7446739Y2211739D01*
X7563295Y2124385D01*
X7571704Y2121233D01*
X7571705Y2121232D01*
X7619965Y2103140D01*
X7676730Y2060499D01*
X7701430Y1993937D01*
X7686223Y1924588D01*
X7664831Y1896064D01*
X6655893Y887126D01*
X6593581Y853100D01*
X6583006Y851400D01*
X6578014Y851400D01*
X6402954Y814190D01*
X6396924Y811505D01*
X6396923Y811505D01*
X6245485Y744081D01*
X6245483Y744080D01*
X6239455Y741396D01*
X6234114Y737516D01*
X6234113Y737515D01*
X6116085Y651762D01*
X6094664Y636199D01*
X6090243Y631289D01*
X6090242Y631288D01*
X5996221Y526866D01*
X5974909Y503197D01*
X5885423Y348203D01*
X5883382Y341921D01*
X5883381Y341919D01*
X5876620Y321109D01*
X5838339Y203292D01*
X5798267Y144689D01*
X5732871Y117051D01*
X5662914Y129158D01*
X5610607Y177163D01*
X5594422Y220346D01*
X5594022Y222617D01*
X5593543Y228087D01*
X5589927Y241584D01*
X5535707Y443933D01*
X5535706Y443935D01*
X5534284Y449243D01*
X5530534Y457285D01*
X5439849Y651762D01*
X5439846Y651767D01*
X5437523Y656749D01*
X5364098Y761611D01*
X5309357Y839789D01*
X5309355Y839792D01*
X5306198Y844300D01*
X5226797Y923701D01*
X5192771Y986013D01*
X5197836Y1056828D01*
X5240383Y1113664D01*
X5306903Y1138475D01*
X5367140Y1127903D01*
X5444419Y1093496D01*
X5444427Y1093493D01*
X5450454Y1090810D01*
X5533411Y1073177D01*
X5619057Y1054972D01*
X5619061Y1054972D01*
X5625514Y1053600D01*
X5804486Y1053600D01*
X5810939Y1054972D01*
X5810943Y1054972D01*
X5896589Y1073177D01*
X5979546Y1090810D01*
X5990628Y1095744D01*
X6137015Y1160919D01*
X6137017Y1160920D01*
X6143045Y1163604D01*
X6226415Y1224176D01*
X6282492Y1264918D01*
X6282494Y1264920D01*
X6287836Y1268801D01*
X6292258Y1273712D01*
X6403172Y1396895D01*
X6403173Y1396896D01*
X6407591Y1401803D01*
X6497077Y1556797D01*
X6552382Y1727009D01*
X6571090Y1905000D01*
X6570400Y1911565D01*
X6553072Y2076427D01*
X6553072Y2076428D01*
X6552382Y2082991D01*
X6497077Y2253203D01*
X6407591Y2408197D01*
X6327609Y2497027D01*
X6292258Y2536288D01*
X6292257Y2536289D01*
X6287836Y2541199D01*
X6143045Y2646396D01*
X6137017Y2649080D01*
X6137015Y2649081D01*
X5985577Y2716505D01*
X5985576Y2716505D01*
X5979546Y2719190D01*
X5892016Y2737795D01*
X5810943Y2755028D01*
X5810939Y2755028D01*
X5804486Y2756400D01*
X5625514Y2756400D01*
X5619061Y2755028D01*
X5619057Y2755028D01*
X5537984Y2737795D01*
X5450454Y2719190D01*
X5444424Y2716505D01*
X5444423Y2716505D01*
X5292985Y2649081D01*
X5292983Y2649080D01*
X5286955Y2646396D01*
X5281614Y2642516D01*
X5281613Y2642515D01*
X5174323Y2564564D01*
X5107455Y2540705D01*
X5100262Y2540500D01*
X-6745968Y2540500D01*
X-6757207Y2541030D01*
X-6764719Y2542709D01*
X-6772644Y2542460D01*
X-6772645Y2542460D01*
X-6833030Y2540562D01*
X-6836988Y2540500D01*
X-6864983Y2540500D01*
X-6868917Y2540003D01*
X-6868919Y2540003D01*
X-6869006Y2539992D01*
X-6880840Y2539060D01*
X-6925205Y2537665D01*
X-6932818Y2535453D01*
X-6932819Y2535453D01*
X-6944748Y2531987D01*
X-6964112Y2527977D01*
X-6976440Y2526420D01*
X-6976442Y2526420D01*
X-6984299Y2525427D01*
X-6991663Y2522511D01*
X-6991668Y2522510D01*
X-7025556Y2509093D01*
X-7036785Y2505248D01*
X-7065081Y2497027D01*
X-7136077Y2497229D01*
X-7195694Y2535783D01*
X-7225003Y2600448D01*
X-7225847Y2608138D01*
X-7235572Y2731699D01*
X-7237115Y2741446D01*
X-7290217Y2962627D01*
X-7293266Y2972012D01*
X-7380313Y3182163D01*
X-7384795Y3190958D01*
X-7487432Y3358445D01*
X-7497890Y3367907D01*
X-7506666Y3364124D01*
X-9591080Y1279710D01*
X-9612026Y1241352D01*
X-9640782Y1205928D01*
X-9772424Y1093495D01*
X-9799969Y1069969D01*
X-9803177Y1066213D01*
X-9812778Y1054972D01*
X-9954176Y889416D01*
X-9956755Y885208D01*
X-9956759Y885202D01*
X-10043238Y744081D01*
X-10078240Y686963D01*
X-10080133Y682393D01*
X-10080135Y682389D01*
X-10167056Y472540D01*
X-10169105Y467594D01*
X-10174785Y443933D01*
X-10223365Y241584D01*
X-10224535Y236711D01*
X-10243165Y0D01*
X-10224535Y-236711D01*
X-10169105Y-467594D01*
X-10167212Y-472165D01*
X-10167211Y-472167D01*
X-10100260Y-633801D01*
X-10078240Y-686963D01*
X-10075654Y-691183D01*
X-9956759Y-885202D01*
X-9956755Y-885208D01*
X-9954176Y-889416D01*
X-9799969Y-1069969D01*
X-9796213Y-1073177D01*
X-9796208Y-1073182D01*
X-9701361Y-1154189D01*
X-9662551Y-1213639D01*
X-9662045Y-1284634D01*
X-9701361Y-1345811D01*
X-9796208Y-1426818D01*
X-9796213Y-1426823D01*
X-9799969Y-1430031D01*
X-9954176Y-1610584D01*
X-9956755Y-1614792D01*
X-9956759Y-1614798D01*
X-10012819Y-1706280D01*
X-10078240Y-1813037D01*
X-10080133Y-1817607D01*
X-10080135Y-1817611D01*
X-10128137Y-1933500D01*
X-10169105Y-2032406D01*
X-10172488Y-2046498D01*
X-10214742Y-2222500D01*
X-10224535Y-2263289D01*
X-10243165Y-2500000D01*
X-10224535Y-2736711D01*
X-10169105Y-2967594D01*
X-10167212Y-2972165D01*
X-10167211Y-2972167D01*
X-10088359Y-3162533D01*
X-10078240Y-3186963D01*
X-10075654Y-3191183D01*
X-9956759Y-3385202D01*
X-9956755Y-3385208D01*
X-9954176Y-3389416D01*
X-9799969Y-3569969D01*
X-9619416Y-3724176D01*
X-9615208Y-3726755D01*
X-9615202Y-3726759D01*
X-9506057Y-3793643D01*
X-9416963Y-3848240D01*
X-9412393Y-3850133D01*
X-9412389Y-3850135D01*
X-9300373Y-3896533D01*
X-9197594Y-3939105D01*
X-9117391Y-3958360D01*
X-8971524Y-3993380D01*
X-8971518Y-3993381D01*
X-8966711Y-3994535D01*
X-8730000Y-4013165D01*
X-8493289Y-3994535D01*
X-8488482Y-3993381D01*
X-8488476Y-3993380D01*
X-8342609Y-3958360D01*
X-8262406Y-3939105D01*
X-8159627Y-3896533D01*
X-8047611Y-3850135D01*
X-8047607Y-3850133D01*
X-8043037Y-3848240D01*
X-7953943Y-3793643D01*
X-7844798Y-3726759D01*
X-7844792Y-3726755D01*
X-7840584Y-3724176D01*
X-7660031Y-3569969D01*
X-7505824Y-3389416D01*
X-7387092Y-3195664D01*
X-7334445Y-3148034D01*
X-7279660Y-3135500D01*
X-1625422Y-3135500D01*
X-1557301Y-3155502D01*
X-1536327Y-3172405D01*
X1657367Y-6366099D01*
X1691393Y-6428411D01*
X1693582Y-6442023D01*
X1702618Y-6527991D01*
X1757923Y-6698203D01*
X1847409Y-6853197D01*
X1967164Y-6986199D01*
X2077470Y-7066341D01*
X2120823Y-7122562D01*
X2126898Y-7193298D01*
X2093767Y-7256090D01*
X2041219Y-7286023D01*
X2041929Y-7288209D01*
X2037217Y-7289740D01*
X2032406Y-7290895D01*
X2027835Y-7292788D01*
X2027833Y-7292789D01*
X1817611Y-7379865D01*
X1817607Y-7379867D01*
X1813037Y-7381760D01*
X1808817Y-7384346D01*
X1614798Y-7503241D01*
X1614792Y-7503245D01*
X1610584Y-7505824D01*
X1430031Y-7660031D01*
X1426823Y-7663787D01*
X1426818Y-7663792D01*
X1345811Y-7758639D01*
X1286361Y-7797449D01*
X1215366Y-7797955D01*
X1154189Y-7758639D01*
X1073182Y-7663792D01*
X1073177Y-7663787D01*
X1069969Y-7660031D01*
X889416Y-7505824D01*
X885208Y-7503245D01*
X885202Y-7503241D01*
X691183Y-7384346D01*
X686963Y-7381760D01*
X682393Y-7379867D01*
X682389Y-7379865D01*
X472167Y-7292789D01*
X472165Y-7292788D01*
X467594Y-7290895D01*
X339436Y-7260127D01*
X241524Y-7236620D01*
X241518Y-7236619D01*
X236711Y-7235465D01*
X0Y-7216835D01*
X-236711Y-7235465D01*
X-241518Y-7236619D01*
X-241524Y-7236620D01*
X-339436Y-7260127D01*
X-467594Y-7290895D01*
X-472165Y-7292788D01*
X-472167Y-7292789D01*
X-682389Y-7379865D01*
X-682393Y-7379867D01*
X-686963Y-7381760D01*
X-691183Y-7384346D01*
X-885202Y-7503241D01*
X-885208Y-7503245D01*
X-889416Y-7505824D01*
X-1069969Y-7660031D01*
X-1073177Y-7663787D01*
X-1208753Y-7822526D01*
X-1254686Y-7856402D01*
X-1276668Y-7865878D01*
X-2410905Y-9000115D01*
X-2473217Y-9034141D01*
X-2544032Y-9029076D01*
X-2589095Y-9000115D01*
X-3720290Y-7868920D01*
X-3732670Y-7862160D01*
X-3740320Y-7867887D01*
X-3845205Y-8039042D01*
X-3849687Y-8047837D01*
X-3936734Y-8257988D01*
X-3939783Y-8267373D01*
X-3992885Y-8488554D01*
X-3994428Y-8498301D01*
X-4012275Y-8725070D01*
X-4012275Y-8734930D01*
X-3994428Y-8961699D01*
X-3992885Y-8971446D01*
X-3939783Y-9192627D01*
X-3936734Y-9202012D01*
X-3888988Y-9317281D01*
X-3881399Y-9387871D01*
X-3913178Y-9451358D01*
X-3974237Y-9487585D01*
X-4005397Y-9491499D01*
X-10887036Y-9491499D01*
X-10955157Y-9471497D01*
X-10983062Y-9447077D01*
X-11277645Y-9100323D01*
X-11281678Y-9095323D01*
X-11726853Y-8513640D01*
X-11730626Y-8508440D01*
X-12145556Y-7904848D01*
X-12149060Y-7899463D01*
X-12395957Y-7497890D01*
X-3367907Y-7497890D01*
X-3364124Y-7506666D01*
X-2512812Y-8357978D01*
X-2498868Y-8365592D01*
X-2497035Y-8365461D01*
X-2490420Y-8361210D01*
X-1638920Y-7509710D01*
X-1632160Y-7497330D01*
X-1637887Y-7489680D01*
X-1809042Y-7384795D01*
X-1817837Y-7380313D01*
X-2027988Y-7293266D01*
X-2037373Y-7290217D01*
X-2258554Y-7237115D01*
X-2268301Y-7235572D01*
X-2495070Y-7217725D01*
X-2504930Y-7217725D01*
X-2731699Y-7235572D01*
X-2741446Y-7237115D01*
X-2962627Y-7290217D01*
X-2972012Y-7293266D01*
X-3182163Y-7380313D01*
X-3190958Y-7384795D01*
X-3358445Y-7487432D01*
X-3367907Y-7497890D01*
X-12395957Y-7497890D01*
X-12396301Y-7497330D01*
X-12532711Y-7275461D01*
X-12535930Y-7269913D01*
X-12564457Y-7217725D01*
X-12887260Y-6627194D01*
X-12890193Y-6621487D01*
X-12998114Y-6397650D01*
X-13208314Y-5961681D01*
X-13210951Y-5955834D01*
X-13224357Y-5923971D01*
X-13495032Y-5280653D01*
X-13497355Y-5274712D01*
X-13596784Y-5000000D01*
X-7838165Y-5000000D01*
X-7819535Y-5236711D01*
X-7818381Y-5241518D01*
X-7818380Y-5241524D01*
X-7783360Y-5387391D01*
X-7764105Y-5467594D01*
X-7762212Y-5472165D01*
X-7762211Y-5472167D01*
X-7706809Y-5605919D01*
X-7673240Y-5686963D01*
X-7670654Y-5691183D01*
X-7551759Y-5885202D01*
X-7551755Y-5885208D01*
X-7549176Y-5889416D01*
X-7394969Y-6069969D01*
X-7214416Y-6224176D01*
X-7210208Y-6226755D01*
X-7210202Y-6226759D01*
X-7019804Y-6343435D01*
X-7011963Y-6348240D01*
X-7007393Y-6350133D01*
X-7007389Y-6350135D01*
X-6818412Y-6428411D01*
X-6792594Y-6439105D01*
X-6712391Y-6458360D01*
X-6566524Y-6493380D01*
X-6566518Y-6493381D01*
X-6561711Y-6494535D01*
X-6325000Y-6513165D01*
X-6088289Y-6494535D01*
X-6083482Y-6493381D01*
X-6083476Y-6493380D01*
X-5937609Y-6458360D01*
X-5857406Y-6439105D01*
X-5831588Y-6428411D01*
X-5642611Y-6350135D01*
X-5642607Y-6350133D01*
X-5638037Y-6348240D01*
X-5630196Y-6343435D01*
X-5439798Y-6226759D01*
X-5439792Y-6226755D01*
X-5435584Y-6224176D01*
X-5255031Y-6069969D01*
X-5100824Y-5889416D01*
X-5098245Y-5885208D01*
X-5098241Y-5885202D01*
X-4979346Y-5691183D01*
X-4976760Y-5686963D01*
X-4943190Y-5605919D01*
X-4887789Y-5472167D01*
X-4887788Y-5472165D01*
X-4885895Y-5467594D01*
X-4866640Y-5387391D01*
X-4831620Y-5241524D01*
X-4831619Y-5241518D01*
X-4830465Y-5236711D01*
X-4811835Y-5000000D01*
X-4830465Y-4763289D01*
X-4885895Y-4532406D01*
X-4970440Y-4328295D01*
X-4974865Y-4317611D01*
X-4974867Y-4317607D01*
X-4976760Y-4313037D01*
X-5034436Y-4218919D01*
X-5098241Y-4114798D01*
X-5098245Y-4114792D01*
X-5100824Y-4110584D01*
X-5255031Y-3930031D01*
X-5435584Y-3775824D01*
X-5439792Y-3773245D01*
X-5439798Y-3773241D01*
X-5633817Y-3654346D01*
X-5638037Y-3651760D01*
X-5642607Y-3649867D01*
X-5642611Y-3649865D01*
X-5852833Y-3562789D01*
X-5852835Y-3562788D01*
X-5857406Y-3560895D01*
X-5963950Y-3535316D01*
X-6083476Y-3506620D01*
X-6083482Y-3506619D01*
X-6088289Y-3505465D01*
X-6325000Y-3486835D01*
X-6561711Y-3505465D01*
X-6566518Y-3506619D01*
X-6566524Y-3506620D01*
X-6686050Y-3535316D01*
X-6792594Y-3560895D01*
X-6797165Y-3562788D01*
X-6797167Y-3562789D01*
X-7007389Y-3649865D01*
X-7007393Y-3649867D01*
X-7011963Y-3651760D01*
X-7016183Y-3654346D01*
X-7210202Y-3773241D01*
X-7210208Y-3773245D01*
X-7214416Y-3775824D01*
X-7394969Y-3930031D01*
X-7549176Y-4110584D01*
X-7551755Y-4114792D01*
X-7551759Y-4114798D01*
X-7615564Y-4218919D01*
X-7673240Y-4313037D01*
X-7675133Y-4317607D01*
X-7675135Y-4317611D01*
X-7679560Y-4328295D01*
X-7764105Y-4532406D01*
X-7819535Y-4763289D01*
X-7838165Y-5000000D01*
X-13596784Y-5000000D01*
X-13746643Y-4585954D01*
X-13748675Y-4579859D01*
X-13962527Y-3879304D01*
X-13964246Y-3873114D01*
X-14056374Y-3505077D01*
X-14142123Y-3162524D01*
X-14143521Y-3156262D01*
X-14284934Y-2437584D01*
X-14286012Y-2431265D01*
X-14299655Y-2336703D01*
X-14375820Y-1808817D01*
X-14390614Y-1706280D01*
X-14391369Y-1699900D01*
X-14424145Y-1345811D01*
X-14458882Y-970526D01*
X-14459310Y-964135D01*
X-14461059Y-921797D01*
X-14489556Y-232258D01*
X-14489657Y-225844D01*
X-14489625Y-222607D01*
X-14483034Y457670D01*
X-14482560Y506587D01*
X-14482334Y513007D01*
X-14437912Y1244136D01*
X-14437359Y1250537D01*
X-14435657Y1265709D01*
X-14393509Y1641555D01*
X-14355729Y1978441D01*
X-14354851Y1984805D01*
X-14271105Y2495070D01*
X-10242275Y2495070D01*
X-10224428Y2268301D01*
X-10222885Y2258554D01*
X-10169783Y2037373D01*
X-10166734Y2027988D01*
X-10079687Y1817837D01*
X-10075205Y1809042D01*
X-9972568Y1641555D01*
X-9962110Y1632093D01*
X-9953334Y1635876D01*
X-9102022Y2487188D01*
X-9094408Y2501132D01*
X-9094539Y2502965D01*
X-9098790Y2509580D01*
X-9950290Y3361080D01*
X-9962670Y3367840D01*
X-9970320Y3362113D01*
X-10075205Y3190958D01*
X-10079687Y3182163D01*
X-10166734Y2972012D01*
X-10169783Y2962627D01*
X-10222885Y2741446D01*
X-10224428Y2731699D01*
X-10242275Y2504930D01*
X-10242275Y2495070D01*
X-14271105Y2495070D01*
X-14236220Y2707623D01*
X-14235018Y2713935D01*
X-14079700Y3429758D01*
X-14078178Y3435999D01*
X-13997926Y3732110D01*
X-9597907Y3732110D01*
X-9594124Y3723334D01*
X-8742812Y2872022D01*
X-8728868Y2864408D01*
X-8727035Y2864539D01*
X-8720420Y2868790D01*
X-7868920Y3720290D01*
X-7862160Y3732670D01*
X-7867887Y3740320D01*
X-8039042Y3845205D01*
X-8047837Y3849687D01*
X-8257988Y3936734D01*
X-8267373Y3939783D01*
X-8488554Y3992885D01*
X-8498301Y3994428D01*
X-8725070Y4012275D01*
X-8734930Y4012275D01*
X-8961699Y3994428D01*
X-8971446Y3992885D01*
X-9192627Y3939783D01*
X-9202012Y3936734D01*
X-9412163Y3849687D01*
X-9420958Y3845205D01*
X-9588445Y3742568D01*
X-9597907Y3732110D01*
X-13997926Y3732110D01*
X-13886577Y4142966D01*
X-13884739Y4149122D01*
X-13831208Y4313037D01*
X-13657347Y4845416D01*
X-13655197Y4851471D01*
X-13392616Y5535251D01*
X-13390161Y5541188D01*
X-13093058Y6210718D01*
X-13090303Y6216522D01*
X-12759467Y6870022D01*
X-12756420Y6875678D01*
X-12392701Y7511468D01*
X-12389370Y7516961D01*
X-11993719Y8133381D01*
X-11990112Y8138697D01*
X-11563546Y8734162D01*
X-11559673Y8739288D01*
X-11333499Y9023241D01*
X-11103313Y9312230D01*
X-11099186Y9317149D01*
X-10889638Y9554335D01*
X-10614222Y9866078D01*
X-10609848Y9870782D01*
X-10238730Y10250000D01*
X-4763165Y10250000D01*
X-4744535Y10013289D01*
X-4689105Y9782406D01*
X-4687212Y9777835D01*
X-4687211Y9777833D01*
X-4611271Y9594498D01*
X-4598240Y9563037D01*
X-4595654Y9558817D01*
X-4476759Y9364798D01*
X-4476755Y9364792D01*
X-4474176Y9360584D01*
X-4319969Y9180031D01*
X-4139416Y9025824D01*
X-4135208Y9023245D01*
X-4135202Y9023241D01*
X-3950622Y8910130D01*
X-3936963Y8901760D01*
X-3932393Y8899867D01*
X-3932389Y8899865D01*
X-3722167Y8812789D01*
X-3717594Y8810895D01*
X-3637391Y8791640D01*
X-3491524Y8756620D01*
X-3491518Y8756619D01*
X-3486711Y8755465D01*
X-3250000Y8736835D01*
X-3013289Y8755465D01*
X-3008482Y8756619D01*
X-3008476Y8756620D01*
X-2862609Y8791640D01*
X-2782406Y8810895D01*
X-2777833Y8812789D01*
X-2567611Y8899865D01*
X-2567607Y8899867D01*
X-2563037Y8901760D01*
X-2549378Y8910130D01*
X-2364798Y9023241D01*
X-2364792Y9023245D01*
X-2360584Y9025824D01*
X-2180031Y9180031D01*
X-2025824Y9360584D01*
X-1907092Y9554336D01*
X-1854445Y9601966D01*
X-1799660Y9614500D01*
X1799660Y9614500D01*
X1867781Y9594498D01*
X1907092Y9554336D01*
X2025824Y9360584D01*
X2180031Y9180031D01*
X2360584Y9025824D01*
X2364792Y9023245D01*
X2364798Y9023241D01*
X2549378Y8910130D01*
X2563037Y8901760D01*
X2567607Y8899867D01*
X2567611Y8899865D01*
X2777833Y8812789D01*
X2782406Y8810895D01*
X2862609Y8791640D01*
X3008476Y8756620D01*
X3008482Y8756619D01*
X3013289Y8755465D01*
X3250000Y8736835D01*
X3486711Y8755465D01*
X3491518Y8756619D01*
X3491524Y8756620D01*
X3637391Y8791640D01*
X3717594Y8810895D01*
X3722167Y8812789D01*
X3932389Y8899865D01*
X3932393Y8899867D01*
X3936963Y8901760D01*
X3950622Y8910130D01*
X4135202Y9023241D01*
X4135208Y9023245D01*
X4139416Y9025824D01*
X4319969Y9180031D01*
X4474176Y9360584D01*
X4476755Y9364792D01*
X4476759Y9364798D01*
X4595654Y9558817D01*
X4598240Y9563037D01*
X4611272Y9594498D01*
X4687211Y9777833D01*
X4687212Y9777835D01*
X4689105Y9782406D01*
X4744535Y10013289D01*
X4763165Y10250000D01*
X4744535Y10486711D01*
X4689105Y10717594D01*
X4619557Y10885500D01*
X4600135Y10932389D01*
X4600133Y10932393D01*
X4598240Y10936963D01*
X4592907Y10945665D01*
X4476759Y11135202D01*
X4476755Y11135208D01*
X4474176Y11139416D01*
X4319969Y11319969D01*
X4139416Y11474176D01*
X4135208Y11476755D01*
X4135202Y11476759D01*
X3941183Y11595654D01*
X3936963Y11598240D01*
X3932393Y11600133D01*
X3932389Y11600135D01*
X3722167Y11687211D01*
X3722165Y11687212D01*
X3717594Y11689105D01*
X3637391Y11708360D01*
X3491524Y11743380D01*
X3491518Y11743381D01*
X3486711Y11744535D01*
X3250000Y11763165D01*
X3013289Y11744535D01*
X3008482Y11743381D01*
X3008476Y11743380D01*
X2862609Y11708360D01*
X2782406Y11689105D01*
X2777835Y11687212D01*
X2777833Y11687211D01*
X2567611Y11600135D01*
X2567607Y11600133D01*
X2563037Y11598240D01*
X2558817Y11595654D01*
X2364798Y11476759D01*
X2364792Y11476755D01*
X2360584Y11474176D01*
X2180031Y11319969D01*
X2025824Y11139416D01*
X2023242Y11135202D01*
X1907093Y10945665D01*
X1854445Y10898034D01*
X1799660Y10885500D01*
X-1799660Y10885500D01*
X-1867781Y10905502D01*
X-1907093Y10945665D01*
X-2023242Y11135202D01*
X-2025824Y11139416D01*
X-2180031Y11319969D01*
X-2360584Y11474176D01*
X-2364792Y11476755D01*
X-2364798Y11476759D01*
X-2558817Y11595654D01*
X-2563037Y11598240D01*
X-2567607Y11600133D01*
X-2567611Y11600135D01*
X-2777833Y11687211D01*
X-2777835Y11687212D01*
X-2782406Y11689105D01*
X-2862609Y11708360D01*
X-3008476Y11743380D01*
X-3008482Y11743381D01*
X-3013289Y11744535D01*
X-3250000Y11763165D01*
X-3486711Y11744535D01*
X-3491518Y11743381D01*
X-3491524Y11743380D01*
X-3637391Y11708360D01*
X-3717594Y11689105D01*
X-3722165Y11687212D01*
X-3722167Y11687211D01*
X-3932389Y11600135D01*
X-3932393Y11600133D01*
X-3936963Y11598240D01*
X-3941183Y11595654D01*
X-4135202Y11476759D01*
X-4135208Y11476755D01*
X-4139416Y11474176D01*
X-4319969Y11319969D01*
X-4474176Y11139416D01*
X-4476755Y11135208D01*
X-4476759Y11135202D01*
X-4592907Y10945665D01*
X-4598240Y10936963D01*
X-4600133Y10932393D01*
X-4600135Y10932389D01*
X-4619557Y10885500D01*
X-4689105Y10717594D01*
X-4744535Y10486711D01*
X-4763165Y10250000D01*
X-10238730Y10250000D01*
X-10097522Y10394290D01*
X-10092913Y10398765D01*
X-9554576Y10895471D01*
X-9549755Y10899697D01*
X-8986785Y11368329D01*
X-8981762Y11372298D01*
X-8395640Y11811623D01*
X-8390402Y11815344D01*
X-7782667Y12224210D01*
X-7777247Y12227659D01*
X-7149450Y12605022D01*
X-7143861Y12608190D01*
X-6497668Y12953051D01*
X-6491925Y12955931D01*
X-5828964Y13267419D01*
X-5823090Y13269999D01*
X-5187731Y13529859D01*
X-5164579Y13536821D01*
X-5156860Y13538354D01*
X-5156858Y13538354D01*
X-5152077Y13539304D01*
X-5146436Y13541367D01*
X-5146170Y13541423D01*
X-5145930Y13541552D01*
X-5140288Y13543615D01*
X-5121895Y13553783D01*
X-5115648Y13557011D01*
X-5103879Y13562682D01*
X-4983581Y13620649D01*
X-4931677Y13657830D01*
X-4846149Y13719097D01*
X-4846147Y13719099D01*
X-4841727Y13722265D01*
X-4719431Y13846731D01*
X-4620325Y13990349D01*
X-4547354Y14148852D01*
X-4530490Y14212533D01*
X-4504079Y14312271D01*
X-4504079Y14312273D01*
X-4502686Y14317532D01*
X-4491615Y14445517D01*
X-4490338Y14455555D01*
X-4487230Y14474027D01*
X-4487230Y14474031D01*
X-4486423Y14478825D01*
X-4486270Y14491377D01*
X-4490226Y14519001D01*
X-4491499Y14536863D01*
X-4491499Y16196752D01*
X-4489753Y16217657D01*
X-4487229Y16232658D01*
X-4487229Y16232661D01*
X-4486423Y16237450D01*
X-4486270Y16250002D01*
X-4486959Y16254816D01*
X-4486960Y16254826D01*
X-4489317Y16271282D01*
X-4490111Y16278164D01*
X-4491907Y16298700D01*
X-4496791Y16354519D01*
X-4482802Y16424123D01*
X-4433402Y16475116D01*
X-4371270Y16491500D01*
X-1701866Y16491500D01*
X-1639684Y16498255D01*
X-1503295Y16549385D01*
X-1386739Y16636739D01*
X-1299385Y16753295D01*
X-1248255Y16889684D01*
X-1241500Y16951866D01*
X-1241500Y18548134D01*
X-1248255Y18610316D01*
X-1299385Y18746705D01*
X-1386739Y18863261D01*
X-1503295Y18950615D01*
X-1639684Y19001745D01*
X-1701866Y19008500D01*
X-2553634Y19008500D01*
X-2621755Y19028502D01*
X-2668248Y19082158D01*
X-2678352Y19152432D01*
X-2648858Y19217012D01*
X-2586245Y19256207D01*
X-2556067Y19264293D01*
X-2556065Y19264294D01*
X-2550757Y19265716D01*
X-2545775Y19268039D01*
X-2348238Y19360151D01*
X-2348233Y19360154D01*
X-2343251Y19362477D01*
X-2238389Y19435902D01*
X-2160211Y19490643D01*
X-2160208Y19490645D01*
X-2155700Y19493802D01*
X-1993802Y19655700D01*
X-1862477Y19843251D01*
X-1860154Y19848233D01*
X-1860151Y19848238D01*
X-1768039Y20045775D01*
X-1768039Y20045776D01*
X-1765716Y20050757D01*
X-1751556Y20103600D01*
X-1707881Y20266598D01*
X-1707881Y20266600D01*
X-1706457Y20271913D01*
X-1686502Y20500000D01*
X-1706457Y20728087D01*
X-1720731Y20781358D01*
X-1764293Y20943933D01*
X-1764294Y20943935D01*
X-1765716Y20949243D01*
X-1768039Y20954225D01*
X-1860151Y21151762D01*
X-1860154Y21151767D01*
X-1862477Y21156749D01*
X-1993802Y21344300D01*
X-2029595Y21380093D01*
X-2063621Y21442405D01*
X-2066500Y21469188D01*
X-2066500Y23129774D01*
X-2046498Y23197895D01*
X-1992842Y23244388D01*
X-1922568Y23254492D01*
X-1857988Y23224998D01*
X-1839674Y23205339D01*
X-1788261Y23136739D01*
X-1671705Y23049385D01*
X-1535316Y22998255D01*
X-1473134Y22991500D01*
X-526866Y22991500D01*
X-464684Y22998255D01*
X-328295Y23049385D01*
X-211739Y23136739D01*
X-160326Y23205339D01*
X-103467Y23247854D01*
X-32648Y23252880D01*
X29645Y23218820D01*
X63635Y23156489D01*
X66500Y23129774D01*
X66500Y21101866D01*
X73255Y21039684D01*
X124385Y20903295D01*
X211739Y20786739D01*
X328295Y20699385D01*
X464684Y20648255D01*
X526866Y20641500D01*
X1473134Y20641500D01*
X1535316Y20648255D01*
X1671705Y20699385D01*
X1788261Y20786739D01*
X1875615Y20903295D01*
X1926745Y21039684D01*
X1933500Y21101866D01*
X1933500Y21369193D01*
X1953502Y21437314D01*
X2007158Y21483807D01*
X2077432Y21493911D01*
X2111323Y21482184D01*
X2111955Y21483604D01*
X2215925Y21437314D01*
X2275454Y21410810D01*
X2362984Y21392205D01*
X2444057Y21374972D01*
X2444061Y21374972D01*
X2450514Y21373600D01*
X2629486Y21373600D01*
X2635939Y21374972D01*
X2635943Y21374972D01*
X2717016Y21392205D01*
X2804546Y21410810D01*
X2818445Y21416998D01*
X2962015Y21480919D01*
X2962017Y21480920D01*
X2968045Y21483604D01*
X2973387Y21487485D01*
X3107492Y21584918D01*
X3107494Y21584920D01*
X3112836Y21588801D01*
X3117258Y21593712D01*
X3228172Y21716895D01*
X3228173Y21716896D01*
X3232591Y21721803D01*
X3322077Y21876797D01*
X3377382Y22047009D01*
X3396090Y22225000D01*
X3377382Y22402991D01*
X3322077Y22573203D01*
X3232591Y22728197D01*
X3184876Y22781190D01*
X3154158Y22845197D01*
X3162923Y22915651D01*
X3208386Y22970182D01*
X3278512Y22991500D01*
X3473134Y22991500D01*
X3535316Y22998255D01*
X3671705Y23049385D01*
X3788261Y23136739D01*
X3839674Y23205339D01*
X3896533Y23247854D01*
X3967352Y23252880D01*
X4029645Y23218820D01*
X4063635Y23156489D01*
X4066500Y23129774D01*
X4066500Y21101866D01*
X4073255Y21039684D01*
X4124385Y20903295D01*
X4211739Y20786739D01*
X4328295Y20699385D01*
X4464684Y20648255D01*
X4526866Y20641500D01*
X5473134Y20641500D01*
X5535316Y20648255D01*
X5671705Y20699385D01*
X5788261Y20786739D01*
X5875615Y20903295D01*
X5926745Y21039684D01*
X5933500Y21101866D01*
X5933500Y23548134D01*
X5926745Y23610316D01*
X5875615Y23746705D01*
X5788261Y23863261D01*
X5685935Y23939950D01*
X5643420Y23996809D01*
X5635500Y24040776D01*
X5635500Y26601181D01*
X5655502Y26669302D01*
X5667859Y26685486D01*
X5772591Y26801803D01*
X5862077Y26956797D01*
X5917382Y27127009D01*
X5936090Y27305000D01*
X5917382Y27482991D01*
X5862077Y27653203D01*
X5772591Y27808197D01*
X5652836Y27941199D01*
X5575480Y27997402D01*
X5513387Y28042515D01*
X5513386Y28042516D01*
X5508045Y28046396D01*
X5502017Y28049080D01*
X5502015Y28049081D01*
X5350577Y28116505D01*
X5350576Y28116505D01*
X5344546Y28119190D01*
X5257016Y28137795D01*
X5175943Y28155028D01*
X5175939Y28155028D01*
X5169486Y28156400D01*
X4990514Y28156400D01*
X4984061Y28155028D01*
X4984057Y28155028D01*
X4902984Y28137795D01*
X4815454Y28119190D01*
X4809424Y28116505D01*
X4809423Y28116505D01*
X4657985Y28049081D01*
X4657983Y28049080D01*
X4651955Y28046396D01*
X4646614Y28042516D01*
X4646613Y28042515D01*
X4584521Y27997402D01*
X4507164Y27941199D01*
X4387409Y27808197D01*
X4297923Y27653203D01*
X4242618Y27482991D01*
X4241928Y27476427D01*
X4241928Y27476426D01*
X4234305Y27403897D01*
X4207292Y27338240D01*
X4149070Y27297610D01*
X4078125Y27294907D01*
X4012477Y27336072D01*
X4009351Y27339797D01*
X4006198Y27344300D01*
X3844300Y27506198D01*
X3839792Y27509355D01*
X3839789Y27509357D01*
X3761611Y27564098D01*
X3656749Y27637523D01*
X3651767Y27639846D01*
X3651762Y27639849D01*
X3454225Y27731961D01*
X3454224Y27731961D01*
X3449243Y27734284D01*
X3443935Y27735706D01*
X3443933Y27735707D01*
X3233402Y27792119D01*
X3233400Y27792119D01*
X3228087Y27793543D01*
X3125948Y27802479D01*
X3059851Y27808262D01*
X3059844Y27808262D01*
X3057127Y27808500D01*
X2942873Y27808500D01*
X2940156Y27808262D01*
X2940149Y27808262D01*
X2874052Y27802479D01*
X2771913Y27793543D01*
X2766600Y27792119D01*
X2766598Y27792119D01*
X2556067Y27735707D01*
X2556065Y27735706D01*
X2550757Y27734284D01*
X2545776Y27731961D01*
X2545775Y27731961D01*
X2348238Y27639849D01*
X2348233Y27639846D01*
X2343251Y27637523D01*
X2238389Y27564098D01*
X2160211Y27509357D01*
X2160208Y27509355D01*
X2155700Y27506198D01*
X1993802Y27344300D01*
X1990645Y27339792D01*
X1990643Y27339789D01*
X1935902Y27261611D01*
X1862477Y27156749D01*
X1860154Y27151767D01*
X1860151Y27151762D01*
X1848609Y27127009D01*
X1765716Y26949243D01*
X1706457Y26728087D01*
X1686502Y26500000D01*
X1706457Y26271913D01*
X1765716Y26050757D01*
X1768039Y26045776D01*
X1768039Y26045775D01*
X1860151Y25848238D01*
X1860154Y25848233D01*
X1862477Y25843251D01*
X1865634Y25838743D01*
X1885468Y25810417D01*
X1908156Y25743144D01*
X1890871Y25674283D01*
X1839102Y25625699D01*
X1808452Y25614899D01*
X1640454Y25579190D01*
X1634424Y25576505D01*
X1634423Y25576505D01*
X1482985Y25509081D01*
X1482983Y25509080D01*
X1476955Y25506396D01*
X1471614Y25502516D01*
X1471613Y25502515D01*
X1462769Y25496089D01*
X1332164Y25401199D01*
X1212409Y25268197D01*
X1122923Y25113203D01*
X1067618Y24942991D01*
X1048910Y24765000D01*
X1067618Y24587009D01*
X1122923Y24416797D01*
X1212409Y24261803D01*
X1216827Y24256896D01*
X1216828Y24256895D01*
X1251120Y24218810D01*
X1281838Y24154803D01*
X1273073Y24084349D01*
X1227610Y24029818D01*
X1157484Y24008500D01*
X526866Y24008500D01*
X464684Y24001745D01*
X328295Y23950615D01*
X211739Y23863261D01*
X206358Y23856081D01*
X206357Y23856080D01*
X160326Y23794661D01*
X103467Y23752146D01*
X32648Y23747120D01*
X-29645Y23781180D01*
X-63635Y23843511D01*
X-66500Y23870226D01*
X-66500Y25898134D01*
X-73255Y25960316D01*
X-124385Y26096705D01*
X-211739Y26213261D01*
X-328295Y26300615D01*
X-464684Y26351745D01*
X-526866Y26358500D01*
X-1473134Y26358500D01*
X-1535316Y26351745D01*
X-1671705Y26300615D01*
X-1788261Y26213261D01*
X-1875615Y26096705D01*
X-1926745Y25960316D01*
X-1933500Y25898134D01*
X-1933500Y25620807D01*
X-1953502Y25552686D01*
X-2007158Y25506193D01*
X-2077432Y25496089D01*
X-2111323Y25507816D01*
X-2111955Y25506396D01*
X-2269423Y25576505D01*
X-2269424Y25576505D01*
X-2275454Y25579190D01*
X-2368338Y25598933D01*
X-2444057Y25615028D01*
X-2444061Y25615028D01*
X-2450514Y25616400D01*
X-2629486Y25616400D01*
X-2635939Y25615028D01*
X-2635943Y25615028D01*
X-2711662Y25598933D01*
X-2804546Y25579190D01*
X-2810576Y25576505D01*
X-2810577Y25576505D01*
X-2962015Y25509081D01*
X-2962017Y25509080D01*
X-2968045Y25506396D01*
X-2973386Y25502516D01*
X-2973387Y25502515D01*
X-2982231Y25496089D01*
X-3112836Y25401199D01*
X-3232591Y25268197D01*
X-3322077Y25113203D01*
X-3377382Y24942991D01*
X-3396090Y24765000D01*
X-3377382Y24587009D01*
X-3322077Y24416797D01*
X-3232591Y24261803D01*
X-3228173Y24256896D01*
X-3228172Y24256895D01*
X-3193880Y24218810D01*
X-3163162Y24154803D01*
X-3171927Y24084349D01*
X-3217390Y24029818D01*
X-3287516Y24008500D01*
X-3473134Y24008500D01*
X-3535316Y24001745D01*
X-3671705Y23950615D01*
X-3788261Y23863261D01*
X-3793642Y23856081D01*
X-3793643Y23856080D01*
X-3839674Y23794661D01*
X-3896533Y23752146D01*
X-3967352Y23747120D01*
X-4029645Y23781180D01*
X-4063635Y23843511D01*
X-4066500Y23870226D01*
X-4066500Y25898134D01*
X-4073255Y25960316D01*
X-4124385Y26096705D01*
X-4211739Y26213261D01*
X-4314065Y26289950D01*
X-4356580Y26346809D01*
X-4364500Y26390776D01*
X-4364500Y26807721D01*
X-4347619Y26870721D01*
X-4301227Y26951074D01*
X-4301226Y26951075D01*
X-4297923Y26956797D01*
X-4242618Y27127009D01*
X-4223910Y27305000D01*
X-4242618Y27482991D01*
X-4297923Y27653203D01*
X-4387409Y27808197D01*
X-4507164Y27941199D01*
X-4584520Y27997402D01*
X-4646613Y28042515D01*
X-4646614Y28042516D01*
X-4651955Y28046396D01*
X-4657983Y28049080D01*
X-4657985Y28049081D01*
X-4809423Y28116505D01*
X-4809424Y28116505D01*
X-4815454Y28119190D01*
X-4902984Y28137795D01*
X-4984057Y28155028D01*
X-4984061Y28155028D01*
X-4990514Y28156400D01*
X-5169486Y28156400D01*
X-5175939Y28155028D01*
X-5175943Y28155028D01*
X-5257016Y28137795D01*
X-5344546Y28119190D01*
X-5350576Y28116505D01*
X-5350577Y28116505D01*
X-5502015Y28049081D01*
X-5502017Y28049080D01*
X-5508045Y28046396D01*
X-5513386Y28042516D01*
X-5513387Y28042515D01*
X-5575479Y27997402D01*
X-5652836Y27941199D01*
X-5772591Y27808197D01*
X-5862077Y27653203D01*
X-5917382Y27482991D01*
X-5936090Y27305000D01*
X-5917382Y27127009D01*
X-5862077Y26956797D01*
X-5772591Y26801803D01*
X-5667862Y26685489D01*
X-5637146Y26621483D01*
X-5635500Y26601181D01*
X-5635500Y26390776D01*
X-5655502Y26322655D01*
X-5685934Y26289951D01*
X-5788261Y26213261D01*
X-5875615Y26096705D01*
X-5926745Y25960316D01*
X-5933500Y25898134D01*
X-5933500Y23451866D01*
X-5926745Y23389684D01*
X-5875615Y23253295D01*
X-5788261Y23136739D01*
X-5671705Y23049385D01*
X-5535316Y22998255D01*
X-5473134Y22991500D01*
X-4526866Y22991500D01*
X-4464684Y22998255D01*
X-4328295Y23049385D01*
X-4211739Y23136739D01*
X-4160326Y23205339D01*
X-4103467Y23247854D01*
X-4032648Y23252880D01*
X-3970355Y23218820D01*
X-3936365Y23156489D01*
X-3933500Y23129774D01*
X-3933500Y23005637D01*
X-3953502Y22937516D01*
X-4005296Y22894918D01*
X-4004272Y22893055D01*
X-4011215Y22889238D01*
X-4018588Y22886319D01*
X-4025002Y22881659D01*
X-4054486Y22860238D01*
X-4064406Y22853722D01*
X-4095771Y22835173D01*
X-4095774Y22835171D01*
X-4102598Y22831135D01*
X-4116986Y22816747D01*
X-4132020Y22803906D01*
X-4148487Y22791942D01*
X-4153540Y22785834D01*
X-4176772Y22757751D01*
X-4184762Y22748971D01*
X-5091607Y21842126D01*
X-5153919Y21808100D01*
X-5164494Y21806400D01*
X-5169486Y21806400D01*
X-5344546Y21769190D01*
X-5350576Y21766505D01*
X-5350577Y21766505D01*
X-5502015Y21699081D01*
X-5502017Y21699080D01*
X-5508045Y21696396D01*
X-5652836Y21591199D01*
X-5657257Y21586289D01*
X-5657258Y21586288D01*
X-5658491Y21584918D01*
X-5772591Y21458197D01*
X-5862077Y21303203D01*
X-5917382Y21132991D01*
X-5918072Y21126428D01*
X-5918072Y21126427D01*
X-5927189Y21039684D01*
X-5936090Y20955000D01*
X-5935400Y20948435D01*
X-5930655Y20903295D01*
X-5917382Y20777009D01*
X-5862077Y20606797D01*
X-5772591Y20451803D01*
X-5652836Y20318801D01*
X-5647494Y20314920D01*
X-5647492Y20314918D01*
X-5581248Y20266789D01*
X-5508045Y20213604D01*
X-5502017Y20210920D01*
X-5502015Y20210919D01*
X-5350577Y20143495D01*
X-5344546Y20140810D01*
X-5257016Y20122205D01*
X-5175943Y20104972D01*
X-5175939Y20104972D01*
X-5169486Y20103600D01*
X-4990514Y20103600D01*
X-4984061Y20104972D01*
X-4984057Y20104972D01*
X-4902984Y20122205D01*
X-4815454Y20140810D01*
X-4809423Y20143495D01*
X-4657985Y20210919D01*
X-4657983Y20210920D01*
X-4651955Y20213604D01*
X-4578752Y20266789D01*
X-4512508Y20314918D01*
X-4512506Y20314920D01*
X-4507164Y20318801D01*
X-4502743Y20323712D01*
X-4498190Y20327811D01*
X-4434183Y20358530D01*
X-4363729Y20349768D01*
X-4309197Y20304306D01*
X-4292170Y20266789D01*
X-4234284Y20050757D01*
X-4231961Y20045776D01*
X-4231961Y20045775D01*
X-4139849Y19848238D01*
X-4139846Y19848233D01*
X-4137523Y19843251D01*
X-4006198Y19655700D01*
X-3844300Y19493802D01*
X-3839792Y19490645D01*
X-3839789Y19490643D01*
X-3761611Y19435902D01*
X-3656749Y19362477D01*
X-3651767Y19360154D01*
X-3651762Y19360151D01*
X-3454225Y19268039D01*
X-3449243Y19265716D01*
X-3443935Y19264294D01*
X-3443933Y19264293D01*
X-3413755Y19256207D01*
X-3353132Y19219255D01*
X-3322111Y19155395D01*
X-3330539Y19084900D01*
X-3375742Y19030153D01*
X-3446366Y19008500D01*
X-5298134Y19008500D01*
X-5360316Y19001745D01*
X-5496705Y18950615D01*
X-5613261Y18863261D01*
X-5700615Y18746705D01*
X-5751745Y18610316D01*
X-5758500Y18548134D01*
X-5758500Y17384501D01*
X-5778502Y17316380D01*
X-5832158Y17269887D01*
X-5884500Y17258501D01*
X-7365499Y17258501D01*
X-7433620Y17278503D01*
X-7480113Y17332159D01*
X-7491499Y17384501D01*
X-7491499Y29615501D01*
X-7471497Y29683622D01*
X-7417841Y29730115D01*
X-7365499Y29741501D01*
X-2384500Y29741501D01*
X-2316379Y29721499D01*
G37*
%TD.AperFunction*%
%TD*%
M02*
