%TF.GenerationSoftware,KiCad,Pcbnew,6.0.11-3.fc37*%
%TF.CreationDate,2023-09-06T08:49:03-04:00*%
%TF.ProjectId,gameKey-PCB-ThumbCluster,67616d65-4b65-4792-9d50-43422d546875,rev?*%
%TF.SameCoordinates,Original*%
%TF.FileFunction,Legend,Bot*%
%TF.FilePolarity,Positive*%
%FSLAX46Y46*%
G04 Gerber Fmt 4.6, Leading zero omitted, Abs format (unit mm)*
G04 Created by KiCad (PCBNEW 6.0.11-3.fc37) date 2023-09-06 08:49:03*
%MOMM*%
%LPD*%
G01*
G04 APERTURE LIST*
%ADD10C,0.304800*%
%ADD11C,0.120000*%
G04 APERTURE END LIST*
D10*
X13002380Y5746750D02*
X13123333Y5807226D01*
X13304761Y5807226D01*
X13486190Y5746750D01*
X13607142Y5625797D01*
X13667619Y5504845D01*
X13728095Y5262940D01*
X13728095Y5081511D01*
X13667619Y4839607D01*
X13607142Y4718654D01*
X13486190Y4597702D01*
X13304761Y4537226D01*
X13183809Y4537226D01*
X13002380Y4597702D01*
X12941904Y4658178D01*
X12941904Y5081511D01*
X13183809Y5081511D01*
X12851190Y2976335D02*
X11883571Y2976335D01*
X12367380Y2492526D02*
X12367380Y3460145D01*
X13758333Y1717826D02*
X12911666Y447826D01*
X12911666Y1717826D02*
X13758333Y447826D01*
X12367380Y-992111D02*
X12367380Y-1596873D01*
X12790714Y-326873D02*
X12367380Y-992111D01*
X11944047Y-326873D01*
X13244285Y-2976335D02*
X13062857Y-3036811D01*
X13002380Y-3097288D01*
X12941904Y-3218240D01*
X12941904Y-3399669D01*
X13002380Y-3520621D01*
X13062857Y-3581097D01*
X13183809Y-3641573D01*
X13667619Y-3641573D01*
X13667619Y-2371573D01*
X13244285Y-2371573D01*
X13123333Y-2432050D01*
X13062857Y-2492526D01*
X13002380Y-2613478D01*
X13002380Y-2734430D01*
X13062857Y-2855383D01*
X13123333Y-2915859D01*
X13244285Y-2976335D01*
X13667619Y-2976335D01*
X11974285Y-5565321D02*
X12034761Y-5625797D01*
X12216190Y-5686273D01*
X12337142Y-5686273D01*
X12518571Y-5625797D01*
X12639523Y-5504845D01*
X12700000Y-5383892D01*
X12760476Y-5141988D01*
X12760476Y-4960559D01*
X12700000Y-4718654D01*
X12639523Y-4597702D01*
X12518571Y-4476750D01*
X12337142Y-4416273D01*
X12216190Y-4416273D01*
X12034761Y-4476750D01*
X11974285Y-4537226D01*
X-5383892Y21680714D02*
X-5021035Y22648333D01*
X-4658178Y21680714D01*
X-4658178Y20350238D02*
X-4597702Y20410714D01*
X-4537226Y20592142D01*
X-4537226Y20713095D01*
X-4597702Y20894523D01*
X-4718654Y21015476D01*
X-4839607Y21075952D01*
X-5081511Y21136428D01*
X-5262940Y21136428D01*
X-5504845Y21075952D01*
X-5625797Y21015476D01*
X-5746750Y20894523D01*
X-5807226Y20713095D01*
X-5807226Y20592142D01*
X-5746750Y20410714D01*
X-5686273Y20350238D01*
X-2492526Y26518809D02*
X-3762526Y26518809D01*
X-3762526Y26035000D01*
X-3702050Y25914047D01*
X-3641573Y25853571D01*
X-3520621Y25793095D01*
X-3339192Y25793095D01*
X-3218240Y25853571D01*
X-3157764Y25914047D01*
X-3097288Y26035000D01*
X-3097288Y26518809D01*
X-3339192Y25248809D02*
X-2976335Y24281190D01*
X-2613478Y25248809D01*
X-1294492Y21771428D02*
X-931635Y22739047D01*
X-568778Y21771428D01*
X-1717826Y21287619D02*
X-447826Y20985238D01*
X-1354969Y20743333D01*
X-447826Y20501428D01*
X-1717826Y20199047D01*
X1536397Y26549047D02*
X1596873Y26367619D01*
X1596873Y26065238D01*
X1536397Y25944285D01*
X1475921Y25883809D01*
X1354969Y25823333D01*
X1234016Y25823333D01*
X1113064Y25883809D01*
X1052588Y25944285D01*
X992111Y26065238D01*
X931635Y26307142D01*
X871159Y26428095D01*
X810683Y26488571D01*
X689730Y26549047D01*
X568778Y26549047D01*
X447826Y26488571D01*
X387350Y26428095D01*
X326873Y26307142D01*
X326873Y26004761D01*
X387350Y25823333D01*
X750207Y25279047D02*
X1113064Y24311428D01*
X1475921Y25279047D01*
X2794907Y21620238D02*
X3157764Y22587857D01*
X3520621Y21620238D01*
X2976335Y21015476D02*
X2976335Y20592142D01*
X3641573Y20410714D02*
X3641573Y21015476D01*
X2371573Y21015476D01*
X2371573Y20410714D01*
X5686273Y26549047D02*
X4416273Y26549047D01*
X5686273Y25823333D01*
X4416273Y25823333D01*
X4839607Y25218571D02*
X5202464Y24250952D01*
X5565321Y25218571D01*
D11*
%TO.C,J2*%
X-6060000Y22440000D02*
X-3685000Y22440000D01*
X3685000Y24560000D02*
X6060000Y24560000D01*
X6060000Y24560000D02*
X6060000Y22440000D01*
X-2315000Y22440000D02*
X315000Y22440000D01*
X1685000Y22440000D02*
X4315000Y22440000D01*
X5685000Y22440000D02*
X6060000Y22440000D01*
X-5685000Y24560000D02*
X-5685000Y25790000D01*
X-6060000Y24560000D02*
X-6060000Y22440000D01*
X-315000Y24560000D02*
X2315000Y24560000D01*
X-4315000Y24560000D02*
X-1685000Y24560000D01*
X-6060000Y24560000D02*
X-5685000Y24560000D01*
%TO.C,J1*%
X11220000Y315000D02*
X11220000Y-2315000D01*
X11220000Y-3685000D02*
X11220000Y-6060000D01*
X11220000Y5685000D02*
X12450000Y5685000D01*
X9100000Y-1685000D02*
X9100000Y-4315000D01*
X11220000Y4315000D02*
X11220000Y1685000D01*
X11220000Y6060000D02*
X11220000Y5685000D01*
X9100000Y-5685000D02*
X9100000Y-6060000D01*
X9100000Y2315000D02*
X9100000Y-315000D01*
X9100000Y6060000D02*
X9100000Y3685000D01*
X11220000Y6060000D02*
X9100000Y6060000D01*
X11220000Y-6060000D02*
X9100000Y-6060000D01*
%TD*%
M02*
