%TF.GenerationSoftware,KiCad,Pcbnew,6.0.1-79c1e3a40b~116~ubuntu20.04.1*%
%TF.CreationDate,2022-02-08T16:17:55-05:00*%
%TF.ProjectId,gameKey-PCB-ThumbCluster,67616d65-4b65-4792-9d50-43422d546875,rev?*%
%TF.SameCoordinates,Original*%
%TF.FileFunction,Copper,L1,Top*%
%TF.FilePolarity,Positive*%
%FSLAX46Y46*%
G04 Gerber Fmt 4.6, Leading zero omitted, Abs format (unit mm)*
G04 Created by KiCad (PCBNEW 6.0.1-79c1e3a40b~116~ubuntu20.04.1) date 2022-02-08 16:17:55*
%MOMM*%
%LPD*%
G01*
G04 APERTURE LIST*
%TA.AperFunction,WasherPad*%
%ADD10R,3.500000X1.500000*%
%TD*%
%TA.AperFunction,SMDPad,CuDef*%
%ADD11R,2.000000X1.900000*%
%TD*%
%TA.AperFunction,WasherPad*%
%ADD12C,2.000000*%
%TD*%
%TA.AperFunction,ComponentPad*%
%ADD13C,2.000000*%
%TD*%
%TA.AperFunction,ViaPad*%
%ADD14C,0.685800*%
%TD*%
%TA.AperFunction,Conductor*%
%ADD15C,0.254000*%
%TD*%
%TA.AperFunction,Conductor*%
%ADD16C,0.200000*%
%TD*%
G04 APERTURE END LIST*
D10*
%TO.P,NS1,*%
%TO.N,*%
X3500000Y17750000D03*
X-3500000Y17750000D03*
X0Y29250000D03*
D11*
%TO.P,NS1,1,COM*%
%TO.N,GND*%
X-7500000Y27500000D03*
%TO.P,NS1,2,B*%
%TO.N,/NW*%
X-7500000Y23500000D03*
%TO.P,NS1,3,PUSH*%
%TO.N,/NP*%
X-7500000Y19500000D03*
%TO.P,NS1,4,A*%
%TO.N,/NN*%
X7500000Y27500000D03*
%TO.P,NS1,5,D*%
%TO.N,/NE*%
X7500000Y23500000D03*
%TO.P,NS1,6,C*%
%TO.N,/NS*%
X7500000Y19500000D03*
%TD*%
D12*
%TO.P,JS0,*%
%TO.N,*%
X6325000Y-5000000D03*
X-6325000Y-5000000D03*
X-6325000Y5000000D03*
X6325000Y5000000D03*
D13*
%TO.P,JS0,1,GND*%
%TO.N,GND*%
X-2500000Y-8730000D03*
X-8730000Y2500000D03*
%TO.P,JS0,2,VCC*%
%TO.N,VCC*%
X2500000Y-8730000D03*
X-8730000Y-2500000D03*
%TO.P,JS0,3,RY*%
%TO.N,/JX*%
X-8730000Y0D03*
%TO.P,JS0,4,RX*%
%TO.N,/JY*%
X0Y-8730000D03*
%TO.P,JS0,5,SW-A*%
%TO.N,/JB*%
X3250000Y5750000D03*
X-3250000Y5750000D03*
%TO.P,JS0,6,SW-B*%
%TO.N,/JC*%
X3250000Y10250000D03*
X-3250000Y10250000D03*
%TD*%
D14*
%TO.N,GND*%
X-9525000Y8890000D03*
X-1000000Y27750000D03*
X6350000Y12065000D03*
X9525000Y-6985000D03*
X0Y18250000D03*
X-9525000Y-6985000D03*
X8890000Y8255000D03*
%TO.N,/JB*%
X11335000Y-3000000D03*
%TO.N,VCC*%
X2540000Y-6350000D03*
X6667500Y-2222500D03*
X6667500Y0D03*
%TO.N,/JY*%
X2540000Y-1270000D03*
%TO.N,/JX*%
X11335000Y1000000D03*
X5715000Y1905000D03*
%TO.N,/JC*%
X8985000Y-5000000D03*
%TO.N,/NP*%
X-4000000Y22500000D03*
%TO.N,/NW*%
X-2000000Y24500000D03*
%TO.N,/NS*%
X0Y20500000D03*
%TO.N,/NE*%
X3500000Y21000000D03*
%TO.N,/NN*%
X5000000Y25500000D03*
%TD*%
D15*
%TO.N,GND*%
X-1000000Y19250000D02*
X0Y18250000D01*
X-1000000Y27750000D02*
X-1000000Y19250000D01*
%TO.N,/JB*%
X5540000Y-3000000D02*
X11335000Y-3000000D01*
X1905000Y4405000D02*
X1905000Y1905000D01*
X2857500Y-317500D02*
X5540000Y-3000000D01*
X2857500Y952500D02*
X2857500Y-317500D01*
X1905000Y1905000D02*
X2857500Y952500D01*
X3250000Y5750000D02*
X1905000Y4405000D01*
%TO.N,VCC*%
X6667500Y0D02*
X6667500Y-2222500D01*
X2540000Y-8690000D02*
X2500000Y-8730000D01*
X2540000Y-6350000D02*
X2540000Y-8690000D01*
%TO.N,/JY*%
X0Y-3810000D02*
X2540000Y-1270000D01*
X0Y-8730000D02*
X0Y-3810000D01*
%TO.N,/JX*%
X11287500Y952500D02*
X11335000Y1000000D01*
X6667500Y952500D02*
X11287500Y952500D01*
X5715000Y1905000D02*
X6667500Y952500D01*
%TO.N,/JC*%
X12700000Y-3810000D02*
X11510000Y-5000000D01*
X12700000Y6032500D02*
X12700000Y-3810000D01*
X3250000Y10250000D02*
X8482500Y10250000D01*
X11510000Y-5000000D02*
X8985000Y-5000000D01*
X8482500Y10250000D02*
X12700000Y6032500D01*
D16*
%TO.N,/NP*%
X-6500000Y20000000D02*
X-4000000Y22500000D01*
X-7500000Y20000000D02*
X-6500000Y20000000D01*
D15*
%TO.N,/NW*%
X-2500000Y24000000D02*
X-2000000Y24500000D01*
X-7500000Y24000000D02*
X-2500000Y24000000D01*
%TO.N,/NS*%
X7500000Y20000000D02*
X500000Y20000000D01*
X500000Y20000000D02*
X0Y20500000D01*
%TO.N,/NE*%
X7500000Y24000000D02*
X4500000Y21000000D01*
X4500000Y21000000D02*
X3500000Y21000000D01*
D16*
%TO.N,/NN*%
X7500000Y28000000D02*
X5000000Y25500000D01*
%TD*%
%TA.AperFunction,Conductor*%
%TO.N,GND*%
G36*
X13544012Y5101023D02*
G01*
X13579125Y5050969D01*
X13655671Y4851638D01*
X13657821Y4845583D01*
X13885220Y4149265D01*
X13887058Y4143109D01*
X14078665Y3436118D01*
X14080187Y3429877D01*
X14235511Y2714028D01*
X14236713Y2707716D01*
X14355348Y1984874D01*
X14356226Y1978510D01*
X14370481Y1851400D01*
X14437508Y1253715D01*
X14437859Y1250581D01*
X14438412Y1244186D01*
X14452871Y1006198D01*
X14482836Y513024D01*
X14483062Y506604D01*
X14483157Y496803D01*
X14490128Y-222607D01*
X14490159Y-225852D01*
X14490058Y-232266D01*
X14461799Y-916074D01*
X14459811Y-964168D01*
X14459383Y-970559D01*
X14428125Y-1308262D01*
X14391868Y-1699959D01*
X14391113Y-1706339D01*
X14367705Y-1868574D01*
X14296182Y-2364295D01*
X14286507Y-2431349D01*
X14285429Y-2437668D01*
X14144011Y-3156371D01*
X14142613Y-3162633D01*
X14063151Y-3480071D01*
X13964730Y-3873248D01*
X13963011Y-3879438D01*
X13749151Y-4580017D01*
X13747130Y-4586082D01*
X13497810Y-5274928D01*
X13495500Y-5280835D01*
X13237859Y-5893175D01*
X13211409Y-5956039D01*
X13208772Y-5961886D01*
X12935829Y-6527991D01*
X12890640Y-6621716D01*
X12887705Y-6627426D01*
X12542093Y-7259684D01*
X12536359Y-7270173D01*
X12533149Y-7275706D01*
X12149474Y-7899747D01*
X12145983Y-7905113D01*
X11731033Y-8508734D01*
X11727260Y-8513934D01*
X11282069Y-9095637D01*
X11278036Y-9100637D01*
X10983295Y-9447577D01*
X10923947Y-9486543D01*
X10887269Y-9491999D01*
X4005731Y-9491999D01*
X3937610Y-9471997D01*
X3891117Y-9418341D01*
X3881013Y-9348067D01*
X3889322Y-9317781D01*
X3937211Y-9202167D01*
X3937212Y-9202165D01*
X3939105Y-9197594D01*
X3962382Y-9100637D01*
X3993380Y-8971524D01*
X3993381Y-8971518D01*
X3994535Y-8966711D01*
X4013165Y-8730000D01*
X3994535Y-8493289D01*
X3939105Y-8262406D01*
X3937211Y-8257833D01*
X3850135Y-8047611D01*
X3850133Y-8047607D01*
X3848240Y-8043037D01*
X3763720Y-7905113D01*
X3726759Y-7844798D01*
X3726755Y-7844792D01*
X3724176Y-7840584D01*
X3569969Y-7660031D01*
X3389416Y-7505824D01*
X3235665Y-7411605D01*
X3188034Y-7358957D01*
X3175500Y-7304172D01*
X3175500Y-6964969D01*
X3195502Y-6896848D01*
X3207858Y-6880665D01*
X3232591Y-6853197D01*
X3322077Y-6698203D01*
X3377382Y-6527991D01*
X3380899Y-6494535D01*
X3395400Y-6356565D01*
X3396090Y-6350000D01*
X3377382Y-6172009D01*
X3322077Y-6001797D01*
X3232591Y-5846803D01*
X3173954Y-5781679D01*
X3117258Y-5718712D01*
X3117257Y-5718711D01*
X3112836Y-5713801D01*
X3069602Y-5682389D01*
X2973387Y-5612485D01*
X2973386Y-5612484D01*
X2968045Y-5608604D01*
X2962017Y-5605920D01*
X2962015Y-5605919D01*
X2810577Y-5538495D01*
X2810576Y-5538495D01*
X2804546Y-5535810D01*
X2717016Y-5517205D01*
X2635943Y-5499972D01*
X2635939Y-5499972D01*
X2629486Y-5498600D01*
X2450514Y-5498600D01*
X2444061Y-5499972D01*
X2444057Y-5499972D01*
X2362984Y-5517205D01*
X2275454Y-5535810D01*
X2269424Y-5538495D01*
X2269423Y-5538495D01*
X2117985Y-5605919D01*
X2117983Y-5605920D01*
X2111955Y-5608604D01*
X2106614Y-5612484D01*
X2106613Y-5612485D01*
X2010399Y-5682389D01*
X1967164Y-5713801D01*
X1962743Y-5718711D01*
X1962742Y-5718712D01*
X1906047Y-5781679D01*
X1847409Y-5846803D01*
X1757923Y-6001797D01*
X1702618Y-6172009D01*
X1683910Y-6350000D01*
X1684600Y-6356565D01*
X1699102Y-6494535D01*
X1702618Y-6527991D01*
X1757923Y-6698203D01*
X1847409Y-6853197D01*
X1872137Y-6880660D01*
X1902853Y-6944666D01*
X1904500Y-6964969D01*
X1904500Y-7259684D01*
X1884498Y-7327805D01*
X1826719Y-7376092D01*
X1817618Y-7379862D01*
X1817613Y-7379865D01*
X1813037Y-7381760D01*
X1808817Y-7384346D01*
X1614798Y-7503241D01*
X1614797Y-7503242D01*
X1610584Y-7505824D01*
X1430031Y-7660031D01*
X1426823Y-7663787D01*
X1426818Y-7663792D01*
X1345811Y-7758639D01*
X1286361Y-7797449D01*
X1215366Y-7797955D01*
X1154189Y-7758639D01*
X1073182Y-7663792D01*
X1073177Y-7663787D01*
X1069969Y-7660031D01*
X889416Y-7505824D01*
X695664Y-7387092D01*
X648034Y-7334445D01*
X635500Y-7279660D01*
X635500Y-4125422D01*
X655502Y-4057301D01*
X672405Y-4036327D01*
X2551606Y-2157126D01*
X2613918Y-2123100D01*
X2624494Y-2121400D01*
X2629486Y-2121400D01*
X2804546Y-2084190D01*
X2848517Y-2064613D01*
X2962015Y-2014081D01*
X2962017Y-2014080D01*
X2968045Y-2011396D01*
X3112836Y-1906199D01*
X3229920Y-1776164D01*
X3290362Y-1738926D01*
X3361346Y-1740277D01*
X3412648Y-1771381D01*
X5034750Y-3393483D01*
X5042326Y-3401809D01*
X5046447Y-3408303D01*
X5052222Y-3413726D01*
X5096265Y-3455085D01*
X5099107Y-3457840D01*
X5118906Y-3477639D01*
X5122031Y-3480063D01*
X5122040Y-3480071D01*
X5122126Y-3480137D01*
X5131151Y-3487845D01*
X5163494Y-3518217D01*
X5170438Y-3522035D01*
X5170440Y-3522036D01*
X5181329Y-3528022D01*
X5197847Y-3538873D01*
X5213933Y-3551350D01*
X5254666Y-3568976D01*
X5265314Y-3574193D01*
X5275446Y-3579763D01*
X5304197Y-3595569D01*
X5311872Y-3597540D01*
X5311878Y-3597542D01*
X5323911Y-3600631D01*
X5342606Y-3607031D01*
X5350074Y-3610263D01*
X5404645Y-3655672D01*
X5426004Y-3723380D01*
X5407367Y-3791886D01*
X5381860Y-3821708D01*
X5310852Y-3882355D01*
X5255031Y-3930031D01*
X5100824Y-4110584D01*
X5098245Y-4114792D01*
X5098241Y-4114798D01*
X5011762Y-4255919D01*
X4976760Y-4313037D01*
X4974867Y-4317607D01*
X4974865Y-4317611D01*
X4887789Y-4527833D01*
X4885895Y-4532406D01*
X4830465Y-4763289D01*
X4811835Y-5000000D01*
X4830465Y-5236711D01*
X4831619Y-5241518D01*
X4831620Y-5241524D01*
X4841063Y-5280856D01*
X4885895Y-5467594D01*
X4887788Y-5472165D01*
X4887789Y-5472167D01*
X4954924Y-5634245D01*
X4976760Y-5686963D01*
X4979346Y-5691183D01*
X5098241Y-5885202D01*
X5098245Y-5885208D01*
X5100824Y-5889416D01*
X5255031Y-6069969D01*
X5435584Y-6224176D01*
X5439792Y-6226755D01*
X5439798Y-6226759D01*
X5630196Y-6343435D01*
X5638037Y-6348240D01*
X5642607Y-6350133D01*
X5642611Y-6350135D01*
X5658135Y-6356565D01*
X5857406Y-6439105D01*
X5937609Y-6458360D01*
X6083476Y-6493380D01*
X6083482Y-6493381D01*
X6088289Y-6494535D01*
X6325000Y-6513165D01*
X6561711Y-6494535D01*
X6566518Y-6493381D01*
X6566524Y-6493380D01*
X6712391Y-6458360D01*
X6792594Y-6439105D01*
X6991865Y-6356565D01*
X7007389Y-6350135D01*
X7007393Y-6350133D01*
X7011963Y-6348240D01*
X7019804Y-6343435D01*
X7210202Y-6226759D01*
X7210208Y-6226755D01*
X7214416Y-6224176D01*
X7394969Y-6069969D01*
X7549176Y-5889416D01*
X7551755Y-5885208D01*
X7551759Y-5885202D01*
X7670654Y-5691183D01*
X7673240Y-5686963D01*
X7695077Y-5634245D01*
X7762211Y-5472167D01*
X7762212Y-5472165D01*
X7764105Y-5467594D01*
X7808937Y-5280856D01*
X7818380Y-5241524D01*
X7818381Y-5241518D01*
X7819535Y-5236711D01*
X7838165Y-5000000D01*
X7819535Y-4763289D01*
X7764105Y-4532406D01*
X7762211Y-4527833D01*
X7675135Y-4317611D01*
X7675133Y-4317607D01*
X7673240Y-4313037D01*
X7638238Y-4255919D01*
X7551759Y-4114798D01*
X7551755Y-4114792D01*
X7549176Y-4110584D01*
X7394969Y-3930031D01*
X7309825Y-3857311D01*
X7271016Y-3797860D01*
X7270510Y-3726866D01*
X7308466Y-3666867D01*
X7372834Y-3636914D01*
X7391656Y-3635500D01*
X10720262Y-3635500D01*
X10788383Y-3655502D01*
X10794323Y-3659564D01*
X10890882Y-3729718D01*
X10906955Y-3741396D01*
X10912983Y-3744080D01*
X10912985Y-3744081D01*
X11007012Y-3785944D01*
X11070454Y-3814190D01*
X11145404Y-3830121D01*
X11239057Y-3850028D01*
X11239061Y-3850028D01*
X11245514Y-3851400D01*
X11424486Y-3851400D01*
X11430943Y-3850028D01*
X11430948Y-3850027D01*
X11434326Y-3849309D01*
X11436327Y-3849462D01*
X11437514Y-3849337D01*
X11437537Y-3849554D01*
X11505116Y-3854712D01*
X11561748Y-3897529D01*
X11586241Y-3964167D01*
X11570819Y-4033468D01*
X11549616Y-4061651D01*
X11283672Y-4327595D01*
X11221360Y-4361621D01*
X11194577Y-4364500D01*
X9599738Y-4364500D01*
X9531617Y-4344498D01*
X9525677Y-4340436D01*
X9418387Y-4262485D01*
X9418386Y-4262484D01*
X9413045Y-4258604D01*
X9407017Y-4255920D01*
X9407015Y-4255919D01*
X9255577Y-4188495D01*
X9255576Y-4188495D01*
X9249546Y-4185810D01*
X9162016Y-4167205D01*
X9080943Y-4149972D01*
X9080939Y-4149972D01*
X9074486Y-4148600D01*
X8895514Y-4148600D01*
X8889061Y-4149972D01*
X8889057Y-4149972D01*
X8807984Y-4167205D01*
X8720454Y-4185810D01*
X8714424Y-4188495D01*
X8714423Y-4188495D01*
X8562985Y-4255919D01*
X8562983Y-4255920D01*
X8556955Y-4258604D01*
X8551614Y-4262484D01*
X8551613Y-4262485D01*
X8478989Y-4315250D01*
X8412164Y-4363801D01*
X8292409Y-4496803D01*
X8202923Y-4651797D01*
X8147618Y-4822009D01*
X8128910Y-5000000D01*
X8147618Y-5177991D01*
X8202923Y-5348203D01*
X8292409Y-5503197D01*
X8296827Y-5508104D01*
X8296828Y-5508105D01*
X8406990Y-5630453D01*
X8412164Y-5636199D01*
X8417506Y-5640080D01*
X8417508Y-5640082D01*
X8525733Y-5718712D01*
X8556955Y-5741396D01*
X8562983Y-5744080D01*
X8562985Y-5744081D01*
X8714423Y-5811505D01*
X8720454Y-5814190D01*
X8807984Y-5832795D01*
X8889057Y-5850028D01*
X8889061Y-5850028D01*
X8895514Y-5851400D01*
X9074486Y-5851400D01*
X9080939Y-5850028D01*
X9080943Y-5850028D01*
X9162016Y-5832795D01*
X9249546Y-5814190D01*
X9255577Y-5811505D01*
X9407015Y-5744081D01*
X9407017Y-5744080D01*
X9413045Y-5741396D01*
X9487966Y-5686963D01*
X9525677Y-5659564D01*
X9592545Y-5635705D01*
X9599738Y-5635500D01*
X11430980Y-5635500D01*
X11442214Y-5636030D01*
X11449719Y-5637708D01*
X11518012Y-5635562D01*
X11521969Y-5635500D01*
X11549983Y-5635500D01*
X11553908Y-5635004D01*
X11553909Y-5635004D01*
X11554004Y-5634992D01*
X11565849Y-5634059D01*
X11595670Y-5633122D01*
X11602282Y-5632914D01*
X11602283Y-5632914D01*
X11610205Y-5632665D01*
X11629749Y-5626987D01*
X11649112Y-5622977D01*
X11661440Y-5621420D01*
X11661442Y-5621420D01*
X11669299Y-5620427D01*
X11676663Y-5617511D01*
X11676668Y-5617510D01*
X11710556Y-5604093D01*
X11721785Y-5600248D01*
X11738465Y-5595402D01*
X11764393Y-5587869D01*
X11771220Y-5583831D01*
X11771223Y-5583830D01*
X11781906Y-5577512D01*
X11799664Y-5568812D01*
X11811215Y-5564239D01*
X11811221Y-5564235D01*
X11818588Y-5561319D01*
X11854491Y-5535234D01*
X11864410Y-5528719D01*
X11895768Y-5510174D01*
X11895772Y-5510171D01*
X11902598Y-5506134D01*
X11916982Y-5491750D01*
X11932016Y-5478909D01*
X11942073Y-5471602D01*
X11948487Y-5466942D01*
X11976778Y-5432744D01*
X11984767Y-5423965D01*
X13093483Y-4315250D01*
X13101809Y-4307674D01*
X13108303Y-4303553D01*
X13155086Y-4253734D01*
X13157840Y-4250893D01*
X13177639Y-4231094D01*
X13180068Y-4227963D01*
X13180072Y-4227958D01*
X13180139Y-4227872D01*
X13187847Y-4218847D01*
X13212791Y-4192285D01*
X13212794Y-4192281D01*
X13218217Y-4186506D01*
X13222036Y-4179560D01*
X13222039Y-4179555D01*
X13228022Y-4168672D01*
X13238878Y-4152144D01*
X13246492Y-4142329D01*
X13246494Y-4142326D01*
X13251349Y-4136067D01*
X13254495Y-4128797D01*
X13254498Y-4128792D01*
X13268969Y-4095350D01*
X13274192Y-4084689D01*
X13291749Y-4052753D01*
X13291751Y-4052748D01*
X13295569Y-4045803D01*
X13297539Y-4038129D01*
X13297542Y-4038122D01*
X13300632Y-4026087D01*
X13307036Y-4007382D01*
X13311967Y-3995987D01*
X13315117Y-3988708D01*
X13322060Y-3944873D01*
X13324467Y-3933251D01*
X13325294Y-3930031D01*
X13335500Y-3890282D01*
X13335500Y-3869935D01*
X13337051Y-3850224D01*
X13338995Y-3837950D01*
X13340235Y-3830121D01*
X13336059Y-3785944D01*
X13335500Y-3774086D01*
X13335500Y5005799D01*
X13355502Y5073920D01*
X13409158Y5120413D01*
X13479432Y5130517D01*
X13544012Y5101023D01*
G37*
%TD.AperFunction*%
%TA.AperFunction,Conductor*%
G36*
X-2316379Y29721999D02*
G01*
X-2269886Y29668343D01*
X-2258500Y29616001D01*
X-2258500Y28451866D01*
X-2251745Y28389684D01*
X-2200615Y28253295D01*
X-2113261Y28136739D01*
X-1996705Y28049385D01*
X-1860316Y27998255D01*
X-1798134Y27991500D01*
X1798134Y27991500D01*
X1860316Y27998255D01*
X1996705Y28049385D01*
X2113261Y28136739D01*
X2200615Y28253295D01*
X2251745Y28389684D01*
X2258500Y28451866D01*
X2258500Y29616001D01*
X2278502Y29684122D01*
X2332158Y29730615D01*
X2384500Y29742001D01*
X7366001Y29742001D01*
X7434122Y29721999D01*
X7480615Y29668343D01*
X7492001Y29616001D01*
X7492001Y29084500D01*
X7471999Y29016379D01*
X7418343Y28969886D01*
X7366001Y28958500D01*
X6451866Y28958500D01*
X6389684Y28951745D01*
X6253295Y28900615D01*
X6136739Y28813261D01*
X6049385Y28696705D01*
X5998255Y28560316D01*
X5991500Y28498134D01*
X5991500Y27404238D01*
X5971498Y27336117D01*
X5954599Y27315147D01*
X5027754Y26388303D01*
X4965444Y26354279D01*
X4938661Y26351400D01*
X4910514Y26351400D01*
X4904061Y26350028D01*
X4904057Y26350028D01*
X4822984Y26332795D01*
X4735454Y26314190D01*
X4729424Y26311505D01*
X4729423Y26311505D01*
X4577985Y26244081D01*
X4577983Y26244080D01*
X4571955Y26241396D01*
X4495472Y26185828D01*
X4428606Y26161970D01*
X4359454Y26178050D01*
X4309974Y26228963D01*
X4295891Y26298745D01*
X4313019Y26494524D01*
X4313019Y26494525D01*
X4313498Y26500000D01*
X4293543Y26728087D01*
X4234284Y26949243D01*
X4231961Y26954225D01*
X4139849Y27151762D01*
X4139846Y27151767D01*
X4137523Y27156749D01*
X4006198Y27344300D01*
X3844300Y27506198D01*
X3839792Y27509355D01*
X3839789Y27509357D01*
X3670349Y27628000D01*
X3656749Y27637523D01*
X3651767Y27639846D01*
X3651762Y27639849D01*
X3454225Y27731961D01*
X3454224Y27731961D01*
X3449243Y27734284D01*
X3443935Y27735706D01*
X3443933Y27735707D01*
X3233402Y27792119D01*
X3233400Y27792119D01*
X3228087Y27793543D01*
X3128520Y27802254D01*
X3059851Y27808262D01*
X3059844Y27808262D01*
X3057127Y27808500D01*
X2942873Y27808500D01*
X2940156Y27808262D01*
X2940149Y27808262D01*
X2871480Y27802254D01*
X2771913Y27793543D01*
X2766600Y27792119D01*
X2766598Y27792119D01*
X2556067Y27735707D01*
X2556065Y27735706D01*
X2550757Y27734284D01*
X2545776Y27731961D01*
X2545775Y27731961D01*
X2348238Y27639849D01*
X2348233Y27639846D01*
X2343251Y27637523D01*
X2329651Y27628000D01*
X2160211Y27509357D01*
X2160208Y27509355D01*
X2155700Y27506198D01*
X1993802Y27344300D01*
X1862477Y27156749D01*
X1860154Y27151767D01*
X1860151Y27151762D01*
X1768039Y26954225D01*
X1765716Y26949243D01*
X1706457Y26728087D01*
X1686502Y26500000D01*
X1706457Y26271913D01*
X1707881Y26266600D01*
X1707881Y26266598D01*
X1730626Y26181715D01*
X1765716Y26050757D01*
X1768039Y26045776D01*
X1768039Y26045775D01*
X1860151Y25848238D01*
X1860154Y25848233D01*
X1862477Y25843251D01*
X1865634Y25838743D01*
X1978194Y25677991D01*
X1993802Y25655700D01*
X2155700Y25493802D01*
X2160208Y25490645D01*
X2160211Y25490643D01*
X2217337Y25450643D01*
X2343251Y25362477D01*
X2348233Y25360154D01*
X2348238Y25360151D01*
X2545775Y25268039D01*
X2550757Y25265716D01*
X2556065Y25264294D01*
X2556067Y25264293D01*
X2766598Y25207881D01*
X2766600Y25207881D01*
X2771913Y25206457D01*
X2871480Y25197746D01*
X2940149Y25191738D01*
X2940156Y25191738D01*
X2942873Y25191500D01*
X3057127Y25191500D01*
X3059844Y25191738D01*
X3059851Y25191738D01*
X3128520Y25197746D01*
X3228087Y25206457D01*
X3233400Y25207881D01*
X3233402Y25207881D01*
X3443933Y25264293D01*
X3443935Y25264294D01*
X3449243Y25265716D01*
X3454225Y25268039D01*
X3651762Y25360151D01*
X3651767Y25360154D01*
X3656749Y25362477D01*
X3782663Y25450643D01*
X3839789Y25490643D01*
X3839792Y25490645D01*
X3844300Y25493802D01*
X3929505Y25579007D01*
X3991817Y25613033D01*
X4062632Y25607968D01*
X4119468Y25565421D01*
X4143871Y25499996D01*
X4143910Y25500000D01*
X4144409Y25495255D01*
X4144409Y25495248D01*
X4158609Y25360151D01*
X4162618Y25322009D01*
X4164658Y25315731D01*
X4164658Y25315730D01*
X4166031Y25311505D01*
X4217923Y25151797D01*
X4221226Y25146075D01*
X4221227Y25146074D01*
X4229764Y25131288D01*
X4307409Y24996803D01*
X4311827Y24991896D01*
X4311828Y24991895D01*
X4394017Y24900615D01*
X4427164Y24863801D01*
X4432506Y24859920D01*
X4432508Y24859918D01*
X4566613Y24762485D01*
X4571955Y24758604D01*
X4577983Y24755920D01*
X4577985Y24755919D01*
X4710983Y24696705D01*
X4735454Y24685810D01*
X4822984Y24667205D01*
X4904057Y24649972D01*
X4904061Y24649972D01*
X4910514Y24648600D01*
X5089486Y24648600D01*
X5095939Y24649972D01*
X5095943Y24649972D01*
X5177016Y24667205D01*
X5264546Y24685810D01*
X5289017Y24696705D01*
X5422015Y24755919D01*
X5422017Y24755920D01*
X5428045Y24758604D01*
X5433387Y24762485D01*
X5567492Y24859918D01*
X5567494Y24859920D01*
X5572836Y24863801D01*
X5605983Y24900615D01*
X5688172Y24991895D01*
X5688173Y24991896D01*
X5692591Y24996803D01*
X5770236Y25131288D01*
X5778773Y25146074D01*
X5778774Y25146075D01*
X5782077Y25151797D01*
X5833969Y25311505D01*
X5835342Y25315730D01*
X5835342Y25315731D01*
X5837382Y25322009D01*
X5850902Y25450643D01*
X5877915Y25516299D01*
X5887116Y25526567D01*
X6365143Y26004595D01*
X6427456Y26038620D01*
X6454239Y26041500D01*
X7366001Y26041500D01*
X7434122Y26021498D01*
X7480615Y25967842D01*
X7492001Y25915500D01*
X7492001Y25084500D01*
X7471999Y25016379D01*
X7418343Y24969886D01*
X7366001Y24958500D01*
X6451866Y24958500D01*
X6389684Y24951745D01*
X6253295Y24900615D01*
X6136739Y24813261D01*
X6049385Y24696705D01*
X5998255Y24560316D01*
X5991500Y24498134D01*
X5991500Y23442423D01*
X5971498Y23374302D01*
X5954595Y23353328D01*
X4273672Y21672405D01*
X4211360Y21638379D01*
X4184577Y21635500D01*
X4114738Y21635500D01*
X4046617Y21655502D01*
X4040677Y21659564D01*
X3933387Y21737515D01*
X3933386Y21737516D01*
X3928045Y21741396D01*
X3922017Y21744080D01*
X3922015Y21744081D01*
X3770577Y21811505D01*
X3770576Y21811505D01*
X3764546Y21814190D01*
X3677016Y21832795D01*
X3595943Y21850028D01*
X3595939Y21850028D01*
X3589486Y21851400D01*
X3410514Y21851400D01*
X3404061Y21850028D01*
X3404057Y21850028D01*
X3322984Y21832795D01*
X3235454Y21814190D01*
X3229424Y21811505D01*
X3229423Y21811505D01*
X3077985Y21744081D01*
X3077983Y21744080D01*
X3071955Y21741396D01*
X3066614Y21737516D01*
X3066613Y21737515D01*
X2995448Y21685810D01*
X2927164Y21636199D01*
X2807409Y21503197D01*
X2717923Y21348203D01*
X2715881Y21341918D01*
X2675662Y21218135D01*
X2662618Y21177991D01*
X2661928Y21171428D01*
X2661928Y21171427D01*
X2658225Y21136199D01*
X2643910Y21000000D01*
X2662618Y20822009D01*
X2667793Y20806081D01*
X2669628Y20800434D01*
X2671654Y20729466D01*
X2634990Y20668669D01*
X2571277Y20637345D01*
X2549794Y20635500D01*
X942732Y20635500D01*
X874611Y20655502D01*
X828118Y20709158D01*
X822899Y20722564D01*
X820657Y20729466D01*
X782077Y20848203D01*
X754927Y20895229D01*
X711823Y20969886D01*
X692591Y21003197D01*
X572836Y21136199D01*
X551416Y21151762D01*
X433387Y21237515D01*
X433386Y21237516D01*
X428045Y21241396D01*
X422017Y21244080D01*
X422015Y21244081D01*
X270577Y21311505D01*
X270576Y21311505D01*
X264546Y21314190D01*
X177016Y21332795D01*
X95943Y21350028D01*
X95939Y21350028D01*
X89486Y21351400D01*
X-89486Y21351400D01*
X-95939Y21350028D01*
X-95943Y21350028D01*
X-177016Y21332795D01*
X-264546Y21314190D01*
X-270576Y21311505D01*
X-270577Y21311505D01*
X-422015Y21244081D01*
X-422017Y21244080D01*
X-428045Y21241396D01*
X-433386Y21237516D01*
X-433387Y21237515D01*
X-551415Y21151762D01*
X-572836Y21136199D01*
X-692591Y21003197D01*
X-711823Y20969886D01*
X-754926Y20895229D01*
X-782077Y20848203D01*
X-784119Y20841919D01*
X-784119Y20841918D01*
X-831301Y20696705D01*
X-837382Y20677991D01*
X-838072Y20671428D01*
X-838072Y20671427D01*
X-841654Y20637345D01*
X-856090Y20500000D01*
X-837382Y20322009D01*
X-835342Y20315731D01*
X-835342Y20315730D01*
X-821105Y20271913D01*
X-782077Y20151797D01*
X-692591Y19996803D01*
X-572836Y19863801D01*
X-567494Y19859920D01*
X-567492Y19859918D01*
X-538347Y19838743D01*
X-428045Y19758604D01*
X-422017Y19755920D01*
X-422015Y19755919D01*
X-270577Y19688495D01*
X-264546Y19685810D01*
X-89486Y19648600D01*
X-86347Y19648600D01*
X-21878Y19622079D01*
X-11607Y19612874D01*
X-5245Y19606512D01*
X2324Y19598195D01*
X6447Y19591697D01*
X56266Y19544914D01*
X59108Y19542159D01*
X78906Y19522361D01*
X82031Y19519937D01*
X82040Y19519929D01*
X82126Y19519863D01*
X91151Y19512155D01*
X123494Y19481783D01*
X130438Y19477965D01*
X130440Y19477964D01*
X141329Y19471978D01*
X157847Y19461127D01*
X173933Y19448650D01*
X214666Y19431024D01*
X225314Y19425807D01*
X264197Y19404431D01*
X271872Y19402460D01*
X271878Y19402458D01*
X283911Y19399369D01*
X302613Y19392966D01*
X321292Y19384883D01*
X355128Y19379524D01*
X365127Y19377940D01*
X376740Y19375535D01*
X419718Y19364500D01*
X440065Y19364500D01*
X459777Y19362949D01*
X479879Y19359765D01*
X487771Y19360511D01*
X524056Y19363941D01*
X535914Y19364500D01*
X5865500Y19364500D01*
X5933621Y19344498D01*
X5980114Y19290842D01*
X5991500Y19238500D01*
X5991500Y18665821D01*
X5971498Y18597700D01*
X5917842Y18551207D01*
X5847568Y18541103D01*
X5782988Y18570597D01*
X5747518Y18621592D01*
X5703768Y18738295D01*
X5703767Y18738297D01*
X5700615Y18746705D01*
X5613261Y18863261D01*
X5496705Y18950615D01*
X5360316Y19001745D01*
X5298134Y19008500D01*
X1701866Y19008500D01*
X1639684Y19001745D01*
X1503295Y18950615D01*
X1386739Y18863261D01*
X1299385Y18746705D01*
X1248255Y18610316D01*
X1241500Y18548134D01*
X1241500Y16951866D01*
X1248255Y16889684D01*
X1299385Y16753295D01*
X1386739Y16636739D01*
X1503295Y16549385D01*
X1639684Y16498255D01*
X1701866Y16491500D01*
X4371774Y16491500D01*
X4439895Y16471498D01*
X4486388Y16417842D01*
X4497295Y16354519D01*
X4492196Y16296234D01*
X4490929Y16286310D01*
X4486930Y16262541D01*
X4486777Y16250002D01*
X4488566Y16237510D01*
X4490728Y16222414D01*
X4492001Y16204551D01*
X4492001Y14544584D01*
X4490255Y14523680D01*
X4486930Y14503916D01*
X4486777Y14491377D01*
X4487466Y14486568D01*
X4487466Y14486565D01*
X4489750Y14470621D01*
X4490554Y14463616D01*
X4503183Y14317619D01*
X4504576Y14312360D01*
X4504576Y14312358D01*
X4546436Y14154282D01*
X4546437Y14154278D01*
X4547829Y14149023D01*
X4550105Y14144080D01*
X4550105Y14144079D01*
X4568908Y14103236D01*
X4620764Y13990598D01*
X4719821Y13847051D01*
X4723624Y13843181D01*
X4723626Y13843178D01*
X4838245Y13726525D01*
X4838249Y13726522D01*
X4842056Y13722647D01*
X4983839Y13621082D01*
X5070237Y13579450D01*
X5099541Y13565329D01*
X5108474Y13560574D01*
X5128800Y13548680D01*
X5134386Y13546481D01*
X5134622Y13546347D01*
X5134887Y13546284D01*
X5140469Y13544087D01*
X5145215Y13543023D01*
X5145216Y13543023D01*
X5160654Y13539563D01*
X5180795Y13533237D01*
X5187880Y13530339D01*
X5823284Y13270460D01*
X5829167Y13267877D01*
X6492151Y12956378D01*
X6497894Y12953498D01*
X7144109Y12608625D01*
X7149698Y12605457D01*
X7777518Y12228080D01*
X7782938Y12224631D01*
X8390693Y11815752D01*
X8395931Y11812031D01*
X8982074Y11372690D01*
X8987114Y11368707D01*
X9550076Y10900082D01*
X9554908Y10895847D01*
X10093273Y10399115D01*
X10097882Y10394639D01*
X10610206Y9871132D01*
X10614581Y9866428D01*
X11099571Y9317471D01*
X11103701Y9312549D01*
X11560074Y8739590D01*
X11563947Y8734464D01*
X11990528Y8138978D01*
X11994135Y8133662D01*
X12252701Y7730819D01*
X12272664Y7662687D01*
X12252623Y7594578D01*
X12198941Y7548115D01*
X12128661Y7538052D01*
X12064097Y7567582D01*
X12057569Y7573664D01*
X8987750Y10643483D01*
X8980174Y10651809D01*
X8976053Y10658303D01*
X8926234Y10705086D01*
X8923393Y10707840D01*
X8903594Y10727639D01*
X8900469Y10730063D01*
X8900460Y10730071D01*
X8900374Y10730137D01*
X8891349Y10737845D01*
X8864785Y10762790D01*
X8859006Y10768217D01*
X8841169Y10778023D01*
X8824653Y10788873D01*
X8808567Y10801350D01*
X8767834Y10818976D01*
X8757186Y10824193D01*
X8745558Y10830585D01*
X8718303Y10845569D01*
X8710628Y10847540D01*
X8710622Y10847542D01*
X8698589Y10850631D01*
X8679887Y10857034D01*
X8661208Y10865117D01*
X8627372Y10870476D01*
X8617373Y10872060D01*
X8605760Y10874465D01*
X8562782Y10885500D01*
X8542435Y10885500D01*
X8522724Y10887051D01*
X8510450Y10888995D01*
X8502621Y10890235D01*
X8494729Y10889489D01*
X8458444Y10886059D01*
X8446586Y10885500D01*
X4700340Y10885500D01*
X4632219Y10905502D01*
X4592907Y10945665D01*
X4476758Y11135202D01*
X4474176Y11139416D01*
X4319969Y11319969D01*
X4139416Y11474176D01*
X4135208Y11476755D01*
X4135202Y11476759D01*
X3941183Y11595654D01*
X3936963Y11598240D01*
X3932393Y11600133D01*
X3932389Y11600135D01*
X3722167Y11687211D01*
X3722165Y11687212D01*
X3717594Y11689105D01*
X3637391Y11708360D01*
X3491524Y11743380D01*
X3491518Y11743381D01*
X3486711Y11744535D01*
X3250000Y11763165D01*
X3013289Y11744535D01*
X3008482Y11743381D01*
X3008476Y11743380D01*
X2862609Y11708360D01*
X2782406Y11689105D01*
X2777835Y11687212D01*
X2777833Y11687211D01*
X2567611Y11600135D01*
X2567607Y11600133D01*
X2563037Y11598240D01*
X2558817Y11595654D01*
X2364798Y11476759D01*
X2364792Y11476755D01*
X2360584Y11474176D01*
X2180031Y11319969D01*
X2025824Y11139416D01*
X2023245Y11135208D01*
X2023241Y11135202D01*
X1907093Y10945665D01*
X1901760Y10936963D01*
X1899867Y10932393D01*
X1899865Y10932389D01*
X1819283Y10737845D01*
X1810895Y10717594D01*
X1755465Y10486711D01*
X1736835Y10250000D01*
X1755465Y10013289D01*
X1810895Y9782406D01*
X1812788Y9777835D01*
X1812789Y9777833D01*
X1888729Y9594498D01*
X1901760Y9563037D01*
X1904346Y9558817D01*
X2023241Y9364798D01*
X2023245Y9364792D01*
X2025824Y9360584D01*
X2180031Y9180031D01*
X2360584Y9025824D01*
X2364792Y9023245D01*
X2364798Y9023241D01*
X2549847Y8909843D01*
X2563037Y8901760D01*
X2567607Y8899867D01*
X2567611Y8899865D01*
X2777833Y8812789D01*
X2782406Y8810895D01*
X2862609Y8791640D01*
X3008476Y8756620D01*
X3008482Y8756619D01*
X3013289Y8755465D01*
X3250000Y8736835D01*
X3486711Y8755465D01*
X3491518Y8756619D01*
X3491524Y8756620D01*
X3637391Y8791640D01*
X3717594Y8810895D01*
X3722167Y8812789D01*
X3932389Y8899865D01*
X3932393Y8899867D01*
X3936963Y8901760D01*
X3950153Y8909843D01*
X4135202Y9023241D01*
X4135208Y9023245D01*
X4139416Y9025824D01*
X4319969Y9180031D01*
X4474176Y9360584D01*
X4592908Y9554336D01*
X4645555Y9601966D01*
X4700340Y9614500D01*
X8167078Y9614500D01*
X8235199Y9594498D01*
X8256173Y9577595D01*
X12027595Y5806172D01*
X12061621Y5743860D01*
X12064500Y5717077D01*
X12064500Y1769665D01*
X12044498Y1701544D01*
X11990842Y1655051D01*
X11920568Y1644947D01*
X11864439Y1667729D01*
X11768387Y1737515D01*
X11768386Y1737516D01*
X11763045Y1741396D01*
X11757017Y1744080D01*
X11757015Y1744081D01*
X11605577Y1811505D01*
X11605576Y1811505D01*
X11599546Y1814190D01*
X11512016Y1832795D01*
X11430943Y1850028D01*
X11430939Y1850028D01*
X11424486Y1851400D01*
X11245514Y1851400D01*
X11239061Y1850028D01*
X11239057Y1850028D01*
X11157984Y1832795D01*
X11070454Y1814190D01*
X11064424Y1811505D01*
X11064423Y1811505D01*
X10912985Y1744081D01*
X10912983Y1744080D01*
X10906955Y1741396D01*
X10901614Y1737516D01*
X10901613Y1737515D01*
X10769536Y1641555D01*
X10762164Y1636199D01*
X10757743Y1631289D01*
X10757742Y1631288D01*
X10756300Y1629687D01*
X10755234Y1629030D01*
X10752837Y1626872D01*
X10752442Y1627310D01*
X10695853Y1592449D01*
X10662666Y1588000D01*
X6982923Y1588000D01*
X6914802Y1608002D01*
X6893828Y1624905D01*
X6597633Y1921100D01*
X6563607Y1983412D01*
X6561418Y1997024D01*
X6553072Y2076427D01*
X6553072Y2076428D01*
X6552382Y2082991D01*
X6536677Y2131328D01*
X6499119Y2246918D01*
X6497077Y2253203D01*
X6407591Y2408197D01*
X6333558Y2490420D01*
X6292258Y2536288D01*
X6292257Y2536289D01*
X6287836Y2541199D01*
X6143045Y2646396D01*
X6137017Y2649080D01*
X6137015Y2649081D01*
X5985577Y2716505D01*
X5985576Y2716505D01*
X5979546Y2719190D01*
X5892016Y2737795D01*
X5810943Y2755028D01*
X5810939Y2755028D01*
X5804486Y2756400D01*
X5625514Y2756400D01*
X5619061Y2755028D01*
X5619057Y2755028D01*
X5537984Y2737795D01*
X5450454Y2719190D01*
X5444424Y2716505D01*
X5444423Y2716505D01*
X5292985Y2649081D01*
X5292983Y2649080D01*
X5286955Y2646396D01*
X5142164Y2541199D01*
X5137743Y2536289D01*
X5137742Y2536288D01*
X5096443Y2490420D01*
X5022409Y2408197D01*
X4932923Y2253203D01*
X4930881Y2246918D01*
X4893324Y2131328D01*
X4877618Y2082991D01*
X4876928Y2076428D01*
X4876928Y2076427D01*
X4867152Y1983412D01*
X4858910Y1905000D01*
X4859600Y1898435D01*
X4873532Y1765888D01*
X4877618Y1727009D01*
X4932923Y1556797D01*
X4936226Y1551075D01*
X4936227Y1551074D01*
X4961794Y1506791D01*
X5022409Y1401803D01*
X5065711Y1353711D01*
X5096427Y1289705D01*
X5087662Y1219252D01*
X5042199Y1164721D01*
X4974471Y1143426D01*
X4918823Y1155208D01*
X4754225Y1231961D01*
X4754224Y1231961D01*
X4749243Y1234284D01*
X4743935Y1235706D01*
X4743933Y1235707D01*
X4533402Y1292119D01*
X4533400Y1292119D01*
X4528087Y1293543D01*
X4428520Y1302254D01*
X4359851Y1308262D01*
X4359844Y1308262D01*
X4357127Y1308500D01*
X4242873Y1308500D01*
X4240156Y1308262D01*
X4240149Y1308262D01*
X4171480Y1302254D01*
X4071913Y1293543D01*
X4066600Y1292119D01*
X4066598Y1292119D01*
X3856067Y1235707D01*
X3856065Y1235706D01*
X3850757Y1234284D01*
X3845776Y1231961D01*
X3845775Y1231961D01*
X3648238Y1139849D01*
X3648233Y1139846D01*
X3643251Y1137523D01*
X3638744Y1134367D01*
X3633981Y1131617D01*
X3633255Y1132874D01*
X3572457Y1112371D01*
X3503597Y1129656D01*
X3455013Y1181426D01*
X3450827Y1192049D01*
X3450727Y1192006D01*
X3447581Y1199277D01*
X3445368Y1206893D01*
X3435011Y1224407D01*
X3426315Y1242157D01*
X3421739Y1253715D01*
X3421736Y1253720D01*
X3418819Y1261088D01*
X3392733Y1296993D01*
X3386216Y1306915D01*
X3367672Y1338272D01*
X3367670Y1338275D01*
X3363634Y1345099D01*
X3349247Y1359486D01*
X3336406Y1374520D01*
X3329102Y1384573D01*
X3324442Y1390987D01*
X3290250Y1419273D01*
X3281471Y1427262D01*
X2577405Y2131328D01*
X2543379Y2193640D01*
X2540500Y2220423D01*
X2540500Y4089578D01*
X2560502Y4157699D01*
X2577405Y4178673D01*
X2673821Y4275089D01*
X2736133Y4309115D01*
X2792328Y4308513D01*
X2904608Y4281557D01*
X3008476Y4256620D01*
X3008482Y4256619D01*
X3013289Y4255465D01*
X3250000Y4236835D01*
X3486711Y4255465D01*
X3491518Y4256619D01*
X3491524Y4256620D01*
X3637391Y4291640D01*
X3717594Y4310895D01*
X3722167Y4312789D01*
X3932389Y4399865D01*
X3932393Y4399867D01*
X3936963Y4401760D01*
X3962206Y4417229D01*
X4135202Y4523241D01*
X4135208Y4523245D01*
X4139416Y4525824D01*
X4319969Y4680031D01*
X4474176Y4860584D01*
X4580509Y5034103D01*
X4633157Y5081734D01*
X4703199Y5093341D01*
X4768396Y5065238D01*
X4808050Y5006347D01*
X4813554Y4978154D01*
X4830465Y4763289D01*
X4831619Y4758482D01*
X4831620Y4758476D01*
X4858203Y4647751D01*
X4885895Y4532406D01*
X4887788Y4527835D01*
X4887789Y4527833D01*
X4933603Y4417229D01*
X4976760Y4313037D01*
X4979346Y4308817D01*
X5098241Y4114798D01*
X5098245Y4114792D01*
X5100824Y4110584D01*
X5255031Y3930031D01*
X5435584Y3775824D01*
X5439792Y3773245D01*
X5439798Y3773241D01*
X5633817Y3654346D01*
X5638037Y3651760D01*
X5642607Y3649867D01*
X5642611Y3649865D01*
X5852833Y3562789D01*
X5857406Y3560895D01*
X5937609Y3541640D01*
X6083476Y3506620D01*
X6083482Y3506619D01*
X6088289Y3505465D01*
X6325000Y3486835D01*
X6561711Y3505465D01*
X6566518Y3506619D01*
X6566524Y3506620D01*
X6712391Y3541640D01*
X6792594Y3560895D01*
X6797167Y3562789D01*
X7007389Y3649865D01*
X7007393Y3649867D01*
X7011963Y3651760D01*
X7016183Y3654346D01*
X7210202Y3773241D01*
X7210208Y3773245D01*
X7214416Y3775824D01*
X7394969Y3930031D01*
X7549176Y4110584D01*
X7551755Y4114792D01*
X7551759Y4114798D01*
X7670654Y4308817D01*
X7673240Y4313037D01*
X7716398Y4417229D01*
X7762211Y4527833D01*
X7762212Y4527835D01*
X7764105Y4532406D01*
X7791797Y4647751D01*
X7818380Y4758476D01*
X7818381Y4758482D01*
X7819535Y4763289D01*
X7838165Y5000000D01*
X7819535Y5236711D01*
X7809663Y5277833D01*
X7765260Y5462782D01*
X7764105Y5467594D01*
X7733543Y5541378D01*
X7675135Y5682389D01*
X7675133Y5682393D01*
X7673240Y5686963D01*
X7622804Y5769267D01*
X7551759Y5885202D01*
X7551755Y5885208D01*
X7549176Y5889416D01*
X7394969Y6069969D01*
X7214416Y6224176D01*
X7210208Y6226755D01*
X7210202Y6226759D01*
X7016183Y6345654D01*
X7011963Y6348240D01*
X7007393Y6350133D01*
X7007389Y6350135D01*
X6797167Y6437211D01*
X6797165Y6437212D01*
X6792594Y6439105D01*
X6712391Y6458360D01*
X6566524Y6493380D01*
X6566518Y6493381D01*
X6561711Y6494535D01*
X6325000Y6513165D01*
X6088289Y6494535D01*
X6083482Y6493381D01*
X6083476Y6493380D01*
X5937609Y6458360D01*
X5857406Y6439105D01*
X5852835Y6437212D01*
X5852833Y6437211D01*
X5642611Y6350135D01*
X5642607Y6350133D01*
X5638037Y6348240D01*
X5633817Y6345654D01*
X5439798Y6226759D01*
X5439792Y6226755D01*
X5435584Y6224176D01*
X5255031Y6069969D01*
X5100824Y5889416D01*
X5015389Y5750000D01*
X4994491Y5715897D01*
X4941843Y5668266D01*
X4871801Y5656659D01*
X4806604Y5684762D01*
X4766950Y5743653D01*
X4761446Y5771846D01*
X4744923Y5981777D01*
X4744535Y5986711D01*
X4725449Y6066213D01*
X4708360Y6137391D01*
X4689105Y6217594D01*
X4685309Y6226759D01*
X4600135Y6432389D01*
X4600133Y6432393D01*
X4598240Y6436963D01*
X4595654Y6441183D01*
X4476759Y6635202D01*
X4476755Y6635208D01*
X4474176Y6639416D01*
X4319969Y6819969D01*
X4139416Y6974176D01*
X4135208Y6976755D01*
X4135202Y6976759D01*
X3941183Y7095654D01*
X3936963Y7098240D01*
X3932393Y7100133D01*
X3932389Y7100135D01*
X3722167Y7187211D01*
X3722165Y7187212D01*
X3717594Y7189105D01*
X3637391Y7208360D01*
X3491524Y7243380D01*
X3491518Y7243381D01*
X3486711Y7244535D01*
X3250000Y7263165D01*
X3013289Y7244535D01*
X3008482Y7243381D01*
X3008476Y7243380D01*
X2862609Y7208360D01*
X2782406Y7189105D01*
X2777835Y7187212D01*
X2777833Y7187211D01*
X2567611Y7100135D01*
X2567607Y7100133D01*
X2563037Y7098240D01*
X2558817Y7095654D01*
X2364798Y6976759D01*
X2364792Y6976755D01*
X2360584Y6974176D01*
X2180031Y6819969D01*
X2025824Y6639416D01*
X2023245Y6635208D01*
X2023241Y6635202D01*
X1904346Y6441183D01*
X1901760Y6436963D01*
X1899867Y6432393D01*
X1899865Y6432389D01*
X1814691Y6226759D01*
X1810895Y6217594D01*
X1791640Y6137391D01*
X1774552Y6066213D01*
X1755465Y5986711D01*
X1736835Y5750000D01*
X1755465Y5513289D01*
X1756619Y5508482D01*
X1756620Y5508476D01*
X1808512Y5292330D01*
X1804965Y5221422D01*
X1775088Y5173821D01*
X1511517Y4910250D01*
X1503191Y4902674D01*
X1496697Y4898553D01*
X1491274Y4892778D01*
X1449915Y4848735D01*
X1447160Y4845893D01*
X1427361Y4826094D01*
X1424937Y4822969D01*
X1424929Y4822960D01*
X1424863Y4822874D01*
X1417155Y4813849D01*
X1386783Y4781506D01*
X1382965Y4774562D01*
X1382964Y4774560D01*
X1376978Y4763671D01*
X1366127Y4747153D01*
X1353650Y4731067D01*
X1336024Y4690334D01*
X1330807Y4679686D01*
X1309431Y4640803D01*
X1307460Y4633128D01*
X1307458Y4633122D01*
X1304369Y4621089D01*
X1297966Y4602387D01*
X1289883Y4583708D01*
X1288644Y4575883D01*
X1282940Y4539873D01*
X1280535Y4528260D01*
X1269500Y4485282D01*
X1269500Y4464935D01*
X1267949Y4445224D01*
X1264765Y4425121D01*
X1265511Y4417229D01*
X1268941Y4380944D01*
X1269500Y4369086D01*
X1269500Y1984020D01*
X1268970Y1972786D01*
X1267292Y1965281D01*
X1267541Y1957362D01*
X1269438Y1896988D01*
X1269500Y1893031D01*
X1269500Y1865017D01*
X1269996Y1861092D01*
X1269996Y1861091D01*
X1270008Y1860996D01*
X1270941Y1849151D01*
X1272335Y1804795D01*
X1274547Y1797183D01*
X1278013Y1785252D01*
X1282023Y1765888D01*
X1284573Y1745701D01*
X1287489Y1738337D01*
X1287490Y1738332D01*
X1300907Y1704444D01*
X1304752Y1693215D01*
X1317131Y1650607D01*
X1321169Y1643780D01*
X1321170Y1643777D01*
X1327488Y1633094D01*
X1336188Y1615336D01*
X1340761Y1603785D01*
X1340765Y1603779D01*
X1343681Y1596412D01*
X1348339Y1590001D01*
X1348340Y1589999D01*
X1369764Y1560512D01*
X1376281Y1550590D01*
X1394826Y1519232D01*
X1394829Y1519228D01*
X1398866Y1512402D01*
X1413250Y1498018D01*
X1426091Y1482984D01*
X1438058Y1466513D01*
X1444166Y1461460D01*
X1472255Y1438223D01*
X1481035Y1430233D01*
X2185095Y726173D01*
X2219121Y663861D01*
X2222000Y637078D01*
X2222000Y-238480D01*
X2221470Y-249714D01*
X2219792Y-257219D01*
X2220041Y-265138D01*
X2221938Y-325512D01*
X2222000Y-329469D01*
X2222000Y-357483D01*
X2222496Y-361408D01*
X2222496Y-361409D01*
X2222508Y-361504D01*
X2223442Y-373359D01*
X2224055Y-392888D01*
X2206200Y-461603D01*
X2149365Y-511948D01*
X2111955Y-528604D01*
X2106614Y-532484D01*
X2106613Y-532485D01*
X2021029Y-594666D01*
X1967164Y-633801D01*
X1962743Y-638711D01*
X1962742Y-638712D01*
X1942443Y-661257D01*
X1847409Y-766803D01*
X1757923Y-921797D01*
X1755881Y-928082D01*
X1711000Y-1066213D01*
X1702618Y-1092009D01*
X1701928Y-1098572D01*
X1701928Y-1098573D01*
X1693582Y-1177976D01*
X1666568Y-1243633D01*
X1657367Y-1253900D01*
X-393483Y-3304750D01*
X-401809Y-3312326D01*
X-408303Y-3316447D01*
X-413726Y-3322222D01*
X-455085Y-3366265D01*
X-457840Y-3369107D01*
X-477639Y-3388906D01*
X-480063Y-3392031D01*
X-480071Y-3392040D01*
X-480137Y-3392126D01*
X-487845Y-3401151D01*
X-518217Y-3433494D01*
X-522035Y-3440438D01*
X-522036Y-3440440D01*
X-528022Y-3451329D01*
X-538873Y-3467847D01*
X-551350Y-3483933D01*
X-568976Y-3524666D01*
X-574193Y-3535314D01*
X-595569Y-3574197D01*
X-597540Y-3581872D01*
X-597542Y-3581878D01*
X-600631Y-3593911D01*
X-607034Y-3612613D01*
X-615117Y-3631292D01*
X-618978Y-3655672D01*
X-622060Y-3675127D01*
X-624465Y-3686740D01*
X-635500Y-3729718D01*
X-635500Y-3750065D01*
X-637051Y-3769776D01*
X-640235Y-3789879D01*
X-639489Y-3797771D01*
X-636059Y-3834056D01*
X-635500Y-3845914D01*
X-635500Y-7279660D01*
X-655502Y-7347781D01*
X-695664Y-7387092D01*
X-889416Y-7505824D01*
X-1069969Y-7660031D01*
X-1073177Y-7663787D01*
X-1208753Y-7822526D01*
X-1254686Y-7856402D01*
X-1276668Y-7865878D01*
X-2410905Y-9000115D01*
X-2473217Y-9034141D01*
X-2544032Y-9029076D01*
X-2589095Y-9000115D01*
X-3720290Y-7868920D01*
X-3732670Y-7862160D01*
X-3740320Y-7867887D01*
X-3845205Y-8039042D01*
X-3849687Y-8047837D01*
X-3936734Y-8257988D01*
X-3939783Y-8267373D01*
X-3992885Y-8488554D01*
X-3994428Y-8498301D01*
X-4012275Y-8725070D01*
X-4012275Y-8734930D01*
X-3994428Y-8961699D01*
X-3992885Y-8971446D01*
X-3939783Y-9192627D01*
X-3936734Y-9202012D01*
X-3888781Y-9317781D01*
X-3881192Y-9388371D01*
X-3912971Y-9451858D01*
X-3974030Y-9488085D01*
X-4005190Y-9491999D01*
X-10887267Y-9491999D01*
X-10955388Y-9471997D01*
X-10983293Y-9447577D01*
X-11278034Y-9100637D01*
X-11282067Y-9095637D01*
X-11727258Y-8513934D01*
X-11731031Y-8508734D01*
X-12145981Y-7905113D01*
X-12149472Y-7899747D01*
X-12396543Y-7497890D01*
X-3367907Y-7497890D01*
X-3364124Y-7506666D01*
X-2512812Y-8357978D01*
X-2498868Y-8365592D01*
X-2497035Y-8365461D01*
X-2490420Y-8361210D01*
X-1638920Y-7509710D01*
X-1632160Y-7497330D01*
X-1637887Y-7489680D01*
X-1809042Y-7384795D01*
X-1817837Y-7380313D01*
X-2027988Y-7293266D01*
X-2037373Y-7290217D01*
X-2258554Y-7237115D01*
X-2268301Y-7235572D01*
X-2495070Y-7217725D01*
X-2504930Y-7217725D01*
X-2731699Y-7235572D01*
X-2741446Y-7237115D01*
X-2962627Y-7290217D01*
X-2972012Y-7293266D01*
X-3182163Y-7380313D01*
X-3190958Y-7384795D01*
X-3358445Y-7487432D01*
X-3367907Y-7497890D01*
X-12396543Y-7497890D01*
X-12533147Y-7275706D01*
X-12536357Y-7270173D01*
X-12542090Y-7259684D01*
X-12887703Y-6627426D01*
X-12890638Y-6621716D01*
X-12935827Y-6527991D01*
X-13208770Y-5961886D01*
X-13211407Y-5956039D01*
X-13237857Y-5893175D01*
X-13495498Y-5280835D01*
X-13497808Y-5274928D01*
X-13597315Y-5000000D01*
X-7838165Y-5000000D01*
X-7819535Y-5236711D01*
X-7818381Y-5241518D01*
X-7818380Y-5241524D01*
X-7808937Y-5280856D01*
X-7764105Y-5467594D01*
X-7762212Y-5472165D01*
X-7762211Y-5472167D01*
X-7695076Y-5634245D01*
X-7673240Y-5686963D01*
X-7670654Y-5691183D01*
X-7551759Y-5885202D01*
X-7551755Y-5885208D01*
X-7549176Y-5889416D01*
X-7394969Y-6069969D01*
X-7214416Y-6224176D01*
X-7210208Y-6226755D01*
X-7210202Y-6226759D01*
X-7019804Y-6343435D01*
X-7011963Y-6348240D01*
X-7007393Y-6350133D01*
X-7007389Y-6350135D01*
X-6991865Y-6356565D01*
X-6792594Y-6439105D01*
X-6712391Y-6458360D01*
X-6566524Y-6493380D01*
X-6566518Y-6493381D01*
X-6561711Y-6494535D01*
X-6325000Y-6513165D01*
X-6088289Y-6494535D01*
X-6083482Y-6493381D01*
X-6083476Y-6493380D01*
X-5937609Y-6458360D01*
X-5857406Y-6439105D01*
X-5658135Y-6356565D01*
X-5642611Y-6350135D01*
X-5642607Y-6350133D01*
X-5638037Y-6348240D01*
X-5630196Y-6343435D01*
X-5439798Y-6226759D01*
X-5439792Y-6226755D01*
X-5435584Y-6224176D01*
X-5255031Y-6069969D01*
X-5100824Y-5889416D01*
X-5098245Y-5885208D01*
X-5098241Y-5885202D01*
X-4979346Y-5691183D01*
X-4976760Y-5686963D01*
X-4954923Y-5634245D01*
X-4887789Y-5472167D01*
X-4887788Y-5472165D01*
X-4885895Y-5467594D01*
X-4841063Y-5280856D01*
X-4831620Y-5241524D01*
X-4831619Y-5241518D01*
X-4830465Y-5236711D01*
X-4811835Y-5000000D01*
X-4830465Y-4763289D01*
X-4885895Y-4532406D01*
X-4887789Y-4527833D01*
X-4974865Y-4317611D01*
X-4974867Y-4317607D01*
X-4976760Y-4313037D01*
X-5011762Y-4255919D01*
X-5098241Y-4114798D01*
X-5098245Y-4114792D01*
X-5100824Y-4110584D01*
X-5255031Y-3930031D01*
X-5435584Y-3775824D01*
X-5439792Y-3773245D01*
X-5439798Y-3773241D01*
X-5633817Y-3654346D01*
X-5638037Y-3651760D01*
X-5642607Y-3649867D01*
X-5642611Y-3649865D01*
X-5852833Y-3562789D01*
X-5852835Y-3562788D01*
X-5857406Y-3560895D01*
X-5937609Y-3541640D01*
X-6083476Y-3506620D01*
X-6083482Y-3506619D01*
X-6088289Y-3505465D01*
X-6325000Y-3486835D01*
X-6561711Y-3505465D01*
X-6566518Y-3506619D01*
X-6566524Y-3506620D01*
X-6712391Y-3541640D01*
X-6792594Y-3560895D01*
X-6797165Y-3562788D01*
X-6797167Y-3562789D01*
X-7007389Y-3649865D01*
X-7007393Y-3649867D01*
X-7011963Y-3651760D01*
X-7016183Y-3654346D01*
X-7210202Y-3773241D01*
X-7210208Y-3773245D01*
X-7214416Y-3775824D01*
X-7394969Y-3930031D01*
X-7549176Y-4110584D01*
X-7551755Y-4114792D01*
X-7551759Y-4114798D01*
X-7638238Y-4255919D01*
X-7673240Y-4313037D01*
X-7675133Y-4317607D01*
X-7675135Y-4317611D01*
X-7762211Y-4527833D01*
X-7764105Y-4532406D01*
X-7819535Y-4763289D01*
X-7838165Y-5000000D01*
X-13597315Y-5000000D01*
X-13747128Y-4586082D01*
X-13749149Y-4580017D01*
X-13963009Y-3879438D01*
X-13964728Y-3873248D01*
X-14063149Y-3480071D01*
X-14142611Y-3162633D01*
X-14144009Y-3156371D01*
X-14273162Y-2500000D01*
X-10243165Y-2500000D01*
X-10224535Y-2736711D01*
X-10223381Y-2741518D01*
X-10223380Y-2741524D01*
X-10188360Y-2887391D01*
X-10169105Y-2967594D01*
X-10167212Y-2972165D01*
X-10167211Y-2972167D01*
X-10089598Y-3159541D01*
X-10078240Y-3186963D01*
X-10075654Y-3191183D01*
X-9956759Y-3385202D01*
X-9956755Y-3385208D01*
X-9954176Y-3389416D01*
X-9844169Y-3518217D01*
X-9813182Y-3554498D01*
X-9799969Y-3569969D01*
X-9619416Y-3724176D01*
X-9615208Y-3726755D01*
X-9615202Y-3726759D01*
X-9440109Y-3834056D01*
X-9416963Y-3848240D01*
X-9412393Y-3850133D01*
X-9412389Y-3850135D01*
X-9227246Y-3926823D01*
X-9197594Y-3939105D01*
X-9117391Y-3958360D01*
X-8971524Y-3993380D01*
X-8971518Y-3993381D01*
X-8966711Y-3994535D01*
X-8730000Y-4013165D01*
X-8493289Y-3994535D01*
X-8488482Y-3993381D01*
X-8488476Y-3993380D01*
X-8342609Y-3958360D01*
X-8262406Y-3939105D01*
X-8232754Y-3926823D01*
X-8047611Y-3850135D01*
X-8047607Y-3850133D01*
X-8043037Y-3848240D01*
X-8019891Y-3834056D01*
X-7844798Y-3726759D01*
X-7844792Y-3726755D01*
X-7840584Y-3724176D01*
X-7660031Y-3569969D01*
X-7646817Y-3554498D01*
X-7615831Y-3518217D01*
X-7505824Y-3389416D01*
X-7503245Y-3385208D01*
X-7503241Y-3385202D01*
X-7384346Y-3191183D01*
X-7381760Y-3186963D01*
X-7370401Y-3159541D01*
X-7292789Y-2972167D01*
X-7292788Y-2972165D01*
X-7290895Y-2967594D01*
X-7271640Y-2887391D01*
X-7236620Y-2741524D01*
X-7236619Y-2741518D01*
X-7235465Y-2736711D01*
X-7216835Y-2500000D01*
X-7235465Y-2263289D01*
X-7243376Y-2230335D01*
X-7278463Y-2084190D01*
X-7290895Y-2032406D01*
X-7298485Y-2014081D01*
X-7379865Y-1817611D01*
X-7379867Y-1817607D01*
X-7381760Y-1813037D01*
X-7407287Y-1771381D01*
X-7503241Y-1614798D01*
X-7503245Y-1614792D01*
X-7505824Y-1610584D01*
X-7660031Y-1430031D01*
X-7663787Y-1426823D01*
X-7663792Y-1426818D01*
X-7758639Y-1345811D01*
X-7797449Y-1286361D01*
X-7797955Y-1215366D01*
X-7758639Y-1154189D01*
X-7663792Y-1073182D01*
X-7663787Y-1073177D01*
X-7660031Y-1069969D01*
X-7505824Y-889416D01*
X-7503245Y-885208D01*
X-7503241Y-885202D01*
X-7384346Y-691183D01*
X-7381760Y-686963D01*
X-7359739Y-633801D01*
X-7292789Y-472167D01*
X-7292788Y-472165D01*
X-7290895Y-467594D01*
X-7256784Y-325512D01*
X-7236620Y-241524D01*
X-7236619Y-241518D01*
X-7235465Y-236711D01*
X-7216835Y0D01*
X-5613498Y0D01*
X-5593543Y-228087D01*
X-5592119Y-233400D01*
X-5592119Y-233402D01*
X-5549384Y-392888D01*
X-5534284Y-449243D01*
X-5531961Y-454224D01*
X-5531961Y-454225D01*
X-5439849Y-651762D01*
X-5439846Y-651767D01*
X-5437523Y-656749D01*
X-5306198Y-844300D01*
X-5144300Y-1006198D01*
X-5139792Y-1009355D01*
X-5139789Y-1009357D01*
X-5061611Y-1064098D01*
X-4956749Y-1137523D01*
X-4951767Y-1139846D01*
X-4951762Y-1139849D01*
X-4793517Y-1213639D01*
X-4749243Y-1234284D01*
X-4743935Y-1235706D01*
X-4743933Y-1235707D01*
X-4533402Y-1292119D01*
X-4533400Y-1292119D01*
X-4528087Y-1293543D01*
X-4428520Y-1302254D01*
X-4359851Y-1308262D01*
X-4359844Y-1308262D01*
X-4357127Y-1308500D01*
X-4242873Y-1308500D01*
X-4240156Y-1308262D01*
X-4240149Y-1308262D01*
X-4171480Y-1302254D01*
X-4071913Y-1293543D01*
X-4066600Y-1292119D01*
X-4066598Y-1292119D01*
X-3856067Y-1235707D01*
X-3856065Y-1235706D01*
X-3850757Y-1234284D01*
X-3806483Y-1213639D01*
X-3648238Y-1139849D01*
X-3648233Y-1139846D01*
X-3643251Y-1137523D01*
X-3538389Y-1064098D01*
X-3460211Y-1009357D01*
X-3460208Y-1009355D01*
X-3455700Y-1006198D01*
X-3293802Y-844300D01*
X-3162477Y-656749D01*
X-3160154Y-651767D01*
X-3160151Y-651762D01*
X-3068039Y-454225D01*
X-3068039Y-454224D01*
X-3065716Y-449243D01*
X-3050615Y-392888D01*
X-3007881Y-233402D01*
X-3007881Y-233400D01*
X-3006457Y-228087D01*
X-2986502Y0D01*
X-3006457Y228087D01*
X-3010057Y241524D01*
X-3064293Y443933D01*
X-3064294Y443935D01*
X-3065716Y449243D01*
X-3074273Y467594D01*
X-3160151Y651762D01*
X-3160154Y651767D01*
X-3162477Y656749D01*
X-3293802Y844300D01*
X-3455700Y1006198D01*
X-3460208Y1009355D01*
X-3460211Y1009357D01*
X-3580374Y1093496D01*
X-3643251Y1137523D01*
X-3648233Y1139846D01*
X-3648238Y1139849D01*
X-3845775Y1231961D01*
X-3845776Y1231961D01*
X-3850757Y1234284D01*
X-3856065Y1235706D01*
X-3856067Y1235707D01*
X-4066598Y1292119D01*
X-4066600Y1292119D01*
X-4071913Y1293543D01*
X-4171480Y1302254D01*
X-4240149Y1308262D01*
X-4240156Y1308262D01*
X-4242873Y1308500D01*
X-4357127Y1308500D01*
X-4359844Y1308262D01*
X-4359851Y1308262D01*
X-4428520Y1302254D01*
X-4528087Y1293543D01*
X-4533400Y1292119D01*
X-4533402Y1292119D01*
X-4743933Y1235707D01*
X-4743935Y1235706D01*
X-4749243Y1234284D01*
X-4754224Y1231961D01*
X-4754225Y1231961D01*
X-4951762Y1139849D01*
X-4951767Y1139846D01*
X-4956749Y1137523D01*
X-5019626Y1093496D01*
X-5139789Y1009357D01*
X-5139792Y1009355D01*
X-5144300Y1006198D01*
X-5306198Y844300D01*
X-5437523Y656749D01*
X-5439846Y651767D01*
X-5439849Y651762D01*
X-5525727Y467594D01*
X-5534284Y449243D01*
X-5535706Y443935D01*
X-5535707Y443933D01*
X-5589943Y241524D01*
X-5593543Y228087D01*
X-5613498Y0D01*
X-7216835Y0D01*
X-7235465Y236711D01*
X-7238095Y247668D01*
X-7285215Y443933D01*
X-7290895Y467594D01*
X-7292789Y472167D01*
X-7379865Y682389D01*
X-7379867Y682393D01*
X-7381760Y686963D01*
X-7475412Y839789D01*
X-7503241Y885202D01*
X-7503245Y885208D01*
X-7505824Y889416D01*
X-7647222Y1054972D01*
X-7656823Y1066213D01*
X-7660031Y1069969D01*
X-7687577Y1093496D01*
X-7822526Y1208753D01*
X-7856402Y1254686D01*
X-7865878Y1276668D01*
X-8717188Y2127978D01*
X-8731132Y2135592D01*
X-8732965Y2135461D01*
X-8739580Y2131210D01*
X-9591080Y1279710D01*
X-9612026Y1241352D01*
X-9640782Y1205928D01*
X-9775567Y1090810D01*
X-9799969Y1069969D01*
X-9803177Y1066213D01*
X-9812778Y1054972D01*
X-9954176Y889416D01*
X-9956755Y885208D01*
X-9956759Y885202D01*
X-9984588Y839789D01*
X-10078240Y686963D01*
X-10080133Y682393D01*
X-10080135Y682389D01*
X-10167211Y472167D01*
X-10169105Y467594D01*
X-10174785Y443933D01*
X-10221904Y247668D01*
X-10224535Y236711D01*
X-10243165Y0D01*
X-10224535Y-236711D01*
X-10223381Y-241518D01*
X-10223380Y-241524D01*
X-10203216Y-325512D01*
X-10169105Y-467594D01*
X-10167212Y-472165D01*
X-10167211Y-472167D01*
X-10100260Y-633801D01*
X-10078240Y-686963D01*
X-10075654Y-691183D01*
X-9956759Y-885202D01*
X-9956755Y-885208D01*
X-9954176Y-889416D01*
X-9799969Y-1069969D01*
X-9796213Y-1073177D01*
X-9796208Y-1073182D01*
X-9701361Y-1154189D01*
X-9662551Y-1213639D01*
X-9662045Y-1284634D01*
X-9701361Y-1345811D01*
X-9796208Y-1426818D01*
X-9796213Y-1426823D01*
X-9799969Y-1430031D01*
X-9954176Y-1610584D01*
X-9956755Y-1614792D01*
X-9956759Y-1614798D01*
X-10052713Y-1771381D01*
X-10078240Y-1813037D01*
X-10080133Y-1817607D01*
X-10080135Y-1817611D01*
X-10161515Y-2014081D01*
X-10169105Y-2032406D01*
X-10181537Y-2084190D01*
X-10216623Y-2230335D01*
X-10224535Y-2263289D01*
X-10243165Y-2500000D01*
X-14273162Y-2500000D01*
X-14285427Y-2437668D01*
X-14286505Y-2431349D01*
X-14296179Y-2364295D01*
X-14367703Y-1868574D01*
X-14391111Y-1706339D01*
X-14391866Y-1699959D01*
X-14428123Y-1308262D01*
X-14459381Y-970559D01*
X-14459809Y-964168D01*
X-14461796Y-916074D01*
X-14490056Y-232266D01*
X-14490157Y-225852D01*
X-14490125Y-222607D01*
X-14483155Y496803D01*
X-14483060Y506604D01*
X-14482834Y513024D01*
X-14452869Y1006198D01*
X-14438410Y1244186D01*
X-14437857Y1250581D01*
X-14437505Y1253715D01*
X-14370479Y1851400D01*
X-14356224Y1978510D01*
X-14355346Y1984874D01*
X-14271611Y2495070D01*
X-10242275Y2495070D01*
X-10224428Y2268301D01*
X-10222885Y2258554D01*
X-10169783Y2037373D01*
X-10166734Y2027988D01*
X-10079687Y1817837D01*
X-10075205Y1809042D01*
X-9972568Y1641555D01*
X-9962110Y1632093D01*
X-9953334Y1635876D01*
X-9102022Y2487188D01*
X-9095644Y2498868D01*
X-8365592Y2498868D01*
X-8365461Y2497035D01*
X-8361210Y2490420D01*
X-7509710Y1638920D01*
X-7497330Y1632160D01*
X-7489680Y1637887D01*
X-7384795Y1809042D01*
X-7380313Y1817837D01*
X-7293266Y2027988D01*
X-7290217Y2037373D01*
X-7237115Y2258554D01*
X-7235572Y2268301D01*
X-7217725Y2495070D01*
X-7217725Y2504930D01*
X-7235572Y2731699D01*
X-7237115Y2741446D01*
X-7290217Y2962627D01*
X-7293266Y2972012D01*
X-7380313Y3182163D01*
X-7384795Y3190958D01*
X-7487432Y3358445D01*
X-7497890Y3367907D01*
X-7506666Y3364124D01*
X-8357978Y2512812D01*
X-8365592Y2498868D01*
X-9095644Y2498868D01*
X-9094408Y2501132D01*
X-9094539Y2502965D01*
X-9098790Y2509580D01*
X-9950290Y3361080D01*
X-9962670Y3367840D01*
X-9970320Y3362113D01*
X-10075205Y3190958D01*
X-10079687Y3182163D01*
X-10166734Y2972012D01*
X-10169783Y2962627D01*
X-10222885Y2741446D01*
X-10224428Y2731699D01*
X-10242275Y2504930D01*
X-10242275Y2495070D01*
X-14271611Y2495070D01*
X-14236711Y2707716D01*
X-14235509Y2714028D01*
X-14080185Y3429877D01*
X-14078663Y3436118D01*
X-13998444Y3732110D01*
X-9597907Y3732110D01*
X-9594124Y3723334D01*
X-8742812Y2872022D01*
X-8728868Y2864408D01*
X-8727035Y2864539D01*
X-8720420Y2868790D01*
X-7868920Y3720290D01*
X-7862160Y3732670D01*
X-7867887Y3740320D01*
X-8039042Y3845205D01*
X-8047837Y3849687D01*
X-8257988Y3936734D01*
X-8267373Y3939783D01*
X-8488554Y3992885D01*
X-8498301Y3994428D01*
X-8725070Y4012275D01*
X-8734930Y4012275D01*
X-8961699Y3994428D01*
X-8971446Y3992885D01*
X-9192627Y3939783D01*
X-9202012Y3936734D01*
X-9412163Y3849687D01*
X-9420958Y3845205D01*
X-9588445Y3742568D01*
X-9597907Y3732110D01*
X-13998444Y3732110D01*
X-13887056Y4143109D01*
X-13885218Y4149265D01*
X-13657819Y4845583D01*
X-13655669Y4851638D01*
X-13598696Y5000000D01*
X-7838165Y5000000D01*
X-7819535Y4763289D01*
X-7818381Y4758482D01*
X-7818380Y4758476D01*
X-7791797Y4647751D01*
X-7764105Y4532406D01*
X-7762212Y4527835D01*
X-7762211Y4527833D01*
X-7716397Y4417229D01*
X-7673240Y4313037D01*
X-7670654Y4308817D01*
X-7551759Y4114798D01*
X-7551755Y4114792D01*
X-7549176Y4110584D01*
X-7394969Y3930031D01*
X-7214416Y3775824D01*
X-7210208Y3773245D01*
X-7210202Y3773241D01*
X-7016183Y3654346D01*
X-7011963Y3651760D01*
X-7007393Y3649867D01*
X-7007389Y3649865D01*
X-6797167Y3562789D01*
X-6792594Y3560895D01*
X-6712391Y3541640D01*
X-6566524Y3506620D01*
X-6566518Y3506619D01*
X-6561711Y3505465D01*
X-6325000Y3486835D01*
X-6088289Y3505465D01*
X-6083482Y3506619D01*
X-6083476Y3506620D01*
X-5937609Y3541640D01*
X-5857406Y3560895D01*
X-5852833Y3562789D01*
X-5642611Y3649865D01*
X-5642607Y3649867D01*
X-5638037Y3651760D01*
X-5633817Y3654346D01*
X-5439798Y3773241D01*
X-5439792Y3773245D01*
X-5435584Y3775824D01*
X-5255031Y3930031D01*
X-5100824Y4110584D01*
X-5098245Y4114792D01*
X-5098241Y4114798D01*
X-4979346Y4308817D01*
X-4976760Y4313037D01*
X-4933602Y4417229D01*
X-4887789Y4527833D01*
X-4887788Y4527835D01*
X-4885895Y4532406D01*
X-4858203Y4647751D01*
X-4831620Y4758476D01*
X-4831619Y4758482D01*
X-4830465Y4763289D01*
X-4813554Y4978154D01*
X-4788268Y5044496D01*
X-4731130Y5086635D01*
X-4660280Y5091194D01*
X-4598212Y5056725D01*
X-4580510Y5034104D01*
X-4474176Y4860584D01*
X-4319969Y4680031D01*
X-4139416Y4525824D01*
X-4135208Y4523245D01*
X-4135202Y4523241D01*
X-3962206Y4417229D01*
X-3936963Y4401760D01*
X-3932393Y4399867D01*
X-3932389Y4399865D01*
X-3722167Y4312789D01*
X-3717594Y4310895D01*
X-3637391Y4291640D01*
X-3491524Y4256620D01*
X-3491518Y4256619D01*
X-3486711Y4255465D01*
X-3250000Y4236835D01*
X-3013289Y4255465D01*
X-3008482Y4256619D01*
X-3008476Y4256620D01*
X-2862609Y4291640D01*
X-2782406Y4310895D01*
X-2777833Y4312789D01*
X-2567611Y4399865D01*
X-2567607Y4399867D01*
X-2563037Y4401760D01*
X-2537794Y4417229D01*
X-2364798Y4523241D01*
X-2364792Y4523245D01*
X-2360584Y4525824D01*
X-2180031Y4680031D01*
X-2025824Y4860584D01*
X-2023245Y4864792D01*
X-2023241Y4864798D01*
X-1904346Y5058817D01*
X-1901760Y5063037D01*
X-1894015Y5081734D01*
X-1812789Y5277833D01*
X-1812788Y5277835D01*
X-1810895Y5282406D01*
X-1791640Y5362609D01*
X-1756620Y5508476D01*
X-1756619Y5508482D01*
X-1755465Y5513289D01*
X-1736835Y5750000D01*
X-1755465Y5986711D01*
X-1774551Y6066213D01*
X-1791640Y6137391D01*
X-1810895Y6217594D01*
X-1814691Y6226759D01*
X-1899865Y6432389D01*
X-1899867Y6432393D01*
X-1901760Y6436963D01*
X-1904346Y6441183D01*
X-2023241Y6635202D01*
X-2023245Y6635208D01*
X-2025824Y6639416D01*
X-2180031Y6819969D01*
X-2360584Y6974176D01*
X-2364792Y6976755D01*
X-2364798Y6976759D01*
X-2558817Y7095654D01*
X-2563037Y7098240D01*
X-2567607Y7100133D01*
X-2567611Y7100135D01*
X-2777833Y7187211D01*
X-2777835Y7187212D01*
X-2782406Y7189105D01*
X-2862609Y7208360D01*
X-3008476Y7243380D01*
X-3008482Y7243381D01*
X-3013289Y7244535D01*
X-3250000Y7263165D01*
X-3486711Y7244535D01*
X-3491518Y7243381D01*
X-3491524Y7243380D01*
X-3637391Y7208360D01*
X-3717594Y7189105D01*
X-3722165Y7187212D01*
X-3722167Y7187211D01*
X-3932389Y7100135D01*
X-3932393Y7100133D01*
X-3936963Y7098240D01*
X-3941183Y7095654D01*
X-4135202Y6976759D01*
X-4135208Y6976755D01*
X-4139416Y6974176D01*
X-4319969Y6819969D01*
X-4474176Y6639416D01*
X-4476755Y6635208D01*
X-4476759Y6635202D01*
X-4595654Y6441183D01*
X-4598240Y6436963D01*
X-4600133Y6432393D01*
X-4600135Y6432389D01*
X-4685309Y6226759D01*
X-4689105Y6217594D01*
X-4708360Y6137391D01*
X-4725448Y6066213D01*
X-4744535Y5986711D01*
X-4744923Y5981777D01*
X-4761446Y5771846D01*
X-4786732Y5705504D01*
X-4843870Y5663365D01*
X-4914720Y5658806D01*
X-4976788Y5693275D01*
X-4994491Y5715897D01*
X-5015389Y5750000D01*
X-5100824Y5889416D01*
X-5255031Y6069969D01*
X-5435584Y6224176D01*
X-5439792Y6226755D01*
X-5439798Y6226759D01*
X-5633817Y6345654D01*
X-5638037Y6348240D01*
X-5642607Y6350133D01*
X-5642611Y6350135D01*
X-5852833Y6437211D01*
X-5852835Y6437212D01*
X-5857406Y6439105D01*
X-5937609Y6458360D01*
X-6083476Y6493380D01*
X-6083482Y6493381D01*
X-6088289Y6494535D01*
X-6325000Y6513165D01*
X-6561711Y6494535D01*
X-6566518Y6493381D01*
X-6566524Y6493380D01*
X-6712391Y6458360D01*
X-6792594Y6439105D01*
X-6797165Y6437212D01*
X-6797167Y6437211D01*
X-7007389Y6350135D01*
X-7007393Y6350133D01*
X-7011963Y6348240D01*
X-7016183Y6345654D01*
X-7210202Y6226759D01*
X-7210208Y6226755D01*
X-7214416Y6224176D01*
X-7394969Y6069969D01*
X-7549176Y5889416D01*
X-7551755Y5885208D01*
X-7551759Y5885202D01*
X-7622804Y5769267D01*
X-7673240Y5686963D01*
X-7675133Y5682393D01*
X-7675135Y5682389D01*
X-7733543Y5541378D01*
X-7764105Y5467594D01*
X-7765260Y5462782D01*
X-7809662Y5277833D01*
X-7819535Y5236711D01*
X-7838165Y5000000D01*
X-13598696Y5000000D01*
X-13393078Y5535442D01*
X-13390623Y5541378D01*
X-13093510Y6210931D01*
X-13090755Y6216736D01*
X-12759907Y6870259D01*
X-12756860Y6875915D01*
X-12728698Y6925142D01*
X-12393129Y7511727D01*
X-12389798Y7517220D01*
X-11994133Y8133662D01*
X-11990526Y8138978D01*
X-11563945Y8734464D01*
X-11560072Y8739590D01*
X-11103699Y9312549D01*
X-11099569Y9317471D01*
X-10614579Y9866428D01*
X-10610204Y9871132D01*
X-10239429Y10250000D01*
X-4763165Y10250000D01*
X-4744535Y10013289D01*
X-4689105Y9782406D01*
X-4687212Y9777835D01*
X-4687211Y9777833D01*
X-4611271Y9594498D01*
X-4598240Y9563037D01*
X-4595654Y9558817D01*
X-4476759Y9364798D01*
X-4476755Y9364792D01*
X-4474176Y9360584D01*
X-4319969Y9180031D01*
X-4139416Y9025824D01*
X-4135208Y9023245D01*
X-4135202Y9023241D01*
X-3950153Y8909843D01*
X-3936963Y8901760D01*
X-3932393Y8899867D01*
X-3932389Y8899865D01*
X-3722167Y8812789D01*
X-3717594Y8810895D01*
X-3637391Y8791640D01*
X-3491524Y8756620D01*
X-3491518Y8756619D01*
X-3486711Y8755465D01*
X-3250000Y8736835D01*
X-3013289Y8755465D01*
X-3008482Y8756619D01*
X-3008476Y8756620D01*
X-2862609Y8791640D01*
X-2782406Y8810895D01*
X-2777833Y8812789D01*
X-2567611Y8899865D01*
X-2567607Y8899867D01*
X-2563037Y8901760D01*
X-2549847Y8909843D01*
X-2364798Y9023241D01*
X-2364792Y9023245D01*
X-2360584Y9025824D01*
X-2180031Y9180031D01*
X-2025824Y9360584D01*
X-2023245Y9364792D01*
X-2023241Y9364798D01*
X-1904346Y9558817D01*
X-1901760Y9563037D01*
X-1888728Y9594498D01*
X-1812789Y9777833D01*
X-1812788Y9777835D01*
X-1810895Y9782406D01*
X-1755465Y10013289D01*
X-1736835Y10250000D01*
X-1755465Y10486711D01*
X-1810895Y10717594D01*
X-1819283Y10737845D01*
X-1899865Y10932389D01*
X-1899867Y10932393D01*
X-1901760Y10936963D01*
X-1907093Y10945665D01*
X-2023241Y11135202D01*
X-2023245Y11135208D01*
X-2025824Y11139416D01*
X-2180031Y11319969D01*
X-2360584Y11474176D01*
X-2364792Y11476755D01*
X-2364798Y11476759D01*
X-2558817Y11595654D01*
X-2563037Y11598240D01*
X-2567607Y11600133D01*
X-2567611Y11600135D01*
X-2777833Y11687211D01*
X-2777835Y11687212D01*
X-2782406Y11689105D01*
X-2862609Y11708360D01*
X-3008476Y11743380D01*
X-3008482Y11743381D01*
X-3013289Y11744535D01*
X-3250000Y11763165D01*
X-3486711Y11744535D01*
X-3491518Y11743381D01*
X-3491524Y11743380D01*
X-3637391Y11708360D01*
X-3717594Y11689105D01*
X-3722165Y11687212D01*
X-3722167Y11687211D01*
X-3932389Y11600135D01*
X-3932393Y11600133D01*
X-3936963Y11598240D01*
X-3941183Y11595654D01*
X-4135202Y11476759D01*
X-4135208Y11476755D01*
X-4139416Y11474176D01*
X-4319969Y11319969D01*
X-4474176Y11139416D01*
X-4476755Y11135208D01*
X-4476759Y11135202D01*
X-4592907Y10945665D01*
X-4598240Y10936963D01*
X-4600133Y10932393D01*
X-4600135Y10932389D01*
X-4680717Y10737845D01*
X-4689105Y10717594D01*
X-4744535Y10486711D01*
X-4763165Y10250000D01*
X-10239429Y10250000D01*
X-10097880Y10394639D01*
X-10093271Y10399115D01*
X-9554906Y10895847D01*
X-9550074Y10900082D01*
X-8987112Y11368707D01*
X-8982072Y11372690D01*
X-8395929Y11812031D01*
X-8390691Y11815752D01*
X-7782936Y12224631D01*
X-7777516Y12228080D01*
X-7149696Y12605457D01*
X-7144107Y12608625D01*
X-6497892Y12953498D01*
X-6492149Y12956378D01*
X-5829165Y13267877D01*
X-5823282Y13270460D01*
X-5187878Y13530339D01*
X-5164725Y13537302D01*
X-5157023Y13538832D01*
X-5152245Y13539781D01*
X-5146612Y13541840D01*
X-5146344Y13541897D01*
X-5146102Y13542027D01*
X-5140467Y13544087D01*
X-5122112Y13554234D01*
X-5115868Y13557460D01*
X-4983837Y13621081D01*
X-4842054Y13722646D01*
X-4719818Y13847051D01*
X-4620761Y13990597D01*
X-4547826Y14149022D01*
X-4531128Y14212076D01*
X-4504573Y14312357D01*
X-4504573Y14312359D01*
X-4503180Y14317618D01*
X-4492111Y14445574D01*
X-4490834Y14455618D01*
X-4487735Y14474040D01*
X-4487735Y14474043D01*
X-4486928Y14478838D01*
X-4486775Y14491377D01*
X-4490726Y14518965D01*
X-4491999Y14536828D01*
X-4491999Y16196795D01*
X-4490253Y16217699D01*
X-4487735Y16232667D01*
X-4486928Y16237463D01*
X-4486775Y16250002D01*
X-4487464Y16254809D01*
X-4487464Y16254816D01*
X-4489814Y16271221D01*
X-4490607Y16278102D01*
X-4497293Y16354517D01*
X-4483305Y16424122D01*
X-4433906Y16475115D01*
X-4371773Y16491500D01*
X-1701866Y16491500D01*
X-1639684Y16498255D01*
X-1503295Y16549385D01*
X-1386739Y16636739D01*
X-1299385Y16753295D01*
X-1248255Y16889684D01*
X-1241500Y16951866D01*
X-1241500Y18548134D01*
X-1248255Y18610316D01*
X-1299385Y18746705D01*
X-1386739Y18863261D01*
X-1503295Y18950615D01*
X-1639684Y19001745D01*
X-1701866Y19008500D01*
X-2553634Y19008500D01*
X-2621755Y19028502D01*
X-2668248Y19082158D01*
X-2678352Y19152432D01*
X-2648858Y19217012D01*
X-2586245Y19256207D01*
X-2556067Y19264293D01*
X-2556065Y19264294D01*
X-2550757Y19265716D01*
X-2545775Y19268039D01*
X-2348238Y19360151D01*
X-2348233Y19360154D01*
X-2343251Y19362477D01*
X-2224679Y19445502D01*
X-2160211Y19490643D01*
X-2160208Y19490645D01*
X-2155700Y19493802D01*
X-1993802Y19655700D01*
X-1973386Y19684856D01*
X-1865634Y19838743D01*
X-1862477Y19843251D01*
X-1860154Y19848233D01*
X-1860151Y19848238D01*
X-1768039Y20045775D01*
X-1768039Y20045776D01*
X-1765716Y20050757D01*
X-1706457Y20271913D01*
X-1686502Y20500000D01*
X-1706457Y20728087D01*
X-1725842Y20800434D01*
X-1764293Y20943933D01*
X-1764294Y20943935D01*
X-1765716Y20949243D01*
X-1768039Y20954225D01*
X-1860151Y21151762D01*
X-1860154Y21151767D01*
X-1862477Y21156749D01*
X-1961551Y21298241D01*
X-1990643Y21339789D01*
X-1990645Y21339792D01*
X-1993802Y21344300D01*
X-2155700Y21506198D01*
X-2160208Y21509355D01*
X-2160211Y21509357D01*
X-2334347Y21631288D01*
X-2343251Y21637523D01*
X-2348233Y21639846D01*
X-2348238Y21639849D01*
X-2545775Y21731961D01*
X-2545776Y21731961D01*
X-2550757Y21734284D01*
X-2556065Y21735706D01*
X-2556067Y21735707D01*
X-2766598Y21792119D01*
X-2766600Y21792119D01*
X-2771913Y21793543D01*
X-2871480Y21802254D01*
X-2940149Y21808262D01*
X-2940156Y21808262D01*
X-2942873Y21808500D01*
X-3057127Y21808500D01*
X-3059844Y21808262D01*
X-3059851Y21808262D01*
X-3125969Y21802477D01*
X-3195977Y21796352D01*
X-3265581Y21810341D01*
X-3316573Y21859740D01*
X-3332764Y21928866D01*
X-3309353Y21994644D01*
X-3307409Y21996803D01*
X-3217923Y22151797D01*
X-3171033Y22296109D01*
X-3164658Y22315730D01*
X-3164658Y22315731D01*
X-3162618Y22322009D01*
X-3143910Y22500000D01*
X-3162618Y22677991D01*
X-3217923Y22848203D01*
X-3307409Y23003197D01*
X-3427164Y23136199D01*
X-3432508Y23140082D01*
X-3437415Y23144500D01*
X-3435466Y23146665D01*
X-3471036Y23192828D01*
X-3477086Y23263567D01*
X-3443932Y23326347D01*
X-3382099Y23361236D01*
X-3353605Y23364500D01*
X-2579020Y23364500D01*
X-2567786Y23363970D01*
X-2560281Y23362292D01*
X-2491988Y23364438D01*
X-2488031Y23364500D01*
X-2460017Y23364500D01*
X-2456092Y23364996D01*
X-2456091Y23364996D01*
X-2455996Y23365008D01*
X-2444151Y23365941D01*
X-2414330Y23366878D01*
X-2407718Y23367086D01*
X-2407717Y23367086D01*
X-2399795Y23367335D01*
X-2380251Y23373013D01*
X-2360888Y23377023D01*
X-2348560Y23378580D01*
X-2348558Y23378580D01*
X-2340701Y23379573D01*
X-2333337Y23382489D01*
X-2333332Y23382490D01*
X-2299444Y23395907D01*
X-2288215Y23399752D01*
X-2271535Y23404598D01*
X-2245607Y23412131D01*
X-2238780Y23416169D01*
X-2238777Y23416170D01*
X-2228094Y23422488D01*
X-2210336Y23431188D01*
X-2198785Y23435761D01*
X-2198779Y23435765D01*
X-2191412Y23438681D01*
X-2155509Y23464766D01*
X-2145590Y23471281D01*
X-2114232Y23489826D01*
X-2114228Y23489829D01*
X-2107402Y23493866D01*
X-2093018Y23508250D01*
X-2077984Y23521091D01*
X-2067927Y23528398D01*
X-2061513Y23533058D01*
X-2033228Y23567248D01*
X-2025241Y23576026D01*
X-1988395Y23612873D01*
X-1926083Y23646899D01*
X-1915505Y23648600D01*
X-1910514Y23648600D01*
X-1735454Y23685810D01*
X-1729423Y23688495D01*
X-1577985Y23755919D01*
X-1577983Y23755920D01*
X-1571955Y23758604D01*
X-1427164Y23863801D01*
X-1307409Y23996803D01*
X-1217923Y24151797D01*
X-1162618Y24322009D01*
X-1143910Y24500000D01*
X-1162618Y24677991D01*
X-1165158Y24685810D01*
X-1215881Y24841918D01*
X-1215881Y24841919D01*
X-1217923Y24848203D01*
X-1226928Y24863801D01*
X-1288177Y24969886D01*
X-1307409Y25003197D01*
X-1427164Y25136199D01*
X-1440755Y25146074D01*
X-1566613Y25237515D01*
X-1566614Y25237516D01*
X-1571955Y25241396D01*
X-1577983Y25244080D01*
X-1577985Y25244081D01*
X-1729423Y25311505D01*
X-1729424Y25311505D01*
X-1735454Y25314190D01*
X-1822984Y25332795D01*
X-1904057Y25350028D01*
X-1904061Y25350028D01*
X-1910514Y25351400D01*
X-2089486Y25351400D01*
X-2095939Y25350028D01*
X-2095943Y25350028D01*
X-2177016Y25332795D01*
X-2264546Y25314190D01*
X-2270576Y25311505D01*
X-2270577Y25311505D01*
X-2422015Y25244081D01*
X-2422017Y25244080D01*
X-2428045Y25241396D01*
X-2433386Y25237516D01*
X-2433387Y25237515D01*
X-2559244Y25146074D01*
X-2572836Y25136199D01*
X-2692591Y25003197D01*
X-2711823Y24969886D01*
X-2773071Y24863801D01*
X-2782077Y24848203D01*
X-2784118Y24841921D01*
X-2784119Y24841919D01*
X-2822899Y24722564D01*
X-2862972Y24663958D01*
X-2928369Y24636321D01*
X-2942732Y24635500D01*
X-5942662Y24635500D01*
X-6010783Y24655502D01*
X-6049269Y24696792D01*
X-6049385Y24696705D01*
X-6050190Y24697780D01*
X-6050193Y24697784D01*
X-6136739Y24813261D01*
X-6253295Y24900615D01*
X-6389684Y24951745D01*
X-6451866Y24958500D01*
X-7365999Y24958500D01*
X-7434120Y24978502D01*
X-7480613Y25032158D01*
X-7491999Y25084500D01*
X-7491999Y25916000D01*
X-7471997Y25984121D01*
X-7418341Y26030614D01*
X-7365999Y26042000D01*
X-6455331Y26042001D01*
X-6448510Y26042371D01*
X-6397648Y26047895D01*
X-6382396Y26051521D01*
X-6261946Y26096676D01*
X-6246351Y26105214D01*
X-6144276Y26181715D01*
X-6131715Y26194276D01*
X-6055214Y26296351D01*
X-6046676Y26311946D01*
X-6001522Y26432394D01*
X-5997895Y26447649D01*
X-5992369Y26498514D01*
X-5992000Y26505328D01*
X-5992000Y27227885D01*
X-5996475Y27243124D01*
X-5997865Y27244329D01*
X-6005548Y27246000D01*
X-7365999Y27246000D01*
X-7434120Y27266002D01*
X-7480613Y27319658D01*
X-7491999Y27372000D01*
X-7491999Y27628000D01*
X-7471997Y27696121D01*
X-7418341Y27742614D01*
X-7365999Y27754000D01*
X-6010116Y27754000D01*
X-5994877Y27758475D01*
X-5993672Y27759865D01*
X-5992001Y27767548D01*
X-5992001Y28494669D01*
X-5992371Y28501490D01*
X-5997895Y28552352D01*
X-6001521Y28567604D01*
X-6046676Y28688054D01*
X-6055214Y28703649D01*
X-6131715Y28805724D01*
X-6144276Y28818285D01*
X-6246351Y28894786D01*
X-6261946Y28903324D01*
X-6382394Y28948478D01*
X-6397649Y28952105D01*
X-6448514Y28957631D01*
X-6455328Y28958000D01*
X-7365999Y28957999D01*
X-7434120Y28978001D01*
X-7480613Y29031657D01*
X-7491999Y29083999D01*
X-7491999Y29616001D01*
X-7471997Y29684122D01*
X-7418341Y29730615D01*
X-7365999Y29742001D01*
X-2384500Y29742001D01*
X-2316379Y29721999D01*
G37*
%TD.AperFunction*%
%TD*%
M02*
