%TF.GenerationSoftware,KiCad,Pcbnew,6.0.11-3.fc37*%
%TF.CreationDate,2023-09-06T08:49:03-04:00*%
%TF.ProjectId,gameKey-PCB-ThumbCluster,67616d65-4b65-4792-9d50-43422d546875,rev?*%
%TF.SameCoordinates,Original*%
%TF.FileFunction,Copper,L1,Top*%
%TF.FilePolarity,Positive*%
%FSLAX46Y46*%
G04 Gerber Fmt 4.6, Leading zero omitted, Abs format (unit mm)*
G04 Created by KiCad (PCBNEW 6.0.11-3.fc37) date 2023-09-06 08:49:03*
%MOMM*%
%LPD*%
G01*
G04 APERTURE LIST*
%TA.AperFunction,WasherPad*%
%ADD10R,3.500000X1.500000*%
%TD*%
%TA.AperFunction,SMDPad,CuDef*%
%ADD11R,2.000000X1.900000*%
%TD*%
%TA.AperFunction,WasherPad*%
%ADD12C,2.000000*%
%TD*%
%TA.AperFunction,ComponentPad*%
%ADD13C,2.000000*%
%TD*%
%TA.AperFunction,ViaPad*%
%ADD14C,0.685800*%
%TD*%
%TA.AperFunction,Conductor*%
%ADD15C,0.254000*%
%TD*%
G04 APERTURE END LIST*
D10*
%TO.P,NS1,*%
%TO.N,*%
X3500000Y17750000D03*
X-3500000Y17750000D03*
X0Y29250000D03*
D11*
%TO.P,NS1,1,COM*%
%TO.N,/COL*%
X-7500000Y27500000D03*
%TO.P,NS1,2,B*%
%TO.N,/NW*%
X-7500000Y23500000D03*
%TO.P,NS1,3,PUSH*%
%TO.N,/NP*%
X-7500000Y19500000D03*
%TO.P,NS1,4,A*%
%TO.N,/NN*%
X7500000Y27500000D03*
%TO.P,NS1,5,D*%
%TO.N,/NE*%
X7500000Y23500000D03*
%TO.P,NS1,6,C*%
%TO.N,/NS*%
X7500000Y19500000D03*
%TD*%
D12*
%TO.P,JS1,*%
%TO.N,*%
X6325000Y-5000000D03*
X-6325000Y-5000000D03*
X-6325000Y5000000D03*
X6325000Y5000000D03*
D13*
%TO.P,JS1,1,GND*%
%TO.N,GND*%
X-2500000Y-8730000D03*
X-8730000Y2500000D03*
%TO.P,JS1,2,VCC*%
%TO.N,VCC*%
X2500000Y-8730000D03*
X-8730000Y-2500000D03*
%TO.P,JS1,3,RY*%
%TO.N,/JX*%
X-8730000Y0D03*
%TO.P,JS1,4,RX*%
%TO.N,/JY*%
X0Y-8730000D03*
%TO.P,JS1,5,SW-A*%
%TO.N,/JB*%
X3250000Y5750000D03*
X-3250000Y5750000D03*
%TO.P,JS1,6,SW-B*%
%TO.N,/JC*%
X3250000Y10250000D03*
X-3250000Y10250000D03*
%TD*%
D14*
%TO.N,/NS*%
X2540000Y22225000D03*
%TO.N,/NN*%
X5080000Y27305000D03*
%TO.N,/NE*%
X1905000Y24765000D03*
%TO.N,/NW*%
X-2540000Y24765000D03*
%TO.N,/NP*%
X-5080000Y20955000D03*
%TO.N,/COL*%
X-5080000Y27305000D03*
%TO.N,GND*%
X-9525000Y8890000D03*
X6350000Y12065000D03*
X9525000Y-6985000D03*
X-9525000Y-6985000D03*
X8890000Y8255000D03*
%TO.N,/JB*%
X11335000Y-3000000D03*
%TO.N,VCC*%
X2540000Y-6350000D03*
X6667500Y-2222500D03*
X6667500Y0D03*
%TO.N,/JY*%
X2540000Y-1270000D03*
%TO.N,/JX*%
X11335000Y1000000D03*
X5715000Y1905000D03*
%TO.N,/JC*%
X8985000Y-5000000D03*
%TD*%
D15*
%TO.N,/NS*%
X4840000Y22225000D02*
X2540000Y22225000D01*
X7500000Y19500000D02*
X7500000Y19565000D01*
X7500000Y19565000D02*
X4840000Y22225000D01*
%TO.N,/NN*%
X5275000Y27500000D02*
X5080000Y27305000D01*
X7500000Y27500000D02*
X5275000Y27500000D01*
%TO.N,/NE*%
X3170000Y23500000D02*
X1905000Y24765000D01*
X7500000Y23500000D02*
X3170000Y23500000D01*
%TO.N,/NW*%
X-3805000Y23500000D02*
X-2540000Y24765000D01*
X-7500000Y23500000D02*
X-3805000Y23500000D01*
%TO.N,/NP*%
X-6535000Y19500000D02*
X-5080000Y20955000D01*
X-7500000Y19500000D02*
X-6535000Y19500000D01*
%TO.N,/COL*%
X-5275000Y27500000D02*
X-5080000Y27305000D01*
X-7500000Y27500000D02*
X-5275000Y27500000D01*
%TO.N,/JB*%
X5540000Y-3000000D02*
X11335000Y-3000000D01*
X1905000Y4405000D02*
X1905000Y1905000D01*
X2857500Y-317500D02*
X5540000Y-3000000D01*
X2857500Y952500D02*
X2857500Y-317500D01*
X1905000Y1905000D02*
X2857500Y952500D01*
X3250000Y5750000D02*
X1905000Y4405000D01*
%TO.N,VCC*%
X6667500Y0D02*
X6667500Y-2222500D01*
X2540000Y-8690000D02*
X2500000Y-8730000D01*
X2540000Y-6350000D02*
X2540000Y-8690000D01*
%TO.N,/JY*%
X0Y-3810000D02*
X2540000Y-1270000D01*
X0Y-8730000D02*
X0Y-3810000D01*
%TO.N,/JX*%
X11287500Y952500D02*
X11335000Y1000000D01*
X6667500Y952500D02*
X11287500Y952500D01*
X5715000Y1905000D02*
X6667500Y952500D01*
%TO.N,/JC*%
X12700000Y-3810000D02*
X11510000Y-5000000D01*
X12700000Y6032500D02*
X12700000Y-3810000D01*
X3250000Y10250000D02*
X8482500Y10250000D01*
X11510000Y-5000000D02*
X8985000Y-5000000D01*
X8482500Y10250000D02*
X12700000Y6032500D01*
%TD*%
%TA.AperFunction,Conductor*%
%TO.N,GND*%
G36*
X13544012Y5099628D02*
G01*
X13579125Y5049574D01*
X13655199Y4851471D01*
X13657349Y4845416D01*
X13697069Y4723791D01*
X13831211Y4313037D01*
X13884741Y4149122D01*
X13886579Y4142966D01*
X14078179Y3435999D01*
X14079701Y3429758D01*
X14235020Y2713934D01*
X14236222Y2707622D01*
X14354852Y1984805D01*
X14355730Y1978441D01*
X14402599Y1560512D01*
X14431613Y1301795D01*
X14437361Y1250536D01*
X14437914Y1244138D01*
X14444976Y1127903D01*
X14482336Y513007D01*
X14482562Y506587D01*
X14483069Y454225D01*
X14489628Y-222607D01*
X14489659Y-225845D01*
X14489558Y-232259D01*
X14461062Y-921797D01*
X14459312Y-964135D01*
X14458884Y-970526D01*
X14426216Y-1323455D01*
X14391371Y-1699900D01*
X14390616Y-1706280D01*
X14362479Y-1901293D01*
X14295677Y-2364295D01*
X14286014Y-2431266D01*
X14284936Y-2437585D01*
X14208554Y-2825767D01*
X14143523Y-3156262D01*
X14142125Y-3162524D01*
X14053414Y-3516910D01*
X13964248Y-3873114D01*
X13962529Y-3879304D01*
X13748677Y-4579859D01*
X13746645Y-4585954D01*
X13497357Y-5274713D01*
X13495034Y-5280654D01*
X13324080Y-5686963D01*
X13210949Y-5955842D01*
X13208307Y-5961698D01*
X12890200Y-6621479D01*
X12887263Y-6627194D01*
X12535933Y-7269913D01*
X12535932Y-7269914D01*
X12532713Y-7275462D01*
X12149063Y-7899463D01*
X12145567Y-7904836D01*
X11730619Y-8508454D01*
X11726846Y-8513654D01*
X11281680Y-9095324D01*
X11277647Y-9100324D01*
X10983065Y-9447077D01*
X10923717Y-9486043D01*
X10887039Y-9491499D01*
X4005938Y-9491499D01*
X3937817Y-9471497D01*
X3891324Y-9417841D01*
X3881220Y-9347567D01*
X3889529Y-9317281D01*
X3937211Y-9202167D01*
X3937212Y-9202165D01*
X3939105Y-9197594D01*
X3979563Y-9029076D01*
X3993380Y-8971524D01*
X3993381Y-8971518D01*
X3994535Y-8966711D01*
X4013165Y-8730000D01*
X3994535Y-8493289D01*
X3939105Y-8262406D01*
X3937211Y-8257833D01*
X3850135Y-8047611D01*
X3850133Y-8047607D01*
X3848240Y-8043037D01*
X3845654Y-8038817D01*
X3726759Y-7844798D01*
X3726755Y-7844792D01*
X3724176Y-7840584D01*
X3569969Y-7660031D01*
X3389416Y-7505824D01*
X3235665Y-7411605D01*
X3188034Y-7358957D01*
X3175500Y-7304172D01*
X3175500Y-6964969D01*
X3195502Y-6896848D01*
X3207858Y-6880665D01*
X3232591Y-6853197D01*
X3322077Y-6698203D01*
X3377382Y-6527991D01*
X3380899Y-6494535D01*
X3395400Y-6356565D01*
X3396090Y-6350000D01*
X3377382Y-6172009D01*
X3322077Y-6001797D01*
X3232591Y-5846803D01*
X3112836Y-5713801D01*
X3069602Y-5682389D01*
X2973387Y-5612485D01*
X2973386Y-5612484D01*
X2968045Y-5608604D01*
X2962017Y-5605920D01*
X2962015Y-5605919D01*
X2810577Y-5538495D01*
X2810576Y-5538495D01*
X2804546Y-5535810D01*
X2717016Y-5517205D01*
X2635943Y-5499972D01*
X2635939Y-5499972D01*
X2629486Y-5498600D01*
X2450514Y-5498600D01*
X2444061Y-5499972D01*
X2444057Y-5499972D01*
X2362984Y-5517205D01*
X2275454Y-5535810D01*
X2269424Y-5538495D01*
X2269423Y-5538495D01*
X2117985Y-5605919D01*
X2117983Y-5605920D01*
X2111955Y-5608604D01*
X2106614Y-5612484D01*
X2106613Y-5612485D01*
X2010399Y-5682389D01*
X1967164Y-5713801D01*
X1847409Y-5846803D01*
X1757923Y-6001797D01*
X1702618Y-6172009D01*
X1683910Y-6350000D01*
X1684600Y-6356565D01*
X1699102Y-6494535D01*
X1702618Y-6527991D01*
X1757923Y-6698203D01*
X1847409Y-6853197D01*
X1872137Y-6880660D01*
X1902853Y-6944666D01*
X1904500Y-6964969D01*
X1904500Y-7259684D01*
X1884498Y-7327805D01*
X1826719Y-7376092D01*
X1817618Y-7379862D01*
X1817613Y-7379865D01*
X1813037Y-7381760D01*
X1808817Y-7384346D01*
X1614798Y-7503241D01*
X1614797Y-7503242D01*
X1610584Y-7505824D01*
X1430031Y-7660031D01*
X1426823Y-7663787D01*
X1426818Y-7663792D01*
X1345811Y-7758639D01*
X1286361Y-7797449D01*
X1215366Y-7797955D01*
X1154189Y-7758639D01*
X1073182Y-7663792D01*
X1073177Y-7663787D01*
X1069969Y-7660031D01*
X889416Y-7505824D01*
X695664Y-7387092D01*
X648034Y-7334445D01*
X635500Y-7279660D01*
X635500Y-4125422D01*
X655502Y-4057301D01*
X672405Y-4036327D01*
X2551606Y-2157126D01*
X2613918Y-2123100D01*
X2624494Y-2121400D01*
X2629486Y-2121400D01*
X2804546Y-2084190D01*
X2810577Y-2081505D01*
X2962015Y-2014081D01*
X2962017Y-2014080D01*
X2968045Y-2011396D01*
X3112836Y-1906199D01*
X3229920Y-1776164D01*
X3290362Y-1738926D01*
X3361346Y-1740277D01*
X3412648Y-1771381D01*
X5034750Y-3393483D01*
X5042326Y-3401809D01*
X5046447Y-3408303D01*
X5052222Y-3413726D01*
X5096265Y-3455085D01*
X5099107Y-3457840D01*
X5118906Y-3477639D01*
X5122031Y-3480063D01*
X5122040Y-3480071D01*
X5122126Y-3480137D01*
X5131151Y-3487845D01*
X5163494Y-3518217D01*
X5170438Y-3522035D01*
X5170440Y-3522036D01*
X5181329Y-3528022D01*
X5197847Y-3538873D01*
X5213933Y-3551350D01*
X5254666Y-3568976D01*
X5265314Y-3574193D01*
X5275655Y-3579878D01*
X5304197Y-3595569D01*
X5311872Y-3597540D01*
X5311878Y-3597542D01*
X5323911Y-3600631D01*
X5342606Y-3607031D01*
X5350074Y-3610263D01*
X5404645Y-3655672D01*
X5426004Y-3723380D01*
X5407367Y-3791886D01*
X5381860Y-3821708D01*
X5310852Y-3882355D01*
X5255031Y-3930031D01*
X5100824Y-4110584D01*
X5098245Y-4114792D01*
X5098241Y-4114798D01*
X5011762Y-4255919D01*
X4976760Y-4313037D01*
X4974867Y-4317607D01*
X4974865Y-4317611D01*
X4887789Y-4527833D01*
X4885895Y-4532406D01*
X4830465Y-4763289D01*
X4811835Y-5000000D01*
X4830465Y-5236711D01*
X4831619Y-5241518D01*
X4831620Y-5241524D01*
X4855723Y-5341918D01*
X4885895Y-5467594D01*
X4887788Y-5472165D01*
X4887789Y-5472167D01*
X4954924Y-5634245D01*
X4976760Y-5686963D01*
X4979346Y-5691183D01*
X5098241Y-5885202D01*
X5098245Y-5885208D01*
X5100824Y-5889416D01*
X5255031Y-6069969D01*
X5435584Y-6224176D01*
X5439792Y-6226755D01*
X5439798Y-6226759D01*
X5630196Y-6343435D01*
X5638037Y-6348240D01*
X5642607Y-6350133D01*
X5642611Y-6350135D01*
X5658135Y-6356565D01*
X5857406Y-6439105D01*
X5937609Y-6458360D01*
X6083476Y-6493380D01*
X6083482Y-6493381D01*
X6088289Y-6494535D01*
X6325000Y-6513165D01*
X6561711Y-6494535D01*
X6566518Y-6493381D01*
X6566524Y-6493380D01*
X6712391Y-6458360D01*
X6792594Y-6439105D01*
X6991865Y-6356565D01*
X7007389Y-6350135D01*
X7007393Y-6350133D01*
X7011963Y-6348240D01*
X7019804Y-6343435D01*
X7210202Y-6226759D01*
X7210208Y-6226755D01*
X7214416Y-6224176D01*
X7394969Y-6069969D01*
X7549176Y-5889416D01*
X7551755Y-5885208D01*
X7551759Y-5885202D01*
X7670654Y-5691183D01*
X7673240Y-5686963D01*
X7695077Y-5634245D01*
X7762211Y-5472167D01*
X7762212Y-5472165D01*
X7764105Y-5467594D01*
X7794277Y-5341918D01*
X7818380Y-5241524D01*
X7818381Y-5241518D01*
X7819535Y-5236711D01*
X7838165Y-5000000D01*
X7819535Y-4763289D01*
X7764105Y-4532406D01*
X7762211Y-4527833D01*
X7675135Y-4317611D01*
X7675133Y-4317607D01*
X7673240Y-4313037D01*
X7638238Y-4255919D01*
X7551759Y-4114798D01*
X7551755Y-4114792D01*
X7549176Y-4110584D01*
X7394969Y-3930031D01*
X7309825Y-3857311D01*
X7271016Y-3797860D01*
X7270510Y-3726866D01*
X7308466Y-3666867D01*
X7372834Y-3636914D01*
X7391656Y-3635500D01*
X10720262Y-3635500D01*
X10788383Y-3655502D01*
X10794323Y-3659564D01*
X10890882Y-3729718D01*
X10906955Y-3741396D01*
X10912983Y-3744080D01*
X10912985Y-3744081D01*
X11007012Y-3785944D01*
X11070454Y-3814190D01*
X11145404Y-3830121D01*
X11239057Y-3850028D01*
X11239061Y-3850028D01*
X11245514Y-3851400D01*
X11424486Y-3851400D01*
X11430943Y-3850028D01*
X11430948Y-3850027D01*
X11434326Y-3849309D01*
X11436327Y-3849462D01*
X11437514Y-3849337D01*
X11437537Y-3849554D01*
X11505116Y-3854712D01*
X11561748Y-3897529D01*
X11586241Y-3964167D01*
X11570819Y-4033468D01*
X11549616Y-4061651D01*
X11283672Y-4327595D01*
X11221360Y-4361621D01*
X11194577Y-4364500D01*
X9599738Y-4364500D01*
X9531617Y-4344498D01*
X9525677Y-4340436D01*
X9418387Y-4262485D01*
X9418386Y-4262484D01*
X9413045Y-4258604D01*
X9407017Y-4255920D01*
X9407015Y-4255919D01*
X9255577Y-4188495D01*
X9255576Y-4188495D01*
X9249546Y-4185810D01*
X9162016Y-4167205D01*
X9080943Y-4149972D01*
X9080939Y-4149972D01*
X9074486Y-4148600D01*
X8895514Y-4148600D01*
X8889061Y-4149972D01*
X8889057Y-4149972D01*
X8807984Y-4167205D01*
X8720454Y-4185810D01*
X8714424Y-4188495D01*
X8714423Y-4188495D01*
X8562985Y-4255919D01*
X8562983Y-4255920D01*
X8556955Y-4258604D01*
X8551614Y-4262484D01*
X8551613Y-4262485D01*
X8465356Y-4325155D01*
X8412164Y-4363801D01*
X8292409Y-4496803D01*
X8202923Y-4651797D01*
X8147618Y-4822009D01*
X8128910Y-5000000D01*
X8129600Y-5006565D01*
X8135191Y-5059754D01*
X8147618Y-5177991D01*
X8202923Y-5348203D01*
X8292409Y-5503197D01*
X8296827Y-5508104D01*
X8296828Y-5508105D01*
X8406990Y-5630453D01*
X8412164Y-5636199D01*
X8417506Y-5640080D01*
X8417508Y-5640082D01*
X8525733Y-5718712D01*
X8556955Y-5741396D01*
X8562983Y-5744080D01*
X8562985Y-5744081D01*
X8714423Y-5811505D01*
X8720454Y-5814190D01*
X8807984Y-5832795D01*
X8889057Y-5850028D01*
X8889061Y-5850028D01*
X8895514Y-5851400D01*
X9074486Y-5851400D01*
X9080939Y-5850028D01*
X9080943Y-5850028D01*
X9162016Y-5832795D01*
X9249546Y-5814190D01*
X9255577Y-5811505D01*
X9407015Y-5744081D01*
X9407017Y-5744080D01*
X9413045Y-5741396D01*
X9487966Y-5686963D01*
X9525677Y-5659564D01*
X9592545Y-5635705D01*
X9599738Y-5635500D01*
X11430980Y-5635500D01*
X11442214Y-5636030D01*
X11449719Y-5637708D01*
X11518012Y-5635562D01*
X11521969Y-5635500D01*
X11549983Y-5635500D01*
X11553908Y-5635004D01*
X11553909Y-5635004D01*
X11554004Y-5634992D01*
X11565849Y-5634059D01*
X11595670Y-5633122D01*
X11602282Y-5632914D01*
X11602283Y-5632914D01*
X11610205Y-5632665D01*
X11629749Y-5626987D01*
X11649112Y-5622977D01*
X11661440Y-5621420D01*
X11661442Y-5621420D01*
X11669299Y-5620427D01*
X11676663Y-5617511D01*
X11676668Y-5617510D01*
X11710556Y-5604093D01*
X11721785Y-5600248D01*
X11738465Y-5595402D01*
X11764393Y-5587869D01*
X11771220Y-5583831D01*
X11771223Y-5583830D01*
X11781906Y-5577512D01*
X11799664Y-5568812D01*
X11811215Y-5564239D01*
X11811221Y-5564235D01*
X11818588Y-5561319D01*
X11854491Y-5535234D01*
X11864410Y-5528719D01*
X11895768Y-5510174D01*
X11895772Y-5510171D01*
X11902598Y-5506134D01*
X11916982Y-5491750D01*
X11932016Y-5478909D01*
X11942073Y-5471602D01*
X11948487Y-5466942D01*
X11976778Y-5432744D01*
X11984767Y-5423965D01*
X13093483Y-4315250D01*
X13101809Y-4307674D01*
X13108303Y-4303553D01*
X13155086Y-4253734D01*
X13157840Y-4250893D01*
X13177639Y-4231094D01*
X13180068Y-4227963D01*
X13180072Y-4227958D01*
X13180139Y-4227872D01*
X13187847Y-4218847D01*
X13212791Y-4192285D01*
X13212794Y-4192281D01*
X13218217Y-4186506D01*
X13222036Y-4179560D01*
X13222039Y-4179555D01*
X13228022Y-4168672D01*
X13238878Y-4152144D01*
X13246492Y-4142329D01*
X13246494Y-4142326D01*
X13251349Y-4136067D01*
X13254495Y-4128797D01*
X13254498Y-4128792D01*
X13268969Y-4095350D01*
X13274192Y-4084689D01*
X13291749Y-4052753D01*
X13291751Y-4052748D01*
X13295569Y-4045803D01*
X13297539Y-4038129D01*
X13297542Y-4038122D01*
X13300632Y-4026087D01*
X13307036Y-4007382D01*
X13311967Y-3995987D01*
X13315117Y-3988708D01*
X13322060Y-3944873D01*
X13324467Y-3933251D01*
X13325294Y-3930031D01*
X13335500Y-3890282D01*
X13335500Y-3869935D01*
X13337051Y-3850224D01*
X13338995Y-3837950D01*
X13340235Y-3830121D01*
X13336059Y-3785944D01*
X13335500Y-3774086D01*
X13335500Y5004404D01*
X13355502Y5072525D01*
X13409158Y5119018D01*
X13479432Y5129122D01*
X13544012Y5099628D01*
G37*
%TD.AperFunction*%
%TA.AperFunction,Conductor*%
G36*
X-2316379Y29721499D02*
G01*
X-2269886Y29667843D01*
X-2258500Y29615501D01*
X-2258500Y28451866D01*
X-2251745Y28389684D01*
X-2200615Y28253295D01*
X-2113261Y28136739D01*
X-1996705Y28049385D01*
X-1860316Y27998255D01*
X-1798134Y27991500D01*
X1798134Y27991500D01*
X1860316Y27998255D01*
X1996705Y28049385D01*
X2113261Y28136739D01*
X2200615Y28253295D01*
X2251745Y28389684D01*
X2258500Y28451866D01*
X2258500Y29615501D01*
X2278502Y29683622D01*
X2332158Y29730115D01*
X2384500Y29741501D01*
X7365501Y29741501D01*
X7433622Y29721499D01*
X7480115Y29667843D01*
X7491501Y29615501D01*
X7491501Y29084500D01*
X7471499Y29016379D01*
X7417843Y28969886D01*
X7365501Y28958500D01*
X6451866Y28958500D01*
X6389684Y28951745D01*
X6253295Y28900615D01*
X6136739Y28813261D01*
X6049385Y28696705D01*
X5998255Y28560316D01*
X5991500Y28498134D01*
X5991500Y28261500D01*
X5971498Y28193379D01*
X5917842Y28146886D01*
X5865500Y28135500D01*
X5354032Y28135500D01*
X5342793Y28136030D01*
X5335281Y28137709D01*
X5327356Y28137460D01*
X5327355Y28137460D01*
X5293833Y28136406D01*
X5282691Y28136056D01*
X5252536Y28138747D01*
X5175943Y28155028D01*
X5175938Y28155028D01*
X5169486Y28156400D01*
X4990514Y28156400D01*
X4984061Y28155028D01*
X4984057Y28155028D01*
X4924098Y28142283D01*
X4815454Y28119190D01*
X4809424Y28116505D01*
X4809423Y28116505D01*
X4657985Y28049081D01*
X4657983Y28049080D01*
X4651955Y28046396D01*
X4646614Y28042516D01*
X4646613Y28042515D01*
X4584521Y27997402D01*
X4507164Y27941199D01*
X4387409Y27808197D01*
X4297923Y27653203D01*
X4242618Y27482991D01*
X4241928Y27476427D01*
X4241928Y27476426D01*
X4234305Y27403897D01*
X4207292Y27338240D01*
X4149070Y27297610D01*
X4078125Y27294907D01*
X4012477Y27336072D01*
X4009351Y27339797D01*
X4006198Y27344300D01*
X3844300Y27506198D01*
X3839792Y27509355D01*
X3839789Y27509357D01*
X3761611Y27564098D01*
X3656749Y27637523D01*
X3651767Y27639846D01*
X3651762Y27639849D01*
X3454225Y27731961D01*
X3454224Y27731961D01*
X3449243Y27734284D01*
X3443935Y27735706D01*
X3443933Y27735707D01*
X3233402Y27792119D01*
X3233400Y27792119D01*
X3228087Y27793543D01*
X3125948Y27802479D01*
X3059851Y27808262D01*
X3059844Y27808262D01*
X3057127Y27808500D01*
X2942873Y27808500D01*
X2940156Y27808262D01*
X2940149Y27808262D01*
X2874052Y27802479D01*
X2771913Y27793543D01*
X2766600Y27792119D01*
X2766598Y27792119D01*
X2556067Y27735707D01*
X2556065Y27735706D01*
X2550757Y27734284D01*
X2545776Y27731961D01*
X2545775Y27731961D01*
X2348238Y27639849D01*
X2348233Y27639846D01*
X2343251Y27637523D01*
X2238389Y27564098D01*
X2160211Y27509357D01*
X2160208Y27509355D01*
X2155700Y27506198D01*
X1993802Y27344300D01*
X1990645Y27339792D01*
X1990643Y27339789D01*
X1935902Y27261611D01*
X1862477Y27156749D01*
X1860154Y27151767D01*
X1860151Y27151762D01*
X1848609Y27127009D01*
X1765716Y26949243D01*
X1764294Y26943935D01*
X1764293Y26943933D01*
X1734113Y26831300D01*
X1706457Y26728087D01*
X1686502Y26500000D01*
X1706457Y26271913D01*
X1707881Y26266600D01*
X1707881Y26266598D01*
X1753531Y26096233D01*
X1765716Y26050757D01*
X1768039Y26045776D01*
X1768039Y26045775D01*
X1860151Y25848238D01*
X1860154Y25848233D01*
X1862477Y25843251D01*
X1865634Y25838743D01*
X1885468Y25810417D01*
X1908156Y25743144D01*
X1890871Y25674283D01*
X1839102Y25625699D01*
X1808452Y25614899D01*
X1640454Y25579190D01*
X1634424Y25576505D01*
X1634423Y25576505D01*
X1482985Y25509081D01*
X1482983Y25509080D01*
X1476955Y25506396D01*
X1471614Y25502516D01*
X1471613Y25502515D01*
X1464985Y25497699D01*
X1332164Y25401199D01*
X1212409Y25268197D01*
X1122923Y25113203D01*
X1067618Y24942991D01*
X1048910Y24765000D01*
X1067618Y24587009D01*
X1069658Y24580731D01*
X1069658Y24580730D01*
X1095391Y24501531D01*
X1122923Y24416797D01*
X1212409Y24261803D01*
X1216827Y24256896D01*
X1216828Y24256895D01*
X1274018Y24193379D01*
X1332164Y24128801D01*
X1476955Y24023604D01*
X1482983Y24020920D01*
X1482985Y24020919D01*
X1634423Y23953495D01*
X1640454Y23950810D01*
X1815514Y23913600D01*
X1818653Y23913600D01*
X1883122Y23887079D01*
X1893394Y23877874D01*
X2487940Y23283328D01*
X2521966Y23221016D01*
X2516901Y23150201D01*
X2474354Y23093365D01*
X2425042Y23070986D01*
X2379734Y23061355D01*
X2275454Y23039190D01*
X2269424Y23036505D01*
X2269423Y23036505D01*
X2117985Y22969081D01*
X2117983Y22969080D01*
X2111955Y22966396D01*
X2106614Y22962516D01*
X2106613Y22962515D01*
X1973435Y22865755D01*
X1967164Y22861199D01*
X1962743Y22856289D01*
X1962742Y22856288D01*
X1892975Y22778803D01*
X1847409Y22728197D01*
X1757923Y22573203D01*
X1702618Y22402991D01*
X1683910Y22225000D01*
X1702618Y22047009D01*
X1757923Y21876797D01*
X1847409Y21721803D01*
X1851827Y21716896D01*
X1851828Y21716895D01*
X1962742Y21593712D01*
X1967164Y21588801D01*
X2111955Y21483604D01*
X2117983Y21480920D01*
X2117985Y21480919D01*
X2169020Y21458197D01*
X2275454Y21410810D01*
X2362984Y21392205D01*
X2444057Y21374972D01*
X2444061Y21374972D01*
X2450514Y21373600D01*
X2629486Y21373600D01*
X2635939Y21374972D01*
X2635943Y21374972D01*
X2717016Y21392205D01*
X2804546Y21410810D01*
X2910980Y21458197D01*
X2962015Y21480919D01*
X2962017Y21480920D01*
X2968045Y21483604D01*
X3080677Y21565436D01*
X3147545Y21589295D01*
X3154738Y21589500D01*
X4524578Y21589500D01*
X4592699Y21569498D01*
X4613673Y21552595D01*
X5954595Y20211672D01*
X5988621Y20149360D01*
X5991500Y20122577D01*
X5991500Y18665821D01*
X5971498Y18597700D01*
X5917842Y18551207D01*
X5847568Y18541103D01*
X5782988Y18570597D01*
X5747518Y18621592D01*
X5703768Y18738295D01*
X5703767Y18738297D01*
X5700615Y18746705D01*
X5613261Y18863261D01*
X5496705Y18950615D01*
X5360316Y19001745D01*
X5298134Y19008500D01*
X1701866Y19008500D01*
X1639684Y19001745D01*
X1503295Y18950615D01*
X1386739Y18863261D01*
X1299385Y18746705D01*
X1248255Y18610316D01*
X1241500Y18548134D01*
X1241500Y16951866D01*
X1248255Y16889684D01*
X1299385Y16753295D01*
X1386739Y16636739D01*
X1503295Y16549385D01*
X1639684Y16498255D01*
X1701866Y16491500D01*
X4371272Y16491500D01*
X4439393Y16471498D01*
X4485886Y16417842D01*
X4496793Y16354519D01*
X4491910Y16298700D01*
X4491699Y16296293D01*
X4490433Y16286376D01*
X4486425Y16262554D01*
X4486272Y16250002D01*
X4487524Y16241263D01*
X4490228Y16222378D01*
X4491501Y16204516D01*
X4491501Y14544616D01*
X4489756Y14523717D01*
X4486424Y14503907D01*
X4486272Y14491355D01*
X4486960Y14486551D01*
X4486961Y14486539D01*
X4489198Y14470929D01*
X4490001Y14463938D01*
X4502674Y14317511D01*
X4547348Y14148833D01*
X4620325Y13990332D01*
X4719435Y13846717D01*
X4723241Y13842844D01*
X4723244Y13842840D01*
X4786463Y13778505D01*
X4841735Y13722255D01*
X4948883Y13645503D01*
X4979156Y13623819D01*
X4983591Y13620642D01*
X5083967Y13572278D01*
X5099318Y13564881D01*
X5108257Y13560122D01*
X5128619Y13548208D01*
X5134201Y13546011D01*
X5134437Y13545877D01*
X5134701Y13545814D01*
X5140300Y13543611D01*
X5150063Y13541423D01*
X5160508Y13539082D01*
X5180651Y13532755D01*
X5823083Y13270002D01*
X5828966Y13267419D01*
X6491927Y12955930D01*
X6497670Y12953050D01*
X7143863Y12608190D01*
X7149452Y12605022D01*
X7777249Y12227658D01*
X7782669Y12224209D01*
X8390404Y11815344D01*
X8395642Y11811623D01*
X8680326Y11598240D01*
X8981764Y11372298D01*
X8986785Y11368331D01*
X9499919Y10941183D01*
X9549756Y10899697D01*
X9554587Y10895462D01*
X10092915Y10398765D01*
X10097524Y10394290D01*
X10609850Y9870782D01*
X10614224Y9866078D01*
X10889641Y9554335D01*
X11099188Y9317149D01*
X11103315Y9312230D01*
X11333501Y9023241D01*
X11559675Y8739288D01*
X11563548Y8734162D01*
X11990114Y8138697D01*
X11993721Y8133381D01*
X12251041Y7732479D01*
X12271004Y7664347D01*
X12250963Y7596238D01*
X12197281Y7549775D01*
X12127001Y7539712D01*
X12062437Y7569242D01*
X12055909Y7575324D01*
X8987750Y10643483D01*
X8980174Y10651809D01*
X8976053Y10658303D01*
X8926234Y10705086D01*
X8923393Y10707840D01*
X8903594Y10727639D01*
X8900469Y10730063D01*
X8900460Y10730071D01*
X8900374Y10730137D01*
X8891349Y10737845D01*
X8864785Y10762790D01*
X8859006Y10768217D01*
X8841169Y10778023D01*
X8824653Y10788873D01*
X8808567Y10801350D01*
X8767834Y10818976D01*
X8757186Y10824193D01*
X8745558Y10830585D01*
X8718303Y10845569D01*
X8710628Y10847540D01*
X8710622Y10847542D01*
X8698589Y10850631D01*
X8679887Y10857034D01*
X8661208Y10865117D01*
X8627372Y10870476D01*
X8617373Y10872060D01*
X8605760Y10874465D01*
X8562782Y10885500D01*
X8542435Y10885500D01*
X8522724Y10887051D01*
X8510450Y10888995D01*
X8502621Y10890235D01*
X8494729Y10889489D01*
X8458444Y10886059D01*
X8446586Y10885500D01*
X4700340Y10885500D01*
X4632219Y10905502D01*
X4592907Y10945665D01*
X4476758Y11135202D01*
X4474176Y11139416D01*
X4319969Y11319969D01*
X4139416Y11474176D01*
X4135208Y11476755D01*
X4135202Y11476759D01*
X3941183Y11595654D01*
X3936963Y11598240D01*
X3932393Y11600133D01*
X3932389Y11600135D01*
X3722167Y11687211D01*
X3722165Y11687212D01*
X3717594Y11689105D01*
X3637391Y11708360D01*
X3491524Y11743380D01*
X3491518Y11743381D01*
X3486711Y11744535D01*
X3250000Y11763165D01*
X3013289Y11744535D01*
X3008482Y11743381D01*
X3008476Y11743380D01*
X2862609Y11708360D01*
X2782406Y11689105D01*
X2777835Y11687212D01*
X2777833Y11687211D01*
X2567611Y11600135D01*
X2567607Y11600133D01*
X2563037Y11598240D01*
X2558817Y11595654D01*
X2364798Y11476759D01*
X2364792Y11476755D01*
X2360584Y11474176D01*
X2180031Y11319969D01*
X2025824Y11139416D01*
X2023245Y11135208D01*
X2023241Y11135202D01*
X1907093Y10945665D01*
X1901760Y10936963D01*
X1899867Y10932393D01*
X1899865Y10932389D01*
X1819283Y10737845D01*
X1810895Y10717594D01*
X1755465Y10486711D01*
X1736835Y10250000D01*
X1755465Y10013289D01*
X1810895Y9782406D01*
X1812788Y9777835D01*
X1812789Y9777833D01*
X1888729Y9594498D01*
X1901760Y9563037D01*
X1904346Y9558817D01*
X2023241Y9364798D01*
X2023245Y9364792D01*
X2025824Y9360584D01*
X2180031Y9180031D01*
X2360584Y9025824D01*
X2364792Y9023245D01*
X2364798Y9023241D01*
X2549378Y8910130D01*
X2563037Y8901760D01*
X2567607Y8899867D01*
X2567611Y8899865D01*
X2777833Y8812789D01*
X2782406Y8810895D01*
X2862609Y8791640D01*
X3008476Y8756620D01*
X3008482Y8756619D01*
X3013289Y8755465D01*
X3250000Y8736835D01*
X3486711Y8755465D01*
X3491518Y8756619D01*
X3491524Y8756620D01*
X3637391Y8791640D01*
X3717594Y8810895D01*
X3722167Y8812789D01*
X3932389Y8899865D01*
X3932393Y8899867D01*
X3936963Y8901760D01*
X3950622Y8910130D01*
X4135202Y9023241D01*
X4135208Y9023245D01*
X4139416Y9025824D01*
X4319969Y9180031D01*
X4474176Y9360584D01*
X4592908Y9554336D01*
X4645555Y9601966D01*
X4700340Y9614500D01*
X8167078Y9614500D01*
X8235199Y9594498D01*
X8256173Y9577595D01*
X12027595Y5806172D01*
X12061621Y5743860D01*
X12064500Y5717077D01*
X12064500Y1769665D01*
X12044498Y1701544D01*
X11990842Y1655051D01*
X11920568Y1644947D01*
X11864439Y1667729D01*
X11768387Y1737515D01*
X11768386Y1737516D01*
X11763045Y1741396D01*
X11757017Y1744080D01*
X11757015Y1744081D01*
X11605577Y1811505D01*
X11605576Y1811505D01*
X11599546Y1814190D01*
X11512016Y1832795D01*
X11430943Y1850028D01*
X11430939Y1850028D01*
X11424486Y1851400D01*
X11245514Y1851400D01*
X11239061Y1850028D01*
X11239057Y1850028D01*
X11157984Y1832795D01*
X11070454Y1814190D01*
X11064424Y1811505D01*
X11064423Y1811505D01*
X10912985Y1744081D01*
X10912983Y1744080D01*
X10906955Y1741396D01*
X10901614Y1737516D01*
X10901613Y1737515D01*
X10769536Y1641555D01*
X10762164Y1636199D01*
X10757743Y1631289D01*
X10757742Y1631288D01*
X10756300Y1629687D01*
X10755234Y1629030D01*
X10752837Y1626872D01*
X10752442Y1627310D01*
X10695853Y1592449D01*
X10662666Y1588000D01*
X6982923Y1588000D01*
X6914802Y1608002D01*
X6893828Y1624905D01*
X6597633Y1921100D01*
X6563607Y1983412D01*
X6561418Y1997024D01*
X6553072Y2076427D01*
X6553072Y2076428D01*
X6552382Y2082991D01*
X6536677Y2131328D01*
X6499119Y2246918D01*
X6497077Y2253203D01*
X6407591Y2408197D01*
X6333558Y2490420D01*
X6292258Y2536288D01*
X6292257Y2536289D01*
X6287836Y2541199D01*
X6143045Y2646396D01*
X6137017Y2649080D01*
X6137015Y2649081D01*
X5985577Y2716505D01*
X5985576Y2716505D01*
X5979546Y2719190D01*
X5892016Y2737795D01*
X5810943Y2755028D01*
X5810939Y2755028D01*
X5804486Y2756400D01*
X5625514Y2756400D01*
X5619061Y2755028D01*
X5619057Y2755028D01*
X5537984Y2737795D01*
X5450454Y2719190D01*
X5444424Y2716505D01*
X5444423Y2716505D01*
X5292985Y2649081D01*
X5292983Y2649080D01*
X5286955Y2646396D01*
X5142164Y2541199D01*
X5137743Y2536289D01*
X5137742Y2536288D01*
X5096443Y2490420D01*
X5022409Y2408197D01*
X4932923Y2253203D01*
X4930881Y2246918D01*
X4893324Y2131328D01*
X4877618Y2082991D01*
X4876928Y2076428D01*
X4876928Y2076427D01*
X4867152Y1983412D01*
X4858910Y1905000D01*
X4859600Y1898435D01*
X4873532Y1765888D01*
X4877618Y1727009D01*
X4932923Y1556797D01*
X4936226Y1551075D01*
X4936227Y1551074D01*
X4961794Y1506791D01*
X5022409Y1401803D01*
X5065711Y1353711D01*
X5096427Y1289705D01*
X5087662Y1219252D01*
X5042199Y1164721D01*
X4974471Y1143426D01*
X4918823Y1155208D01*
X4754225Y1231961D01*
X4754224Y1231961D01*
X4749243Y1234284D01*
X4743935Y1235706D01*
X4743933Y1235707D01*
X4533402Y1292119D01*
X4533400Y1292119D01*
X4528087Y1293543D01*
X4428520Y1302254D01*
X4359851Y1308262D01*
X4359844Y1308262D01*
X4357127Y1308500D01*
X4242873Y1308500D01*
X4240156Y1308262D01*
X4240149Y1308262D01*
X4171480Y1302254D01*
X4071913Y1293543D01*
X4066600Y1292119D01*
X4066598Y1292119D01*
X3856067Y1235707D01*
X3856065Y1235706D01*
X3850757Y1234284D01*
X3845776Y1231961D01*
X3845775Y1231961D01*
X3648238Y1139849D01*
X3648233Y1139846D01*
X3643251Y1137523D01*
X3638744Y1134367D01*
X3633981Y1131617D01*
X3633255Y1132874D01*
X3572457Y1112371D01*
X3503597Y1129656D01*
X3455013Y1181426D01*
X3450827Y1192049D01*
X3450727Y1192006D01*
X3447581Y1199277D01*
X3445368Y1206893D01*
X3435011Y1224407D01*
X3426315Y1242157D01*
X3421739Y1253715D01*
X3421736Y1253720D01*
X3418819Y1261088D01*
X3392733Y1296993D01*
X3386216Y1306915D01*
X3367672Y1338272D01*
X3367670Y1338275D01*
X3363634Y1345099D01*
X3349247Y1359486D01*
X3336406Y1374520D01*
X3329102Y1384573D01*
X3324442Y1390987D01*
X3290250Y1419273D01*
X3281471Y1427262D01*
X2577405Y2131328D01*
X2543379Y2193640D01*
X2540500Y2220423D01*
X2540500Y4089578D01*
X2560502Y4157699D01*
X2577405Y4178673D01*
X2673821Y4275089D01*
X2736133Y4309115D01*
X2792328Y4308513D01*
X2904608Y4281557D01*
X3008476Y4256620D01*
X3008482Y4256619D01*
X3013289Y4255465D01*
X3250000Y4236835D01*
X3486711Y4255465D01*
X3491518Y4256619D01*
X3491524Y4256620D01*
X3637391Y4291640D01*
X3717594Y4310895D01*
X3722167Y4312789D01*
X3932389Y4399865D01*
X3932393Y4399867D01*
X3936963Y4401760D01*
X3962206Y4417229D01*
X4135202Y4523241D01*
X4135208Y4523245D01*
X4139416Y4525824D01*
X4319969Y4680031D01*
X4474176Y4860584D01*
X4580509Y5034103D01*
X4633157Y5081734D01*
X4703199Y5093341D01*
X4768396Y5065238D01*
X4808050Y5006347D01*
X4813554Y4978154D01*
X4830465Y4763289D01*
X4831619Y4758482D01*
X4831620Y4758476D01*
X4858203Y4647751D01*
X4885895Y4532406D01*
X4887788Y4527835D01*
X4887789Y4527833D01*
X4933603Y4417229D01*
X4976760Y4313037D01*
X4979346Y4308817D01*
X5098241Y4114798D01*
X5098245Y4114792D01*
X5100824Y4110584D01*
X5255031Y3930031D01*
X5435584Y3775824D01*
X5439792Y3773245D01*
X5439798Y3773241D01*
X5633817Y3654346D01*
X5638037Y3651760D01*
X5642607Y3649867D01*
X5642611Y3649865D01*
X5852833Y3562789D01*
X5857406Y3560895D01*
X5937609Y3541640D01*
X6083476Y3506620D01*
X6083482Y3506619D01*
X6088289Y3505465D01*
X6325000Y3486835D01*
X6561711Y3505465D01*
X6566518Y3506619D01*
X6566524Y3506620D01*
X6712391Y3541640D01*
X6792594Y3560895D01*
X6797167Y3562789D01*
X7007389Y3649865D01*
X7007393Y3649867D01*
X7011963Y3651760D01*
X7016183Y3654346D01*
X7210202Y3773241D01*
X7210208Y3773245D01*
X7214416Y3775824D01*
X7394969Y3930031D01*
X7549176Y4110584D01*
X7551755Y4114792D01*
X7551759Y4114798D01*
X7670654Y4308817D01*
X7673240Y4313037D01*
X7716398Y4417229D01*
X7762211Y4527833D01*
X7762212Y4527835D01*
X7764105Y4532406D01*
X7791797Y4647751D01*
X7818380Y4758476D01*
X7818381Y4758482D01*
X7819535Y4763289D01*
X7838165Y5000000D01*
X7819535Y5236711D01*
X7809663Y5277833D01*
X7765260Y5462782D01*
X7764105Y5467594D01*
X7745178Y5513289D01*
X7675135Y5682389D01*
X7675133Y5682393D01*
X7673240Y5686963D01*
X7622804Y5769267D01*
X7551759Y5885202D01*
X7551755Y5885208D01*
X7549176Y5889416D01*
X7394969Y6069969D01*
X7214416Y6224176D01*
X7210208Y6226755D01*
X7210202Y6226759D01*
X7016183Y6345654D01*
X7011963Y6348240D01*
X7007393Y6350133D01*
X7007389Y6350135D01*
X6797167Y6437211D01*
X6797165Y6437212D01*
X6792594Y6439105D01*
X6712391Y6458360D01*
X6566524Y6493380D01*
X6566518Y6493381D01*
X6561711Y6494535D01*
X6325000Y6513165D01*
X6088289Y6494535D01*
X6083482Y6493381D01*
X6083476Y6493380D01*
X5937609Y6458360D01*
X5857406Y6439105D01*
X5852835Y6437212D01*
X5852833Y6437211D01*
X5642611Y6350135D01*
X5642607Y6350133D01*
X5638037Y6348240D01*
X5633817Y6345654D01*
X5439798Y6226759D01*
X5439792Y6226755D01*
X5435584Y6224176D01*
X5255031Y6069969D01*
X5100824Y5889416D01*
X5015389Y5750000D01*
X4994491Y5715897D01*
X4941843Y5668266D01*
X4871801Y5656659D01*
X4806604Y5684762D01*
X4766950Y5743653D01*
X4761446Y5771846D01*
X4744923Y5981777D01*
X4744535Y5986711D01*
X4725449Y6066213D01*
X4690260Y6212782D01*
X4689105Y6217594D01*
X4598240Y6436963D01*
X4595654Y6441183D01*
X4476759Y6635202D01*
X4476755Y6635208D01*
X4474176Y6639416D01*
X4319969Y6819969D01*
X4139416Y6974176D01*
X4135208Y6976755D01*
X4135202Y6976759D01*
X3941183Y7095654D01*
X3936963Y7098240D01*
X3932393Y7100133D01*
X3932389Y7100135D01*
X3722167Y7187211D01*
X3722165Y7187212D01*
X3717594Y7189105D01*
X3637391Y7208360D01*
X3491524Y7243380D01*
X3491518Y7243381D01*
X3486711Y7244535D01*
X3250000Y7263165D01*
X3013289Y7244535D01*
X3008482Y7243381D01*
X3008476Y7243380D01*
X2862609Y7208360D01*
X2782406Y7189105D01*
X2777835Y7187212D01*
X2777833Y7187211D01*
X2567611Y7100135D01*
X2567607Y7100133D01*
X2563037Y7098240D01*
X2558817Y7095654D01*
X2364798Y6976759D01*
X2364792Y6976755D01*
X2360584Y6974176D01*
X2180031Y6819969D01*
X2025824Y6639416D01*
X2023245Y6635208D01*
X2023241Y6635202D01*
X1904346Y6441183D01*
X1901760Y6436963D01*
X1810895Y6217594D01*
X1809740Y6212782D01*
X1774552Y6066213D01*
X1755465Y5986711D01*
X1736835Y5750000D01*
X1755465Y5513289D01*
X1756619Y5508482D01*
X1756620Y5508476D01*
X1808512Y5292330D01*
X1804965Y5221422D01*
X1775088Y5173821D01*
X1511517Y4910250D01*
X1503191Y4902674D01*
X1496697Y4898553D01*
X1491274Y4892778D01*
X1449915Y4848735D01*
X1447160Y4845893D01*
X1427361Y4826094D01*
X1424937Y4822969D01*
X1424929Y4822960D01*
X1424863Y4822874D01*
X1417155Y4813849D01*
X1386783Y4781506D01*
X1382965Y4774562D01*
X1382964Y4774560D01*
X1376978Y4763671D01*
X1366127Y4747153D01*
X1353650Y4731067D01*
X1336024Y4690334D01*
X1330807Y4679686D01*
X1309431Y4640803D01*
X1307460Y4633128D01*
X1307458Y4633122D01*
X1304369Y4621089D01*
X1297966Y4602387D01*
X1289883Y4583708D01*
X1288644Y4575883D01*
X1282940Y4539873D01*
X1280535Y4528260D01*
X1269500Y4485282D01*
X1269500Y4464935D01*
X1267949Y4445224D01*
X1264765Y4425121D01*
X1265511Y4417229D01*
X1268941Y4380944D01*
X1269500Y4369086D01*
X1269500Y1984020D01*
X1268970Y1972786D01*
X1267292Y1965281D01*
X1267541Y1957362D01*
X1269438Y1896988D01*
X1269500Y1893031D01*
X1269500Y1865017D01*
X1269996Y1861092D01*
X1269996Y1861091D01*
X1270008Y1860996D01*
X1270941Y1849151D01*
X1272335Y1804795D01*
X1274547Y1797183D01*
X1278013Y1785252D01*
X1282023Y1765888D01*
X1284573Y1745701D01*
X1287489Y1738337D01*
X1287490Y1738332D01*
X1300907Y1704444D01*
X1304752Y1693215D01*
X1317131Y1650607D01*
X1321169Y1643780D01*
X1321170Y1643777D01*
X1327488Y1633094D01*
X1336188Y1615336D01*
X1340761Y1603785D01*
X1340765Y1603779D01*
X1343681Y1596412D01*
X1348339Y1590001D01*
X1348340Y1589999D01*
X1369764Y1560512D01*
X1376281Y1550590D01*
X1394826Y1519232D01*
X1394829Y1519228D01*
X1398866Y1512402D01*
X1413250Y1498018D01*
X1426091Y1482984D01*
X1438058Y1466513D01*
X1444166Y1461460D01*
X1472255Y1438223D01*
X1481035Y1430233D01*
X2185095Y726173D01*
X2219121Y663861D01*
X2222000Y637078D01*
X2222000Y-238480D01*
X2221470Y-249714D01*
X2219792Y-257219D01*
X2220041Y-265138D01*
X2221938Y-325512D01*
X2222000Y-329469D01*
X2222000Y-357483D01*
X2222496Y-361408D01*
X2222496Y-361409D01*
X2222508Y-361504D01*
X2223442Y-373359D01*
X2224055Y-392888D01*
X2206200Y-461603D01*
X2149365Y-511948D01*
X2111955Y-528604D01*
X2106614Y-532484D01*
X2106613Y-532485D01*
X2021029Y-594666D01*
X1967164Y-633801D01*
X1962743Y-638711D01*
X1962742Y-638712D01*
X1942443Y-661257D01*
X1847409Y-766803D01*
X1757923Y-921797D01*
X1755881Y-928082D01*
X1711000Y-1066213D01*
X1702618Y-1092009D01*
X1701928Y-1098572D01*
X1701928Y-1098573D01*
X1693582Y-1177976D01*
X1666568Y-1243633D01*
X1657367Y-1253900D01*
X-393483Y-3304750D01*
X-401809Y-3312326D01*
X-408303Y-3316447D01*
X-413726Y-3322222D01*
X-455085Y-3366265D01*
X-457840Y-3369107D01*
X-477639Y-3388906D01*
X-480063Y-3392031D01*
X-480071Y-3392040D01*
X-480137Y-3392126D01*
X-487845Y-3401151D01*
X-518217Y-3433494D01*
X-522035Y-3440438D01*
X-522036Y-3440440D01*
X-528022Y-3451329D01*
X-538873Y-3467847D01*
X-551350Y-3483933D01*
X-568976Y-3524666D01*
X-574193Y-3535314D01*
X-595569Y-3574197D01*
X-597540Y-3581872D01*
X-597542Y-3581878D01*
X-600631Y-3593911D01*
X-607034Y-3612613D01*
X-615117Y-3631292D01*
X-618978Y-3655672D01*
X-622060Y-3675127D01*
X-624465Y-3686740D01*
X-635500Y-3729718D01*
X-635500Y-3750065D01*
X-637051Y-3769776D01*
X-640235Y-3789879D01*
X-639489Y-3797771D01*
X-636059Y-3834056D01*
X-635500Y-3845914D01*
X-635500Y-7279660D01*
X-655502Y-7347781D01*
X-695664Y-7387092D01*
X-889416Y-7505824D01*
X-1069969Y-7660031D01*
X-1073177Y-7663787D01*
X-1208753Y-7822526D01*
X-1254686Y-7856402D01*
X-1276668Y-7865878D01*
X-2410905Y-9000115D01*
X-2473217Y-9034141D01*
X-2544032Y-9029076D01*
X-2589095Y-9000115D01*
X-3720290Y-7868920D01*
X-3732670Y-7862160D01*
X-3740320Y-7867887D01*
X-3845205Y-8039042D01*
X-3849687Y-8047837D01*
X-3936734Y-8257988D01*
X-3939783Y-8267373D01*
X-3992885Y-8488554D01*
X-3994428Y-8498301D01*
X-4012275Y-8725070D01*
X-4012275Y-8734930D01*
X-3994428Y-8961699D01*
X-3992885Y-8971446D01*
X-3939783Y-9192627D01*
X-3936734Y-9202012D01*
X-3888988Y-9317281D01*
X-3881399Y-9387871D01*
X-3913178Y-9451358D01*
X-3974237Y-9487585D01*
X-4005397Y-9491499D01*
X-10887036Y-9491499D01*
X-10955157Y-9471497D01*
X-10983062Y-9447077D01*
X-11277645Y-9100323D01*
X-11281678Y-9095323D01*
X-11726853Y-8513640D01*
X-11730626Y-8508440D01*
X-12145556Y-7904848D01*
X-12149060Y-7899463D01*
X-12395957Y-7497890D01*
X-3367907Y-7497890D01*
X-3364124Y-7506666D01*
X-2512812Y-8357978D01*
X-2498868Y-8365592D01*
X-2497035Y-8365461D01*
X-2490420Y-8361210D01*
X-1638920Y-7509710D01*
X-1632160Y-7497330D01*
X-1637887Y-7489680D01*
X-1809042Y-7384795D01*
X-1817837Y-7380313D01*
X-2027988Y-7293266D01*
X-2037373Y-7290217D01*
X-2258554Y-7237115D01*
X-2268301Y-7235572D01*
X-2495070Y-7217725D01*
X-2504930Y-7217725D01*
X-2731699Y-7235572D01*
X-2741446Y-7237115D01*
X-2962627Y-7290217D01*
X-2972012Y-7293266D01*
X-3182163Y-7380313D01*
X-3190958Y-7384795D01*
X-3358445Y-7487432D01*
X-3367907Y-7497890D01*
X-12395957Y-7497890D01*
X-12396301Y-7497330D01*
X-12532711Y-7275461D01*
X-12535930Y-7269913D01*
X-12564457Y-7217725D01*
X-12887260Y-6627194D01*
X-12890193Y-6621487D01*
X-13021023Y-6350135D01*
X-13208314Y-5961681D01*
X-13210951Y-5955834D01*
X-13495032Y-5280653D01*
X-13497355Y-5274712D01*
X-13596784Y-5000000D01*
X-7838165Y-5000000D01*
X-7819535Y-5236711D01*
X-7818381Y-5241518D01*
X-7818380Y-5241524D01*
X-7794277Y-5341918D01*
X-7764105Y-5467594D01*
X-7762212Y-5472165D01*
X-7762211Y-5472167D01*
X-7695076Y-5634245D01*
X-7673240Y-5686963D01*
X-7670654Y-5691183D01*
X-7551759Y-5885202D01*
X-7551755Y-5885208D01*
X-7549176Y-5889416D01*
X-7394969Y-6069969D01*
X-7214416Y-6224176D01*
X-7210208Y-6226755D01*
X-7210202Y-6226759D01*
X-7019804Y-6343435D01*
X-7011963Y-6348240D01*
X-7007393Y-6350133D01*
X-7007389Y-6350135D01*
X-6991865Y-6356565D01*
X-6792594Y-6439105D01*
X-6712391Y-6458360D01*
X-6566524Y-6493380D01*
X-6566518Y-6493381D01*
X-6561711Y-6494535D01*
X-6325000Y-6513165D01*
X-6088289Y-6494535D01*
X-6083482Y-6493381D01*
X-6083476Y-6493380D01*
X-5937609Y-6458360D01*
X-5857406Y-6439105D01*
X-5658135Y-6356565D01*
X-5642611Y-6350135D01*
X-5642607Y-6350133D01*
X-5638037Y-6348240D01*
X-5630196Y-6343435D01*
X-5439798Y-6226759D01*
X-5439792Y-6226755D01*
X-5435584Y-6224176D01*
X-5255031Y-6069969D01*
X-5100824Y-5889416D01*
X-5098245Y-5885208D01*
X-5098241Y-5885202D01*
X-4979346Y-5691183D01*
X-4976760Y-5686963D01*
X-4954923Y-5634245D01*
X-4887789Y-5472167D01*
X-4887788Y-5472165D01*
X-4885895Y-5467594D01*
X-4855723Y-5341918D01*
X-4831620Y-5241524D01*
X-4831619Y-5241518D01*
X-4830465Y-5236711D01*
X-4811835Y-5000000D01*
X-4830465Y-4763289D01*
X-4885895Y-4532406D01*
X-4887789Y-4527833D01*
X-4974865Y-4317611D01*
X-4974867Y-4317607D01*
X-4976760Y-4313037D01*
X-5011762Y-4255919D01*
X-5098241Y-4114798D01*
X-5098245Y-4114792D01*
X-5100824Y-4110584D01*
X-5255031Y-3930031D01*
X-5435584Y-3775824D01*
X-5439792Y-3773245D01*
X-5439798Y-3773241D01*
X-5633817Y-3654346D01*
X-5638037Y-3651760D01*
X-5642607Y-3649867D01*
X-5642611Y-3649865D01*
X-5852833Y-3562789D01*
X-5852835Y-3562788D01*
X-5857406Y-3560895D01*
X-5937609Y-3541640D01*
X-6083476Y-3506620D01*
X-6083482Y-3506619D01*
X-6088289Y-3505465D01*
X-6325000Y-3486835D01*
X-6561711Y-3505465D01*
X-6566518Y-3506619D01*
X-6566524Y-3506620D01*
X-6712391Y-3541640D01*
X-6792594Y-3560895D01*
X-6797165Y-3562788D01*
X-6797167Y-3562789D01*
X-7007389Y-3649865D01*
X-7007393Y-3649867D01*
X-7011963Y-3651760D01*
X-7016183Y-3654346D01*
X-7210202Y-3773241D01*
X-7210208Y-3773245D01*
X-7214416Y-3775824D01*
X-7394969Y-3930031D01*
X-7549176Y-4110584D01*
X-7551755Y-4114792D01*
X-7551759Y-4114798D01*
X-7638238Y-4255919D01*
X-7673240Y-4313037D01*
X-7675133Y-4317607D01*
X-7675135Y-4317611D01*
X-7762211Y-4527833D01*
X-7764105Y-4532406D01*
X-7819535Y-4763289D01*
X-7838165Y-5000000D01*
X-13596784Y-5000000D01*
X-13746643Y-4585954D01*
X-13748675Y-4579859D01*
X-13962527Y-3879304D01*
X-13964246Y-3873114D01*
X-14053412Y-3516910D01*
X-14142123Y-3162524D01*
X-14143521Y-3156262D01*
X-14208552Y-2825767D01*
X-14272653Y-2500000D01*
X-10243165Y-2500000D01*
X-10224535Y-2736711D01*
X-10169105Y-2967594D01*
X-10167212Y-2972165D01*
X-10167211Y-2972167D01*
X-10088359Y-3162533D01*
X-10078240Y-3186963D01*
X-10075654Y-3191183D01*
X-9956759Y-3385202D01*
X-9956755Y-3385208D01*
X-9954176Y-3389416D01*
X-9844169Y-3518217D01*
X-9813182Y-3554498D01*
X-9799969Y-3569969D01*
X-9619416Y-3724176D01*
X-9615208Y-3726755D01*
X-9615202Y-3726759D01*
X-9440109Y-3834056D01*
X-9416963Y-3848240D01*
X-9412393Y-3850133D01*
X-9412389Y-3850135D01*
X-9227246Y-3926823D01*
X-9197594Y-3939105D01*
X-9117391Y-3958360D01*
X-8971524Y-3993380D01*
X-8971518Y-3993381D01*
X-8966711Y-3994535D01*
X-8730000Y-4013165D01*
X-8493289Y-3994535D01*
X-8488482Y-3993381D01*
X-8488476Y-3993380D01*
X-8342609Y-3958360D01*
X-8262406Y-3939105D01*
X-8232754Y-3926823D01*
X-8047611Y-3850135D01*
X-8047607Y-3850133D01*
X-8043037Y-3848240D01*
X-8019891Y-3834056D01*
X-7844798Y-3726759D01*
X-7844792Y-3726755D01*
X-7840584Y-3724176D01*
X-7660031Y-3569969D01*
X-7646817Y-3554498D01*
X-7615831Y-3518217D01*
X-7505824Y-3389416D01*
X-7503245Y-3385208D01*
X-7503241Y-3385202D01*
X-7384346Y-3191183D01*
X-7381760Y-3186963D01*
X-7371640Y-3162533D01*
X-7292789Y-2972167D01*
X-7292788Y-2972165D01*
X-7290895Y-2967594D01*
X-7235465Y-2736711D01*
X-7216835Y-2500000D01*
X-7235465Y-2263289D01*
X-7243376Y-2230335D01*
X-7278463Y-2084190D01*
X-7290895Y-2032406D01*
X-7298485Y-2014081D01*
X-7379865Y-1817611D01*
X-7379867Y-1817607D01*
X-7381760Y-1813037D01*
X-7407287Y-1771381D01*
X-7503241Y-1614798D01*
X-7503245Y-1614792D01*
X-7505824Y-1610584D01*
X-7660031Y-1430031D01*
X-7663787Y-1426823D01*
X-7663792Y-1426818D01*
X-7758639Y-1345811D01*
X-7797449Y-1286361D01*
X-7797955Y-1215366D01*
X-7758639Y-1154189D01*
X-7663792Y-1073182D01*
X-7663787Y-1073177D01*
X-7660031Y-1069969D01*
X-7505824Y-889416D01*
X-7503245Y-885208D01*
X-7503241Y-885202D01*
X-7384346Y-691183D01*
X-7381760Y-686963D01*
X-7359739Y-633801D01*
X-7292789Y-472167D01*
X-7292788Y-472165D01*
X-7290895Y-467594D01*
X-7256784Y-325512D01*
X-7236620Y-241524D01*
X-7236619Y-241518D01*
X-7235465Y-236711D01*
X-7216835Y0D01*
X-5613498Y0D01*
X-5593543Y-228087D01*
X-5592119Y-233400D01*
X-5592119Y-233402D01*
X-5549384Y-392888D01*
X-5534284Y-449243D01*
X-5531961Y-454224D01*
X-5531961Y-454225D01*
X-5439849Y-651762D01*
X-5439846Y-651767D01*
X-5437523Y-656749D01*
X-5306198Y-844300D01*
X-5144300Y-1006198D01*
X-5139792Y-1009355D01*
X-5139789Y-1009357D01*
X-5061611Y-1064098D01*
X-4956749Y-1137523D01*
X-4951767Y-1139846D01*
X-4951762Y-1139849D01*
X-4793517Y-1213639D01*
X-4749243Y-1234284D01*
X-4743935Y-1235706D01*
X-4743933Y-1235707D01*
X-4533402Y-1292119D01*
X-4533400Y-1292119D01*
X-4528087Y-1293543D01*
X-4428520Y-1302254D01*
X-4359851Y-1308262D01*
X-4359844Y-1308262D01*
X-4357127Y-1308500D01*
X-4242873Y-1308500D01*
X-4240156Y-1308262D01*
X-4240149Y-1308262D01*
X-4171480Y-1302254D01*
X-4071913Y-1293543D01*
X-4066600Y-1292119D01*
X-4066598Y-1292119D01*
X-3856067Y-1235707D01*
X-3856065Y-1235706D01*
X-3850757Y-1234284D01*
X-3806483Y-1213639D01*
X-3648238Y-1139849D01*
X-3648233Y-1139846D01*
X-3643251Y-1137523D01*
X-3538389Y-1064098D01*
X-3460211Y-1009357D01*
X-3460208Y-1009355D01*
X-3455700Y-1006198D01*
X-3293802Y-844300D01*
X-3162477Y-656749D01*
X-3160154Y-651767D01*
X-3160151Y-651762D01*
X-3068039Y-454225D01*
X-3068039Y-454224D01*
X-3065716Y-449243D01*
X-3050615Y-392888D01*
X-3007881Y-233402D01*
X-3007881Y-233400D01*
X-3006457Y-228087D01*
X-2986502Y0D01*
X-3006457Y228087D01*
X-3010057Y241524D01*
X-3064293Y443933D01*
X-3064294Y443935D01*
X-3065716Y449243D01*
X-3074273Y467594D01*
X-3160151Y651762D01*
X-3160154Y651767D01*
X-3162477Y656749D01*
X-3293802Y844300D01*
X-3455700Y1006198D01*
X-3460208Y1009355D01*
X-3460211Y1009357D01*
X-3580374Y1093496D01*
X-3643251Y1137523D01*
X-3648233Y1139846D01*
X-3648238Y1139849D01*
X-3845775Y1231961D01*
X-3845776Y1231961D01*
X-3850757Y1234284D01*
X-3856065Y1235706D01*
X-3856067Y1235707D01*
X-4066598Y1292119D01*
X-4066600Y1292119D01*
X-4071913Y1293543D01*
X-4171480Y1302254D01*
X-4240149Y1308262D01*
X-4240156Y1308262D01*
X-4242873Y1308500D01*
X-4357127Y1308500D01*
X-4359844Y1308262D01*
X-4359851Y1308262D01*
X-4428520Y1302254D01*
X-4528087Y1293543D01*
X-4533400Y1292119D01*
X-4533402Y1292119D01*
X-4743933Y1235707D01*
X-4743935Y1235706D01*
X-4749243Y1234284D01*
X-4754224Y1231961D01*
X-4754225Y1231961D01*
X-4951762Y1139849D01*
X-4951767Y1139846D01*
X-4956749Y1137523D01*
X-5019626Y1093496D01*
X-5139789Y1009357D01*
X-5139792Y1009355D01*
X-5144300Y1006198D01*
X-5306198Y844300D01*
X-5437523Y656749D01*
X-5439846Y651767D01*
X-5439849Y651762D01*
X-5525727Y467594D01*
X-5534284Y449243D01*
X-5535706Y443935D01*
X-5535707Y443933D01*
X-5589943Y241524D01*
X-5593543Y228087D01*
X-5613498Y0D01*
X-7216835Y0D01*
X-7235465Y236711D01*
X-7236634Y241584D01*
X-7285215Y443933D01*
X-7290895Y467594D01*
X-7292789Y472167D01*
X-7379865Y682389D01*
X-7379867Y682393D01*
X-7381760Y686963D01*
X-7475412Y839789D01*
X-7503241Y885202D01*
X-7503245Y885208D01*
X-7505824Y889416D01*
X-7647222Y1054972D01*
X-7656823Y1066213D01*
X-7660031Y1069969D01*
X-7687577Y1093496D01*
X-7822526Y1208753D01*
X-7856402Y1254686D01*
X-7865878Y1276668D01*
X-8717188Y2127978D01*
X-8731132Y2135592D01*
X-8732965Y2135461D01*
X-8739580Y2131210D01*
X-9591080Y1279710D01*
X-9612026Y1241352D01*
X-9640782Y1205928D01*
X-9775567Y1090810D01*
X-9799969Y1069969D01*
X-9803177Y1066213D01*
X-9812778Y1054972D01*
X-9954176Y889416D01*
X-9956755Y885208D01*
X-9956759Y885202D01*
X-9984588Y839789D01*
X-10078240Y686963D01*
X-10080133Y682393D01*
X-10080135Y682389D01*
X-10167211Y472167D01*
X-10169105Y467594D01*
X-10174785Y443933D01*
X-10223365Y241584D01*
X-10224535Y236711D01*
X-10243165Y0D01*
X-10224535Y-236711D01*
X-10223381Y-241518D01*
X-10223380Y-241524D01*
X-10203216Y-325512D01*
X-10169105Y-467594D01*
X-10167212Y-472165D01*
X-10167211Y-472167D01*
X-10100260Y-633801D01*
X-10078240Y-686963D01*
X-10075654Y-691183D01*
X-9956759Y-885202D01*
X-9956755Y-885208D01*
X-9954176Y-889416D01*
X-9799969Y-1069969D01*
X-9796213Y-1073177D01*
X-9796208Y-1073182D01*
X-9701361Y-1154189D01*
X-9662551Y-1213639D01*
X-9662045Y-1284634D01*
X-9701361Y-1345811D01*
X-9796208Y-1426818D01*
X-9796213Y-1426823D01*
X-9799969Y-1430031D01*
X-9954176Y-1610584D01*
X-9956755Y-1614792D01*
X-9956759Y-1614798D01*
X-10052713Y-1771381D01*
X-10078240Y-1813037D01*
X-10080133Y-1817607D01*
X-10080135Y-1817611D01*
X-10161515Y-2014081D01*
X-10169105Y-2032406D01*
X-10181537Y-2084190D01*
X-10216623Y-2230335D01*
X-10224535Y-2263289D01*
X-10243165Y-2500000D01*
X-14272653Y-2500000D01*
X-14284934Y-2437584D01*
X-14286012Y-2431265D01*
X-14295674Y-2364295D01*
X-14388735Y-1719303D01*
X-14390614Y-1706280D01*
X-14391369Y-1699900D01*
X-14426214Y-1323455D01*
X-14458882Y-970526D01*
X-14459310Y-964135D01*
X-14461059Y-921797D01*
X-14489556Y-232258D01*
X-14489657Y-225844D01*
X-14489625Y-222607D01*
X-14483067Y454225D01*
X-14482560Y506587D01*
X-14482334Y513007D01*
X-14447065Y1093496D01*
X-14437912Y1244139D01*
X-14437359Y1250537D01*
X-14432966Y1289705D01*
X-14407907Y1513165D01*
X-14355729Y1978441D01*
X-14354851Y1984805D01*
X-14271105Y2495070D01*
X-10242275Y2495070D01*
X-10224428Y2268301D01*
X-10222885Y2258554D01*
X-10169783Y2037373D01*
X-10166734Y2027988D01*
X-10079687Y1817837D01*
X-10075205Y1809042D01*
X-9972568Y1641555D01*
X-9962110Y1632093D01*
X-9953334Y1635876D01*
X-9102022Y2487188D01*
X-9095644Y2498868D01*
X-8365592Y2498868D01*
X-8365461Y2497035D01*
X-8361210Y2490420D01*
X-7509710Y1638920D01*
X-7497330Y1632160D01*
X-7489680Y1637887D01*
X-7384795Y1809042D01*
X-7380313Y1817837D01*
X-7293266Y2027988D01*
X-7290217Y2037373D01*
X-7237115Y2258554D01*
X-7235572Y2268301D01*
X-7217725Y2495070D01*
X-7217725Y2504930D01*
X-7235572Y2731699D01*
X-7237115Y2741446D01*
X-7290217Y2962627D01*
X-7293266Y2972012D01*
X-7380313Y3182163D01*
X-7384795Y3190958D01*
X-7487432Y3358445D01*
X-7497890Y3367907D01*
X-7506666Y3364124D01*
X-8357978Y2512812D01*
X-8365592Y2498868D01*
X-9095644Y2498868D01*
X-9094408Y2501132D01*
X-9094539Y2502965D01*
X-9098790Y2509580D01*
X-9950290Y3361080D01*
X-9962670Y3367840D01*
X-9970320Y3362113D01*
X-10075205Y3190958D01*
X-10079687Y3182163D01*
X-10166734Y2972012D01*
X-10169783Y2962627D01*
X-10222885Y2741446D01*
X-10224428Y2731699D01*
X-10242275Y2504930D01*
X-10242275Y2495070D01*
X-14271105Y2495070D01*
X-14236220Y2707623D01*
X-14235018Y2713935D01*
X-14079700Y3429758D01*
X-14078178Y3435999D01*
X-13997926Y3732110D01*
X-9597907Y3732110D01*
X-9594124Y3723334D01*
X-8742812Y2872022D01*
X-8728868Y2864408D01*
X-8727035Y2864539D01*
X-8720420Y2868790D01*
X-7868920Y3720290D01*
X-7862160Y3732670D01*
X-7867887Y3740320D01*
X-8039042Y3845205D01*
X-8047837Y3849687D01*
X-8257988Y3936734D01*
X-8267373Y3939783D01*
X-8488554Y3992885D01*
X-8498301Y3994428D01*
X-8725070Y4012275D01*
X-8734930Y4012275D01*
X-8961699Y3994428D01*
X-8971446Y3992885D01*
X-9192627Y3939783D01*
X-9202012Y3936734D01*
X-9412163Y3849687D01*
X-9420958Y3845205D01*
X-9588445Y3742568D01*
X-9597907Y3732110D01*
X-13997926Y3732110D01*
X-13886577Y4142966D01*
X-13884739Y4149122D01*
X-13831208Y4313037D01*
X-13697067Y4723791D01*
X-13657347Y4845416D01*
X-13655197Y4851471D01*
X-13598160Y5000000D01*
X-7838165Y5000000D01*
X-7819535Y4763289D01*
X-7818381Y4758482D01*
X-7818380Y4758476D01*
X-7791797Y4647751D01*
X-7764105Y4532406D01*
X-7762212Y4527835D01*
X-7762211Y4527833D01*
X-7716397Y4417229D01*
X-7673240Y4313037D01*
X-7670654Y4308817D01*
X-7551759Y4114798D01*
X-7551755Y4114792D01*
X-7549176Y4110584D01*
X-7394969Y3930031D01*
X-7214416Y3775824D01*
X-7210208Y3773245D01*
X-7210202Y3773241D01*
X-7016183Y3654346D01*
X-7011963Y3651760D01*
X-7007393Y3649867D01*
X-7007389Y3649865D01*
X-6797167Y3562789D01*
X-6792594Y3560895D01*
X-6712391Y3541640D01*
X-6566524Y3506620D01*
X-6566518Y3506619D01*
X-6561711Y3505465D01*
X-6325000Y3486835D01*
X-6088289Y3505465D01*
X-6083482Y3506619D01*
X-6083476Y3506620D01*
X-5937609Y3541640D01*
X-5857406Y3560895D01*
X-5852833Y3562789D01*
X-5642611Y3649865D01*
X-5642607Y3649867D01*
X-5638037Y3651760D01*
X-5633817Y3654346D01*
X-5439798Y3773241D01*
X-5439792Y3773245D01*
X-5435584Y3775824D01*
X-5255031Y3930031D01*
X-5100824Y4110584D01*
X-5098245Y4114792D01*
X-5098241Y4114798D01*
X-4979346Y4308817D01*
X-4976760Y4313037D01*
X-4933602Y4417229D01*
X-4887789Y4527833D01*
X-4887788Y4527835D01*
X-4885895Y4532406D01*
X-4858203Y4647751D01*
X-4831620Y4758476D01*
X-4831619Y4758482D01*
X-4830465Y4763289D01*
X-4813554Y4978154D01*
X-4788268Y5044496D01*
X-4731130Y5086635D01*
X-4660280Y5091194D01*
X-4598212Y5056725D01*
X-4580510Y5034104D01*
X-4474176Y4860584D01*
X-4319969Y4680031D01*
X-4139416Y4525824D01*
X-4135208Y4523245D01*
X-4135202Y4523241D01*
X-3962206Y4417229D01*
X-3936963Y4401760D01*
X-3932393Y4399867D01*
X-3932389Y4399865D01*
X-3722167Y4312789D01*
X-3717594Y4310895D01*
X-3637391Y4291640D01*
X-3491524Y4256620D01*
X-3491518Y4256619D01*
X-3486711Y4255465D01*
X-3250000Y4236835D01*
X-3013289Y4255465D01*
X-3008482Y4256619D01*
X-3008476Y4256620D01*
X-2862609Y4291640D01*
X-2782406Y4310895D01*
X-2777833Y4312789D01*
X-2567611Y4399865D01*
X-2567607Y4399867D01*
X-2563037Y4401760D01*
X-2537794Y4417229D01*
X-2364798Y4523241D01*
X-2364792Y4523245D01*
X-2360584Y4525824D01*
X-2180031Y4680031D01*
X-2025824Y4860584D01*
X-2023245Y4864792D01*
X-2023241Y4864798D01*
X-1904346Y5058817D01*
X-1901760Y5063037D01*
X-1894015Y5081734D01*
X-1812789Y5277833D01*
X-1812788Y5277835D01*
X-1810895Y5282406D01*
X-1791640Y5362609D01*
X-1756620Y5508476D01*
X-1756619Y5508482D01*
X-1755465Y5513289D01*
X-1736835Y5750000D01*
X-1755465Y5986711D01*
X-1774551Y6066213D01*
X-1809740Y6212782D01*
X-1810895Y6217594D01*
X-1901760Y6436963D01*
X-1904346Y6441183D01*
X-2023241Y6635202D01*
X-2023245Y6635208D01*
X-2025824Y6639416D01*
X-2180031Y6819969D01*
X-2360584Y6974176D01*
X-2364792Y6976755D01*
X-2364798Y6976759D01*
X-2558817Y7095654D01*
X-2563037Y7098240D01*
X-2567607Y7100133D01*
X-2567611Y7100135D01*
X-2777833Y7187211D01*
X-2777835Y7187212D01*
X-2782406Y7189105D01*
X-2862609Y7208360D01*
X-3008476Y7243380D01*
X-3008482Y7243381D01*
X-3013289Y7244535D01*
X-3250000Y7263165D01*
X-3486711Y7244535D01*
X-3491518Y7243381D01*
X-3491524Y7243380D01*
X-3637391Y7208360D01*
X-3717594Y7189105D01*
X-3722165Y7187212D01*
X-3722167Y7187211D01*
X-3932389Y7100135D01*
X-3932393Y7100133D01*
X-3936963Y7098240D01*
X-3941183Y7095654D01*
X-4135202Y6976759D01*
X-4135208Y6976755D01*
X-4139416Y6974176D01*
X-4319969Y6819969D01*
X-4474176Y6639416D01*
X-4476755Y6635208D01*
X-4476759Y6635202D01*
X-4595654Y6441183D01*
X-4598240Y6436963D01*
X-4689105Y6217594D01*
X-4690260Y6212782D01*
X-4725448Y6066213D01*
X-4744535Y5986711D01*
X-4744923Y5981777D01*
X-4761446Y5771846D01*
X-4786732Y5705504D01*
X-4843870Y5663365D01*
X-4914720Y5658806D01*
X-4976788Y5693275D01*
X-4994491Y5715897D01*
X-5015389Y5750000D01*
X-5100824Y5889416D01*
X-5255031Y6069969D01*
X-5435584Y6224176D01*
X-5439792Y6226755D01*
X-5439798Y6226759D01*
X-5633817Y6345654D01*
X-5638037Y6348240D01*
X-5642607Y6350133D01*
X-5642611Y6350135D01*
X-5852833Y6437211D01*
X-5852835Y6437212D01*
X-5857406Y6439105D01*
X-5937609Y6458360D01*
X-6083476Y6493380D01*
X-6083482Y6493381D01*
X-6088289Y6494535D01*
X-6325000Y6513165D01*
X-6561711Y6494535D01*
X-6566518Y6493381D01*
X-6566524Y6493380D01*
X-6712391Y6458360D01*
X-6792594Y6439105D01*
X-6797165Y6437212D01*
X-6797167Y6437211D01*
X-7007389Y6350135D01*
X-7007393Y6350133D01*
X-7011963Y6348240D01*
X-7016183Y6345654D01*
X-7210202Y6226759D01*
X-7210208Y6226755D01*
X-7214416Y6224176D01*
X-7394969Y6069969D01*
X-7549176Y5889416D01*
X-7551755Y5885208D01*
X-7551759Y5885202D01*
X-7622804Y5769267D01*
X-7673240Y5686963D01*
X-7675133Y5682393D01*
X-7675135Y5682389D01*
X-7745178Y5513289D01*
X-7764105Y5467594D01*
X-7765260Y5462782D01*
X-7809662Y5277833D01*
X-7819535Y5236711D01*
X-7838165Y5000000D01*
X-13598160Y5000000D01*
X-13392616Y5535251D01*
X-13390161Y5541188D01*
X-13093058Y6210718D01*
X-13090303Y6216522D01*
X-12759467Y6870022D01*
X-12756420Y6875678D01*
X-12392701Y7511468D01*
X-12389370Y7516961D01*
X-11993719Y8133381D01*
X-11990112Y8138697D01*
X-11563546Y8734162D01*
X-11559673Y8739288D01*
X-11333499Y9023241D01*
X-11103313Y9312230D01*
X-11099186Y9317149D01*
X-10889638Y9554335D01*
X-10614222Y9866078D01*
X-10609848Y9870782D01*
X-10238730Y10250000D01*
X-4763165Y10250000D01*
X-4744535Y10013289D01*
X-4689105Y9782406D01*
X-4687212Y9777835D01*
X-4687211Y9777833D01*
X-4611271Y9594498D01*
X-4598240Y9563037D01*
X-4595654Y9558817D01*
X-4476759Y9364798D01*
X-4476755Y9364792D01*
X-4474176Y9360584D01*
X-4319969Y9180031D01*
X-4139416Y9025824D01*
X-4135208Y9023245D01*
X-4135202Y9023241D01*
X-3950622Y8910130D01*
X-3936963Y8901760D01*
X-3932393Y8899867D01*
X-3932389Y8899865D01*
X-3722167Y8812789D01*
X-3717594Y8810895D01*
X-3637391Y8791640D01*
X-3491524Y8756620D01*
X-3491518Y8756619D01*
X-3486711Y8755465D01*
X-3250000Y8736835D01*
X-3013289Y8755465D01*
X-3008482Y8756619D01*
X-3008476Y8756620D01*
X-2862609Y8791640D01*
X-2782406Y8810895D01*
X-2777833Y8812789D01*
X-2567611Y8899865D01*
X-2567607Y8899867D01*
X-2563037Y8901760D01*
X-2549378Y8910130D01*
X-2364798Y9023241D01*
X-2364792Y9023245D01*
X-2360584Y9025824D01*
X-2180031Y9180031D01*
X-2025824Y9360584D01*
X-2023245Y9364792D01*
X-2023241Y9364798D01*
X-1904346Y9558817D01*
X-1901760Y9563037D01*
X-1888728Y9594498D01*
X-1812789Y9777833D01*
X-1812788Y9777835D01*
X-1810895Y9782406D01*
X-1755465Y10013289D01*
X-1736835Y10250000D01*
X-1755465Y10486711D01*
X-1810895Y10717594D01*
X-1819283Y10737845D01*
X-1899865Y10932389D01*
X-1899867Y10932393D01*
X-1901760Y10936963D01*
X-1907093Y10945665D01*
X-2023241Y11135202D01*
X-2023245Y11135208D01*
X-2025824Y11139416D01*
X-2180031Y11319969D01*
X-2360584Y11474176D01*
X-2364792Y11476755D01*
X-2364798Y11476759D01*
X-2558817Y11595654D01*
X-2563037Y11598240D01*
X-2567607Y11600133D01*
X-2567611Y11600135D01*
X-2777833Y11687211D01*
X-2777835Y11687212D01*
X-2782406Y11689105D01*
X-2862609Y11708360D01*
X-3008476Y11743380D01*
X-3008482Y11743381D01*
X-3013289Y11744535D01*
X-3250000Y11763165D01*
X-3486711Y11744535D01*
X-3491518Y11743381D01*
X-3491524Y11743380D01*
X-3637391Y11708360D01*
X-3717594Y11689105D01*
X-3722165Y11687212D01*
X-3722167Y11687211D01*
X-3932389Y11600135D01*
X-3932393Y11600133D01*
X-3936963Y11598240D01*
X-3941183Y11595654D01*
X-4135202Y11476759D01*
X-4135208Y11476755D01*
X-4139416Y11474176D01*
X-4319969Y11319969D01*
X-4474176Y11139416D01*
X-4476755Y11135208D01*
X-4476759Y11135202D01*
X-4592907Y10945665D01*
X-4598240Y10936963D01*
X-4600133Y10932393D01*
X-4600135Y10932389D01*
X-4680717Y10737845D01*
X-4689105Y10717594D01*
X-4744535Y10486711D01*
X-4763165Y10250000D01*
X-10238730Y10250000D01*
X-10097522Y10394290D01*
X-10092913Y10398765D01*
X-9554576Y10895471D01*
X-9549755Y10899697D01*
X-8986785Y11368329D01*
X-8981762Y11372298D01*
X-8395640Y11811623D01*
X-8390402Y11815344D01*
X-7782667Y12224210D01*
X-7777247Y12227659D01*
X-7149450Y12605022D01*
X-7143861Y12608190D01*
X-6497668Y12953051D01*
X-6491925Y12955931D01*
X-5828964Y13267419D01*
X-5823090Y13269999D01*
X-5187731Y13529859D01*
X-5164579Y13536821D01*
X-5156860Y13538354D01*
X-5156858Y13538354D01*
X-5152077Y13539304D01*
X-5146436Y13541367D01*
X-5146170Y13541423D01*
X-5145930Y13541552D01*
X-5140288Y13543615D01*
X-5121895Y13553783D01*
X-5115648Y13557011D01*
X-5103879Y13562682D01*
X-4983581Y13620649D01*
X-4931677Y13657830D01*
X-4846149Y13719097D01*
X-4846147Y13719099D01*
X-4841727Y13722265D01*
X-4719431Y13846731D01*
X-4620325Y13990349D01*
X-4547354Y14148852D01*
X-4530490Y14212533D01*
X-4504079Y14312271D01*
X-4504079Y14312273D01*
X-4502686Y14317532D01*
X-4491615Y14445517D01*
X-4490338Y14455555D01*
X-4487230Y14474027D01*
X-4487230Y14474031D01*
X-4486423Y14478825D01*
X-4486270Y14491377D01*
X-4490226Y14519001D01*
X-4491499Y14536863D01*
X-4491499Y16196752D01*
X-4489753Y16217657D01*
X-4487229Y16232658D01*
X-4487229Y16232661D01*
X-4486423Y16237450D01*
X-4486270Y16250002D01*
X-4486959Y16254816D01*
X-4486960Y16254826D01*
X-4489317Y16271282D01*
X-4490111Y16278164D01*
X-4491907Y16298700D01*
X-4496791Y16354519D01*
X-4482802Y16424123D01*
X-4433402Y16475116D01*
X-4371270Y16491500D01*
X-1701866Y16491500D01*
X-1639684Y16498255D01*
X-1503295Y16549385D01*
X-1386739Y16636739D01*
X-1299385Y16753295D01*
X-1248255Y16889684D01*
X-1241500Y16951866D01*
X-1241500Y18548134D01*
X-1248255Y18610316D01*
X-1299385Y18746705D01*
X-1386739Y18863261D01*
X-1503295Y18950615D01*
X-1639684Y19001745D01*
X-1701866Y19008500D01*
X-2553634Y19008500D01*
X-2621755Y19028502D01*
X-2668248Y19082158D01*
X-2678352Y19152432D01*
X-2648858Y19217012D01*
X-2586245Y19256207D01*
X-2556067Y19264293D01*
X-2556065Y19264294D01*
X-2550757Y19265716D01*
X-2545775Y19268039D01*
X-2348238Y19360151D01*
X-2348233Y19360154D01*
X-2343251Y19362477D01*
X-2238389Y19435902D01*
X-2160211Y19490643D01*
X-2160208Y19490645D01*
X-2155700Y19493802D01*
X-1993802Y19655700D01*
X-1862477Y19843251D01*
X-1860154Y19848233D01*
X-1860151Y19848238D01*
X-1768039Y20045775D01*
X-1768039Y20045776D01*
X-1765716Y20050757D01*
X-1751556Y20103600D01*
X-1707881Y20266598D01*
X-1707881Y20266600D01*
X-1706457Y20271913D01*
X-1686502Y20500000D01*
X-1706457Y20728087D01*
X-1752686Y20900615D01*
X-1764293Y20943933D01*
X-1764294Y20943935D01*
X-1765716Y20949243D01*
X-1768039Y20954225D01*
X-1860151Y21151762D01*
X-1860154Y21151767D01*
X-1862477Y21156749D01*
X-1935902Y21261611D01*
X-1990643Y21339789D01*
X-1990645Y21339792D01*
X-1993802Y21344300D01*
X-2155700Y21506198D01*
X-2160208Y21509355D01*
X-2160211Y21509357D01*
X-2246102Y21569498D01*
X-2343251Y21637523D01*
X-2348233Y21639846D01*
X-2348238Y21639849D01*
X-2545775Y21731961D01*
X-2545776Y21731961D01*
X-2550757Y21734284D01*
X-2556065Y21735706D01*
X-2556067Y21735707D01*
X-2766598Y21792119D01*
X-2766600Y21792119D01*
X-2771913Y21793543D01*
X-2871480Y21802254D01*
X-2940149Y21808262D01*
X-2940156Y21808262D01*
X-2942873Y21808500D01*
X-3057127Y21808500D01*
X-3059844Y21808262D01*
X-3059851Y21808262D01*
X-3128520Y21802254D01*
X-3228087Y21793543D01*
X-3233400Y21792119D01*
X-3233402Y21792119D01*
X-3443933Y21735707D01*
X-3443935Y21735706D01*
X-3449243Y21734284D01*
X-3454224Y21731961D01*
X-3454225Y21731961D01*
X-3651762Y21639849D01*
X-3651767Y21639846D01*
X-3656749Y21637523D01*
X-3753898Y21569498D01*
X-3839789Y21509357D01*
X-3839792Y21509355D01*
X-3844300Y21506198D01*
X-4006198Y21344300D01*
X-4009355Y21339792D01*
X-4009357Y21339789D01*
X-4069628Y21253713D01*
X-4125085Y21209385D01*
X-4195705Y21202076D01*
X-4259065Y21234107D01*
X-4292674Y21287048D01*
X-4295881Y21296919D01*
X-4295882Y21296921D01*
X-4297923Y21303203D01*
X-4387409Y21458197D01*
X-4501508Y21584918D01*
X-4502742Y21586288D01*
X-4502743Y21586289D01*
X-4507164Y21591199D01*
X-4574124Y21639849D01*
X-4646613Y21692515D01*
X-4646614Y21692516D01*
X-4651955Y21696396D01*
X-4657983Y21699080D01*
X-4657985Y21699081D01*
X-4809423Y21766505D01*
X-4809424Y21766505D01*
X-4815454Y21769190D01*
X-4902984Y21787795D01*
X-4984057Y21805028D01*
X-4984061Y21805028D01*
X-4990514Y21806400D01*
X-5169486Y21806400D01*
X-5175939Y21805028D01*
X-5175943Y21805028D01*
X-5257016Y21787795D01*
X-5344546Y21769190D01*
X-5350576Y21766505D01*
X-5350577Y21766505D01*
X-5502015Y21699081D01*
X-5502017Y21699080D01*
X-5508045Y21696396D01*
X-5513386Y21692516D01*
X-5513387Y21692515D01*
X-5585875Y21639849D01*
X-5652836Y21591199D01*
X-5657257Y21586289D01*
X-5657258Y21586288D01*
X-5658491Y21584918D01*
X-5772591Y21458197D01*
X-5862077Y21303203D01*
X-5917382Y21132991D01*
X-5918072Y21126428D01*
X-5918072Y21126427D01*
X-5926418Y21047025D01*
X-5953432Y20981368D01*
X-5962632Y20971101D01*
X-6029965Y20903767D01*
X-6050195Y20883537D01*
X-6112507Y20849512D01*
X-6183323Y20854576D01*
X-6214857Y20871807D01*
X-6246108Y20895229D01*
X-6246110Y20895230D01*
X-6253295Y20900615D01*
X-6389684Y20951745D01*
X-6451866Y20958500D01*
X-7365499Y20958500D01*
X-7433620Y20978502D01*
X-7480113Y21032158D01*
X-7491499Y21084500D01*
X-7491499Y21915500D01*
X-7471497Y21983621D01*
X-7417841Y22030114D01*
X-7365499Y22041500D01*
X-6451866Y22041500D01*
X-6389684Y22048255D01*
X-6253295Y22099385D01*
X-6136739Y22186739D01*
X-6049385Y22303295D01*
X-5998255Y22439684D01*
X-5991500Y22501866D01*
X-5991500Y22738500D01*
X-5971498Y22806621D01*
X-5917842Y22853114D01*
X-5865500Y22864500D01*
X-3884020Y22864500D01*
X-3872786Y22863970D01*
X-3865281Y22862292D01*
X-3796988Y22864438D01*
X-3793031Y22864500D01*
X-3765017Y22864500D01*
X-3761092Y22864996D01*
X-3761091Y22864996D01*
X-3760996Y22865008D01*
X-3749151Y22865941D01*
X-3719330Y22866878D01*
X-3712718Y22867086D01*
X-3712717Y22867086D01*
X-3704795Y22867335D01*
X-3685251Y22873013D01*
X-3665888Y22877023D01*
X-3653560Y22878580D01*
X-3653558Y22878580D01*
X-3645701Y22879573D01*
X-3638337Y22882489D01*
X-3638332Y22882490D01*
X-3604444Y22895907D01*
X-3593215Y22899752D01*
X-3576535Y22904598D01*
X-3550607Y22912131D01*
X-3543780Y22916169D01*
X-3543777Y22916170D01*
X-3533094Y22922488D01*
X-3515336Y22931188D01*
X-3503785Y22935761D01*
X-3503779Y22935765D01*
X-3496412Y22938681D01*
X-3460509Y22964766D01*
X-3450590Y22971281D01*
X-3419232Y22989826D01*
X-3419228Y22989829D01*
X-3412402Y22993866D01*
X-3398018Y23008250D01*
X-3382984Y23021091D01*
X-3372927Y23028398D01*
X-3366513Y23033058D01*
X-3338222Y23067256D01*
X-3330233Y23076035D01*
X-2528394Y23877874D01*
X-2466082Y23911900D01*
X-2455506Y23913600D01*
X-2450514Y23913600D01*
X-2275454Y23950810D01*
X-2269423Y23953495D01*
X-2117985Y24020919D01*
X-2117983Y24020920D01*
X-2111955Y24023604D01*
X-1967164Y24128801D01*
X-1909018Y24193379D01*
X-1851828Y24256895D01*
X-1851827Y24256896D01*
X-1847409Y24261803D01*
X-1757923Y24416797D01*
X-1730391Y24501531D01*
X-1704658Y24580730D01*
X-1704658Y24580731D01*
X-1702618Y24587009D01*
X-1683910Y24765000D01*
X-1702618Y24942991D01*
X-1757923Y25113203D01*
X-1847409Y25268197D01*
X-1967164Y25401199D01*
X-2099984Y25497699D01*
X-2106613Y25502515D01*
X-2106614Y25502516D01*
X-2111955Y25506396D01*
X-2117983Y25509080D01*
X-2117985Y25509081D01*
X-2269423Y25576505D01*
X-2269424Y25576505D01*
X-2275454Y25579190D01*
X-2362984Y25597795D01*
X-2444057Y25615028D01*
X-2444061Y25615028D01*
X-2450514Y25616400D01*
X-2629486Y25616400D01*
X-2635939Y25615028D01*
X-2635943Y25615028D01*
X-2717016Y25597795D01*
X-2804546Y25579190D01*
X-2810576Y25576505D01*
X-2810577Y25576505D01*
X-2962015Y25509081D01*
X-2962017Y25509080D01*
X-2968045Y25506396D01*
X-2973386Y25502516D01*
X-2973387Y25502515D01*
X-2980015Y25497699D01*
X-3112836Y25401199D01*
X-3232591Y25268197D01*
X-3322077Y25113203D01*
X-3377382Y24942991D01*
X-3378072Y24936428D01*
X-3378072Y24936427D01*
X-3386418Y24857024D01*
X-3413432Y24791367D01*
X-3422633Y24781100D01*
X-4031328Y24172405D01*
X-4093640Y24138379D01*
X-4120423Y24135500D01*
X-5865500Y24135500D01*
X-5933621Y24155502D01*
X-5980114Y24209158D01*
X-5991500Y24261500D01*
X-5991500Y24498134D01*
X-5998255Y24560316D01*
X-6049385Y24696705D01*
X-6136739Y24813261D01*
X-6253295Y24900615D01*
X-6389684Y24951745D01*
X-6451866Y24958500D01*
X-7365499Y24958500D01*
X-7433620Y24978502D01*
X-7480113Y25032158D01*
X-7491499Y25084500D01*
X-7491499Y25915500D01*
X-7471497Y25983621D01*
X-7417841Y26030114D01*
X-7365499Y26041500D01*
X-6451866Y26041500D01*
X-6389684Y26048255D01*
X-6253295Y26099385D01*
X-6136739Y26186739D01*
X-6049385Y26303295D01*
X-5998255Y26439684D01*
X-5991500Y26501866D01*
X-5991500Y26716686D01*
X-5971498Y26784807D01*
X-5917842Y26831300D01*
X-5847568Y26841404D01*
X-5782988Y26811910D01*
X-5771875Y26801008D01*
X-5652836Y26668801D01*
X-5647494Y26664920D01*
X-5647492Y26664918D01*
X-5513387Y26567485D01*
X-5508045Y26563604D01*
X-5502017Y26560920D01*
X-5502015Y26560919D01*
X-5361749Y26498469D01*
X-5344546Y26490810D01*
X-5257016Y26472205D01*
X-5175943Y26454972D01*
X-5175939Y26454972D01*
X-5169486Y26453600D01*
X-4990514Y26453600D01*
X-4984061Y26454972D01*
X-4984057Y26454972D01*
X-4902984Y26472205D01*
X-4815454Y26490810D01*
X-4798251Y26498469D01*
X-4657985Y26560919D01*
X-4657983Y26560920D01*
X-4651955Y26563604D01*
X-4646613Y26567485D01*
X-4512508Y26664918D01*
X-4512506Y26664920D01*
X-4507164Y26668801D01*
X-4502742Y26673712D01*
X-4391828Y26796895D01*
X-4391827Y26796896D01*
X-4387409Y26801803D01*
X-4297923Y26956797D01*
X-4242618Y27127009D01*
X-4223910Y27305000D01*
X-4242618Y27482991D01*
X-4297923Y27653203D01*
X-4387409Y27808197D01*
X-4507164Y27941199D01*
X-4584520Y27997402D01*
X-4646613Y28042515D01*
X-4646614Y28042516D01*
X-4651955Y28046396D01*
X-4657983Y28049080D01*
X-4657985Y28049081D01*
X-4809423Y28116505D01*
X-4809424Y28116505D01*
X-4815454Y28119190D01*
X-4924098Y28142283D01*
X-4984057Y28155028D01*
X-4984061Y28155028D01*
X-4990514Y28156400D01*
X-5169486Y28156400D01*
X-5175939Y28155028D01*
X-5175943Y28155028D01*
X-5235901Y28142283D01*
X-5254912Y28140587D01*
X-5254879Y28140235D01*
X-5299056Y28136059D01*
X-5310914Y28135500D01*
X-5865500Y28135500D01*
X-5933621Y28155502D01*
X-5980114Y28209158D01*
X-5991500Y28261500D01*
X-5991500Y28498134D01*
X-5998255Y28560316D01*
X-6049385Y28696705D01*
X-6136739Y28813261D01*
X-6253295Y28900615D01*
X-6389684Y28951745D01*
X-6451866Y28958500D01*
X-7365499Y28958500D01*
X-7433620Y28978502D01*
X-7480113Y29032158D01*
X-7491499Y29084500D01*
X-7491499Y29615501D01*
X-7471497Y29683622D01*
X-7417841Y29730115D01*
X-7365499Y29741501D01*
X-2384500Y29741501D01*
X-2316379Y29721499D01*
G37*
%TD.AperFunction*%
%TD*%
M02*
