%TF.GenerationSoftware,KiCad,Pcbnew,6.0.1-79c1e3a40b~116~ubuntu20.04.1*%
%TF.CreationDate,2022-02-08T16:17:55-05:00*%
%TF.ProjectId,gameKey-PCB-ThumbCluster,67616d65-4b65-4792-9d50-43422d546875,rev?*%
%TF.SameCoordinates,Original*%
%TF.FileFunction,Copper,L2,Bot*%
%TF.FilePolarity,Positive*%
%FSLAX46Y46*%
G04 Gerber Fmt 4.6, Leading zero omitted, Abs format (unit mm)*
G04 Created by KiCad (PCBNEW 6.0.1-79c1e3a40b~116~ubuntu20.04.1) date 2022-02-08 16:17:55*
%MOMM*%
%LPD*%
G01*
G04 APERTURE LIST*
%TA.AperFunction,WasherPad*%
%ADD10R,3.500000X1.500000*%
%TD*%
%TA.AperFunction,WasherPad*%
%ADD11C,2.000000*%
%TD*%
%TA.AperFunction,ComponentPad*%
%ADD12C,2.000000*%
%TD*%
%TA.AperFunction,SMDPad,CuDef*%
%ADD13R,0.850000X2.350000*%
%TD*%
%TA.AperFunction,SMDPad,CuDef*%
%ADD14R,2.350000X0.850000*%
%TD*%
%TA.AperFunction,ViaPad*%
%ADD15C,0.685800*%
%TD*%
%TA.AperFunction,Conductor*%
%ADD16C,0.254000*%
%TD*%
%TA.AperFunction,Conductor*%
%ADD17C,0.200000*%
%TD*%
G04 APERTURE END LIST*
D10*
%TO.P,NS1,*%
%TO.N,*%
X3500000Y17750000D03*
X-3500000Y17750000D03*
X0Y29250000D03*
%TD*%
D11*
%TO.P,JS0,*%
%TO.N,*%
X6325000Y-5000000D03*
X-6325000Y-5000000D03*
X-6325000Y5000000D03*
X6325000Y5000000D03*
D12*
%TO.P,JS0,1,GND*%
%TO.N,GND*%
X-2500000Y-8730000D03*
X-8730000Y2500000D03*
%TO.P,JS0,2,VCC*%
%TO.N,VCC*%
X2500000Y-8730000D03*
X-8730000Y-2500000D03*
%TO.P,JS0,3,RY*%
%TO.N,/JX*%
X-8730000Y0D03*
%TO.P,JS0,4,RX*%
%TO.N,/JY*%
X0Y-8730000D03*
%TO.P,JS0,5,SW-A*%
%TO.N,/JB*%
X3250000Y5750000D03*
X-3250000Y5750000D03*
%TO.P,JS0,6,SW-B*%
%TO.N,/JC*%
X3250000Y10250000D03*
X-3250000Y10250000D03*
%TD*%
D13*
%TO.P,J1,1,Pin_1*%
%TO.N,/NP*%
X-4000000Y25175000D03*
%TO.P,J1,2,Pin_2*%
%TO.N,/NW*%
X-2000000Y22825000D03*
%TO.P,J1,3,Pin_3*%
%TO.N,/NS*%
X0Y25175000D03*
%TO.P,J1,4,Pin_4*%
%TO.N,/NE*%
X2000000Y22825000D03*
%TO.P,J1,5,Pin_5*%
%TO.N,/NN*%
X4000000Y25175000D03*
%TD*%
D14*
%TO.P,J0,1,Pin_1*%
%TO.N,GND*%
X11335000Y5000000D03*
%TO.P,J0,2,Pin_2*%
%TO.N,VCC*%
X8985000Y3000000D03*
%TO.P,J0,3,Pin_3*%
%TO.N,/JX*%
X11335000Y1000000D03*
%TO.P,J0,4,Pin_4*%
%TO.N,/JY*%
X8985000Y-1000000D03*
%TO.P,J0,5,Pin_5*%
%TO.N,/JB*%
X11335000Y-3000000D03*
%TO.P,J0,6,Pin_6*%
%TO.N,/JC*%
X8985000Y-5000000D03*
%TD*%
D15*
%TO.N,GND*%
X-9525000Y8890000D03*
X-1000000Y27750000D03*
X6350000Y12065000D03*
X9525000Y-6985000D03*
X0Y18250000D03*
X-9525000Y-6985000D03*
X8890000Y8255000D03*
%TO.N,/JB*%
X11335000Y-3000000D03*
%TO.N,VCC*%
X2540000Y-6350000D03*
X6667500Y-2222500D03*
X6667500Y0D03*
%TO.N,/JY*%
X2540000Y-1270000D03*
%TO.N,/JX*%
X11335000Y1000000D03*
X5715000Y1905000D03*
%TO.N,/JC*%
X8985000Y-5000000D03*
%TO.N,/NP*%
X-4000000Y22500000D03*
%TO.N,/NW*%
X-2000000Y24500000D03*
%TO.N,/NS*%
X0Y20500000D03*
%TO.N,/NE*%
X3500000Y21000000D03*
%TO.N,/NN*%
X5000000Y25500000D03*
%TD*%
D16*
%TO.N,/JB*%
X-3250000Y5750000D02*
X3250000Y5750000D01*
%TO.N,VCC*%
X8985000Y2317500D02*
X6667500Y0D01*
X2777500Y-2222500D02*
X6667500Y-2222500D01*
X-1310000Y-2500000D02*
X2500000Y-2500000D01*
X-1310000Y-2500000D02*
X2540000Y-6350000D01*
X8985000Y3000000D02*
X8985000Y2317500D01*
X-8730000Y-2500000D02*
X-1310000Y-2500000D01*
X2500000Y-2500000D02*
X2777500Y-2222500D01*
%TO.N,/JY*%
X2540000Y-1270000D02*
X8715000Y-1270000D01*
X8715000Y-1270000D02*
X8985000Y-1000000D01*
%TO.N,/JX*%
X-8730000Y0D02*
X-6825000Y1905000D01*
X-6825000Y1905000D02*
X5715000Y1905000D01*
%TO.N,/JC*%
X-3250000Y10250000D02*
X3250000Y10250000D01*
D17*
%TO.N,/NP*%
X-4000000Y22500000D02*
X-4000000Y25175000D01*
D16*
%TO.N,/NW*%
X-2000000Y24500000D02*
X-2000000Y22825000D01*
%TO.N,/NS*%
X0Y20500000D02*
X0Y25175000D01*
%TO.N,/NE*%
X2000000Y21500000D02*
X2000000Y22825000D01*
X3500000Y21000000D02*
X2500000Y21000000D01*
X2500000Y21000000D02*
X2000000Y21500000D01*
D17*
%TO.N,/NN*%
X4325000Y25500000D02*
X4000000Y25175000D01*
X5000000Y25500000D02*
X4325000Y25500000D01*
%TD*%
%TA.AperFunction,Conductor*%
%TO.N,GND*%
G36*
X-2316379Y29721999D02*
G01*
X-2269886Y29668343D01*
X-2258500Y29616001D01*
X-2258500Y28451866D01*
X-2251745Y28389684D01*
X-2200615Y28253295D01*
X-2113261Y28136739D01*
X-1996705Y28049385D01*
X-1860316Y27998255D01*
X-1798134Y27991500D01*
X1798134Y27991500D01*
X1860316Y27998255D01*
X1996705Y28049385D01*
X2113261Y28136739D01*
X2200615Y28253295D01*
X2251745Y28389684D01*
X2258500Y28451866D01*
X2258500Y29616001D01*
X2278502Y29684122D01*
X2332158Y29730615D01*
X2384500Y29742001D01*
X7366001Y29742001D01*
X7434122Y29721999D01*
X7480615Y29668343D01*
X7492001Y29616001D01*
X7492001Y17384001D01*
X7471999Y17315880D01*
X7418343Y17269387D01*
X7366001Y17258001D01*
X5884500Y17258001D01*
X5816379Y17278003D01*
X5769886Y17331659D01*
X5758500Y17384001D01*
X5758500Y18548134D01*
X5751745Y18610316D01*
X5700615Y18746705D01*
X5613261Y18863261D01*
X5496705Y18950615D01*
X5360316Y19001745D01*
X5298134Y19008500D01*
X1701866Y19008500D01*
X1639684Y19001745D01*
X1503295Y18950615D01*
X1386739Y18863261D01*
X1299385Y18746705D01*
X1248255Y18610316D01*
X1241500Y18548134D01*
X1241500Y16951866D01*
X1248255Y16889684D01*
X1299385Y16753295D01*
X1386739Y16636739D01*
X1503295Y16549385D01*
X1639684Y16498255D01*
X1701866Y16491500D01*
X4371774Y16491500D01*
X4439895Y16471498D01*
X4486388Y16417842D01*
X4497295Y16354519D01*
X4492196Y16296234D01*
X4490929Y16286310D01*
X4486930Y16262541D01*
X4486777Y16250002D01*
X4488566Y16237510D01*
X4490728Y16222414D01*
X4492001Y16204551D01*
X4492001Y14544584D01*
X4490255Y14523680D01*
X4486930Y14503916D01*
X4486777Y14491377D01*
X4487466Y14486568D01*
X4487466Y14486565D01*
X4489750Y14470621D01*
X4490554Y14463616D01*
X4503183Y14317619D01*
X4504576Y14312360D01*
X4504576Y14312358D01*
X4546436Y14154282D01*
X4546437Y14154278D01*
X4547829Y14149023D01*
X4550105Y14144080D01*
X4550105Y14144079D01*
X4568908Y14103236D01*
X4620764Y13990598D01*
X4719821Y13847051D01*
X4723624Y13843181D01*
X4723626Y13843178D01*
X4838245Y13726525D01*
X4838249Y13726522D01*
X4842056Y13722647D01*
X4983839Y13621082D01*
X5070237Y13579450D01*
X5099541Y13565329D01*
X5108474Y13560574D01*
X5128800Y13548680D01*
X5134386Y13546481D01*
X5134622Y13546347D01*
X5134887Y13546284D01*
X5140469Y13544087D01*
X5145215Y13543023D01*
X5145216Y13543023D01*
X5160654Y13539563D01*
X5180795Y13533237D01*
X5187880Y13530339D01*
X5823284Y13270460D01*
X5829167Y13267877D01*
X6492151Y12956378D01*
X6497894Y12953498D01*
X7144109Y12608625D01*
X7149698Y12605457D01*
X7777518Y12228080D01*
X7782938Y12224631D01*
X8390693Y11815752D01*
X8395931Y11812031D01*
X8982074Y11372690D01*
X8987114Y11368707D01*
X9550076Y10900082D01*
X9554908Y10895847D01*
X10093273Y10399115D01*
X10097882Y10394639D01*
X10610206Y9871132D01*
X10614581Y9866428D01*
X11099571Y9317471D01*
X11103701Y9312549D01*
X11560074Y8739590D01*
X11563947Y8734464D01*
X11990528Y8138978D01*
X11994135Y8133662D01*
X12389800Y7517220D01*
X12393131Y7511727D01*
X12728701Y6925142D01*
X12756862Y6875915D01*
X12759909Y6870259D01*
X13090757Y6216736D01*
X13093512Y6210931D01*
X13390625Y5541378D01*
X13393080Y5535442D01*
X13655671Y4851638D01*
X13657821Y4845583D01*
X13885220Y4149265D01*
X13887058Y4143109D01*
X14078665Y3436118D01*
X14080187Y3429877D01*
X14235511Y2714028D01*
X14236713Y2707716D01*
X14355348Y1984874D01*
X14356226Y1978510D01*
X14367973Y1873765D01*
X14419108Y1417789D01*
X14437859Y1250581D01*
X14438412Y1244186D01*
X14452871Y1006198D01*
X14482836Y513024D01*
X14483062Y506604D01*
X14483392Y472540D01*
X14490128Y-222607D01*
X14490159Y-225852D01*
X14490058Y-232266D01*
X14461799Y-916074D01*
X14459811Y-964168D01*
X14459383Y-970559D01*
X14428125Y-1308262D01*
X14391868Y-1699959D01*
X14391113Y-1706339D01*
X14362378Y-1905500D01*
X14300163Y-2336703D01*
X14286507Y-2431349D01*
X14285429Y-2437668D01*
X14147732Y-3137459D01*
X14144011Y-3156371D01*
X14142613Y-3162633D01*
X14128887Y-3217468D01*
X13964730Y-3873248D01*
X13963011Y-3879438D01*
X13749151Y-4580017D01*
X13747130Y-4586082D01*
X13497810Y-5274928D01*
X13495500Y-5280835D01*
X13211409Y-5956039D01*
X13208772Y-5961886D01*
X12935829Y-6527991D01*
X12890640Y-6621716D01*
X12887705Y-6627426D01*
X12554430Y-7237115D01*
X12536359Y-7270173D01*
X12533149Y-7275706D01*
X12149474Y-7899747D01*
X12145983Y-7905113D01*
X11731033Y-8508734D01*
X11727260Y-8513934D01*
X11282069Y-9095637D01*
X11278036Y-9100637D01*
X10983295Y-9447577D01*
X10923947Y-9486543D01*
X10887269Y-9491999D01*
X4005731Y-9491999D01*
X3937610Y-9471997D01*
X3891117Y-9418341D01*
X3881013Y-9348067D01*
X3889322Y-9317781D01*
X3937211Y-9202167D01*
X3937212Y-9202165D01*
X3939105Y-9197594D01*
X3962382Y-9100637D01*
X3993380Y-8971524D01*
X3993381Y-8971518D01*
X3994535Y-8966711D01*
X4013165Y-8730000D01*
X3994535Y-8493289D01*
X3939105Y-8262406D01*
X3937211Y-8257833D01*
X3850135Y-8047611D01*
X3850133Y-8047607D01*
X3848240Y-8043037D01*
X3763720Y-7905113D01*
X3726759Y-7844798D01*
X3726755Y-7844792D01*
X3724176Y-7840584D01*
X3569969Y-7660031D01*
X3389416Y-7505824D01*
X3385208Y-7503245D01*
X3385202Y-7503241D01*
X3191183Y-7384346D01*
X3186963Y-7381760D01*
X3182393Y-7379867D01*
X3182389Y-7379865D01*
X3097034Y-7344510D01*
X3000860Y-7304674D01*
X2945580Y-7260127D01*
X2923159Y-7192764D01*
X2940717Y-7123972D01*
X2975018Y-7086330D01*
X3019412Y-7054076D01*
X3112836Y-6986199D01*
X3232591Y-6853197D01*
X3322077Y-6698203D01*
X3377382Y-6527991D01*
X3380899Y-6494535D01*
X3395400Y-6356565D01*
X3396090Y-6350000D01*
X3377382Y-6172009D01*
X3322077Y-6001797D01*
X3232591Y-5846803D01*
X3173954Y-5781679D01*
X3117258Y-5718712D01*
X3117257Y-5718711D01*
X3112836Y-5713801D01*
X3069602Y-5682389D01*
X2973387Y-5612485D01*
X2973386Y-5612484D01*
X2968045Y-5608604D01*
X2962017Y-5605920D01*
X2962015Y-5605919D01*
X2810577Y-5538495D01*
X2810576Y-5538495D01*
X2804546Y-5535810D01*
X2629486Y-5498600D01*
X2626347Y-5498600D01*
X2561878Y-5472079D01*
X2551607Y-5462874D01*
X439328Y-3350595D01*
X405302Y-3288283D01*
X410367Y-3217468D01*
X452914Y-3160632D01*
X519434Y-3135821D01*
X528423Y-3135500D01*
X2420980Y-3135500D01*
X2432214Y-3136030D01*
X2439719Y-3137708D01*
X2508012Y-3135562D01*
X2511969Y-3135500D01*
X2539983Y-3135500D01*
X2543908Y-3135004D01*
X2543909Y-3135004D01*
X2544004Y-3134992D01*
X2555849Y-3134059D01*
X2585670Y-3133122D01*
X2592282Y-3132914D01*
X2592283Y-3132914D01*
X2600205Y-3132665D01*
X2619749Y-3126987D01*
X2639112Y-3122977D01*
X2651440Y-3121420D01*
X2651442Y-3121420D01*
X2659299Y-3120427D01*
X2666663Y-3117511D01*
X2666668Y-3117510D01*
X2700556Y-3104093D01*
X2711785Y-3100248D01*
X2728465Y-3095402D01*
X2754393Y-3087869D01*
X2761220Y-3083831D01*
X2761223Y-3083830D01*
X2771906Y-3077512D01*
X2789664Y-3068812D01*
X2801215Y-3064239D01*
X2801221Y-3064235D01*
X2808588Y-3061319D01*
X2844491Y-3035234D01*
X2854410Y-3028719D01*
X2885768Y-3010174D01*
X2885772Y-3010171D01*
X2892598Y-3006134D01*
X2906982Y-2991750D01*
X2922016Y-2978909D01*
X2932073Y-2971602D01*
X2938487Y-2966942D01*
X2944218Y-2960015D01*
X2966777Y-2932745D01*
X2974767Y-2923965D01*
X3003827Y-2894905D01*
X3066139Y-2860879D01*
X3092922Y-2858000D01*
X6052762Y-2858000D01*
X6120883Y-2878002D01*
X6126823Y-2882064D01*
X6239455Y-2963896D01*
X6245483Y-2966580D01*
X6245485Y-2966581D01*
X6396923Y-3034005D01*
X6402954Y-3036690D01*
X6490484Y-3055295D01*
X6571557Y-3072528D01*
X6571561Y-3072528D01*
X6578014Y-3073900D01*
X6756986Y-3073900D01*
X6763439Y-3072528D01*
X6763443Y-3072528D01*
X6844516Y-3055295D01*
X6932046Y-3036690D01*
X6938077Y-3034005D01*
X7089515Y-2966581D01*
X7089517Y-2966580D01*
X7095545Y-2963896D01*
X7144716Y-2928171D01*
X7234992Y-2862582D01*
X7234994Y-2862580D01*
X7240336Y-2858699D01*
X7270070Y-2825676D01*
X7355672Y-2730605D01*
X7355673Y-2730604D01*
X7360091Y-2725697D01*
X7449577Y-2570703D01*
X7504882Y-2400491D01*
X7523590Y-2222500D01*
X7513844Y-2129771D01*
X7505311Y-2048588D01*
X7518083Y-1978749D01*
X7566585Y-1926903D01*
X7635418Y-1909508D01*
X7674848Y-1917434D01*
X7699684Y-1926745D01*
X7707532Y-1927598D01*
X7707534Y-1927598D01*
X7758469Y-1933131D01*
X7761866Y-1933500D01*
X9789774Y-1933500D01*
X9857895Y-1953502D01*
X9904388Y-2007158D01*
X9914492Y-2077432D01*
X9884998Y-2142012D01*
X9865339Y-2160326D01*
X9796739Y-2211739D01*
X9709385Y-2328295D01*
X9658255Y-2464684D01*
X9651500Y-2526866D01*
X9651500Y-3473134D01*
X9658255Y-3535316D01*
X9709385Y-3671705D01*
X9796739Y-3788261D01*
X9803919Y-3793642D01*
X9803920Y-3793643D01*
X9865339Y-3839674D01*
X9907854Y-3896533D01*
X9912880Y-3967352D01*
X9878820Y-4029645D01*
X9816489Y-4063635D01*
X9789774Y-4066500D01*
X7761866Y-4066500D01*
X7699684Y-4073255D01*
X7692288Y-4076027D01*
X7692282Y-4076029D01*
X7644217Y-4094048D01*
X7573410Y-4099231D01*
X7511041Y-4065310D01*
X7504177Y-4057897D01*
X7398177Y-3933787D01*
X7394969Y-3930031D01*
X7214416Y-3775824D01*
X7210208Y-3773245D01*
X7210202Y-3773241D01*
X7016183Y-3654346D01*
X7011963Y-3651760D01*
X7007393Y-3649867D01*
X7007389Y-3649865D01*
X6797167Y-3562789D01*
X6797165Y-3562788D01*
X6792594Y-3560895D01*
X6686050Y-3535316D01*
X6566524Y-3506620D01*
X6566518Y-3506619D01*
X6561711Y-3505465D01*
X6325000Y-3486835D01*
X6088289Y-3505465D01*
X6083482Y-3506619D01*
X6083476Y-3506620D01*
X5963950Y-3535316D01*
X5857406Y-3560895D01*
X5852835Y-3562788D01*
X5852833Y-3562789D01*
X5642611Y-3649865D01*
X5642607Y-3649867D01*
X5638037Y-3651760D01*
X5633817Y-3654346D01*
X5439798Y-3773241D01*
X5439792Y-3773245D01*
X5435584Y-3775824D01*
X5255031Y-3930031D01*
X5100824Y-4110584D01*
X5098245Y-4114792D01*
X5098241Y-4114798D01*
X5034436Y-4218919D01*
X4976760Y-4313037D01*
X4974867Y-4317607D01*
X4974865Y-4317611D01*
X4970440Y-4328295D01*
X4885895Y-4532406D01*
X4830465Y-4763289D01*
X4811835Y-5000000D01*
X4830465Y-5236711D01*
X4831619Y-5241518D01*
X4831620Y-5241524D01*
X4841063Y-5280856D01*
X4885895Y-5467594D01*
X4887788Y-5472165D01*
X4887789Y-5472167D01*
X4943191Y-5605919D01*
X4976760Y-5686963D01*
X4979346Y-5691183D01*
X5098241Y-5885202D01*
X5098245Y-5885208D01*
X5100824Y-5889416D01*
X5255031Y-6069969D01*
X5435584Y-6224176D01*
X5439792Y-6226755D01*
X5439798Y-6226759D01*
X5630196Y-6343435D01*
X5638037Y-6348240D01*
X5642607Y-6350133D01*
X5642611Y-6350135D01*
X5831588Y-6428411D01*
X5857406Y-6439105D01*
X5937609Y-6458360D01*
X6083476Y-6493380D01*
X6083482Y-6493381D01*
X6088289Y-6494535D01*
X6325000Y-6513165D01*
X6561711Y-6494535D01*
X6566518Y-6493381D01*
X6566524Y-6493380D01*
X6712391Y-6458360D01*
X6792594Y-6439105D01*
X6818412Y-6428411D01*
X7007389Y-6350135D01*
X7007393Y-6350133D01*
X7011963Y-6348240D01*
X7019804Y-6343435D01*
X7210202Y-6226759D01*
X7210208Y-6226755D01*
X7214416Y-6224176D01*
X7394969Y-6069969D01*
X7504177Y-5942103D01*
X7563627Y-5903294D01*
X7634622Y-5902788D01*
X7644217Y-5905952D01*
X7692282Y-5923971D01*
X7692288Y-5923973D01*
X7699684Y-5926745D01*
X7761866Y-5933500D01*
X10208134Y-5933500D01*
X10270316Y-5926745D01*
X10406705Y-5875615D01*
X10523261Y-5788261D01*
X10610615Y-5671705D01*
X10661745Y-5535316D01*
X10668500Y-5473134D01*
X10668500Y-4526866D01*
X10661745Y-4464684D01*
X10610615Y-4328295D01*
X10523261Y-4211739D01*
X10454661Y-4160326D01*
X10412146Y-4103467D01*
X10407120Y-4032648D01*
X10441180Y-3970355D01*
X10503511Y-3936365D01*
X10530226Y-3933500D01*
X12558134Y-3933500D01*
X12620316Y-3926745D01*
X12756705Y-3875615D01*
X12873261Y-3788261D01*
X12960615Y-3671705D01*
X13011745Y-3535316D01*
X13018500Y-3473134D01*
X13018500Y-2526866D01*
X13011745Y-2464684D01*
X12960615Y-2328295D01*
X12873261Y-2211739D01*
X12756705Y-2124385D01*
X12620316Y-2073255D01*
X12558134Y-2066500D01*
X10530226Y-2066500D01*
X10462105Y-2046498D01*
X10415612Y-1992842D01*
X10405508Y-1922568D01*
X10435002Y-1857988D01*
X10454661Y-1839674D01*
X10516080Y-1793643D01*
X10516081Y-1793642D01*
X10523261Y-1788261D01*
X10610615Y-1671705D01*
X10661745Y-1535316D01*
X10668500Y-1473134D01*
X10668500Y-526866D01*
X10661745Y-464684D01*
X10610615Y-328295D01*
X10523261Y-211739D01*
X10454661Y-160326D01*
X10412146Y-103467D01*
X10407120Y-32648D01*
X10441180Y29645D01*
X10503511Y63635D01*
X10530226Y66500D01*
X12558134Y66500D01*
X12620316Y73255D01*
X12756705Y124385D01*
X12873261Y211739D01*
X12960615Y328295D01*
X13011745Y464684D01*
X13018500Y526866D01*
X13018500Y1473134D01*
X13011745Y1535316D01*
X12960615Y1671705D01*
X12873261Y1788261D01*
X12756705Y1875615D01*
X12620316Y1926745D01*
X12558134Y1933500D01*
X10530226Y1933500D01*
X10462105Y1953502D01*
X10415612Y2007158D01*
X10405508Y2077432D01*
X10435002Y2142012D01*
X10454661Y2160326D01*
X10516080Y2206357D01*
X10516081Y2206358D01*
X10523261Y2211739D01*
X10610615Y2328295D01*
X10661745Y2464684D01*
X10668500Y2526866D01*
X10668500Y3473134D01*
X10661745Y3535316D01*
X10610615Y3671705D01*
X10523261Y3788261D01*
X10453994Y3840174D01*
X10411479Y3897033D01*
X10406453Y3967852D01*
X10440513Y4030145D01*
X10502845Y4064135D01*
X10529559Y4067000D01*
X11062885Y4067000D01*
X11078124Y4071475D01*
X11079329Y4072865D01*
X11081000Y4080548D01*
X11081000Y4085116D01*
X11589000Y4085116D01*
X11593475Y4069877D01*
X11594865Y4068672D01*
X11602548Y4067001D01*
X12554669Y4067001D01*
X12561490Y4067371D01*
X12612352Y4072895D01*
X12627604Y4076521D01*
X12748054Y4121676D01*
X12763649Y4130214D01*
X12865724Y4206715D01*
X12878285Y4219276D01*
X12954786Y4321351D01*
X12963324Y4336946D01*
X13008478Y4457394D01*
X13012105Y4472649D01*
X13017631Y4523514D01*
X13018000Y4530328D01*
X13018000Y4727885D01*
X13013525Y4743124D01*
X13012135Y4744329D01*
X13004452Y4746000D01*
X11607115Y4746000D01*
X11591876Y4741525D01*
X11590671Y4740135D01*
X11589000Y4732452D01*
X11589000Y4085116D01*
X11081000Y4085116D01*
X11081000Y4727885D01*
X11076525Y4743124D01*
X11075135Y4744329D01*
X11067452Y4746000D01*
X9670116Y4746000D01*
X9654877Y4741525D01*
X9653672Y4740135D01*
X9652001Y4732452D01*
X9652001Y4530331D01*
X9652371Y4523510D01*
X9657895Y4472648D01*
X9661521Y4457396D01*
X9706676Y4336946D01*
X9715214Y4321351D01*
X9791715Y4219276D01*
X9804276Y4206715D01*
X9866173Y4160326D01*
X9908688Y4103467D01*
X9913714Y4032649D01*
X9879654Y3970355D01*
X9817323Y3936365D01*
X9790608Y3933500D01*
X7761866Y3933500D01*
X7699684Y3926745D01*
X7692289Y3923973D01*
X7685935Y3922462D01*
X7615035Y3926165D01*
X7557392Y3967611D01*
X7531307Y4033642D01*
X7545062Y4103293D01*
X7549358Y4110880D01*
X7670649Y4308807D01*
X7670655Y4308818D01*
X7673240Y4313037D01*
X7683144Y4336946D01*
X7762211Y4527833D01*
X7762212Y4527835D01*
X7764105Y4532406D01*
X7783360Y4612609D01*
X7818380Y4758476D01*
X7818381Y4758482D01*
X7819535Y4763289D01*
X7838165Y5000000D01*
X7819535Y5236711D01*
X7815385Y5254000D01*
X7811036Y5272115D01*
X9652000Y5272115D01*
X9656475Y5256876D01*
X9657865Y5255671D01*
X9665548Y5254000D01*
X11062885Y5254000D01*
X11078124Y5258475D01*
X11079329Y5259865D01*
X11081000Y5267548D01*
X11081000Y5272115D01*
X11589000Y5272115D01*
X11593475Y5256876D01*
X11594865Y5255671D01*
X11602548Y5254000D01*
X12999884Y5254000D01*
X13015123Y5258475D01*
X13016328Y5259865D01*
X13017999Y5267548D01*
X13017999Y5469669D01*
X13017629Y5476490D01*
X13012105Y5527352D01*
X13008479Y5542604D01*
X12963324Y5663054D01*
X12954786Y5678649D01*
X12878285Y5780724D01*
X12865724Y5793285D01*
X12763649Y5869786D01*
X12748054Y5878324D01*
X12627606Y5923478D01*
X12612351Y5927105D01*
X12561486Y5932631D01*
X12554672Y5933000D01*
X11607115Y5933000D01*
X11591876Y5928525D01*
X11590671Y5927135D01*
X11589000Y5919452D01*
X11589000Y5272115D01*
X11081000Y5272115D01*
X11081000Y5914884D01*
X11076525Y5930123D01*
X11075135Y5931328D01*
X11067452Y5932999D01*
X10115331Y5932999D01*
X10108510Y5932629D01*
X10057648Y5927105D01*
X10042396Y5923479D01*
X9921946Y5878324D01*
X9906351Y5869786D01*
X9804276Y5793285D01*
X9791715Y5780724D01*
X9715214Y5678649D01*
X9706676Y5663054D01*
X9661522Y5542606D01*
X9657895Y5527351D01*
X9652369Y5476486D01*
X9652000Y5469672D01*
X9652000Y5272115D01*
X7811036Y5272115D01*
X7765260Y5462782D01*
X7764105Y5467594D01*
X7733034Y5542606D01*
X7675135Y5682389D01*
X7675133Y5682393D01*
X7673240Y5686963D01*
X7634611Y5750000D01*
X7551759Y5885202D01*
X7551755Y5885208D01*
X7549176Y5889416D01*
X7394969Y6069969D01*
X7214416Y6224176D01*
X7210208Y6226755D01*
X7210202Y6226759D01*
X7016183Y6345654D01*
X7011963Y6348240D01*
X7007393Y6350133D01*
X7007389Y6350135D01*
X6797167Y6437211D01*
X6797165Y6437212D01*
X6792594Y6439105D01*
X6712391Y6458360D01*
X6566524Y6493380D01*
X6566518Y6493381D01*
X6561711Y6494535D01*
X6325000Y6513165D01*
X6088289Y6494535D01*
X6083482Y6493381D01*
X6083476Y6493380D01*
X5937609Y6458360D01*
X5857406Y6439105D01*
X5852835Y6437212D01*
X5852833Y6437211D01*
X5642611Y6350135D01*
X5642607Y6350133D01*
X5638037Y6348240D01*
X5633817Y6345654D01*
X5439798Y6226759D01*
X5439792Y6226755D01*
X5435584Y6224176D01*
X5255031Y6069969D01*
X5100824Y5889416D01*
X5098242Y5885202D01*
X4994491Y5715897D01*
X4941843Y5668266D01*
X4871801Y5656659D01*
X4806604Y5684762D01*
X4766950Y5743653D01*
X4761446Y5771846D01*
X4750188Y5914884D01*
X4744535Y5986711D01*
X4725449Y6066213D01*
X4708360Y6137391D01*
X4689105Y6217594D01*
X4685309Y6226759D01*
X4600135Y6432389D01*
X4600133Y6432393D01*
X4598240Y6436963D01*
X4592907Y6445665D01*
X4476759Y6635202D01*
X4476755Y6635208D01*
X4474176Y6639416D01*
X4319969Y6819969D01*
X4139416Y6974176D01*
X4135208Y6976755D01*
X4135202Y6976759D01*
X3941183Y7095654D01*
X3936963Y7098240D01*
X3932393Y7100133D01*
X3932389Y7100135D01*
X3722167Y7187211D01*
X3722165Y7187212D01*
X3717594Y7189105D01*
X3637391Y7208360D01*
X3491524Y7243380D01*
X3491518Y7243381D01*
X3486711Y7244535D01*
X3250000Y7263165D01*
X3013289Y7244535D01*
X3008482Y7243381D01*
X3008476Y7243380D01*
X2862609Y7208360D01*
X2782406Y7189105D01*
X2777835Y7187212D01*
X2777833Y7187211D01*
X2567611Y7100135D01*
X2567607Y7100133D01*
X2563037Y7098240D01*
X2558817Y7095654D01*
X2364798Y6976759D01*
X2364792Y6976755D01*
X2360584Y6974176D01*
X2180031Y6819969D01*
X2025824Y6639416D01*
X1937041Y6494535D01*
X1907093Y6445665D01*
X1854445Y6398034D01*
X1799660Y6385500D01*
X-1799660Y6385500D01*
X-1867781Y6405502D01*
X-1907093Y6445665D01*
X-1937040Y6494535D01*
X-2025824Y6639416D01*
X-2180031Y6819969D01*
X-2360584Y6974176D01*
X-2364792Y6976755D01*
X-2364798Y6976759D01*
X-2558817Y7095654D01*
X-2563037Y7098240D01*
X-2567607Y7100133D01*
X-2567611Y7100135D01*
X-2777833Y7187211D01*
X-2777835Y7187212D01*
X-2782406Y7189105D01*
X-2862609Y7208360D01*
X-3008476Y7243380D01*
X-3008482Y7243381D01*
X-3013289Y7244535D01*
X-3250000Y7263165D01*
X-3486711Y7244535D01*
X-3491518Y7243381D01*
X-3491524Y7243380D01*
X-3637391Y7208360D01*
X-3717594Y7189105D01*
X-3722165Y7187212D01*
X-3722167Y7187211D01*
X-3932389Y7100135D01*
X-3932393Y7100133D01*
X-3936963Y7098240D01*
X-3941183Y7095654D01*
X-4135202Y6976759D01*
X-4135208Y6976755D01*
X-4139416Y6974176D01*
X-4319969Y6819969D01*
X-4474176Y6639416D01*
X-4476755Y6635208D01*
X-4476759Y6635202D01*
X-4592907Y6445665D01*
X-4598240Y6436963D01*
X-4600133Y6432393D01*
X-4600135Y6432389D01*
X-4685309Y6226759D01*
X-4689105Y6217594D01*
X-4708360Y6137391D01*
X-4725448Y6066213D01*
X-4744535Y5986711D01*
X-4750188Y5914884D01*
X-4761446Y5771846D01*
X-4786732Y5705504D01*
X-4843870Y5663365D01*
X-4914720Y5658806D01*
X-4976788Y5693275D01*
X-4994491Y5715897D01*
X-5098242Y5885202D01*
X-5100824Y5889416D01*
X-5255031Y6069969D01*
X-5435584Y6224176D01*
X-5439792Y6226755D01*
X-5439798Y6226759D01*
X-5633817Y6345654D01*
X-5638037Y6348240D01*
X-5642607Y6350133D01*
X-5642611Y6350135D01*
X-5852833Y6437211D01*
X-5852835Y6437212D01*
X-5857406Y6439105D01*
X-5937609Y6458360D01*
X-6083476Y6493380D01*
X-6083482Y6493381D01*
X-6088289Y6494535D01*
X-6325000Y6513165D01*
X-6561711Y6494535D01*
X-6566518Y6493381D01*
X-6566524Y6493380D01*
X-6712391Y6458360D01*
X-6792594Y6439105D01*
X-6797165Y6437212D01*
X-6797167Y6437211D01*
X-7007389Y6350135D01*
X-7007393Y6350133D01*
X-7011963Y6348240D01*
X-7016183Y6345654D01*
X-7210202Y6226759D01*
X-7210208Y6226755D01*
X-7214416Y6224176D01*
X-7394969Y6069969D01*
X-7549176Y5889416D01*
X-7551755Y5885208D01*
X-7551759Y5885202D01*
X-7634611Y5750000D01*
X-7673240Y5686963D01*
X-7675133Y5682393D01*
X-7675135Y5682389D01*
X-7733034Y5542606D01*
X-7764105Y5467594D01*
X-7765260Y5462782D01*
X-7815384Y5254000D01*
X-7819535Y5236711D01*
X-7838165Y5000000D01*
X-7819535Y4763289D01*
X-7818381Y4758482D01*
X-7818380Y4758476D01*
X-7783360Y4612609D01*
X-7764105Y4532406D01*
X-7762212Y4527835D01*
X-7762211Y4527833D01*
X-7683143Y4336946D01*
X-7673240Y4313037D01*
X-7670654Y4308817D01*
X-7551759Y4114798D01*
X-7551755Y4114792D01*
X-7549176Y4110584D01*
X-7394969Y3930031D01*
X-7214416Y3775824D01*
X-7210208Y3773245D01*
X-7210202Y3773241D01*
X-7056237Y3678891D01*
X-7011963Y3651760D01*
X-7007393Y3649867D01*
X-7007389Y3649865D01*
X-6893538Y3602707D01*
X-6792594Y3560895D01*
X-6716894Y3542721D01*
X-6566524Y3506620D01*
X-6566518Y3506619D01*
X-6561711Y3505465D01*
X-6325000Y3486835D01*
X-6088289Y3505465D01*
X-6083482Y3506619D01*
X-6083476Y3506620D01*
X-5933106Y3542721D01*
X-5857406Y3560895D01*
X-5756462Y3602707D01*
X-5642611Y3649865D01*
X-5642607Y3649867D01*
X-5638037Y3651760D01*
X-5593763Y3678891D01*
X-5439798Y3773241D01*
X-5439792Y3773245D01*
X-5435584Y3775824D01*
X-5255031Y3930031D01*
X-5100824Y4110584D01*
X-5098245Y4114792D01*
X-5098241Y4114798D01*
X-4979346Y4308817D01*
X-4976760Y4313037D01*
X-4966856Y4336946D01*
X-4887789Y4527833D01*
X-4887788Y4527835D01*
X-4885895Y4532406D01*
X-4866640Y4612609D01*
X-4831620Y4758476D01*
X-4831619Y4758482D01*
X-4830465Y4763289D01*
X-4813554Y4978154D01*
X-4788268Y5044496D01*
X-4731130Y5086635D01*
X-4660280Y5091194D01*
X-4598212Y5056725D01*
X-4580510Y5034104D01*
X-4474176Y4860584D01*
X-4319969Y4680031D01*
X-4139416Y4525824D01*
X-4135208Y4523245D01*
X-4135202Y4523241D01*
X-4027749Y4457394D01*
X-3936963Y4401760D01*
X-3932393Y4399867D01*
X-3932389Y4399865D01*
X-3722167Y4312789D01*
X-3717594Y4310895D01*
X-3637391Y4291640D01*
X-3491524Y4256620D01*
X-3491518Y4256619D01*
X-3486711Y4255465D01*
X-3250000Y4236835D01*
X-3013289Y4255465D01*
X-3008482Y4256619D01*
X-3008476Y4256620D01*
X-2862609Y4291640D01*
X-2782406Y4310895D01*
X-2777833Y4312789D01*
X-2567611Y4399865D01*
X-2567607Y4399867D01*
X-2563037Y4401760D01*
X-2472251Y4457394D01*
X-2364798Y4523241D01*
X-2364792Y4523245D01*
X-2360584Y4525824D01*
X-2180031Y4680031D01*
X-2025824Y4860584D01*
X-1907092Y5054336D01*
X-1854445Y5101966D01*
X-1799660Y5114500D01*
X1799660Y5114500D01*
X1867781Y5094498D01*
X1907092Y5054336D01*
X2025824Y4860584D01*
X2180031Y4680031D01*
X2360584Y4525824D01*
X2364792Y4523245D01*
X2364798Y4523241D01*
X2472251Y4457394D01*
X2563037Y4401760D01*
X2567607Y4399867D01*
X2567611Y4399865D01*
X2777833Y4312789D01*
X2782406Y4310895D01*
X2862609Y4291640D01*
X3008476Y4256620D01*
X3008482Y4256619D01*
X3013289Y4255465D01*
X3250000Y4236835D01*
X3486711Y4255465D01*
X3491518Y4256619D01*
X3491524Y4256620D01*
X3637391Y4291640D01*
X3717594Y4310895D01*
X3722167Y4312789D01*
X3932389Y4399865D01*
X3932393Y4399867D01*
X3936963Y4401760D01*
X4027749Y4457394D01*
X4135202Y4523241D01*
X4135208Y4523245D01*
X4139416Y4525824D01*
X4319969Y4680031D01*
X4474176Y4860584D01*
X4580509Y5034103D01*
X4633157Y5081734D01*
X4703199Y5093341D01*
X4768396Y5065238D01*
X4808050Y5006347D01*
X4813554Y4978154D01*
X4830465Y4763289D01*
X4831619Y4758482D01*
X4831620Y4758476D01*
X4866640Y4612609D01*
X4885895Y4532406D01*
X4887788Y4527835D01*
X4887789Y4527833D01*
X4966857Y4336946D01*
X4976760Y4313037D01*
X4979346Y4308817D01*
X5098241Y4114798D01*
X5098245Y4114792D01*
X5100824Y4110584D01*
X5255031Y3930031D01*
X5435584Y3775824D01*
X5439792Y3773245D01*
X5439798Y3773241D01*
X5593763Y3678891D01*
X5638037Y3651760D01*
X5642607Y3649867D01*
X5642611Y3649865D01*
X5756462Y3602707D01*
X5857406Y3560895D01*
X5933106Y3542721D01*
X6083476Y3506620D01*
X6083482Y3506619D01*
X6088289Y3505465D01*
X6325000Y3486835D01*
X6561711Y3505465D01*
X6566518Y3506619D01*
X6566524Y3506620D01*
X6716894Y3542721D01*
X6792594Y3560895D01*
X6893538Y3602707D01*
X7007389Y3649865D01*
X7007393Y3649867D01*
X7011963Y3651760D01*
X7016183Y3654346D01*
X7016193Y3654351D01*
X7140842Y3730737D01*
X7209375Y3749276D01*
X7277052Y3727820D01*
X7322385Y3673181D01*
X7330982Y3602707D01*
X7324659Y3579077D01*
X7311030Y3542721D01*
X7311029Y3542715D01*
X7308255Y3535316D01*
X7301500Y3473134D01*
X7301500Y2526866D01*
X7308255Y2464684D01*
X7359385Y2328295D01*
X7446739Y2211739D01*
X7563295Y2124385D01*
X7571704Y2121233D01*
X7571705Y2121232D01*
X7619965Y2103140D01*
X7676730Y2060499D01*
X7701430Y1993937D01*
X7686223Y1924588D01*
X7664831Y1896064D01*
X6655893Y887126D01*
X6593581Y853100D01*
X6583006Y851400D01*
X6578014Y851400D01*
X6402954Y814190D01*
X6396924Y811505D01*
X6396923Y811505D01*
X6245485Y744081D01*
X6245483Y744080D01*
X6239455Y741396D01*
X6234114Y737516D01*
X6234113Y737515D01*
X6116085Y651762D01*
X6094664Y636199D01*
X6090243Y631289D01*
X6090242Y631288D01*
X5980871Y509818D01*
X5974909Y503197D01*
X5885423Y348203D01*
X5883382Y341921D01*
X5883381Y341919D01*
X5876620Y321109D01*
X5838339Y203292D01*
X5798267Y144689D01*
X5732871Y117051D01*
X5662914Y129158D01*
X5610607Y177163D01*
X5594422Y220346D01*
X5594022Y222617D01*
X5593543Y228087D01*
X5589929Y241577D01*
X5535707Y443933D01*
X5535706Y443935D01*
X5534284Y449243D01*
X5530534Y457285D01*
X5439849Y651762D01*
X5439846Y651767D01*
X5437523Y656749D01*
X5364098Y761611D01*
X5309357Y839789D01*
X5309355Y839792D01*
X5306198Y844300D01*
X5226797Y923701D01*
X5192771Y986013D01*
X5197836Y1056828D01*
X5240383Y1113664D01*
X5306903Y1138475D01*
X5367140Y1127903D01*
X5444419Y1093496D01*
X5444427Y1093493D01*
X5450454Y1090810D01*
X5533411Y1073177D01*
X5619057Y1054972D01*
X5619061Y1054972D01*
X5625514Y1053600D01*
X5804486Y1053600D01*
X5810939Y1054972D01*
X5810943Y1054972D01*
X5896589Y1073177D01*
X5979546Y1090810D01*
X5990628Y1095744D01*
X6137015Y1160919D01*
X6137017Y1160920D01*
X6143045Y1163604D01*
X6226415Y1224176D01*
X6282492Y1264918D01*
X6282494Y1264920D01*
X6287836Y1268801D01*
X6292258Y1273712D01*
X6403172Y1396895D01*
X6403173Y1396896D01*
X6407591Y1401803D01*
X6497077Y1556797D01*
X6552382Y1727009D01*
X6571090Y1905000D01*
X6570400Y1911565D01*
X6553072Y2076427D01*
X6553072Y2076428D01*
X6552382Y2082991D01*
X6497077Y2253203D01*
X6407591Y2408197D01*
X6327609Y2497027D01*
X6292258Y2536288D01*
X6292257Y2536289D01*
X6287836Y2541199D01*
X6143045Y2646396D01*
X6137017Y2649080D01*
X6137015Y2649081D01*
X5985577Y2716505D01*
X5985576Y2716505D01*
X5979546Y2719190D01*
X5892016Y2737795D01*
X5810943Y2755028D01*
X5810939Y2755028D01*
X5804486Y2756400D01*
X5625514Y2756400D01*
X5619061Y2755028D01*
X5619057Y2755028D01*
X5537984Y2737795D01*
X5450454Y2719190D01*
X5444424Y2716505D01*
X5444423Y2716505D01*
X5292985Y2649081D01*
X5292983Y2649080D01*
X5286955Y2646396D01*
X5281614Y2642516D01*
X5281613Y2642515D01*
X5174323Y2564564D01*
X5107455Y2540705D01*
X5100262Y2540500D01*
X-6745968Y2540500D01*
X-6757207Y2541030D01*
X-6764719Y2542709D01*
X-6772644Y2542460D01*
X-6772645Y2542460D01*
X-6833030Y2540562D01*
X-6836988Y2540500D01*
X-6864983Y2540500D01*
X-6868917Y2540003D01*
X-6868919Y2540003D01*
X-6869006Y2539992D01*
X-6880840Y2539060D01*
X-6925205Y2537665D01*
X-6932818Y2535453D01*
X-6932819Y2535453D01*
X-6944748Y2531987D01*
X-6964112Y2527977D01*
X-6976440Y2526420D01*
X-6976442Y2526420D01*
X-6984299Y2525427D01*
X-6991663Y2522511D01*
X-6991668Y2522510D01*
X-7025556Y2509093D01*
X-7036785Y2505248D01*
X-7065081Y2497027D01*
X-7136077Y2497229D01*
X-7195694Y2535783D01*
X-7225003Y2600448D01*
X-7225847Y2608138D01*
X-7235572Y2731699D01*
X-7237115Y2741446D01*
X-7290217Y2962627D01*
X-7293266Y2972012D01*
X-7380313Y3182163D01*
X-7384795Y3190958D01*
X-7487432Y3358445D01*
X-7497890Y3367907D01*
X-7506666Y3364124D01*
X-9591080Y1279710D01*
X-9612026Y1241352D01*
X-9640782Y1205928D01*
X-9772424Y1093495D01*
X-9799969Y1069969D01*
X-9803177Y1066213D01*
X-9812778Y1054972D01*
X-9954176Y889416D01*
X-9956755Y885208D01*
X-9956759Y885202D01*
X-10043238Y744081D01*
X-10078240Y686963D01*
X-10080133Y682393D01*
X-10080135Y682389D01*
X-10167056Y472540D01*
X-10169105Y467594D01*
X-10224535Y236711D01*
X-10243165Y0D01*
X-10224535Y-236711D01*
X-10169105Y-467594D01*
X-10167212Y-472165D01*
X-10167211Y-472167D01*
X-10100260Y-633801D01*
X-10078240Y-686963D01*
X-10075654Y-691183D01*
X-9956759Y-885202D01*
X-9956755Y-885208D01*
X-9954176Y-889416D01*
X-9799969Y-1069969D01*
X-9796213Y-1073177D01*
X-9796208Y-1073182D01*
X-9701361Y-1154189D01*
X-9662551Y-1213639D01*
X-9662045Y-1284634D01*
X-9701361Y-1345811D01*
X-9796208Y-1426818D01*
X-9796213Y-1426823D01*
X-9799969Y-1430031D01*
X-9954176Y-1610584D01*
X-9956755Y-1614792D01*
X-9956759Y-1614798D01*
X-10012855Y-1706339D01*
X-10078240Y-1813037D01*
X-10080133Y-1817607D01*
X-10080135Y-1817611D01*
X-10128137Y-1933500D01*
X-10169105Y-2032406D01*
X-10172488Y-2046498D01*
X-10214742Y-2222500D01*
X-10224535Y-2263289D01*
X-10243165Y-2500000D01*
X-10224535Y-2736711D01*
X-10223381Y-2741518D01*
X-10223380Y-2741524D01*
X-10196427Y-2853788D01*
X-10169105Y-2967594D01*
X-10167212Y-2972165D01*
X-10167211Y-2972167D01*
X-10089598Y-3159541D01*
X-10078240Y-3186963D01*
X-10075654Y-3191183D01*
X-9956759Y-3385202D01*
X-9956755Y-3385208D01*
X-9954176Y-3389416D01*
X-9799969Y-3569969D01*
X-9619416Y-3724176D01*
X-9615208Y-3726755D01*
X-9615202Y-3726759D01*
X-9506057Y-3793643D01*
X-9416963Y-3848240D01*
X-9412393Y-3850133D01*
X-9412389Y-3850135D01*
X-9300373Y-3896533D01*
X-9197594Y-3939105D01*
X-9117391Y-3958360D01*
X-8971524Y-3993380D01*
X-8971518Y-3993381D01*
X-8966711Y-3994535D01*
X-8730000Y-4013165D01*
X-8493289Y-3994535D01*
X-8488482Y-3993381D01*
X-8488476Y-3993380D01*
X-8342609Y-3958360D01*
X-8262406Y-3939105D01*
X-8159627Y-3896533D01*
X-8047611Y-3850135D01*
X-8047607Y-3850133D01*
X-8043037Y-3848240D01*
X-7953943Y-3793643D01*
X-7844798Y-3726759D01*
X-7844792Y-3726755D01*
X-7840584Y-3724176D01*
X-7660031Y-3569969D01*
X-7505824Y-3389416D01*
X-7387092Y-3195664D01*
X-7334445Y-3148034D01*
X-7279660Y-3135500D01*
X-1625422Y-3135500D01*
X-1557301Y-3155502D01*
X-1536327Y-3172405D01*
X1657367Y-6366099D01*
X1691393Y-6428411D01*
X1693582Y-6442023D01*
X1702618Y-6527991D01*
X1757923Y-6698203D01*
X1847409Y-6853197D01*
X1967164Y-6986199D01*
X2077470Y-7066341D01*
X2120823Y-7122562D01*
X2126898Y-7193298D01*
X2093767Y-7256090D01*
X2041219Y-7286023D01*
X2041929Y-7288209D01*
X2037217Y-7289740D01*
X2032406Y-7290895D01*
X2027835Y-7292788D01*
X2027833Y-7292789D01*
X1817611Y-7379865D01*
X1817607Y-7379867D01*
X1813037Y-7381760D01*
X1808817Y-7384346D01*
X1614798Y-7503241D01*
X1614792Y-7503245D01*
X1610584Y-7505824D01*
X1430031Y-7660031D01*
X1426823Y-7663787D01*
X1426818Y-7663792D01*
X1345811Y-7758639D01*
X1286361Y-7797449D01*
X1215366Y-7797955D01*
X1154189Y-7758639D01*
X1073182Y-7663792D01*
X1073177Y-7663787D01*
X1069969Y-7660031D01*
X889416Y-7505824D01*
X885208Y-7503245D01*
X885202Y-7503241D01*
X691183Y-7384346D01*
X686963Y-7381760D01*
X682393Y-7379867D01*
X682389Y-7379865D01*
X472167Y-7292789D01*
X472165Y-7292788D01*
X467594Y-7290895D01*
X387391Y-7271640D01*
X241524Y-7236620D01*
X241518Y-7236619D01*
X236711Y-7235465D01*
X0Y-7216835D01*
X-236711Y-7235465D01*
X-241518Y-7236619D01*
X-241524Y-7236620D01*
X-387391Y-7271640D01*
X-467594Y-7290895D01*
X-472165Y-7292788D01*
X-472167Y-7292789D01*
X-682389Y-7379865D01*
X-682393Y-7379867D01*
X-686963Y-7381760D01*
X-691183Y-7384346D01*
X-885202Y-7503241D01*
X-885208Y-7503245D01*
X-889416Y-7505824D01*
X-1069969Y-7660031D01*
X-1073177Y-7663787D01*
X-1208753Y-7822526D01*
X-1254686Y-7856402D01*
X-1276668Y-7865878D01*
X-2410905Y-9000115D01*
X-2473217Y-9034141D01*
X-2544032Y-9029076D01*
X-2589095Y-9000115D01*
X-3720290Y-7868920D01*
X-3732670Y-7862160D01*
X-3740320Y-7867887D01*
X-3845205Y-8039042D01*
X-3849687Y-8047837D01*
X-3936734Y-8257988D01*
X-3939783Y-8267373D01*
X-3992885Y-8488554D01*
X-3994428Y-8498301D01*
X-4012275Y-8725070D01*
X-4012275Y-8734930D01*
X-3994428Y-8961699D01*
X-3992885Y-8971446D01*
X-3939783Y-9192627D01*
X-3936734Y-9202012D01*
X-3888781Y-9317781D01*
X-3881192Y-9388371D01*
X-3912971Y-9451858D01*
X-3974030Y-9488085D01*
X-4005190Y-9491999D01*
X-10887267Y-9491999D01*
X-10955388Y-9471997D01*
X-10983293Y-9447577D01*
X-11278034Y-9100637D01*
X-11282067Y-9095637D01*
X-11727258Y-8513934D01*
X-11731031Y-8508734D01*
X-12145981Y-7905113D01*
X-12149472Y-7899747D01*
X-12396543Y-7497890D01*
X-3367907Y-7497890D01*
X-3364124Y-7506666D01*
X-2512812Y-8357978D01*
X-2498868Y-8365592D01*
X-2497035Y-8365461D01*
X-2490420Y-8361210D01*
X-1638920Y-7509710D01*
X-1632160Y-7497330D01*
X-1637887Y-7489680D01*
X-1809042Y-7384795D01*
X-1817837Y-7380313D01*
X-2027988Y-7293266D01*
X-2037373Y-7290217D01*
X-2258554Y-7237115D01*
X-2268301Y-7235572D01*
X-2495070Y-7217725D01*
X-2504930Y-7217725D01*
X-2731699Y-7235572D01*
X-2741446Y-7237115D01*
X-2962627Y-7290217D01*
X-2972012Y-7293266D01*
X-3182163Y-7380313D01*
X-3190958Y-7384795D01*
X-3358445Y-7487432D01*
X-3367907Y-7497890D01*
X-12396543Y-7497890D01*
X-12533147Y-7275706D01*
X-12536357Y-7270173D01*
X-12554427Y-7237115D01*
X-12887703Y-6627426D01*
X-12890638Y-6621716D01*
X-12935827Y-6527991D01*
X-13208770Y-5961886D01*
X-13211407Y-5956039D01*
X-13495498Y-5280835D01*
X-13497808Y-5274928D01*
X-13597315Y-5000000D01*
X-7838165Y-5000000D01*
X-7819535Y-5236711D01*
X-7818381Y-5241518D01*
X-7818380Y-5241524D01*
X-7808937Y-5280856D01*
X-7764105Y-5467594D01*
X-7762212Y-5472165D01*
X-7762211Y-5472167D01*
X-7706809Y-5605919D01*
X-7673240Y-5686963D01*
X-7670654Y-5691183D01*
X-7551759Y-5885202D01*
X-7551755Y-5885208D01*
X-7549176Y-5889416D01*
X-7394969Y-6069969D01*
X-7214416Y-6224176D01*
X-7210208Y-6226755D01*
X-7210202Y-6226759D01*
X-7019804Y-6343435D01*
X-7011963Y-6348240D01*
X-7007393Y-6350133D01*
X-7007389Y-6350135D01*
X-6818412Y-6428411D01*
X-6792594Y-6439105D01*
X-6712391Y-6458360D01*
X-6566524Y-6493380D01*
X-6566518Y-6493381D01*
X-6561711Y-6494535D01*
X-6325000Y-6513165D01*
X-6088289Y-6494535D01*
X-6083482Y-6493381D01*
X-6083476Y-6493380D01*
X-5937609Y-6458360D01*
X-5857406Y-6439105D01*
X-5831588Y-6428411D01*
X-5642611Y-6350135D01*
X-5642607Y-6350133D01*
X-5638037Y-6348240D01*
X-5630196Y-6343435D01*
X-5439798Y-6226759D01*
X-5439792Y-6226755D01*
X-5435584Y-6224176D01*
X-5255031Y-6069969D01*
X-5100824Y-5889416D01*
X-5098245Y-5885208D01*
X-5098241Y-5885202D01*
X-4979346Y-5691183D01*
X-4976760Y-5686963D01*
X-4943190Y-5605919D01*
X-4887789Y-5472167D01*
X-4887788Y-5472165D01*
X-4885895Y-5467594D01*
X-4841063Y-5280856D01*
X-4831620Y-5241524D01*
X-4831619Y-5241518D01*
X-4830465Y-5236711D01*
X-4811835Y-5000000D01*
X-4830465Y-4763289D01*
X-4885895Y-4532406D01*
X-4970440Y-4328295D01*
X-4974865Y-4317611D01*
X-4974867Y-4317607D01*
X-4976760Y-4313037D01*
X-5034436Y-4218919D01*
X-5098241Y-4114798D01*
X-5098245Y-4114792D01*
X-5100824Y-4110584D01*
X-5255031Y-3930031D01*
X-5435584Y-3775824D01*
X-5439792Y-3773245D01*
X-5439798Y-3773241D01*
X-5633817Y-3654346D01*
X-5638037Y-3651760D01*
X-5642607Y-3649867D01*
X-5642611Y-3649865D01*
X-5852833Y-3562789D01*
X-5852835Y-3562788D01*
X-5857406Y-3560895D01*
X-5963950Y-3535316D01*
X-6083476Y-3506620D01*
X-6083482Y-3506619D01*
X-6088289Y-3505465D01*
X-6325000Y-3486835D01*
X-6561711Y-3505465D01*
X-6566518Y-3506619D01*
X-6566524Y-3506620D01*
X-6686050Y-3535316D01*
X-6792594Y-3560895D01*
X-6797165Y-3562788D01*
X-6797167Y-3562789D01*
X-7007389Y-3649865D01*
X-7007393Y-3649867D01*
X-7011963Y-3651760D01*
X-7016183Y-3654346D01*
X-7210202Y-3773241D01*
X-7210208Y-3773245D01*
X-7214416Y-3775824D01*
X-7394969Y-3930031D01*
X-7549176Y-4110584D01*
X-7551755Y-4114792D01*
X-7551759Y-4114798D01*
X-7615564Y-4218919D01*
X-7673240Y-4313037D01*
X-7675133Y-4317607D01*
X-7675135Y-4317611D01*
X-7679560Y-4328295D01*
X-7764105Y-4532406D01*
X-7819535Y-4763289D01*
X-7838165Y-5000000D01*
X-13597315Y-5000000D01*
X-13747128Y-4586082D01*
X-13749149Y-4580017D01*
X-13963009Y-3879438D01*
X-13964728Y-3873248D01*
X-14128885Y-3217468D01*
X-14142611Y-3162633D01*
X-14144009Y-3156371D01*
X-14147730Y-3137459D01*
X-14285427Y-2437668D01*
X-14286505Y-2431349D01*
X-14300160Y-2336703D01*
X-14362376Y-1905500D01*
X-14391111Y-1706339D01*
X-14391866Y-1699959D01*
X-14428123Y-1308262D01*
X-14459381Y-970559D01*
X-14459809Y-964168D01*
X-14461796Y-916074D01*
X-14490056Y-232266D01*
X-14490157Y-225852D01*
X-14490125Y-222607D01*
X-14483390Y472540D01*
X-14483060Y506604D01*
X-14482834Y513024D01*
X-14452869Y1006198D01*
X-14438410Y1244186D01*
X-14437857Y1250581D01*
X-14419105Y1417789D01*
X-14367971Y1873765D01*
X-14356224Y1978510D01*
X-14355346Y1984874D01*
X-14271611Y2495070D01*
X-10242275Y2495070D01*
X-10224428Y2268301D01*
X-10222885Y2258554D01*
X-10169783Y2037373D01*
X-10166734Y2027988D01*
X-10079687Y1817837D01*
X-10075205Y1809042D01*
X-9972568Y1641555D01*
X-9962110Y1632093D01*
X-9953334Y1635876D01*
X-9102022Y2487188D01*
X-9094408Y2501132D01*
X-9094539Y2502965D01*
X-9098790Y2509580D01*
X-9950290Y3361080D01*
X-9962670Y3367840D01*
X-9970320Y3362113D01*
X-10075205Y3190958D01*
X-10079687Y3182163D01*
X-10166734Y2972012D01*
X-10169783Y2962627D01*
X-10222885Y2741446D01*
X-10224428Y2731699D01*
X-10242275Y2504930D01*
X-10242275Y2495070D01*
X-14271611Y2495070D01*
X-14236711Y2707716D01*
X-14235509Y2714028D01*
X-14080185Y3429877D01*
X-14078663Y3436118D01*
X-13998444Y3732110D01*
X-9597907Y3732110D01*
X-9594124Y3723334D01*
X-8742812Y2872022D01*
X-8728868Y2864408D01*
X-8727035Y2864539D01*
X-8720420Y2868790D01*
X-7868920Y3720290D01*
X-7862160Y3732670D01*
X-7867887Y3740320D01*
X-8039042Y3845205D01*
X-8047837Y3849687D01*
X-8257988Y3936734D01*
X-8267373Y3939783D01*
X-8488554Y3992885D01*
X-8498301Y3994428D01*
X-8725070Y4012275D01*
X-8734930Y4012275D01*
X-8961699Y3994428D01*
X-8971446Y3992885D01*
X-9192627Y3939783D01*
X-9202012Y3936734D01*
X-9412163Y3849687D01*
X-9420958Y3845205D01*
X-9588445Y3742568D01*
X-9597907Y3732110D01*
X-13998444Y3732110D01*
X-13887056Y4143109D01*
X-13885218Y4149265D01*
X-13657819Y4845583D01*
X-13655669Y4851638D01*
X-13393078Y5535442D01*
X-13390623Y5541378D01*
X-13093510Y6210931D01*
X-13090755Y6216736D01*
X-12759907Y6870259D01*
X-12756860Y6875915D01*
X-12728698Y6925142D01*
X-12393129Y7511727D01*
X-12389798Y7517220D01*
X-11994133Y8133662D01*
X-11990526Y8138978D01*
X-11563945Y8734464D01*
X-11560072Y8739590D01*
X-11103699Y9312549D01*
X-11099569Y9317471D01*
X-10614579Y9866428D01*
X-10610204Y9871132D01*
X-10239429Y10250000D01*
X-4763165Y10250000D01*
X-4744535Y10013289D01*
X-4689105Y9782406D01*
X-4687212Y9777835D01*
X-4687211Y9777833D01*
X-4611271Y9594498D01*
X-4598240Y9563037D01*
X-4595654Y9558817D01*
X-4476759Y9364798D01*
X-4476755Y9364792D01*
X-4474176Y9360584D01*
X-4319969Y9180031D01*
X-4139416Y9025824D01*
X-4135208Y9023245D01*
X-4135202Y9023241D01*
X-3950153Y8909843D01*
X-3936963Y8901760D01*
X-3932393Y8899867D01*
X-3932389Y8899865D01*
X-3722167Y8812789D01*
X-3717594Y8810895D01*
X-3637391Y8791640D01*
X-3491524Y8756620D01*
X-3491518Y8756619D01*
X-3486711Y8755465D01*
X-3250000Y8736835D01*
X-3013289Y8755465D01*
X-3008482Y8756619D01*
X-3008476Y8756620D01*
X-2862609Y8791640D01*
X-2782406Y8810895D01*
X-2777833Y8812789D01*
X-2567611Y8899865D01*
X-2567607Y8899867D01*
X-2563037Y8901760D01*
X-2549847Y8909843D01*
X-2364798Y9023241D01*
X-2364792Y9023245D01*
X-2360584Y9025824D01*
X-2180031Y9180031D01*
X-2025824Y9360584D01*
X-1907092Y9554336D01*
X-1854445Y9601966D01*
X-1799660Y9614500D01*
X1799660Y9614500D01*
X1867781Y9594498D01*
X1907092Y9554336D01*
X2025824Y9360584D01*
X2180031Y9180031D01*
X2360584Y9025824D01*
X2364792Y9023245D01*
X2364798Y9023241D01*
X2549847Y8909843D01*
X2563037Y8901760D01*
X2567607Y8899867D01*
X2567611Y8899865D01*
X2777833Y8812789D01*
X2782406Y8810895D01*
X2862609Y8791640D01*
X3008476Y8756620D01*
X3008482Y8756619D01*
X3013289Y8755465D01*
X3250000Y8736835D01*
X3486711Y8755465D01*
X3491518Y8756619D01*
X3491524Y8756620D01*
X3637391Y8791640D01*
X3717594Y8810895D01*
X3722167Y8812789D01*
X3932389Y8899865D01*
X3932393Y8899867D01*
X3936963Y8901760D01*
X3950153Y8909843D01*
X4135202Y9023241D01*
X4135208Y9023245D01*
X4139416Y9025824D01*
X4319969Y9180031D01*
X4474176Y9360584D01*
X4476755Y9364792D01*
X4476759Y9364798D01*
X4595654Y9558817D01*
X4598240Y9563037D01*
X4611272Y9594498D01*
X4687211Y9777833D01*
X4687212Y9777835D01*
X4689105Y9782406D01*
X4744535Y10013289D01*
X4763165Y10250000D01*
X4744535Y10486711D01*
X4689105Y10717594D01*
X4613517Y10900082D01*
X4600135Y10932389D01*
X4600133Y10932393D01*
X4598240Y10936963D01*
X4592907Y10945665D01*
X4476759Y11135202D01*
X4476755Y11135208D01*
X4474176Y11139416D01*
X4319969Y11319969D01*
X4139416Y11474176D01*
X4135208Y11476755D01*
X4135202Y11476759D01*
X3941183Y11595654D01*
X3936963Y11598240D01*
X3932393Y11600133D01*
X3932389Y11600135D01*
X3722167Y11687211D01*
X3722165Y11687212D01*
X3717594Y11689105D01*
X3637391Y11708360D01*
X3491524Y11743380D01*
X3491518Y11743381D01*
X3486711Y11744535D01*
X3250000Y11763165D01*
X3013289Y11744535D01*
X3008482Y11743381D01*
X3008476Y11743380D01*
X2862609Y11708360D01*
X2782406Y11689105D01*
X2777835Y11687212D01*
X2777833Y11687211D01*
X2567611Y11600135D01*
X2567607Y11600133D01*
X2563037Y11598240D01*
X2558817Y11595654D01*
X2364798Y11476759D01*
X2364792Y11476755D01*
X2360584Y11474176D01*
X2180031Y11319969D01*
X2025824Y11139416D01*
X2023242Y11135202D01*
X1907093Y10945665D01*
X1854445Y10898034D01*
X1799660Y10885500D01*
X-1799660Y10885500D01*
X-1867781Y10905502D01*
X-1907093Y10945665D01*
X-2023242Y11135202D01*
X-2025824Y11139416D01*
X-2180031Y11319969D01*
X-2360584Y11474176D01*
X-2364792Y11476755D01*
X-2364798Y11476759D01*
X-2558817Y11595654D01*
X-2563037Y11598240D01*
X-2567607Y11600133D01*
X-2567611Y11600135D01*
X-2777833Y11687211D01*
X-2777835Y11687212D01*
X-2782406Y11689105D01*
X-2862609Y11708360D01*
X-3008476Y11743380D01*
X-3008482Y11743381D01*
X-3013289Y11744535D01*
X-3250000Y11763165D01*
X-3486711Y11744535D01*
X-3491518Y11743381D01*
X-3491524Y11743380D01*
X-3637391Y11708360D01*
X-3717594Y11689105D01*
X-3722165Y11687212D01*
X-3722167Y11687211D01*
X-3932389Y11600135D01*
X-3932393Y11600133D01*
X-3936963Y11598240D01*
X-3941183Y11595654D01*
X-4135202Y11476759D01*
X-4135208Y11476755D01*
X-4139416Y11474176D01*
X-4319969Y11319969D01*
X-4474176Y11139416D01*
X-4476755Y11135208D01*
X-4476759Y11135202D01*
X-4592907Y10945665D01*
X-4598240Y10936963D01*
X-4600133Y10932393D01*
X-4600135Y10932389D01*
X-4613517Y10900082D01*
X-4689105Y10717594D01*
X-4744535Y10486711D01*
X-4763165Y10250000D01*
X-10239429Y10250000D01*
X-10097880Y10394639D01*
X-10093271Y10399115D01*
X-9554906Y10895847D01*
X-9550074Y10900082D01*
X-8987112Y11368707D01*
X-8982072Y11372690D01*
X-8395929Y11812031D01*
X-8390691Y11815752D01*
X-7782936Y12224631D01*
X-7777516Y12228080D01*
X-7149696Y12605457D01*
X-7144107Y12608625D01*
X-6497892Y12953498D01*
X-6492149Y12956378D01*
X-5829165Y13267877D01*
X-5823282Y13270460D01*
X-5187878Y13530339D01*
X-5164725Y13537302D01*
X-5157023Y13538832D01*
X-5152245Y13539781D01*
X-5146612Y13541840D01*
X-5146344Y13541897D01*
X-5146102Y13542027D01*
X-5140467Y13544087D01*
X-5122112Y13554234D01*
X-5115868Y13557460D01*
X-4983837Y13621081D01*
X-4842054Y13722646D01*
X-4719818Y13847051D01*
X-4620761Y13990597D01*
X-4547826Y14149022D01*
X-4531128Y14212076D01*
X-4504573Y14312357D01*
X-4504573Y14312359D01*
X-4503180Y14317618D01*
X-4492111Y14445574D01*
X-4490834Y14455618D01*
X-4487735Y14474040D01*
X-4487735Y14474043D01*
X-4486928Y14478838D01*
X-4486775Y14491377D01*
X-4490726Y14518965D01*
X-4491999Y14536828D01*
X-4491999Y16196795D01*
X-4490253Y16217699D01*
X-4487735Y16232667D01*
X-4486928Y16237463D01*
X-4486775Y16250002D01*
X-4487464Y16254809D01*
X-4487464Y16254816D01*
X-4489814Y16271221D01*
X-4490607Y16278102D01*
X-4497293Y16354517D01*
X-4483305Y16424122D01*
X-4433906Y16475115D01*
X-4371773Y16491500D01*
X-1701866Y16491500D01*
X-1639684Y16498255D01*
X-1503295Y16549385D01*
X-1386739Y16636739D01*
X-1299385Y16753295D01*
X-1248255Y16889684D01*
X-1241500Y16951866D01*
X-1241500Y18548134D01*
X-1248255Y18610316D01*
X-1299385Y18746705D01*
X-1386739Y18863261D01*
X-1503295Y18950615D01*
X-1639684Y19001745D01*
X-1701866Y19008500D01*
X-2553634Y19008500D01*
X-2621755Y19028502D01*
X-2668248Y19082158D01*
X-2678352Y19152432D01*
X-2648858Y19217012D01*
X-2586245Y19256207D01*
X-2556067Y19264293D01*
X-2556065Y19264294D01*
X-2550757Y19265716D01*
X-2545775Y19268039D01*
X-2348238Y19360151D01*
X-2348233Y19360154D01*
X-2343251Y19362477D01*
X-2238389Y19435902D01*
X-2160211Y19490643D01*
X-2160208Y19490645D01*
X-2155700Y19493802D01*
X-1993802Y19655700D01*
X-1972718Y19685810D01*
X-1865634Y19838743D01*
X-1862477Y19843251D01*
X-1860154Y19848233D01*
X-1860151Y19848238D01*
X-1768039Y20045775D01*
X-1768039Y20045776D01*
X-1765716Y20050757D01*
X-1710742Y20255919D01*
X-1707881Y20266598D01*
X-1707881Y20266600D01*
X-1706457Y20271913D01*
X-1686502Y20500000D01*
X-1706457Y20728087D01*
X-1731623Y20822009D01*
X-1764292Y20943928D01*
X-1765716Y20949243D01*
X-1771781Y20962250D01*
X-1782443Y21032440D01*
X-1753464Y21097253D01*
X-1694045Y21136110D01*
X-1657587Y21141500D01*
X-1526866Y21141500D01*
X-1464684Y21148255D01*
X-1328295Y21199385D01*
X-1211739Y21286739D01*
X-1124385Y21403295D01*
X-1073255Y21539684D01*
X-1066500Y21601866D01*
X-1066500Y23629774D01*
X-1046498Y23697895D01*
X-992842Y23744388D01*
X-922568Y23754492D01*
X-857988Y23724998D01*
X-839674Y23705339D01*
X-788261Y23636739D01*
X-778967Y23629774D01*
X-685935Y23560050D01*
X-643420Y23503191D01*
X-635500Y23459224D01*
X-635500Y21114969D01*
X-655502Y21046848D01*
X-667858Y21030665D01*
X-692591Y21003197D01*
X-782077Y20848203D01*
X-784119Y20841918D01*
X-822885Y20722607D01*
X-837382Y20677991D01*
X-856090Y20500000D01*
X-855400Y20493435D01*
X-841366Y20359918D01*
X-837382Y20322009D01*
X-835342Y20315731D01*
X-835342Y20315730D01*
X-821105Y20271913D01*
X-782077Y20151797D01*
X-692591Y19996803D01*
X-572836Y19863801D01*
X-567494Y19859920D01*
X-567492Y19859918D01*
X-538347Y19838743D01*
X-428045Y19758604D01*
X-422017Y19755920D01*
X-422015Y19755919D01*
X-270577Y19688495D01*
X-264546Y19685810D01*
X-177016Y19667205D01*
X-95943Y19649972D01*
X-95939Y19649972D01*
X-89486Y19648600D01*
X89486Y19648600D01*
X95939Y19649972D01*
X95943Y19649972D01*
X177016Y19667205D01*
X264546Y19685810D01*
X270577Y19688495D01*
X422015Y19755919D01*
X422017Y19755920D01*
X428045Y19758604D01*
X538347Y19838743D01*
X567492Y19859918D01*
X567494Y19859920D01*
X572836Y19863801D01*
X692591Y19996803D01*
X782077Y20151797D01*
X821105Y20271913D01*
X835342Y20315730D01*
X835342Y20315731D01*
X837382Y20322009D01*
X841367Y20359918D01*
X855400Y20493435D01*
X856090Y20500000D01*
X837382Y20677991D01*
X822886Y20722607D01*
X784119Y20841918D01*
X782077Y20848203D01*
X692591Y21003197D01*
X667863Y21030660D01*
X637147Y21094666D01*
X635500Y21114969D01*
X635500Y23459224D01*
X655502Y23527345D01*
X685935Y23560050D01*
X778968Y23629774D01*
X788261Y23636739D01*
X839674Y23705339D01*
X896533Y23747854D01*
X967352Y23752880D01*
X1029645Y23718820D01*
X1063635Y23656489D01*
X1066500Y23629774D01*
X1066500Y21601866D01*
X1073255Y21539684D01*
X1124385Y21403295D01*
X1211739Y21286739D01*
X1328295Y21199385D01*
X1336703Y21196233D01*
X1429531Y21161433D01*
X1484509Y21120133D01*
X1484971Y21120491D01*
X1486282Y21118801D01*
X1486295Y21118791D01*
X1486327Y21118743D01*
X1489828Y21114230D01*
X1493866Y21107402D01*
X1508250Y21093018D01*
X1521091Y21077984D01*
X1533058Y21061513D01*
X1539167Y21056459D01*
X1567248Y21033228D01*
X1576027Y21025240D01*
X1785538Y20815730D01*
X1994754Y20606514D01*
X2002326Y20598192D01*
X2006447Y20591697D01*
X2012225Y20586272D01*
X2012225Y20586271D01*
X2056266Y20544914D01*
X2059108Y20542159D01*
X2078906Y20522361D01*
X2082031Y20519937D01*
X2082040Y20519929D01*
X2082126Y20519863D01*
X2091151Y20512155D01*
X2123494Y20481783D01*
X2130438Y20477965D01*
X2130440Y20477964D01*
X2141329Y20471978D01*
X2157847Y20461127D01*
X2173933Y20448650D01*
X2214666Y20431024D01*
X2225314Y20425807D01*
X2264197Y20404431D01*
X2271872Y20402460D01*
X2271878Y20402458D01*
X2283911Y20399369D01*
X2302613Y20392966D01*
X2321292Y20384883D01*
X2355128Y20379524D01*
X2365127Y20377940D01*
X2376740Y20375535D01*
X2419718Y20364500D01*
X2440065Y20364500D01*
X2459777Y20362949D01*
X2479879Y20359765D01*
X2487771Y20360511D01*
X2524056Y20363941D01*
X2535914Y20364500D01*
X2885262Y20364500D01*
X2953383Y20344498D01*
X2959323Y20340436D01*
X3071955Y20258604D01*
X3077983Y20255920D01*
X3077985Y20255919D01*
X3229423Y20188495D01*
X3235454Y20185810D01*
X3322984Y20167205D01*
X3404057Y20149972D01*
X3404061Y20149972D01*
X3410514Y20148600D01*
X3589486Y20148600D01*
X3595939Y20149972D01*
X3595943Y20149972D01*
X3677016Y20167205D01*
X3764546Y20185810D01*
X3770577Y20188495D01*
X3922015Y20255919D01*
X3922017Y20255920D01*
X3928045Y20258604D01*
X3939048Y20266598D01*
X4067492Y20359918D01*
X4067494Y20359920D01*
X4072836Y20363801D01*
X4077258Y20368712D01*
X4188172Y20491895D01*
X4188173Y20491896D01*
X4192591Y20496803D01*
X4282077Y20651797D01*
X4337382Y20822009D01*
X4350197Y20943928D01*
X4355400Y20993435D01*
X4356090Y21000000D01*
X4341784Y21136110D01*
X4338072Y21171427D01*
X4338072Y21171428D01*
X4337382Y21177991D01*
X4282077Y21348203D01*
X4192591Y21503197D01*
X4103750Y21601866D01*
X4077258Y21631288D01*
X4077257Y21631289D01*
X4072836Y21636199D01*
X4053880Y21649972D01*
X3933387Y21737515D01*
X3933386Y21737516D01*
X3928045Y21741396D01*
X3922017Y21744080D01*
X3922015Y21744081D01*
X3770577Y21811505D01*
X3770576Y21811505D01*
X3764546Y21814190D01*
X3677016Y21832795D01*
X3595943Y21850028D01*
X3595939Y21850028D01*
X3589486Y21851400D01*
X3410514Y21851400D01*
X3404061Y21850028D01*
X3404057Y21850028D01*
X3322984Y21832795D01*
X3235454Y21814190D01*
X3229424Y21811505D01*
X3229423Y21811505D01*
X3110749Y21758668D01*
X3040382Y21749234D01*
X2976085Y21779341D01*
X2938271Y21839429D01*
X2933500Y21873775D01*
X2933500Y23629774D01*
X2953502Y23697895D01*
X3007158Y23744388D01*
X3077432Y23754492D01*
X3142012Y23724998D01*
X3160326Y23705339D01*
X3211739Y23636739D01*
X3328295Y23549385D01*
X3464684Y23498255D01*
X3526866Y23491500D01*
X4473134Y23491500D01*
X4535316Y23498255D01*
X4671705Y23549385D01*
X4788261Y23636739D01*
X4875615Y23753295D01*
X4926745Y23889684D01*
X4933500Y23951866D01*
X4933500Y24522600D01*
X4953502Y24590721D01*
X5007158Y24637214D01*
X5059500Y24648600D01*
X5089486Y24648600D01*
X5095939Y24649972D01*
X5095943Y24649972D01*
X5177016Y24667205D01*
X5264546Y24685810D01*
X5362530Y24729435D01*
X5422015Y24755919D01*
X5422017Y24755920D01*
X5428045Y24758604D01*
X5542717Y24841918D01*
X5567492Y24859918D01*
X5567494Y24859920D01*
X5572836Y24863801D01*
X5692591Y24996803D01*
X5770236Y25131288D01*
X5778773Y25146074D01*
X5778774Y25146075D01*
X5782077Y25151797D01*
X5833969Y25311505D01*
X5835342Y25315730D01*
X5835342Y25315731D01*
X5837382Y25322009D01*
X5841636Y25362477D01*
X5855400Y25493435D01*
X5856090Y25500000D01*
X5837382Y25677991D01*
X5782077Y25848203D01*
X5692591Y26003197D01*
X5572836Y26136199D01*
X5428045Y26241396D01*
X5422017Y26244080D01*
X5422015Y26244081D01*
X5270577Y26311505D01*
X5270576Y26311505D01*
X5264546Y26314190D01*
X5177016Y26332795D01*
X5095943Y26350028D01*
X5095939Y26350028D01*
X5089486Y26351400D01*
X5051182Y26351400D01*
X4983061Y26371402D01*
X4936568Y26425058D01*
X4928600Y26448251D01*
X4927598Y26452465D01*
X4926745Y26460316D01*
X4875615Y26596705D01*
X4788261Y26713261D01*
X4671705Y26800615D01*
X4535316Y26851745D01*
X4473134Y26858500D01*
X4355027Y26858500D01*
X4286906Y26878502D01*
X4240413Y26932158D01*
X4236624Y26941411D01*
X4235709Y26943926D01*
X4234284Y26949243D01*
X4192485Y27038881D01*
X4139849Y27151762D01*
X4139846Y27151767D01*
X4137523Y27156749D01*
X4006198Y27344300D01*
X3844300Y27506198D01*
X3839792Y27509355D01*
X3839789Y27509357D01*
X3761611Y27564098D01*
X3656749Y27637523D01*
X3651767Y27639846D01*
X3651762Y27639849D01*
X3454225Y27731961D01*
X3454224Y27731961D01*
X3449243Y27734284D01*
X3443935Y27735706D01*
X3443933Y27735707D01*
X3233402Y27792119D01*
X3233400Y27792119D01*
X3228087Y27793543D01*
X3128520Y27802254D01*
X3059851Y27808262D01*
X3059844Y27808262D01*
X3057127Y27808500D01*
X2942873Y27808500D01*
X2940156Y27808262D01*
X2940149Y27808262D01*
X2871480Y27802254D01*
X2771913Y27793543D01*
X2766600Y27792119D01*
X2766598Y27792119D01*
X2556067Y27735707D01*
X2556065Y27735706D01*
X2550757Y27734284D01*
X2545776Y27731961D01*
X2545775Y27731961D01*
X2348238Y27639849D01*
X2348233Y27639846D01*
X2343251Y27637523D01*
X2238389Y27564098D01*
X2160211Y27509357D01*
X2160208Y27509355D01*
X2155700Y27506198D01*
X1993802Y27344300D01*
X1862477Y27156749D01*
X1860154Y27151767D01*
X1860151Y27151762D01*
X1768039Y26954225D01*
X1765716Y26949243D01*
X1764294Y26943935D01*
X1764293Y26943933D01*
X1725891Y26800615D01*
X1706457Y26728087D01*
X1686502Y26500000D01*
X1706457Y26271913D01*
X1707881Y26266600D01*
X1707881Y26266598D01*
X1744138Y26131288D01*
X1765716Y26050757D01*
X1768039Y26045776D01*
X1768039Y26045775D01*
X1860151Y25848238D01*
X1860154Y25848233D01*
X1862477Y25843251D01*
X1865634Y25838743D01*
X1978194Y25677991D01*
X1993802Y25655700D01*
X2155700Y25493802D01*
X2160208Y25490645D01*
X2160211Y25490643D01*
X2238389Y25435902D01*
X2343251Y25362477D01*
X2348233Y25360154D01*
X2348238Y25360151D01*
X2545775Y25268039D01*
X2550757Y25265716D01*
X2556065Y25264294D01*
X2556067Y25264293D01*
X2766598Y25207881D01*
X2766600Y25207881D01*
X2771913Y25206457D01*
X2942873Y25191500D01*
X2945639Y25191500D01*
X2945983Y25191485D01*
X3013169Y25168537D01*
X3057283Y25112909D01*
X3066500Y25065604D01*
X3066500Y24370226D01*
X3046498Y24302105D01*
X2992842Y24255612D01*
X2922568Y24245508D01*
X2857988Y24275002D01*
X2839674Y24294661D01*
X2793643Y24356080D01*
X2793642Y24356081D01*
X2788261Y24363261D01*
X2671705Y24450615D01*
X2535316Y24501745D01*
X2473134Y24508500D01*
X1526866Y24508500D01*
X1464684Y24501745D01*
X1328295Y24450615D01*
X1211739Y24363261D01*
X1206358Y24356081D01*
X1206357Y24356080D01*
X1160326Y24294661D01*
X1103467Y24252146D01*
X1032648Y24247120D01*
X970355Y24281180D01*
X936365Y24343511D01*
X933500Y24370226D01*
X933500Y26398134D01*
X926745Y26460316D01*
X875615Y26596705D01*
X788261Y26713261D01*
X671705Y26800615D01*
X535316Y26851745D01*
X473134Y26858500D01*
X-473134Y26858500D01*
X-535316Y26851745D01*
X-671705Y26800615D01*
X-788261Y26713261D01*
X-875615Y26596705D01*
X-926745Y26460316D01*
X-933500Y26398134D01*
X-933500Y24768371D01*
X-953502Y24700250D01*
X-1007158Y24653757D01*
X-1077432Y24643653D01*
X-1142012Y24673147D01*
X-1179333Y24729435D01*
X-1215881Y24841918D01*
X-1217923Y24848203D01*
X-1226928Y24863801D01*
X-1300884Y24991895D01*
X-1307409Y25003197D01*
X-1427164Y25136199D01*
X-1440755Y25146074D01*
X-1566613Y25237515D01*
X-1566614Y25237516D01*
X-1571955Y25241396D01*
X-1577983Y25244080D01*
X-1577985Y25244081D01*
X-1729423Y25311505D01*
X-1729424Y25311505D01*
X-1735454Y25314190D01*
X-1822984Y25332795D01*
X-1904057Y25350028D01*
X-1904061Y25350028D01*
X-1910514Y25351400D01*
X-2089486Y25351400D01*
X-2095939Y25350028D01*
X-2095943Y25350028D01*
X-2177016Y25332795D01*
X-2264546Y25314190D01*
X-2270576Y25311505D01*
X-2270577Y25311505D01*
X-2422015Y25244081D01*
X-2422017Y25244080D01*
X-2428045Y25241396D01*
X-2433386Y25237516D01*
X-2433387Y25237515D01*
X-2559244Y25146074D01*
X-2572836Y25136199D01*
X-2692591Y25003197D01*
X-2699116Y24991895D01*
X-2773071Y24863801D01*
X-2782077Y24848203D01*
X-2784119Y24841918D01*
X-2820667Y24729435D01*
X-2860740Y24670829D01*
X-2926137Y24643192D01*
X-2996094Y24655299D01*
X-3048400Y24703305D01*
X-3066500Y24768371D01*
X-3066500Y26398134D01*
X-3073255Y26460316D01*
X-3124385Y26596705D01*
X-3211739Y26713261D01*
X-3328295Y26800615D01*
X-3464684Y26851745D01*
X-3526866Y26858500D01*
X-4473134Y26858500D01*
X-4535316Y26851745D01*
X-4671705Y26800615D01*
X-4788261Y26713261D01*
X-4875615Y26596705D01*
X-4926745Y26460316D01*
X-4933500Y26398134D01*
X-4933500Y23951866D01*
X-4926745Y23889684D01*
X-4875615Y23753295D01*
X-4788261Y23636739D01*
X-4671705Y23549385D01*
X-4671049Y23549139D01*
X-4623843Y23501825D01*
X-4608500Y23441567D01*
X-4608500Y23144956D01*
X-4628502Y23076835D01*
X-4640858Y23060653D01*
X-4692591Y23003197D01*
X-4782077Y22848203D01*
X-4837382Y22677991D01*
X-4856090Y22500000D01*
X-4837382Y22322009D01*
X-4782077Y22151797D01*
X-4692591Y21996803D01*
X-4572836Y21863801D01*
X-4567494Y21859920D01*
X-4567492Y21859918D01*
X-4456587Y21779341D01*
X-4428045Y21758604D01*
X-4422017Y21755920D01*
X-4422015Y21755919D01*
X-4270577Y21688495D01*
X-4264546Y21685810D01*
X-4177016Y21667205D01*
X-4095943Y21649972D01*
X-4095939Y21649972D01*
X-4089486Y21648600D01*
X-4006088Y21648600D01*
X-3937967Y21628598D01*
X-3891474Y21574942D01*
X-3881370Y21504668D01*
X-3910864Y21440088D01*
X-3916993Y21433505D01*
X-4006198Y21344300D01*
X-4137523Y21156749D01*
X-4139846Y21151767D01*
X-4139849Y21151762D01*
X-4213677Y20993435D01*
X-4234284Y20949243D01*
X-4235706Y20943935D01*
X-4235707Y20943933D01*
X-4270059Y20815730D01*
X-4293543Y20728087D01*
X-4313498Y20500000D01*
X-4293543Y20271913D01*
X-4292119Y20266600D01*
X-4292119Y20266598D01*
X-4289257Y20255919D01*
X-4234284Y20050757D01*
X-4231961Y20045776D01*
X-4231961Y20045775D01*
X-4139849Y19848238D01*
X-4139846Y19848233D01*
X-4137523Y19843251D01*
X-4134366Y19838743D01*
X-4027281Y19685810D01*
X-4006198Y19655700D01*
X-3844300Y19493802D01*
X-3839792Y19490645D01*
X-3839789Y19490643D01*
X-3761611Y19435902D01*
X-3656749Y19362477D01*
X-3651767Y19360154D01*
X-3651762Y19360151D01*
X-3454225Y19268039D01*
X-3449243Y19265716D01*
X-3443935Y19264294D01*
X-3443933Y19264293D01*
X-3413755Y19256207D01*
X-3353132Y19219255D01*
X-3322111Y19155395D01*
X-3330539Y19084900D01*
X-3375742Y19030153D01*
X-3446366Y19008500D01*
X-5298134Y19008500D01*
X-5360316Y19001745D01*
X-5496705Y18950615D01*
X-5613261Y18863261D01*
X-5700615Y18746705D01*
X-5751745Y18610316D01*
X-5758500Y18548134D01*
X-5758500Y17384001D01*
X-5778502Y17315880D01*
X-5832158Y17269387D01*
X-5884500Y17258001D01*
X-7365999Y17258001D01*
X-7434120Y17278003D01*
X-7480613Y17331659D01*
X-7491999Y17384001D01*
X-7491999Y29616001D01*
X-7471997Y29684122D01*
X-7418341Y29730615D01*
X-7365999Y29742001D01*
X-2384500Y29742001D01*
X-2316379Y29721999D01*
G37*
%TD.AperFunction*%
%TD*%
M02*
