M48
; DRILL file {KiCad 6.0.1-79c1e3a40b~116~ubuntu20.04.1} date Tue 08 Feb 2022 10:59:44 AM
; FORMAT={-:-/ absolute / inch / decimal}
; #@! TF.CreationDate,2022-02-08T10:59:44-05:00
; #@! TF.GenerationSoftware,Kicad,Pcbnew,6.0.1-79c1e3a40b~116~ubuntu20.04.1
; #@! TF.FileFunction,Plated,1,2,PTH
FMAT,2
INCH
; #@! TA.AperFunction,Plated,PTH,ViaDrill
T1C0.0190
; #@! TA.AperFunction,Plated,PTH,ComponentDrill
T2C0.0394
; #@! TA.AperFunction,Plated,PTH,ComponentDrill
T3C0.0400
%
G90
G05
T1
X0.325Y0.6
X0.325Y0.5
X0.325Y0.4
X0.325Y0.3
X0.325Y0.2
X0.325Y0.1
X0.375Y1.25
X0.425Y1.35
X0.425Y1.175
X0.425Y0.775
X0.425Y0.15
X0.475Y0.25
X0.525Y1.35
X0.525Y1.175
X0.525Y0.35
X0.575Y0.45
X0.625Y1.35
X0.625Y1.175
X0.675Y0.5
X0.675Y0.4
X0.675Y0.4
X0.675Y0.3
X0.675Y0.3
X0.675Y0.2
X0.675Y0.2
X0.675Y0.1
X0.675Y0.1
X0.725Y1.3
X0.725Y1.175
X0.8Y0.55
X0.825Y1.35
X0.825Y1.2
X0.825Y0.75
X0.925Y0.65
X1.025Y0.5
X1.025Y0.4
X1.025Y0.3
X1.025Y0.2
X1.025Y0.1
X1.05Y1.3
X1.2Y1.35
X1.2Y1.175
X1.35Y1.55
X1.35Y1.0
X1.375Y0.75
X1.375Y0.5
X1.375Y0.4
X1.375Y0.3
X1.375Y0.2
X1.375Y0.1
X1.4Y1.5
X1.4Y0.95
X1.475Y0.85
X1.475Y0.25
X1.525Y0.95
X1.525Y0.35
X1.575Y1.55
X1.575Y1.05
X1.575Y0.45
X1.625Y1.15
X1.625Y0.55
X1.675Y1.35
X1.725Y1.25
X1.725Y1.15
X1.725Y1.05
X1.725Y0.95
X1.725Y0.85
X1.725Y0.75
X1.725Y0.6
X1.725Y0.5
X1.725Y0.4
X1.725Y0.3
X1.725Y0.2
X1.725Y0.1
X1.75Y1.5
X1.825Y0.675
X1.825Y0.15
T2
X0.175Y1.15
X0.2742Y1.575
X0.275Y1.15
X0.3742Y1.575
X0.7744Y1.573
X0.8744Y1.573
X0.9744Y1.573
T3
X0.175Y1.45
X0.175Y0.85
X0.275Y1.45
X0.275Y0.85
X0.375Y1.45
X0.375Y0.85
X0.475Y1.45
X0.475Y0.85
X0.575Y1.45
X0.575Y0.85
X0.675Y1.45
X0.675Y0.85
X0.775Y1.45
X0.775Y0.85
X0.875Y1.45
X0.875Y0.85
X0.975Y1.45
X0.975Y0.85
X1.075Y1.45
X1.075Y0.85
X1.175Y1.4516
X1.175Y0.85
X1.275Y1.45
X1.275Y0.85
T0
M30
