%TF.GenerationSoftware,KiCad,Pcbnew,6.0.1-79c1e3a40b~116~ubuntu20.04.1*%
%TF.CreationDate,2022-02-08T10:59:44-05:00*%
%TF.ProjectId,gameKey-PCB-MainControl,67616d65-4b65-4792-9d50-43422d4d6169,rev?*%
%TF.SameCoordinates,Original*%
%TF.FileFunction,Copper,L2,Bot*%
%TF.FilePolarity,Positive*%
%FSLAX46Y46*%
G04 Gerber Fmt 4.6, Leading zero omitted, Abs format (unit mm)*
G04 Created by KiCad (PCBNEW 6.0.1-79c1e3a40b~116~ubuntu20.04.1) date 2022-02-08 10:59:44*
%MOMM*%
%LPD*%
G01*
G04 APERTURE LIST*
%TA.AperFunction,ComponentPad*%
%ADD10R,1.700000X1.700000*%
%TD*%
%TA.AperFunction,ComponentPad*%
%ADD11O,1.700000X1.700000*%
%TD*%
%TA.AperFunction,ComponentPad*%
%ADD12C,1.879600*%
%TD*%
%TA.AperFunction,SMDPad,CuDef*%
%ADD13R,0.500000X0.500000*%
%TD*%
%TA.AperFunction,ViaPad*%
%ADD14C,0.685800*%
%TD*%
%TA.AperFunction,Conductor*%
%ADD15C,0.254000*%
%TD*%
G04 APERTURE END LIST*
D10*
%TO.P,J4,1,Pin_1*%
%TO.N,GND*%
X9505000Y40005000D03*
D11*
%TO.P,J4,2,Pin_2*%
%TO.N,/MODE*%
X6965000Y40005000D03*
%TD*%
D10*
%TO.P,J1,1,Pin_1*%
%TO.N,GND*%
X6985000Y29210000D03*
D11*
%TO.P,J1,2,Pin_2*%
%TO.N,/EN*%
X4445000Y29210000D03*
%TD*%
D10*
%TO.P,J3,1,Pin_1*%
%TO.N,GND*%
X24750000Y39955000D03*
D11*
%TO.P,J3,2,Pin_2*%
%TO.N,/LED*%
X22210000Y39955000D03*
%TO.P,J3,3,Pin_3*%
%TO.N,VCC*%
X19670000Y39955000D03*
%TD*%
D12*
%TO.P,B1,1,TX0*%
%TO.N,unconnected-(B1-Pad1)*%
X32385000Y36830000D03*
%TO.P,B1,2,RX0*%
%TO.N,unconnected-(B1-Pad2)*%
X29845000Y36870000D03*
%TO.P,B1,3,GND*%
%TO.N,GND*%
X27305000Y36830000D03*
%TO.P,B1,4,GND*%
X24765000Y36830000D03*
%TO.P,B1,5,2*%
%TO.N,/COL0*%
X22225000Y36830000D03*
%TO.P,B1,6,3*%
%TO.N,/COL1*%
X19685000Y36830000D03*
%TO.P,B1,7,4*%
%TO.N,/COL2*%
X17145000Y36830000D03*
%TO.P,B1,8,\u002A5*%
%TO.N,/COL3*%
X14605000Y36830000D03*
%TO.P,B1,9,\u002A6*%
%TO.N,/COL4*%
X12065000Y36830000D03*
%TO.P,B1,10,7*%
%TO.N,/COL5*%
X9525000Y36830000D03*
%TO.P,B1,11,8*%
%TO.N,/MODE*%
X6985000Y36830000D03*
%TO.P,B1,12,\u002A9*%
%TO.N,/LED*%
X4445000Y36830000D03*
%TO.P,B1,13,\u002A10*%
%TO.N,/EN*%
X4445000Y21590000D03*
%TO.P,B1,14,11(MOSI)*%
%TO.N,/ROW4*%
X6985000Y21590000D03*
%TO.P,B1,15,12(MISO)*%
%TO.N,/ROW3*%
X9525000Y21590000D03*
%TO.P,B1,16,13(SCK)*%
%TO.N,/ROW2*%
X12065000Y21590000D03*
%TO.P,B1,17,A0*%
%TO.N,/ROW1*%
X14605000Y21590000D03*
%TO.P,B1,18,A1*%
%TO.N,/ROW0*%
X17145000Y21590000D03*
%TO.P,B1,19,A2*%
%TO.N,/JOYX*%
X19685000Y21590000D03*
%TO.P,B1,20,A3*%
%TO.N,/JOYY*%
X22225000Y21590000D03*
%TO.P,B1,21,VCC*%
%TO.N,VCC*%
X24765000Y21590000D03*
%TO.P,B1,22,RESET*%
%TO.N,unconnected-(B1-Pad22)*%
X27305000Y21590000D03*
%TO.P,B1,23,GND*%
%TO.N,GND*%
X29845000Y21590000D03*
%TO.P,B1,24,RAW*%
%TO.N,unconnected-(B1-Pad24)*%
X32385000Y21590000D03*
%TD*%
D13*
%TO.P,D6,1,K*%
%TO.N,/B15*%
X33825000Y12700000D03*
%TO.P,D6,2,A*%
%TO.N,/ROW0*%
X36025000Y12700000D03*
%TD*%
%TO.P,D7,1,K*%
%TO.N,/B14*%
X33825000Y10160000D03*
%TO.P,D7,2,A*%
%TO.N,/ROW1*%
X36025000Y10160000D03*
%TD*%
%TO.P,D8,1,K*%
%TO.N,/B13*%
X33825000Y7620000D03*
%TO.P,D8,2,A*%
%TO.N,/ROW2*%
X36025000Y7620000D03*
%TD*%
%TO.P,D9,1,K*%
%TO.N,/B12*%
X33825000Y5080000D03*
%TO.P,D9,2,A*%
%TO.N,/ROW3*%
X36025000Y5080000D03*
%TD*%
%TO.P,D10,1,K*%
%TO.N,/B11*%
X33825000Y2540000D03*
%TO.P,D10,2,A*%
%TO.N,/ROW4*%
X36025000Y2540000D03*
%TD*%
%TO.P,D11,1,K*%
%TO.N,/B10*%
X24935000Y12700000D03*
%TO.P,D11,2,A*%
%TO.N,/ROW0*%
X27135000Y12700000D03*
%TD*%
%TO.P,D12,1,K*%
%TO.N,/B9*%
X24935000Y10160000D03*
%TO.P,D12,2,A*%
%TO.N,/ROW1*%
X27135000Y10160000D03*
%TD*%
%TO.P,D13,1,K*%
%TO.N,/B8*%
X24935000Y7620000D03*
%TO.P,D13,2,A*%
%TO.N,/ROW2*%
X27135000Y7620000D03*
%TD*%
%TO.P,D14,1,K*%
%TO.N,/B7*%
X24935000Y5080000D03*
%TO.P,D14,2,A*%
%TO.N,/ROW3*%
X27135000Y5080000D03*
%TD*%
%TO.P,D15,1,K*%
%TO.N,/B6*%
X24935000Y2540000D03*
%TO.P,D15,2,A*%
%TO.N,/ROW4*%
X27135000Y2540000D03*
%TD*%
%TO.P,D16,1,K*%
%TO.N,/B1*%
X16045000Y12700000D03*
%TO.P,D16,2,A*%
%TO.N,/ROW0*%
X18245000Y12700000D03*
%TD*%
%TO.P,D17,1,K*%
%TO.N,/B2*%
X16045000Y10160000D03*
%TO.P,D17,2,A*%
%TO.N,/ROW1*%
X18245000Y10160000D03*
%TD*%
%TO.P,D18,1,K*%
%TO.N,/B3*%
X16045000Y7620000D03*
%TO.P,D18,2,A*%
%TO.N,/ROW2*%
X18245000Y7620000D03*
%TD*%
%TO.P,D19,1,K*%
%TO.N,/B4*%
X16045000Y5080000D03*
%TO.P,D19,2,A*%
%TO.N,/ROW3*%
X18245000Y5080000D03*
%TD*%
%TO.P,D20,1,K*%
%TO.N,/B5*%
X16045000Y2540000D03*
%TO.P,D20,2,A*%
%TO.N,/ROW4*%
X18245000Y2540000D03*
%TD*%
%TO.P,D21,1,K*%
%TO.N,/B25*%
X7155000Y12700000D03*
%TO.P,D21,2,A*%
%TO.N,/ROW0*%
X9355000Y12700000D03*
%TD*%
%TO.P,D23,1,K*%
%TO.N,/B23*%
X7155000Y7620000D03*
%TO.P,D23,2,A*%
%TO.N,/ROW2*%
X9355000Y7620000D03*
%TD*%
%TO.P,D24,1,K*%
%TO.N,/B22*%
X7155000Y5080000D03*
%TO.P,D24,2,A*%
%TO.N,/ROW3*%
X9355000Y5080000D03*
%TD*%
%TO.P,D25,1,K*%
%TO.N,/B21*%
X7155000Y2540000D03*
%TO.P,D25,2,A*%
%TO.N,/ROW4*%
X9355000Y2540000D03*
%TD*%
%TO.P,D22,1,K*%
%TO.N,/B24*%
X7155000Y10160000D03*
%TO.P,D22,2,A*%
%TO.N,/ROW1*%
X9355000Y10160000D03*
%TD*%
%TO.P,D26,1,K*%
%TO.N,/B30*%
X44915000Y29210000D03*
%TO.P,D26,2,A*%
%TO.N,/ROW0*%
X42715000Y29210000D03*
%TD*%
%TO.P,D27,1,K*%
%TO.N,/B29*%
X44915000Y26670000D03*
%TO.P,D27,2,A*%
%TO.N,/ROW1*%
X42715000Y26670000D03*
%TD*%
%TO.P,D28,1,K*%
%TO.N,/B28*%
X44915000Y24130000D03*
%TO.P,D28,2,A*%
%TO.N,/ROW2*%
X42715000Y24130000D03*
%TD*%
%TO.P,D29,1,K*%
%TO.N,/B27*%
X44915000Y21590000D03*
%TO.P,D29,2,A*%
%TO.N,/ROW3*%
X42715000Y21590000D03*
%TD*%
%TO.P,D30,1,K*%
%TO.N,/B26*%
X44915000Y19050000D03*
%TO.P,D30,2,A*%
%TO.N,/ROW4*%
X42715000Y19050000D03*
%TD*%
%TO.P,D5,1,K*%
%TO.N,/B16*%
X42715000Y2540000D03*
%TO.P,D5,2,A*%
%TO.N,/ROW4*%
X44915000Y2540000D03*
%TD*%
%TO.P,D2,1,K*%
%TO.N,/B19*%
X42715000Y10160000D03*
%TO.P,D2,2,A*%
%TO.N,/ROW1*%
X44915000Y10160000D03*
%TD*%
%TO.P,D4,1,K*%
%TO.N,/B17*%
X42715000Y5080000D03*
%TO.P,D4,2,A*%
%TO.N,/ROW3*%
X44915000Y5080000D03*
%TD*%
%TO.P,D3,1,K*%
%TO.N,/B18*%
X42715000Y7620000D03*
%TO.P,D3,2,A*%
%TO.N,/ROW2*%
X44915000Y7620000D03*
%TD*%
%TO.P,D1,1,K*%
%TO.N,/B20*%
X42715000Y12700000D03*
%TO.P,D1,2,A*%
%TO.N,/ROW0*%
X44915000Y12700000D03*
%TD*%
D14*
%TO.N,GND*%
X20955000Y30480000D03*
X15875000Y34290000D03*
X10795000Y29845000D03*
X15875000Y29845000D03*
X20955000Y34290000D03*
X30480000Y34290000D03*
X10795000Y34290000D03*
X18415000Y29845000D03*
X13335000Y34290000D03*
X30480000Y29845000D03*
X13335000Y29845000D03*
%TO.N,VCC*%
X18415000Y33020000D03*
X26670000Y33020000D03*
X42545000Y34290000D03*
%TO.N,/JOYY*%
X35560000Y24130000D03*
X35560000Y38100000D03*
X44450000Y38100000D03*
%TO.N,/JOYX*%
X34290000Y39370000D03*
X40005000Y39370000D03*
X34290000Y25400000D03*
%TO.N,/ROW4*%
X46355000Y17145000D03*
X10795000Y3810000D03*
X46355000Y3810000D03*
%TO.N,/ROW1*%
X40005000Y26670000D03*
X40005000Y11430000D03*
X14605000Y11430000D03*
%TO.N,/ROW3*%
X12065000Y6350000D03*
X37465000Y21590000D03*
X37465000Y6350000D03*
%TO.N,/ROW2*%
X13335000Y8890000D03*
X38735000Y24130000D03*
X38735000Y8890000D03*
%TO.N,/B20*%
X43815000Y12700000D03*
%TO.N,/B19*%
X43815000Y10160000D03*
%TO.N,/B18*%
X43815000Y7620000D03*
%TO.N,/B17*%
X43815000Y5080000D03*
%TO.N,/B16*%
X43815000Y2540000D03*
%TO.N,/B15*%
X34925000Y12700000D03*
%TO.N,/B14*%
X34925000Y10160000D03*
%TO.N,/B13*%
X34925000Y7620000D03*
%TO.N,/B12*%
X34925000Y5080000D03*
%TO.N,/B11*%
X34925000Y2540000D03*
%TO.N,/B10*%
X26035000Y12700000D03*
%TO.N,/B9*%
X26035000Y10160000D03*
%TO.N,/B8*%
X26035000Y7620000D03*
%TO.N,/B7*%
X26035000Y5080000D03*
%TO.N,/B6*%
X26035000Y2540000D03*
%TO.N,/B1*%
X17145000Y12700000D03*
%TO.N,/B2*%
X17145000Y10160000D03*
X17145000Y10160000D03*
%TO.N,/B3*%
X17145000Y7620000D03*
X17145000Y7620000D03*
%TO.N,/B4*%
X17145000Y5080000D03*
X17145000Y5080000D03*
%TO.N,/B5*%
X17145000Y2540000D03*
X17145000Y2540000D03*
%TO.N,/B25*%
X8255000Y12700000D03*
%TO.N,/B24*%
X8255000Y10160000D03*
%TO.N,/B23*%
X8255000Y7620000D03*
%TO.N,/B22*%
X8255000Y5080000D03*
%TO.N,/B21*%
X8255000Y2540000D03*
%TO.N,/COL1*%
X34925000Y19050000D03*
X20955000Y19050000D03*
%TO.N,/COL4*%
X10795000Y19685000D03*
X8255000Y15240000D03*
%TO.N,/COL5*%
X9525000Y31750000D03*
X43815000Y31750000D03*
%TO.N,/COL0*%
X23495000Y16510000D03*
X43815000Y15240000D03*
%TO.N,/ROW0*%
X20320000Y13970000D03*
X41275000Y13970000D03*
X41275000Y29210000D03*
%TO.N,/B30*%
X43815000Y29210000D03*
%TO.N,/B29*%
X43815000Y26670000D03*
%TO.N,/B28*%
X43815000Y24130000D03*
%TO.N,/B27*%
X43815000Y21590000D03*
%TO.N,/B26*%
X43815000Y19050000D03*
%TD*%
D15*
%TO.N,VCC*%
X41275000Y33020000D02*
X42545000Y34290000D01*
X26670000Y33020000D02*
X18415000Y33020000D01*
X26670000Y33020000D02*
X42545000Y33020000D01*
%TO.N,/JOYY*%
X22860000Y24130000D02*
X35560000Y24130000D01*
X22225000Y21590000D02*
X22225000Y23495000D01*
X35560000Y38100000D02*
X44450000Y38100000D01*
X22225000Y23495000D02*
X22860000Y24130000D01*
%TO.N,/JOYX*%
X19685000Y24130000D02*
X20955000Y25400000D01*
X20955000Y25400000D02*
X34290000Y25400000D01*
X19685000Y21590000D02*
X19685000Y24130000D01*
X34290000Y39370000D02*
X40005000Y39370000D01*
%TO.N,/LED*%
X6032500Y38417500D02*
X20672500Y38417500D01*
X20672500Y38417500D02*
X22210000Y39955000D01*
X4445000Y36830000D02*
X6032500Y38417500D01*
%TO.N,/ROW4*%
X43815000Y3810000D02*
X46355000Y3810000D01*
X36025000Y2540000D02*
X36025000Y3005000D01*
X34925000Y3810000D02*
X27940000Y3810000D01*
X42715000Y17610000D02*
X42715000Y19050000D01*
X26035000Y3810000D02*
X19050000Y3810000D01*
X27135000Y2540000D02*
X27135000Y2710000D01*
X27135000Y2710000D02*
X26035000Y3810000D01*
X46355000Y17145000D02*
X43180000Y17145000D01*
X18245000Y2540000D02*
X18245000Y2710000D01*
X18245000Y2710000D02*
X17145000Y3810000D01*
X38735000Y3810000D02*
X36830000Y3810000D01*
X43815000Y3810000D02*
X38735000Y3810000D01*
X43180000Y17145000D02*
X42715000Y17610000D01*
X9355000Y3005000D02*
X10160000Y3810000D01*
X18245000Y2540000D02*
X18245000Y3005000D01*
X36025000Y3005000D02*
X36830000Y3810000D01*
X10795000Y3810000D02*
X10160000Y3810000D01*
X44915000Y2540000D02*
X44915000Y2710000D01*
X17145000Y3810000D02*
X10795000Y3810000D01*
X44915000Y2710000D02*
X43815000Y3810000D01*
X18245000Y3005000D02*
X19050000Y3810000D01*
X36025000Y2710000D02*
X34925000Y3810000D01*
X9355000Y2540000D02*
X9355000Y3005000D01*
X27135000Y2540000D02*
X27135000Y3005000D01*
X36025000Y2540000D02*
X36025000Y2710000D01*
X27135000Y3005000D02*
X27940000Y3810000D01*
%TO.N,/ROW1*%
X27135000Y10160000D02*
X27135000Y10330000D01*
X40005000Y11430000D02*
X36830000Y11430000D01*
X36830000Y11430000D02*
X36025000Y10625000D01*
X17145000Y11430000D02*
X14605000Y11430000D01*
X36025000Y10330000D02*
X34925000Y11430000D01*
X9355000Y10160000D02*
X9355000Y10625000D01*
X43815000Y11430000D02*
X44915000Y10330000D01*
X18245000Y10625000D02*
X19050000Y11430000D01*
X27135000Y10160000D02*
X27135000Y10625000D01*
X36025000Y10160000D02*
X36025000Y10330000D01*
X27135000Y10330000D02*
X26035000Y11430000D01*
X18245000Y10160000D02*
X18245000Y10330000D01*
X40005000Y11430000D02*
X43815000Y11430000D01*
X14605000Y11430000D02*
X10160000Y11430000D01*
X36025000Y10625000D02*
X36025000Y10160000D01*
X34925000Y11430000D02*
X27940000Y11430000D01*
X40005000Y26670000D02*
X42715000Y26670000D01*
X9355000Y10625000D02*
X10160000Y11430000D01*
X27135000Y10625000D02*
X27940000Y11430000D01*
X18245000Y10330000D02*
X17145000Y11430000D01*
X18245000Y10160000D02*
X18245000Y10625000D01*
X44915000Y10330000D02*
X44915000Y10160000D01*
X26035000Y11430000D02*
X19050000Y11430000D01*
%TO.N,/ROW3*%
X43815000Y6350000D02*
X44915000Y5250000D01*
X37465000Y6350000D02*
X36830000Y6350000D01*
X12065000Y6350000D02*
X10160000Y6350000D01*
X36025000Y5545000D02*
X36025000Y5080000D01*
X37465000Y6350000D02*
X43815000Y6350000D01*
X9355000Y5080000D02*
X9355000Y5545000D01*
X17145000Y6350000D02*
X12065000Y6350000D01*
X36025000Y5250000D02*
X34925000Y6350000D01*
X37465000Y21590000D02*
X42715000Y21590000D01*
X18245000Y5250000D02*
X17145000Y6350000D01*
X34925000Y6350000D02*
X27940000Y6350000D01*
X26035000Y6350000D02*
X19050000Y6350000D01*
X18245000Y5080000D02*
X18245000Y5250000D01*
X18245000Y5080000D02*
X18245000Y5545000D01*
X27135000Y5080000D02*
X27135000Y5250000D01*
X9355000Y5545000D02*
X10160000Y6350000D01*
X27135000Y5545000D02*
X27940000Y6350000D01*
X36025000Y5080000D02*
X36025000Y5250000D01*
X18245000Y5545000D02*
X19050000Y6350000D01*
X36830000Y6350000D02*
X36025000Y5545000D01*
X27135000Y5080000D02*
X27135000Y5545000D01*
X27135000Y5250000D02*
X26035000Y6350000D01*
X44915000Y5250000D02*
X44915000Y5080000D01*
%TO.N,/ROW2*%
X27135000Y7790000D02*
X26035000Y8890000D01*
X18245000Y7790000D02*
X17145000Y8890000D01*
X38735000Y8890000D02*
X43815000Y8890000D01*
X27135000Y7620000D02*
X27135000Y7790000D01*
X36830000Y8890000D02*
X36025000Y8085000D01*
X27135000Y8085000D02*
X27940000Y8890000D01*
X38735000Y8890000D02*
X36830000Y8890000D01*
X26035000Y8890000D02*
X19050000Y8890000D01*
X36025000Y7620000D02*
X36025000Y7790000D01*
X43815000Y8890000D02*
X44915000Y7790000D01*
X18245000Y7620000D02*
X18245000Y8085000D01*
X27135000Y7620000D02*
X27135000Y8085000D01*
X34925000Y8890000D02*
X27940000Y8890000D01*
X36025000Y7790000D02*
X34925000Y8890000D01*
X18245000Y7620000D02*
X18245000Y7790000D01*
X18245000Y8085000D02*
X19050000Y8890000D01*
X38735000Y24130000D02*
X42715000Y24130000D01*
X17145000Y8890000D02*
X13335000Y8890000D01*
X13335000Y8890000D02*
X10160000Y8890000D01*
X9355000Y8085000D02*
X10160000Y8890000D01*
X9355000Y7620000D02*
X9355000Y8085000D01*
X44915000Y7790000D02*
X44915000Y7620000D01*
X36025000Y8085000D02*
X36025000Y7620000D01*
%TO.N,/B20*%
X42715000Y12700000D02*
X43815000Y12700000D01*
%TO.N,/B19*%
X42715000Y10160000D02*
X43815000Y10160000D01*
%TO.N,/B18*%
X42715000Y7620000D02*
X43815000Y7620000D01*
%TO.N,/B17*%
X42715000Y5080000D02*
X43815000Y5080000D01*
%TO.N,/B16*%
X42715000Y2540000D02*
X43815000Y2540000D01*
%TO.N,/B15*%
X33825000Y12700000D02*
X34925000Y12700000D01*
%TO.N,/B14*%
X33825000Y10160000D02*
X34925000Y10160000D01*
%TO.N,/B13*%
X33825000Y7620000D02*
X34925000Y7620000D01*
%TO.N,/B12*%
X33825000Y5080000D02*
X34925000Y5080000D01*
%TO.N,/B11*%
X33825000Y2540000D02*
X34925000Y2540000D01*
%TO.N,/B10*%
X24935000Y12700000D02*
X26035000Y12700000D01*
%TO.N,/B9*%
X24935000Y10160000D02*
X26035000Y10160000D01*
%TO.N,/B8*%
X24935000Y7620000D02*
X26035000Y7620000D01*
%TO.N,/B7*%
X24935000Y5080000D02*
X26035000Y5080000D01*
%TO.N,/B6*%
X24935000Y2540000D02*
X26035000Y2540000D01*
%TO.N,/B1*%
X16045000Y12700000D02*
X17145000Y12700000D01*
%TO.N,/B2*%
X16045000Y10160000D02*
X17145000Y10160000D01*
%TO.N,/B3*%
X16045000Y7620000D02*
X17145000Y7620000D01*
%TO.N,/B4*%
X16045000Y5080000D02*
X17145000Y5080000D01*
%TO.N,/B5*%
X16045000Y2540000D02*
X17145000Y2540000D01*
%TO.N,/B25*%
X7155000Y12700000D02*
X8255000Y12700000D01*
%TO.N,/B24*%
X7155000Y10160000D02*
X8255000Y10160000D01*
%TO.N,/B23*%
X7155000Y7620000D02*
X8255000Y7620000D01*
%TO.N,/B22*%
X7155000Y5080000D02*
X8255000Y5080000D01*
%TO.N,/B21*%
X7155000Y2540000D02*
X8255000Y2540000D01*
%TO.N,/COL1*%
X20955000Y19050000D02*
X34925000Y19050000D01*
%TO.N,/COL4*%
X10795000Y15875000D02*
X10160000Y15240000D01*
X10795000Y19685000D02*
X10795000Y15875000D01*
X10160000Y15240000D02*
X8255000Y15240000D01*
%TO.N,/COL5*%
X9525000Y31750000D02*
X43815000Y31750000D01*
%TO.N,/COL0*%
X42545000Y16510000D02*
X43815000Y15240000D01*
X23495000Y16510000D02*
X42545000Y16510000D01*
%TO.N,/ROW0*%
X36025000Y12870000D02*
X34925000Y13970000D01*
X9355000Y13165000D02*
X10160000Y13970000D01*
X43815000Y13970000D02*
X41275000Y13970000D01*
X44915000Y12870000D02*
X43815000Y13970000D01*
X18245000Y12700000D02*
X18245000Y12870000D01*
X27135000Y13165000D02*
X27940000Y13970000D01*
X18245000Y12700000D02*
X18245000Y13165000D01*
X41275000Y29210000D02*
X42715000Y29210000D01*
X26035000Y13970000D02*
X19050000Y13970000D01*
X36025000Y12700000D02*
X36025000Y13165000D01*
X27135000Y12700000D02*
X27135000Y13165000D01*
X17145000Y13970000D02*
X10160000Y13970000D01*
X27135000Y12700000D02*
X27135000Y12870000D01*
X18245000Y12870000D02*
X17145000Y13970000D01*
X27135000Y12870000D02*
X26035000Y13970000D01*
X34925000Y13970000D02*
X27940000Y13970000D01*
X36025000Y12700000D02*
X36025000Y12870000D01*
X18245000Y13165000D02*
X19050000Y13970000D01*
X36025000Y13165000D02*
X36830000Y13970000D01*
X41275000Y13970000D02*
X36830000Y13970000D01*
X9355000Y12700000D02*
X9355000Y13165000D01*
X44915000Y12700000D02*
X44915000Y12870000D01*
%TO.N,/B30*%
X44915000Y29210000D02*
X43815000Y29210000D01*
%TO.N,/B29*%
X44915000Y26670000D02*
X43815000Y26670000D01*
%TO.N,/B28*%
X44915000Y24130000D02*
X43815000Y24130000D01*
%TO.N,/B27*%
X44915000Y21590000D02*
X43815000Y21590000D01*
%TO.N,/B26*%
X44915000Y19050000D02*
X43815000Y19050000D01*
%TD*%
%TA.AperFunction,Conductor*%
%TO.N,GND*%
G36*
X46960057Y41400500D02*
G01*
X46974858Y41398195D01*
X46974861Y41398195D01*
X46983730Y41396814D01*
X46994728Y41398252D01*
X47023411Y41398709D01*
X47126307Y41388575D01*
X47150531Y41383756D01*
X47269733Y41347596D01*
X47292553Y41338144D01*
X47402400Y41279430D01*
X47422938Y41265707D01*
X47519223Y41186688D01*
X47536688Y41169223D01*
X47615707Y41072938D01*
X47629430Y41052400D01*
X47688144Y40942553D01*
X47697596Y40919733D01*
X47733756Y40800531D01*
X47738575Y40776305D01*
X47748044Y40680166D01*
X47747592Y40664124D01*
X47748305Y40664115D01*
X47748195Y40655142D01*
X47746814Y40646270D01*
X47747978Y40637368D01*
X47747978Y40637365D01*
X47750936Y40614749D01*
X47752000Y40598411D01*
X47752000Y1319328D01*
X47750500Y1299944D01*
X47746814Y1276270D01*
X47748252Y1265272D01*
X47748709Y1236588D01*
X47738575Y1133695D01*
X47733756Y1109469D01*
X47697596Y990267D01*
X47688144Y967447D01*
X47629430Y857600D01*
X47615707Y837062D01*
X47536688Y740777D01*
X47519223Y723312D01*
X47422938Y644293D01*
X47402400Y630570D01*
X47292553Y571856D01*
X47269733Y562404D01*
X47150531Y526244D01*
X47126307Y521425D01*
X47030163Y511956D01*
X47014124Y512408D01*
X47014115Y511695D01*
X47005142Y511805D01*
X46996270Y513186D01*
X46987368Y512022D01*
X46987365Y512022D01*
X46964749Y509064D01*
X46948411Y508000D01*
X3859328Y508000D01*
X3839943Y509500D01*
X3825142Y511805D01*
X3825139Y511805D01*
X3816270Y513186D01*
X3805272Y511748D01*
X3776589Y511291D01*
X3673693Y521425D01*
X3649469Y526244D01*
X3530267Y562404D01*
X3507447Y571856D01*
X3397600Y630570D01*
X3377062Y644293D01*
X3280777Y723312D01*
X3263312Y740777D01*
X3184293Y837062D01*
X3170570Y857600D01*
X3111856Y967447D01*
X3102404Y990267D01*
X3066244Y1109469D01*
X3061425Y1133695D01*
X3051956Y1229834D01*
X3052408Y1245876D01*
X3051695Y1245885D01*
X3051805Y1254858D01*
X3053186Y1263730D01*
X3051547Y1276270D01*
X3049064Y1295251D01*
X3048000Y1311589D01*
X3048000Y20653345D01*
X3068002Y20721466D01*
X3121658Y20767959D01*
X3191932Y20778063D01*
X3256512Y20748569D01*
X3272152Y20731589D01*
X3272274Y20731694D01*
X3428204Y20551683D01*
X3611442Y20399556D01*
X3615894Y20396954D01*
X3615899Y20396951D01*
X3811828Y20282459D01*
X3817065Y20279399D01*
X4039552Y20194440D01*
X4044618Y20193409D01*
X4044619Y20193409D01*
X4070237Y20188197D01*
X4272928Y20146959D01*
X4407121Y20142038D01*
X4505760Y20138421D01*
X4505764Y20138421D01*
X4510924Y20138232D01*
X4516044Y20138888D01*
X4516046Y20138888D01*
X4742023Y20167836D01*
X4742024Y20167836D01*
X4747151Y20168493D01*
X4790272Y20181430D01*
X4970316Y20235446D01*
X4970317Y20235447D01*
X4975262Y20236930D01*
X5189133Y20341705D01*
X5193336Y20344703D01*
X5193341Y20344706D01*
X5378816Y20477004D01*
X5378818Y20477006D01*
X5383020Y20480003D01*
X5551716Y20648111D01*
X5609979Y20729193D01*
X5665972Y20772840D01*
X5736676Y20779286D01*
X5799640Y20746484D01*
X5811582Y20732824D01*
X5812274Y20731694D01*
X5968204Y20551683D01*
X6151442Y20399556D01*
X6155894Y20396954D01*
X6155899Y20396951D01*
X6351828Y20282459D01*
X6357065Y20279399D01*
X6579552Y20194440D01*
X6584618Y20193409D01*
X6584619Y20193409D01*
X6610237Y20188197D01*
X6812928Y20146959D01*
X6947121Y20142038D01*
X7045760Y20138421D01*
X7045764Y20138421D01*
X7050924Y20138232D01*
X7056044Y20138888D01*
X7056046Y20138888D01*
X7282023Y20167836D01*
X7282024Y20167836D01*
X7287151Y20168493D01*
X7330272Y20181430D01*
X7510316Y20235446D01*
X7510317Y20235447D01*
X7515262Y20236930D01*
X7729133Y20341705D01*
X7733336Y20344703D01*
X7733341Y20344706D01*
X7918816Y20477004D01*
X7918818Y20477006D01*
X7923020Y20480003D01*
X8091716Y20648111D01*
X8149979Y20729193D01*
X8205972Y20772840D01*
X8276676Y20779286D01*
X8339640Y20746484D01*
X8351582Y20732824D01*
X8352274Y20731694D01*
X8508204Y20551683D01*
X8691442Y20399556D01*
X8695894Y20396954D01*
X8695899Y20396951D01*
X8891828Y20282459D01*
X8897065Y20279399D01*
X9119552Y20194440D01*
X9124618Y20193409D01*
X9124619Y20193409D01*
X9150237Y20188197D01*
X9352928Y20146959D01*
X9487121Y20142038D01*
X9585760Y20138421D01*
X9585764Y20138421D01*
X9590924Y20138232D01*
X9596044Y20138888D01*
X9596046Y20138888D01*
X9822023Y20167836D01*
X9822024Y20167836D01*
X9827151Y20168493D01*
X9851333Y20175748D01*
X9922329Y20176164D01*
X9982279Y20138132D01*
X10012151Y20073726D01*
X10007374Y20016126D01*
X9957618Y19862991D01*
X9956928Y19856428D01*
X9956928Y19856427D01*
X9945839Y19750923D01*
X9938910Y19685000D01*
X9957618Y19507009D01*
X10012923Y19336797D01*
X10102409Y19181803D01*
X10127137Y19154340D01*
X10157853Y19090334D01*
X10159500Y19070031D01*
X10159500Y16190423D01*
X10139498Y16122302D01*
X10122595Y16101328D01*
X9933672Y15912405D01*
X9871360Y15878379D01*
X9844577Y15875500D01*
X8869738Y15875500D01*
X8801617Y15895502D01*
X8795677Y15899564D01*
X8688387Y15977515D01*
X8688386Y15977516D01*
X8683045Y15981396D01*
X8677017Y15984080D01*
X8677015Y15984081D01*
X8525577Y16051505D01*
X8525576Y16051505D01*
X8519546Y16054190D01*
X8432016Y16072795D01*
X8350943Y16090028D01*
X8350939Y16090028D01*
X8344486Y16091400D01*
X8165514Y16091400D01*
X8159061Y16090028D01*
X8159057Y16090028D01*
X8077984Y16072795D01*
X7990454Y16054190D01*
X7984424Y16051505D01*
X7984423Y16051505D01*
X7832985Y15984081D01*
X7832983Y15984080D01*
X7826955Y15981396D01*
X7821614Y15977516D01*
X7821613Y15977515D01*
X7713624Y15899056D01*
X7682164Y15876199D01*
X7677743Y15871289D01*
X7677742Y15871288D01*
X7601883Y15787037D01*
X7562409Y15743197D01*
X7559108Y15737479D01*
X7479914Y15600311D01*
X7472923Y15588203D01*
X7417618Y15417991D01*
X7398910Y15240000D01*
X7399600Y15233435D01*
X7407152Y15161589D01*
X7417618Y15062009D01*
X7472923Y14891797D01*
X7562409Y14736803D01*
X7566827Y14731896D01*
X7566828Y14731895D01*
X7677487Y14608995D01*
X7682164Y14603801D01*
X7687506Y14599920D01*
X7687508Y14599918D01*
X7782583Y14530842D01*
X7826955Y14498604D01*
X7832983Y14495920D01*
X7832985Y14495919D01*
X7954984Y14441602D01*
X7990454Y14425810D01*
X8077984Y14407205D01*
X8159057Y14389972D01*
X8159061Y14389972D01*
X8165514Y14388600D01*
X8344486Y14388600D01*
X8350939Y14389972D01*
X8350943Y14389972D01*
X8432016Y14407205D01*
X8519546Y14425810D01*
X8555016Y14441602D01*
X8677015Y14495919D01*
X8677017Y14495920D01*
X8683045Y14498604D01*
X8738387Y14538812D01*
X8795677Y14580436D01*
X8862545Y14604295D01*
X8869738Y14604500D01*
X9591577Y14604500D01*
X9659698Y14584498D01*
X9706191Y14530842D01*
X9716295Y14460568D01*
X9686801Y14395988D01*
X9680672Y14389404D01*
X8961512Y13670245D01*
X8953193Y13662675D01*
X8946697Y13658553D01*
X8941271Y13652775D01*
X8941270Y13652774D01*
X8899915Y13608735D01*
X8897160Y13605893D01*
X8877361Y13586094D01*
X8874937Y13582969D01*
X8874929Y13582960D01*
X8874863Y13582874D01*
X8867155Y13573849D01*
X8836783Y13541506D01*
X8832965Y13534562D01*
X8832964Y13534560D01*
X8826978Y13523671D01*
X8816125Y13507150D01*
X8805504Y13493457D01*
X8804604Y13492297D01*
X8747047Y13450731D01*
X8676155Y13446882D01*
X8653797Y13454418D01*
X8525577Y13511505D01*
X8525576Y13511505D01*
X8519546Y13514190D01*
X8432016Y13532795D01*
X8350943Y13550028D01*
X8350939Y13550028D01*
X8344486Y13551400D01*
X8165514Y13551400D01*
X8159061Y13550028D01*
X8159057Y13550028D01*
X8077984Y13532795D01*
X7990454Y13514190D01*
X7984424Y13511505D01*
X7984423Y13511505D01*
X7832985Y13444081D01*
X7832983Y13444080D01*
X7826955Y13441396D01*
X7821615Y13437516D01*
X7783062Y13409506D01*
X7716194Y13385648D01*
X7652500Y13400019D01*
X7651705Y13400615D01*
X7515316Y13451745D01*
X7453134Y13458500D01*
X6856866Y13458500D01*
X6794684Y13451745D01*
X6658295Y13400615D01*
X6541739Y13313261D01*
X6454385Y13196705D01*
X6403255Y13060316D01*
X6396500Y12998134D01*
X6396500Y12401866D01*
X6403255Y12339684D01*
X6454385Y12203295D01*
X6541739Y12086739D01*
X6658295Y11999385D01*
X6794684Y11948255D01*
X6856866Y11941500D01*
X7453134Y11941500D01*
X7515316Y11948255D01*
X7651705Y11999385D01*
X7652448Y11999942D01*
X7717851Y12014246D01*
X7783063Y11990494D01*
X7826955Y11958604D01*
X7832983Y11955920D01*
X7832985Y11955919D01*
X7941425Y11907639D01*
X7990454Y11885810D01*
X8074987Y11867842D01*
X8159057Y11849972D01*
X8159061Y11849972D01*
X8165514Y11848600D01*
X8344486Y11848600D01*
X8350939Y11849972D01*
X8350943Y11849972D01*
X8435013Y11867842D01*
X8519546Y11885810D01*
X8568575Y11907639D01*
X8677015Y11955919D01*
X8677017Y11955920D01*
X8683045Y11958604D01*
X8726937Y11990494D01*
X8793806Y12014352D01*
X8857500Y11999981D01*
X8858295Y11999385D01*
X8994684Y11948255D01*
X9056866Y11941500D01*
X9468577Y11941500D01*
X9536698Y11921498D01*
X9583191Y11867842D01*
X9593295Y11797568D01*
X9563801Y11732988D01*
X9557674Y11726407D01*
X8961512Y11130245D01*
X8953193Y11122675D01*
X8946697Y11118553D01*
X8941271Y11112775D01*
X8941270Y11112774D01*
X8899915Y11068735D01*
X8897160Y11065893D01*
X8877361Y11046094D01*
X8874937Y11042969D01*
X8874929Y11042960D01*
X8874863Y11042874D01*
X8867155Y11033849D01*
X8836783Y11001506D01*
X8832965Y10994562D01*
X8832964Y10994560D01*
X8826978Y10983671D01*
X8816125Y10967150D01*
X8805504Y10953457D01*
X8804604Y10952297D01*
X8747047Y10910731D01*
X8676155Y10906882D01*
X8653797Y10914418D01*
X8525577Y10971505D01*
X8525576Y10971505D01*
X8519546Y10974190D01*
X8432016Y10992795D01*
X8350943Y11010028D01*
X8350939Y11010028D01*
X8344486Y11011400D01*
X8165514Y11011400D01*
X8159061Y11010028D01*
X8159057Y11010028D01*
X8077984Y10992795D01*
X7990454Y10974190D01*
X7984424Y10971505D01*
X7984423Y10971505D01*
X7832985Y10904081D01*
X7832983Y10904080D01*
X7826955Y10901396D01*
X7821615Y10897516D01*
X7783062Y10869506D01*
X7716194Y10845648D01*
X7652500Y10860019D01*
X7651705Y10860615D01*
X7515316Y10911745D01*
X7453134Y10918500D01*
X6856866Y10918500D01*
X6794684Y10911745D01*
X6658295Y10860615D01*
X6541739Y10773261D01*
X6454385Y10656705D01*
X6403255Y10520316D01*
X6396500Y10458134D01*
X6396500Y9861866D01*
X6403255Y9799684D01*
X6454385Y9663295D01*
X6541739Y9546739D01*
X6658295Y9459385D01*
X6794684Y9408255D01*
X6856866Y9401500D01*
X7453134Y9401500D01*
X7515316Y9408255D01*
X7651705Y9459385D01*
X7652448Y9459942D01*
X7717851Y9474246D01*
X7783063Y9450494D01*
X7826955Y9418604D01*
X7832983Y9415920D01*
X7832985Y9415919D01*
X7941425Y9367639D01*
X7990454Y9345810D01*
X8074987Y9327842D01*
X8159057Y9309972D01*
X8159061Y9309972D01*
X8165514Y9308600D01*
X8344486Y9308600D01*
X8350939Y9309972D01*
X8350943Y9309972D01*
X8435013Y9327842D01*
X8519546Y9345810D01*
X8568575Y9367639D01*
X8677015Y9415919D01*
X8677017Y9415920D01*
X8683045Y9418604D01*
X8726937Y9450494D01*
X8793806Y9474352D01*
X8857500Y9459981D01*
X8858295Y9459385D01*
X8994684Y9408255D01*
X9056866Y9401500D01*
X9468577Y9401500D01*
X9536698Y9381498D01*
X9583191Y9327842D01*
X9593295Y9257568D01*
X9563801Y9192988D01*
X9557674Y9186407D01*
X8961512Y8590245D01*
X8953193Y8582675D01*
X8946697Y8578553D01*
X8941271Y8572775D01*
X8941270Y8572774D01*
X8899915Y8528735D01*
X8897160Y8525893D01*
X8877361Y8506094D01*
X8874937Y8502969D01*
X8874929Y8502960D01*
X8874863Y8502874D01*
X8867155Y8493849D01*
X8836783Y8461506D01*
X8832965Y8454562D01*
X8832964Y8454560D01*
X8826978Y8443671D01*
X8816125Y8427150D01*
X8805504Y8413457D01*
X8804604Y8412297D01*
X8747047Y8370731D01*
X8676155Y8366882D01*
X8653797Y8374418D01*
X8525577Y8431505D01*
X8525576Y8431505D01*
X8519546Y8434190D01*
X8432016Y8452795D01*
X8350943Y8470028D01*
X8350939Y8470028D01*
X8344486Y8471400D01*
X8165514Y8471400D01*
X8159061Y8470028D01*
X8159057Y8470028D01*
X8077984Y8452795D01*
X7990454Y8434190D01*
X7984424Y8431505D01*
X7984423Y8431505D01*
X7832985Y8364081D01*
X7832983Y8364080D01*
X7826955Y8361396D01*
X7821615Y8357516D01*
X7783062Y8329506D01*
X7716194Y8305648D01*
X7652500Y8320019D01*
X7651705Y8320615D01*
X7515316Y8371745D01*
X7453134Y8378500D01*
X6856866Y8378500D01*
X6794684Y8371745D01*
X6658295Y8320615D01*
X6541739Y8233261D01*
X6454385Y8116705D01*
X6403255Y7980316D01*
X6396500Y7918134D01*
X6396500Y7321866D01*
X6403255Y7259684D01*
X6454385Y7123295D01*
X6541739Y7006739D01*
X6658295Y6919385D01*
X6794684Y6868255D01*
X6856866Y6861500D01*
X7453134Y6861500D01*
X7515316Y6868255D01*
X7651705Y6919385D01*
X7652448Y6919942D01*
X7717851Y6934246D01*
X7783063Y6910494D01*
X7826955Y6878604D01*
X7832983Y6875920D01*
X7832985Y6875919D01*
X7941425Y6827639D01*
X7990454Y6805810D01*
X8074987Y6787842D01*
X8159057Y6769972D01*
X8159061Y6769972D01*
X8165514Y6768600D01*
X8344486Y6768600D01*
X8350939Y6769972D01*
X8350943Y6769972D01*
X8435013Y6787842D01*
X8519546Y6805810D01*
X8568575Y6827639D01*
X8677015Y6875919D01*
X8677017Y6875920D01*
X8683045Y6878604D01*
X8726937Y6910494D01*
X8793806Y6934352D01*
X8857500Y6919981D01*
X8858295Y6919385D01*
X8994684Y6868255D01*
X9056866Y6861500D01*
X9468577Y6861500D01*
X9536698Y6841498D01*
X9583191Y6787842D01*
X9593295Y6717568D01*
X9563801Y6652988D01*
X9557674Y6646407D01*
X8961512Y6050245D01*
X8953193Y6042675D01*
X8946697Y6038553D01*
X8941271Y6032775D01*
X8941270Y6032774D01*
X8899915Y5988735D01*
X8897160Y5985893D01*
X8877361Y5966094D01*
X8874937Y5962969D01*
X8874929Y5962960D01*
X8874863Y5962874D01*
X8867155Y5953849D01*
X8836783Y5921506D01*
X8832965Y5914562D01*
X8832964Y5914560D01*
X8826978Y5903671D01*
X8816125Y5887150D01*
X8805504Y5873457D01*
X8804604Y5872297D01*
X8747047Y5830731D01*
X8676155Y5826882D01*
X8653797Y5834418D01*
X8525577Y5891505D01*
X8525576Y5891505D01*
X8519546Y5894190D01*
X8432016Y5912795D01*
X8350943Y5930028D01*
X8350939Y5930028D01*
X8344486Y5931400D01*
X8165514Y5931400D01*
X8159061Y5930028D01*
X8159057Y5930028D01*
X8077984Y5912795D01*
X7990454Y5894190D01*
X7984424Y5891505D01*
X7984423Y5891505D01*
X7832985Y5824081D01*
X7832983Y5824080D01*
X7826955Y5821396D01*
X7821615Y5817516D01*
X7783062Y5789506D01*
X7716194Y5765648D01*
X7652500Y5780019D01*
X7651705Y5780615D01*
X7515316Y5831745D01*
X7453134Y5838500D01*
X6856866Y5838500D01*
X6794684Y5831745D01*
X6658295Y5780615D01*
X6541739Y5693261D01*
X6454385Y5576705D01*
X6403255Y5440316D01*
X6396500Y5378134D01*
X6396500Y4781866D01*
X6403255Y4719684D01*
X6454385Y4583295D01*
X6541739Y4466739D01*
X6658295Y4379385D01*
X6794684Y4328255D01*
X6856866Y4321500D01*
X7453134Y4321500D01*
X7515316Y4328255D01*
X7651705Y4379385D01*
X7652448Y4379942D01*
X7717851Y4394246D01*
X7783063Y4370494D01*
X7826955Y4338604D01*
X7832983Y4335920D01*
X7832985Y4335919D01*
X7941425Y4287639D01*
X7990454Y4265810D01*
X8074987Y4247842D01*
X8159057Y4229972D01*
X8159061Y4229972D01*
X8165514Y4228600D01*
X8344486Y4228600D01*
X8350939Y4229972D01*
X8350943Y4229972D01*
X8435013Y4247842D01*
X8519546Y4265810D01*
X8568575Y4287639D01*
X8677015Y4335919D01*
X8677017Y4335920D01*
X8683045Y4338604D01*
X8726937Y4370494D01*
X8793806Y4394352D01*
X8857500Y4379981D01*
X8858295Y4379385D01*
X8994684Y4328255D01*
X9056866Y4321500D01*
X9468577Y4321500D01*
X9536698Y4301498D01*
X9583191Y4247842D01*
X9593295Y4177568D01*
X9563801Y4112988D01*
X9557674Y4106407D01*
X8961512Y3510245D01*
X8953193Y3502675D01*
X8946697Y3498553D01*
X8941271Y3492775D01*
X8941270Y3492774D01*
X8899915Y3448735D01*
X8897160Y3445893D01*
X8877361Y3426094D01*
X8874937Y3422969D01*
X8874929Y3422960D01*
X8874863Y3422874D01*
X8867155Y3413849D01*
X8836783Y3381506D01*
X8832965Y3374562D01*
X8832964Y3374560D01*
X8826978Y3363671D01*
X8816125Y3347150D01*
X8805504Y3333457D01*
X8804604Y3332297D01*
X8747047Y3290731D01*
X8676155Y3286882D01*
X8653797Y3294418D01*
X8525577Y3351505D01*
X8525576Y3351505D01*
X8519546Y3354190D01*
X8432016Y3372795D01*
X8350943Y3390028D01*
X8350939Y3390028D01*
X8344486Y3391400D01*
X8165514Y3391400D01*
X8159061Y3390028D01*
X8159057Y3390028D01*
X8077984Y3372795D01*
X7990454Y3354190D01*
X7984424Y3351505D01*
X7984423Y3351505D01*
X7832985Y3284081D01*
X7832983Y3284080D01*
X7826955Y3281396D01*
X7821615Y3277516D01*
X7783062Y3249506D01*
X7716194Y3225648D01*
X7652500Y3240019D01*
X7651705Y3240615D01*
X7515316Y3291745D01*
X7453134Y3298500D01*
X6856866Y3298500D01*
X6794684Y3291745D01*
X6658295Y3240615D01*
X6541739Y3153261D01*
X6454385Y3036705D01*
X6403255Y2900316D01*
X6396500Y2838134D01*
X6396500Y2241866D01*
X6403255Y2179684D01*
X6454385Y2043295D01*
X6541739Y1926739D01*
X6658295Y1839385D01*
X6794684Y1788255D01*
X6856866Y1781500D01*
X7453134Y1781500D01*
X7515316Y1788255D01*
X7651705Y1839385D01*
X7652448Y1839942D01*
X7717851Y1854246D01*
X7783063Y1830494D01*
X7826955Y1798604D01*
X7832983Y1795920D01*
X7832985Y1795919D01*
X7865371Y1781500D01*
X7990454Y1725810D01*
X8077984Y1707205D01*
X8159057Y1689972D01*
X8159061Y1689972D01*
X8165514Y1688600D01*
X8344486Y1688600D01*
X8350939Y1689972D01*
X8350943Y1689972D01*
X8432016Y1707205D01*
X8519546Y1725810D01*
X8644629Y1781500D01*
X8677015Y1795919D01*
X8677017Y1795920D01*
X8683045Y1798604D01*
X8726937Y1830494D01*
X8793806Y1854352D01*
X8857500Y1839981D01*
X8858295Y1839385D01*
X8994684Y1788255D01*
X9056866Y1781500D01*
X9653134Y1781500D01*
X9715316Y1788255D01*
X9851705Y1839385D01*
X9968261Y1926739D01*
X10055615Y2043295D01*
X10106745Y2179684D01*
X10113500Y2241866D01*
X10113500Y2812578D01*
X10133502Y2880699D01*
X10150405Y2901673D01*
X10271388Y3022656D01*
X10333700Y3056682D01*
X10404515Y3051617D01*
X10411731Y3048668D01*
X10524419Y2998496D01*
X10524427Y2998493D01*
X10530454Y2995810D01*
X10617984Y2977205D01*
X10699057Y2959972D01*
X10699061Y2959972D01*
X10705514Y2958600D01*
X10884486Y2958600D01*
X10890939Y2959972D01*
X10890943Y2959972D01*
X10972016Y2977205D01*
X11059546Y2995810D01*
X11078548Y3004270D01*
X11217015Y3065919D01*
X11217017Y3065920D01*
X11223045Y3068604D01*
X11335677Y3150436D01*
X11402545Y3174295D01*
X11409738Y3174500D01*
X15214244Y3174500D01*
X15282365Y3154498D01*
X15328858Y3100842D01*
X15338962Y3030568D01*
X15332227Y3004273D01*
X15293255Y2900316D01*
X15286500Y2838134D01*
X15286500Y2241866D01*
X15293255Y2179684D01*
X15344385Y2043295D01*
X15431739Y1926739D01*
X15548295Y1839385D01*
X15684684Y1788255D01*
X15746866Y1781500D01*
X16343134Y1781500D01*
X16405316Y1788255D01*
X16541705Y1839385D01*
X16542448Y1839942D01*
X16607851Y1854246D01*
X16673063Y1830494D01*
X16716955Y1798604D01*
X16722983Y1795920D01*
X16722985Y1795919D01*
X16755371Y1781500D01*
X16880454Y1725810D01*
X16967984Y1707205D01*
X17049057Y1689972D01*
X17049061Y1689972D01*
X17055514Y1688600D01*
X17234486Y1688600D01*
X17240939Y1689972D01*
X17240943Y1689972D01*
X17322016Y1707205D01*
X17409546Y1725810D01*
X17534629Y1781500D01*
X17567015Y1795919D01*
X17567017Y1795920D01*
X17573045Y1798604D01*
X17616937Y1830494D01*
X17683806Y1854352D01*
X17747500Y1839981D01*
X17748295Y1839385D01*
X17884684Y1788255D01*
X17946866Y1781500D01*
X18543134Y1781500D01*
X18605316Y1788255D01*
X18741705Y1839385D01*
X18858261Y1926739D01*
X18945615Y2043295D01*
X18996745Y2179684D01*
X19003500Y2241866D01*
X19003500Y2812578D01*
X19023502Y2880698D01*
X19040405Y2901673D01*
X19276329Y3137596D01*
X19338641Y3171621D01*
X19365424Y3174500D01*
X24104244Y3174500D01*
X24172365Y3154498D01*
X24218858Y3100842D01*
X24228962Y3030568D01*
X24222227Y3004273D01*
X24183255Y2900316D01*
X24176500Y2838134D01*
X24176500Y2241866D01*
X24183255Y2179684D01*
X24234385Y2043295D01*
X24321739Y1926739D01*
X24438295Y1839385D01*
X24574684Y1788255D01*
X24636866Y1781500D01*
X25233134Y1781500D01*
X25295316Y1788255D01*
X25431705Y1839385D01*
X25432448Y1839942D01*
X25497851Y1854246D01*
X25563063Y1830494D01*
X25606955Y1798604D01*
X25612983Y1795920D01*
X25612985Y1795919D01*
X25645371Y1781500D01*
X25770454Y1725810D01*
X25857984Y1707205D01*
X25939057Y1689972D01*
X25939061Y1689972D01*
X25945514Y1688600D01*
X26124486Y1688600D01*
X26130939Y1689972D01*
X26130943Y1689972D01*
X26212016Y1707205D01*
X26299546Y1725810D01*
X26424629Y1781500D01*
X26457015Y1795919D01*
X26457017Y1795920D01*
X26463045Y1798604D01*
X26506937Y1830494D01*
X26573806Y1854352D01*
X26637500Y1839981D01*
X26638295Y1839385D01*
X26774684Y1788255D01*
X26836866Y1781500D01*
X27433134Y1781500D01*
X27495316Y1788255D01*
X27631705Y1839385D01*
X27748261Y1926739D01*
X27835615Y2043295D01*
X27886745Y2179684D01*
X27893500Y2241866D01*
X27893500Y2812578D01*
X27913502Y2880698D01*
X27930405Y2901673D01*
X28166329Y3137596D01*
X28228641Y3171621D01*
X28255424Y3174500D01*
X32994244Y3174500D01*
X33062365Y3154498D01*
X33108858Y3100842D01*
X33118962Y3030568D01*
X33112227Y3004273D01*
X33073255Y2900316D01*
X33066500Y2838134D01*
X33066500Y2241866D01*
X33073255Y2179684D01*
X33124385Y2043295D01*
X33211739Y1926739D01*
X33328295Y1839385D01*
X33464684Y1788255D01*
X33526866Y1781500D01*
X34123134Y1781500D01*
X34185316Y1788255D01*
X34321705Y1839385D01*
X34322448Y1839942D01*
X34387851Y1854246D01*
X34453063Y1830494D01*
X34496955Y1798604D01*
X34502983Y1795920D01*
X34502985Y1795919D01*
X34535371Y1781500D01*
X34660454Y1725810D01*
X34747984Y1707205D01*
X34829057Y1689972D01*
X34829061Y1689972D01*
X34835514Y1688600D01*
X35014486Y1688600D01*
X35020939Y1689972D01*
X35020943Y1689972D01*
X35102016Y1707205D01*
X35189546Y1725810D01*
X35314629Y1781500D01*
X35347015Y1795919D01*
X35347017Y1795920D01*
X35353045Y1798604D01*
X35396937Y1830494D01*
X35463806Y1854352D01*
X35527500Y1839981D01*
X35528295Y1839385D01*
X35664684Y1788255D01*
X35726866Y1781500D01*
X36323134Y1781500D01*
X36385316Y1788255D01*
X36521705Y1839385D01*
X36638261Y1926739D01*
X36725615Y2043295D01*
X36776745Y2179684D01*
X36783500Y2241866D01*
X36783500Y2812578D01*
X36803502Y2880698D01*
X36820405Y2901673D01*
X37056329Y3137596D01*
X37118641Y3171621D01*
X37145424Y3174500D01*
X41884244Y3174500D01*
X41952365Y3154498D01*
X41998858Y3100842D01*
X42008962Y3030568D01*
X42002227Y3004273D01*
X41963255Y2900316D01*
X41956500Y2838134D01*
X41956500Y2241866D01*
X41963255Y2179684D01*
X42014385Y2043295D01*
X42101739Y1926739D01*
X42218295Y1839385D01*
X42354684Y1788255D01*
X42416866Y1781500D01*
X43013134Y1781500D01*
X43075316Y1788255D01*
X43211705Y1839385D01*
X43212448Y1839942D01*
X43277851Y1854246D01*
X43343063Y1830494D01*
X43386955Y1798604D01*
X43392983Y1795920D01*
X43392985Y1795919D01*
X43425371Y1781500D01*
X43550454Y1725810D01*
X43637984Y1707205D01*
X43719057Y1689972D01*
X43719061Y1689972D01*
X43725514Y1688600D01*
X43904486Y1688600D01*
X43910939Y1689972D01*
X43910943Y1689972D01*
X43992016Y1707205D01*
X44079546Y1725810D01*
X44204629Y1781500D01*
X44237015Y1795919D01*
X44237017Y1795920D01*
X44243045Y1798604D01*
X44286937Y1830494D01*
X44353806Y1854352D01*
X44417500Y1839981D01*
X44418295Y1839385D01*
X44554684Y1788255D01*
X44616866Y1781500D01*
X45213134Y1781500D01*
X45275316Y1788255D01*
X45411705Y1839385D01*
X45528261Y1926739D01*
X45615615Y2043295D01*
X45666745Y2179684D01*
X45673500Y2241866D01*
X45673500Y2838134D01*
X45666745Y2900316D01*
X45663973Y2907712D01*
X45663971Y2907718D01*
X45629831Y2998785D01*
X45624648Y3069592D01*
X45658569Y3131961D01*
X45720824Y3166090D01*
X45791648Y3161143D01*
X45821874Y3144950D01*
X45926955Y3068604D01*
X45932983Y3065920D01*
X45932985Y3065919D01*
X46071452Y3004270D01*
X46090454Y2995810D01*
X46177984Y2977205D01*
X46259057Y2959972D01*
X46259061Y2959972D01*
X46265514Y2958600D01*
X46444486Y2958600D01*
X46450939Y2959972D01*
X46450943Y2959972D01*
X46532016Y2977205D01*
X46619546Y2995810D01*
X46638548Y3004270D01*
X46777015Y3065919D01*
X46777017Y3065920D01*
X46783045Y3068604D01*
X46827417Y3100842D01*
X46922492Y3169918D01*
X46922494Y3169920D01*
X46927836Y3173801D01*
X46990831Y3243764D01*
X47043172Y3301895D01*
X47043173Y3301896D01*
X47047591Y3306803D01*
X47137077Y3461797D01*
X47192382Y3632009D01*
X47211090Y3810000D01*
X47192382Y3987991D01*
X47137077Y4158203D01*
X47047591Y4313197D01*
X47041739Y4319697D01*
X46932258Y4441288D01*
X46932257Y4441289D01*
X46927836Y4446199D01*
X46906972Y4461358D01*
X46788387Y4547515D01*
X46788386Y4547516D01*
X46783045Y4551396D01*
X46777017Y4554080D01*
X46777015Y4554081D01*
X46625577Y4621505D01*
X46625576Y4621505D01*
X46619546Y4624190D01*
X46532016Y4642795D01*
X46450943Y4660028D01*
X46450939Y4660028D01*
X46444486Y4661400D01*
X46265514Y4661400D01*
X46259061Y4660028D01*
X46259057Y4660028D01*
X46177984Y4642795D01*
X46090454Y4624190D01*
X46084424Y4621505D01*
X46084423Y4621505D01*
X45932985Y4554081D01*
X45932983Y4554080D01*
X45926955Y4551396D01*
X45921614Y4547516D01*
X45921613Y4547515D01*
X45821874Y4475050D01*
X45755006Y4451192D01*
X45685855Y4467272D01*
X45636375Y4518186D01*
X45622275Y4587768D01*
X45629831Y4621215D01*
X45663971Y4712282D01*
X45663973Y4712288D01*
X45666745Y4719684D01*
X45673500Y4781866D01*
X45673500Y5378134D01*
X45666745Y5440316D01*
X45615615Y5576705D01*
X45528261Y5693261D01*
X45411705Y5780615D01*
X45387988Y5789506D01*
X45282709Y5828974D01*
X45282705Y5828975D01*
X45275316Y5831745D01*
X45267468Y5832598D01*
X45259778Y5834426D01*
X45260296Y5836605D01*
X45205251Y5859480D01*
X45195331Y5868402D01*
X44391278Y6672455D01*
X44357252Y6734767D01*
X44362317Y6805582D01*
X44404864Y6862418D01*
X44471384Y6887229D01*
X44524602Y6879532D01*
X44554684Y6868255D01*
X44616866Y6861500D01*
X45213134Y6861500D01*
X45275316Y6868255D01*
X45411705Y6919385D01*
X45528261Y7006739D01*
X45615615Y7123295D01*
X45666745Y7259684D01*
X45673500Y7321866D01*
X45673500Y7918134D01*
X45666745Y7980316D01*
X45615615Y8116705D01*
X45528261Y8233261D01*
X45411705Y8320615D01*
X45387988Y8329506D01*
X45282709Y8368974D01*
X45282705Y8368975D01*
X45275316Y8371745D01*
X45267468Y8372598D01*
X45259778Y8374426D01*
X45260296Y8376605D01*
X45205251Y8399480D01*
X45195331Y8408402D01*
X44391278Y9212455D01*
X44357252Y9274767D01*
X44362317Y9345582D01*
X44404864Y9402418D01*
X44471384Y9427229D01*
X44524602Y9419532D01*
X44554684Y9408255D01*
X44616866Y9401500D01*
X45213134Y9401500D01*
X45275316Y9408255D01*
X45411705Y9459385D01*
X45528261Y9546739D01*
X45615615Y9663295D01*
X45666745Y9799684D01*
X45673500Y9861866D01*
X45673500Y10458134D01*
X45666745Y10520316D01*
X45615615Y10656705D01*
X45528261Y10773261D01*
X45411705Y10860615D01*
X45387988Y10869506D01*
X45282709Y10908974D01*
X45282705Y10908975D01*
X45275316Y10911745D01*
X45267468Y10912598D01*
X45259778Y10914426D01*
X45260296Y10916605D01*
X45205251Y10939480D01*
X45195331Y10948402D01*
X44391278Y11752455D01*
X44357252Y11814767D01*
X44362317Y11885582D01*
X44404864Y11942418D01*
X44471384Y11967229D01*
X44524602Y11959532D01*
X44554684Y11948255D01*
X44616866Y11941500D01*
X45213134Y11941500D01*
X45275316Y11948255D01*
X45411705Y11999385D01*
X45528261Y12086739D01*
X45615615Y12203295D01*
X45666745Y12339684D01*
X45673500Y12401866D01*
X45673500Y12998134D01*
X45666745Y13060316D01*
X45615615Y13196705D01*
X45528261Y13313261D01*
X45411705Y13400615D01*
X45387988Y13409506D01*
X45282709Y13448974D01*
X45282705Y13448975D01*
X45275316Y13451745D01*
X45267468Y13452598D01*
X45259778Y13454426D01*
X45260296Y13456605D01*
X45205251Y13479480D01*
X45195331Y13488402D01*
X44320250Y14363483D01*
X44312675Y14371807D01*
X44308553Y14378303D01*
X44305791Y14380896D01*
X44278511Y14444446D01*
X44290223Y14514470D01*
X44329546Y14561451D01*
X44346947Y14574093D01*
X44363825Y14586356D01*
X44382492Y14599918D01*
X44382494Y14599920D01*
X44387836Y14603801D01*
X44392513Y14608995D01*
X44503172Y14731895D01*
X44503173Y14731896D01*
X44507591Y14736803D01*
X44597077Y14891797D01*
X44652382Y15062009D01*
X44662849Y15161589D01*
X44670400Y15233435D01*
X44671090Y15240000D01*
X44652382Y15417991D01*
X44597077Y15588203D01*
X44590087Y15600311D01*
X44510892Y15737479D01*
X44507591Y15743197D01*
X44468118Y15787037D01*
X44392258Y15871288D01*
X44392257Y15871289D01*
X44387836Y15876199D01*
X44356377Y15899056D01*
X44248387Y15977515D01*
X44248386Y15977516D01*
X44243045Y15981396D01*
X44237017Y15984080D01*
X44237015Y15984081D01*
X44085577Y16051505D01*
X44085576Y16051505D01*
X44079546Y16054190D01*
X43904486Y16091400D01*
X43901347Y16091400D01*
X43836878Y16117921D01*
X43826607Y16127126D01*
X43659328Y16294405D01*
X43625302Y16356717D01*
X43630367Y16427532D01*
X43672914Y16484368D01*
X43739434Y16509179D01*
X43748423Y16509500D01*
X45740262Y16509500D01*
X45808383Y16489498D01*
X45814323Y16485436D01*
X45926955Y16403604D01*
X45932983Y16400920D01*
X45932985Y16400919D01*
X46073018Y16338573D01*
X46090454Y16330810D01*
X46177984Y16312205D01*
X46259057Y16294972D01*
X46259061Y16294972D01*
X46265514Y16293600D01*
X46444486Y16293600D01*
X46450939Y16294972D01*
X46450943Y16294972D01*
X46532016Y16312205D01*
X46619546Y16330810D01*
X46636982Y16338573D01*
X46777015Y16400919D01*
X46777017Y16400920D01*
X46783045Y16403604D01*
X46901268Y16489498D01*
X46922492Y16504918D01*
X46922494Y16504920D01*
X46927836Y16508801D01*
X47047591Y16641803D01*
X47137077Y16796797D01*
X47192382Y16967009D01*
X47211090Y17145000D01*
X47192382Y17322991D01*
X47181785Y17355607D01*
X47148333Y17458560D01*
X47137077Y17493203D01*
X47131893Y17502183D01*
X47050892Y17642479D01*
X47047591Y17648197D01*
X47018813Y17680159D01*
X46932258Y17776288D01*
X46932257Y17776289D01*
X46927836Y17781199D01*
X46801163Y17873233D01*
X46788387Y17882515D01*
X46788386Y17882516D01*
X46783045Y17886396D01*
X46777017Y17889080D01*
X46777015Y17889081D01*
X46625577Y17956505D01*
X46625576Y17956505D01*
X46619546Y17959190D01*
X46532016Y17977795D01*
X46450943Y17995028D01*
X46450939Y17995028D01*
X46444486Y17996400D01*
X46265514Y17996400D01*
X46259061Y17995028D01*
X46259057Y17995028D01*
X46177984Y17977795D01*
X46090454Y17959190D01*
X46084424Y17956505D01*
X46084423Y17956505D01*
X45932985Y17889081D01*
X45932983Y17889080D01*
X45926955Y17886396D01*
X45921614Y17882516D01*
X45921613Y17882515D01*
X45814323Y17804564D01*
X45747455Y17780705D01*
X45740262Y17780500D01*
X43495423Y17780500D01*
X43427302Y17800502D01*
X43406328Y17817405D01*
X43387405Y17836328D01*
X43353379Y17898640D01*
X43350500Y17925423D01*
X43350500Y18130812D01*
X43370502Y18198933D01*
X43424158Y18245426D01*
X43494432Y18255530D01*
X43527748Y18245919D01*
X43550454Y18235810D01*
X43637984Y18217205D01*
X43719057Y18199972D01*
X43719061Y18199972D01*
X43725514Y18198600D01*
X43904486Y18198600D01*
X43910939Y18199972D01*
X43910943Y18199972D01*
X43992016Y18217205D01*
X44079546Y18235810D01*
X44101144Y18245426D01*
X44237015Y18305919D01*
X44237017Y18305920D01*
X44243045Y18308604D01*
X44286937Y18340494D01*
X44353806Y18364352D01*
X44417500Y18349981D01*
X44418295Y18349385D01*
X44554684Y18298255D01*
X44616866Y18291500D01*
X45213134Y18291500D01*
X45275316Y18298255D01*
X45411705Y18349385D01*
X45528261Y18436739D01*
X45615615Y18553295D01*
X45666745Y18689684D01*
X45673500Y18751866D01*
X45673500Y19348134D01*
X45666745Y19410316D01*
X45615615Y19546705D01*
X45528261Y19663261D01*
X45411705Y19750615D01*
X45275316Y19801745D01*
X45213134Y19808500D01*
X44616866Y19808500D01*
X44554684Y19801745D01*
X44418295Y19750615D01*
X44417552Y19750058D01*
X44352149Y19735754D01*
X44286938Y19759506D01*
X44268843Y19772652D01*
X44243045Y19791396D01*
X44237017Y19794080D01*
X44237015Y19794081D01*
X44085577Y19861505D01*
X44085576Y19861505D01*
X44079546Y19864190D01*
X43992016Y19882795D01*
X43910943Y19900028D01*
X43910939Y19900028D01*
X43904486Y19901400D01*
X43725514Y19901400D01*
X43719061Y19900028D01*
X43719057Y19900028D01*
X43637984Y19882795D01*
X43550454Y19864190D01*
X43544424Y19861505D01*
X43544423Y19861505D01*
X43392985Y19794081D01*
X43392983Y19794080D01*
X43386955Y19791396D01*
X43361157Y19772652D01*
X43343062Y19759506D01*
X43276194Y19735648D01*
X43212500Y19750019D01*
X43211705Y19750615D01*
X43075316Y19801745D01*
X43013134Y19808500D01*
X42416866Y19808500D01*
X42354684Y19801745D01*
X42218295Y19750615D01*
X42101739Y19663261D01*
X42014385Y19546705D01*
X41963255Y19410316D01*
X41956500Y19348134D01*
X41956500Y18751866D01*
X41963255Y18689684D01*
X42014385Y18553295D01*
X42019771Y18546109D01*
X42054326Y18500002D01*
X42079174Y18433496D01*
X42079500Y18424437D01*
X42079500Y17689020D01*
X42078970Y17677786D01*
X42077292Y17670281D01*
X42077541Y17662362D01*
X42079438Y17601988D01*
X42079500Y17598031D01*
X42079500Y17570017D01*
X42079996Y17566092D01*
X42079996Y17566091D01*
X42080008Y17565996D01*
X42080941Y17554151D01*
X42082335Y17509795D01*
X42084547Y17502183D01*
X42088013Y17490252D01*
X42092023Y17470888D01*
X42094573Y17450701D01*
X42097489Y17443337D01*
X42097490Y17443332D01*
X42110907Y17409444D01*
X42114752Y17398215D01*
X42127131Y17355607D01*
X42131169Y17348780D01*
X42131170Y17348777D01*
X42137488Y17338094D01*
X42146191Y17320328D01*
X42147162Y17317875D01*
X42153637Y17247174D01*
X42120859Y17184197D01*
X42059237Y17148937D01*
X42030007Y17145500D01*
X24109738Y17145500D01*
X24041617Y17165502D01*
X24035677Y17169564D01*
X23928387Y17247515D01*
X23928386Y17247516D01*
X23923045Y17251396D01*
X23917017Y17254080D01*
X23917015Y17254081D01*
X23765577Y17321505D01*
X23765576Y17321505D01*
X23759546Y17324190D01*
X23672016Y17342795D01*
X23590943Y17360028D01*
X23590939Y17360028D01*
X23584486Y17361400D01*
X23405514Y17361400D01*
X23399061Y17360028D01*
X23399057Y17360028D01*
X23317984Y17342795D01*
X23230454Y17324190D01*
X23224424Y17321505D01*
X23224423Y17321505D01*
X23072985Y17254081D01*
X23072983Y17254080D01*
X23066955Y17251396D01*
X23061614Y17247516D01*
X23061613Y17247515D01*
X22929550Y17151565D01*
X22922164Y17146199D01*
X22802409Y17013197D01*
X22712923Y16858203D01*
X22657618Y16687991D01*
X22638910Y16510000D01*
X22657618Y16332009D01*
X22712923Y16161797D01*
X22802409Y16006803D01*
X22806827Y16001896D01*
X22806828Y16001895D01*
X22917742Y15878712D01*
X22922164Y15873801D01*
X22927506Y15869920D01*
X22927508Y15869918D01*
X23020099Y15802647D01*
X23066955Y15768604D01*
X23072983Y15765920D01*
X23072985Y15765919D01*
X23224423Y15698495D01*
X23230454Y15695810D01*
X23316022Y15677622D01*
X23399057Y15659972D01*
X23399061Y15659972D01*
X23405514Y15658600D01*
X23584486Y15658600D01*
X23590939Y15659972D01*
X23590943Y15659972D01*
X23673978Y15677622D01*
X23759546Y15695810D01*
X23765577Y15698495D01*
X23917015Y15765919D01*
X23917017Y15765920D01*
X23923045Y15768604D01*
X23986995Y15815066D01*
X24035677Y15850436D01*
X24102545Y15874295D01*
X24109738Y15874500D01*
X42229578Y15874500D01*
X42297699Y15854498D01*
X42318673Y15837595D01*
X42932367Y15223901D01*
X42966393Y15161589D01*
X42968582Y15147977D01*
X42977618Y15062009D01*
X43032923Y14891797D01*
X43077833Y14814012D01*
X43089098Y14794500D01*
X43105836Y14725505D01*
X43082616Y14658413D01*
X43026809Y14614526D01*
X42979979Y14605500D01*
X41889738Y14605500D01*
X41821617Y14625502D01*
X41815677Y14629564D01*
X41708387Y14707515D01*
X41708386Y14707516D01*
X41703045Y14711396D01*
X41697017Y14714080D01*
X41697015Y14714081D01*
X41545577Y14781505D01*
X41545576Y14781505D01*
X41539546Y14784190D01*
X41452016Y14802795D01*
X41370943Y14820028D01*
X41370939Y14820028D01*
X41364486Y14821400D01*
X41185514Y14821400D01*
X41179061Y14820028D01*
X41179057Y14820028D01*
X41097984Y14802795D01*
X41010454Y14784190D01*
X41004424Y14781505D01*
X41004423Y14781505D01*
X40852985Y14714081D01*
X40852983Y14714080D01*
X40846955Y14711396D01*
X40841614Y14707516D01*
X40841613Y14707515D01*
X40734323Y14629564D01*
X40667455Y14605705D01*
X40660262Y14605500D01*
X36909032Y14605500D01*
X36897793Y14606030D01*
X36890281Y14607709D01*
X36882356Y14607460D01*
X36882355Y14607460D01*
X36821970Y14605562D01*
X36818012Y14605500D01*
X36790017Y14605500D01*
X36786083Y14605003D01*
X36786081Y14605003D01*
X36785994Y14604992D01*
X36774160Y14604060D01*
X36729795Y14602665D01*
X36722182Y14600453D01*
X36722181Y14600453D01*
X36710252Y14596987D01*
X36690888Y14592977D01*
X36678560Y14591420D01*
X36678558Y14591420D01*
X36670701Y14590427D01*
X36663337Y14587511D01*
X36663332Y14587510D01*
X36629444Y14574093D01*
X36618215Y14570248D01*
X36602111Y14565569D01*
X36575607Y14557869D01*
X36568780Y14553831D01*
X36568777Y14553830D01*
X36558094Y14547512D01*
X36540336Y14538812D01*
X36528785Y14534239D01*
X36528779Y14534235D01*
X36521412Y14531319D01*
X36515001Y14526661D01*
X36514999Y14526660D01*
X36485512Y14505236D01*
X36475590Y14498719D01*
X36444232Y14480174D01*
X36444228Y14480171D01*
X36437402Y14476134D01*
X36423018Y14461750D01*
X36407984Y14448909D01*
X36391513Y14436942D01*
X36381169Y14424438D01*
X36363227Y14402750D01*
X36355237Y14393970D01*
X35966595Y14005328D01*
X35904283Y13971302D01*
X35833468Y13976367D01*
X35788405Y14005328D01*
X35430250Y14363483D01*
X35422674Y14371809D01*
X35418553Y14378303D01*
X35368734Y14425086D01*
X35365893Y14427840D01*
X35346094Y14447639D01*
X35342969Y14450063D01*
X35342960Y14450071D01*
X35342874Y14450137D01*
X35333849Y14457845D01*
X35307285Y14482790D01*
X35301506Y14488217D01*
X35283669Y14498023D01*
X35267153Y14508873D01*
X35251067Y14521350D01*
X35210334Y14538976D01*
X35199686Y14544193D01*
X35174809Y14557869D01*
X35160803Y14565569D01*
X35153128Y14567540D01*
X35153122Y14567542D01*
X35141089Y14570631D01*
X35122387Y14577034D01*
X35103708Y14585117D01*
X35063913Y14591420D01*
X35059873Y14592060D01*
X35048260Y14594465D01*
X35005282Y14605500D01*
X34984935Y14605500D01*
X34965224Y14607051D01*
X34952950Y14608995D01*
X34945121Y14610235D01*
X34937229Y14609489D01*
X34900944Y14606059D01*
X34889086Y14605500D01*
X28019032Y14605500D01*
X28007793Y14606030D01*
X28000281Y14607709D01*
X27992356Y14607460D01*
X27992355Y14607460D01*
X27931970Y14605562D01*
X27928012Y14605500D01*
X27900017Y14605500D01*
X27896083Y14605003D01*
X27896081Y14605003D01*
X27895994Y14604992D01*
X27884160Y14604060D01*
X27839795Y14602665D01*
X27832182Y14600453D01*
X27832181Y14600453D01*
X27820252Y14596987D01*
X27800888Y14592977D01*
X27788560Y14591420D01*
X27788558Y14591420D01*
X27780701Y14590427D01*
X27773337Y14587511D01*
X27773332Y14587510D01*
X27739444Y14574093D01*
X27728215Y14570248D01*
X27712111Y14565569D01*
X27685607Y14557869D01*
X27678780Y14553831D01*
X27678777Y14553830D01*
X27668094Y14547512D01*
X27650336Y14538812D01*
X27638785Y14534239D01*
X27638779Y14534235D01*
X27631412Y14531319D01*
X27625001Y14526661D01*
X27624999Y14526660D01*
X27595512Y14505236D01*
X27585590Y14498719D01*
X27554232Y14480174D01*
X27554228Y14480171D01*
X27547402Y14476134D01*
X27533018Y14461750D01*
X27517984Y14448909D01*
X27501513Y14436942D01*
X27491169Y14424438D01*
X27473227Y14402750D01*
X27465237Y14393970D01*
X27076595Y14005328D01*
X27014283Y13971302D01*
X26943468Y13976367D01*
X26898405Y14005328D01*
X26540250Y14363483D01*
X26532674Y14371809D01*
X26528553Y14378303D01*
X26478734Y14425086D01*
X26475893Y14427840D01*
X26456094Y14447639D01*
X26452969Y14450063D01*
X26452960Y14450071D01*
X26452874Y14450137D01*
X26443849Y14457845D01*
X26417285Y14482790D01*
X26411506Y14488217D01*
X26393669Y14498023D01*
X26377153Y14508873D01*
X26361067Y14521350D01*
X26320334Y14538976D01*
X26309686Y14544193D01*
X26284809Y14557869D01*
X26270803Y14565569D01*
X26263128Y14567540D01*
X26263122Y14567542D01*
X26251089Y14570631D01*
X26232387Y14577034D01*
X26213708Y14585117D01*
X26173913Y14591420D01*
X26169873Y14592060D01*
X26158260Y14594465D01*
X26115282Y14605500D01*
X26094935Y14605500D01*
X26075224Y14607051D01*
X26062950Y14608995D01*
X26055121Y14610235D01*
X26047229Y14609489D01*
X26010944Y14606059D01*
X25999086Y14605500D01*
X20934738Y14605500D01*
X20866617Y14625502D01*
X20860677Y14629564D01*
X20753387Y14707515D01*
X20753386Y14707516D01*
X20748045Y14711396D01*
X20742017Y14714080D01*
X20742015Y14714081D01*
X20590577Y14781505D01*
X20590576Y14781505D01*
X20584546Y14784190D01*
X20497016Y14802795D01*
X20415943Y14820028D01*
X20415939Y14820028D01*
X20409486Y14821400D01*
X20230514Y14821400D01*
X20224061Y14820028D01*
X20224057Y14820028D01*
X20142984Y14802795D01*
X20055454Y14784190D01*
X20049424Y14781505D01*
X20049423Y14781505D01*
X19897985Y14714081D01*
X19897983Y14714080D01*
X19891955Y14711396D01*
X19886614Y14707516D01*
X19886613Y14707515D01*
X19779323Y14629564D01*
X19712455Y14605705D01*
X19705262Y14605500D01*
X19129032Y14605500D01*
X19117793Y14606030D01*
X19110281Y14607709D01*
X19102356Y14607460D01*
X19102355Y14607460D01*
X19041970Y14605562D01*
X19038012Y14605500D01*
X19010017Y14605500D01*
X19006083Y14605003D01*
X19006081Y14605003D01*
X19005994Y14604992D01*
X18994160Y14604060D01*
X18949795Y14602665D01*
X18942182Y14600453D01*
X18942181Y14600453D01*
X18930252Y14596987D01*
X18910888Y14592977D01*
X18898560Y14591420D01*
X18898558Y14591420D01*
X18890701Y14590427D01*
X18883337Y14587511D01*
X18883332Y14587510D01*
X18849444Y14574093D01*
X18838215Y14570248D01*
X18822111Y14565569D01*
X18795607Y14557869D01*
X18788780Y14553831D01*
X18788777Y14553830D01*
X18778094Y14547512D01*
X18760336Y14538812D01*
X18748785Y14534239D01*
X18748779Y14534235D01*
X18741412Y14531319D01*
X18735001Y14526661D01*
X18734999Y14526660D01*
X18705512Y14505236D01*
X18695590Y14498719D01*
X18664232Y14480174D01*
X18664228Y14480171D01*
X18657402Y14476134D01*
X18643018Y14461750D01*
X18627984Y14448909D01*
X18611513Y14436942D01*
X18601169Y14424438D01*
X18583227Y14402750D01*
X18575237Y14393970D01*
X18186595Y14005328D01*
X18124283Y13971302D01*
X18053468Y13976367D01*
X18008405Y14005328D01*
X17650250Y14363483D01*
X17642674Y14371809D01*
X17638553Y14378303D01*
X17588734Y14425086D01*
X17585893Y14427840D01*
X17566094Y14447639D01*
X17562969Y14450063D01*
X17562960Y14450071D01*
X17562874Y14450137D01*
X17553849Y14457845D01*
X17527285Y14482790D01*
X17521506Y14488217D01*
X17503669Y14498023D01*
X17487153Y14508873D01*
X17471067Y14521350D01*
X17430334Y14538976D01*
X17419686Y14544193D01*
X17394809Y14557869D01*
X17380803Y14565569D01*
X17373128Y14567540D01*
X17373122Y14567542D01*
X17361089Y14570631D01*
X17342387Y14577034D01*
X17323708Y14585117D01*
X17283913Y14591420D01*
X17279873Y14592060D01*
X17268260Y14594465D01*
X17225282Y14605500D01*
X17204935Y14605500D01*
X17185224Y14607051D01*
X17172950Y14608995D01*
X17165121Y14610235D01*
X17157229Y14609489D01*
X17120944Y14606059D01*
X17109086Y14605500D01*
X10728423Y14605500D01*
X10660302Y14625502D01*
X10613809Y14679158D01*
X10603705Y14749432D01*
X10633199Y14814012D01*
X10639328Y14820596D01*
X11188488Y15369755D01*
X11196807Y15377325D01*
X11203303Y15381447D01*
X11250086Y15431266D01*
X11252840Y15434107D01*
X11272639Y15453906D01*
X11275068Y15457037D01*
X11275072Y15457042D01*
X11275139Y15457128D01*
X11282847Y15466153D01*
X11307792Y15492717D01*
X11313217Y15498494D01*
X11317035Y15505439D01*
X11317038Y15505443D01*
X11323026Y15516334D01*
X11333878Y15532855D01*
X11335847Y15535394D01*
X11346350Y15548934D01*
X11363971Y15589655D01*
X11369192Y15600311D01*
X11386748Y15632245D01*
X11386750Y15632251D01*
X11390569Y15639197D01*
X11392540Y15646872D01*
X11392542Y15646878D01*
X11395631Y15658911D01*
X11402034Y15677613D01*
X11410117Y15696292D01*
X11411357Y15704118D01*
X11411358Y15704123D01*
X11417060Y15740120D01*
X11419466Y15751740D01*
X11428528Y15787037D01*
X11428528Y15787038D01*
X11430500Y15794718D01*
X11430500Y15815066D01*
X11432051Y15834777D01*
X11433995Y15847051D01*
X11435235Y15854880D01*
X11431059Y15899056D01*
X11430500Y15910914D01*
X11430500Y19050000D01*
X20098910Y19050000D01*
X20117618Y18872009D01*
X20172923Y18701797D01*
X20262409Y18546803D01*
X20266827Y18541896D01*
X20266828Y18541895D01*
X20366356Y18431358D01*
X20382164Y18413801D01*
X20387506Y18409920D01*
X20387508Y18409918D01*
X20475159Y18346236D01*
X20526955Y18308604D01*
X20532983Y18305920D01*
X20532985Y18305919D01*
X20668856Y18245426D01*
X20690454Y18235810D01*
X20777984Y18217205D01*
X20859057Y18199972D01*
X20859061Y18199972D01*
X20865514Y18198600D01*
X21044486Y18198600D01*
X21050939Y18199972D01*
X21050943Y18199972D01*
X21132016Y18217205D01*
X21219546Y18235810D01*
X21241144Y18245426D01*
X21377015Y18305919D01*
X21377017Y18305920D01*
X21383045Y18308604D01*
X21459776Y18364352D01*
X21495677Y18390436D01*
X21562545Y18414295D01*
X21569738Y18414500D01*
X34310262Y18414500D01*
X34378383Y18394498D01*
X34384323Y18390436D01*
X34420225Y18364352D01*
X34496955Y18308604D01*
X34502983Y18305920D01*
X34502985Y18305919D01*
X34638856Y18245426D01*
X34660454Y18235810D01*
X34747984Y18217205D01*
X34829057Y18199972D01*
X34829061Y18199972D01*
X34835514Y18198600D01*
X35014486Y18198600D01*
X35020939Y18199972D01*
X35020943Y18199972D01*
X35102016Y18217205D01*
X35189546Y18235810D01*
X35211144Y18245426D01*
X35347015Y18305919D01*
X35347017Y18305920D01*
X35353045Y18308604D01*
X35404841Y18346236D01*
X35492492Y18409918D01*
X35492494Y18409920D01*
X35497836Y18413801D01*
X35513644Y18431358D01*
X35613172Y18541895D01*
X35613173Y18541896D01*
X35617591Y18546803D01*
X35707077Y18701797D01*
X35762382Y18872009D01*
X35781090Y19050000D01*
X35762382Y19227991D01*
X35707077Y19398203D01*
X35617591Y19553197D01*
X35518490Y19663261D01*
X35502258Y19681288D01*
X35502257Y19681289D01*
X35497836Y19686199D01*
X35490451Y19691565D01*
X35358387Y19787515D01*
X35358386Y19787516D01*
X35353045Y19791396D01*
X35347017Y19794080D01*
X35347015Y19794081D01*
X35195577Y19861505D01*
X35195576Y19861505D01*
X35189546Y19864190D01*
X35102016Y19882795D01*
X35020943Y19900028D01*
X35020939Y19900028D01*
X35014486Y19901400D01*
X34835514Y19901400D01*
X34829061Y19900028D01*
X34829057Y19900028D01*
X34747984Y19882795D01*
X34660454Y19864190D01*
X34654424Y19861505D01*
X34654423Y19861505D01*
X34502985Y19794081D01*
X34502983Y19794080D01*
X34496955Y19791396D01*
X34491614Y19787516D01*
X34491613Y19787515D01*
X34384323Y19709564D01*
X34317455Y19685705D01*
X34310262Y19685500D01*
X21569738Y19685500D01*
X21501617Y19705502D01*
X21495677Y19709564D01*
X21388387Y19787515D01*
X21388386Y19787516D01*
X21383045Y19791396D01*
X21377017Y19794080D01*
X21377015Y19794081D01*
X21225577Y19861505D01*
X21225576Y19861505D01*
X21219546Y19864190D01*
X21132016Y19882795D01*
X21050943Y19900028D01*
X21050939Y19900028D01*
X21044486Y19901400D01*
X20865514Y19901400D01*
X20859061Y19900028D01*
X20859057Y19900028D01*
X20777984Y19882795D01*
X20690454Y19864190D01*
X20684424Y19861505D01*
X20684423Y19861505D01*
X20532985Y19794081D01*
X20532983Y19794080D01*
X20526955Y19791396D01*
X20521614Y19787516D01*
X20521613Y19787515D01*
X20389550Y19691565D01*
X20382164Y19686199D01*
X20377743Y19681289D01*
X20377742Y19681288D01*
X20361511Y19663261D01*
X20262409Y19553197D01*
X20172923Y19398203D01*
X20117618Y19227991D01*
X20098910Y19050000D01*
X11430500Y19050000D01*
X11430500Y19070031D01*
X11450502Y19138152D01*
X11462858Y19154335D01*
X11487591Y19181803D01*
X11577077Y19336797D01*
X11632382Y19507009D01*
X11651090Y19685000D01*
X11644161Y19750923D01*
X11633072Y19856427D01*
X11633072Y19856428D01*
X11632382Y19862991D01*
X11581907Y20018339D01*
X11579880Y20089307D01*
X11616542Y20150105D01*
X11680255Y20181430D01*
X11726860Y20180746D01*
X11892928Y20146959D01*
X12027121Y20142038D01*
X12125760Y20138421D01*
X12125764Y20138421D01*
X12130924Y20138232D01*
X12136044Y20138888D01*
X12136046Y20138888D01*
X12362023Y20167836D01*
X12362024Y20167836D01*
X12367151Y20168493D01*
X12410272Y20181430D01*
X12590316Y20235446D01*
X12590317Y20235447D01*
X12595262Y20236930D01*
X12809133Y20341705D01*
X12813336Y20344703D01*
X12813341Y20344706D01*
X12998816Y20477004D01*
X12998818Y20477006D01*
X13003020Y20480003D01*
X13171716Y20648111D01*
X13229979Y20729193D01*
X13285972Y20772840D01*
X13356676Y20779286D01*
X13419640Y20746484D01*
X13431582Y20732824D01*
X13432274Y20731694D01*
X13588204Y20551683D01*
X13771442Y20399556D01*
X13775894Y20396954D01*
X13775899Y20396951D01*
X13971828Y20282459D01*
X13977065Y20279399D01*
X14199552Y20194440D01*
X14204618Y20193409D01*
X14204619Y20193409D01*
X14230237Y20188197D01*
X14432928Y20146959D01*
X14567121Y20142038D01*
X14665760Y20138421D01*
X14665764Y20138421D01*
X14670924Y20138232D01*
X14676044Y20138888D01*
X14676046Y20138888D01*
X14902023Y20167836D01*
X14902024Y20167836D01*
X14907151Y20168493D01*
X14950272Y20181430D01*
X15130316Y20235446D01*
X15130317Y20235447D01*
X15135262Y20236930D01*
X15349133Y20341705D01*
X15353336Y20344703D01*
X15353341Y20344706D01*
X15538816Y20477004D01*
X15538818Y20477006D01*
X15543020Y20480003D01*
X15711716Y20648111D01*
X15769979Y20729193D01*
X15825972Y20772840D01*
X15896676Y20779286D01*
X15959640Y20746484D01*
X15971582Y20732824D01*
X15972274Y20731694D01*
X16128204Y20551683D01*
X16311442Y20399556D01*
X16315894Y20396954D01*
X16315899Y20396951D01*
X16511828Y20282459D01*
X16517065Y20279399D01*
X16739552Y20194440D01*
X16744618Y20193409D01*
X16744619Y20193409D01*
X16770237Y20188197D01*
X16972928Y20146959D01*
X17107121Y20142038D01*
X17205760Y20138421D01*
X17205764Y20138421D01*
X17210924Y20138232D01*
X17216044Y20138888D01*
X17216046Y20138888D01*
X17442023Y20167836D01*
X17442024Y20167836D01*
X17447151Y20168493D01*
X17490272Y20181430D01*
X17670316Y20235446D01*
X17670317Y20235447D01*
X17675262Y20236930D01*
X17889133Y20341705D01*
X17893336Y20344703D01*
X17893341Y20344706D01*
X18078816Y20477004D01*
X18078818Y20477006D01*
X18083020Y20480003D01*
X18251716Y20648111D01*
X18309979Y20729193D01*
X18365972Y20772840D01*
X18436676Y20779286D01*
X18499640Y20746484D01*
X18511582Y20732824D01*
X18512274Y20731694D01*
X18668204Y20551683D01*
X18851442Y20399556D01*
X18855894Y20396954D01*
X18855899Y20396951D01*
X19051828Y20282459D01*
X19057065Y20279399D01*
X19279552Y20194440D01*
X19284618Y20193409D01*
X19284619Y20193409D01*
X19310237Y20188197D01*
X19512928Y20146959D01*
X19647121Y20142038D01*
X19745760Y20138421D01*
X19745764Y20138421D01*
X19750924Y20138232D01*
X19756044Y20138888D01*
X19756046Y20138888D01*
X19982023Y20167836D01*
X19982024Y20167836D01*
X19987151Y20168493D01*
X20030272Y20181430D01*
X20210316Y20235446D01*
X20210317Y20235447D01*
X20215262Y20236930D01*
X20429133Y20341705D01*
X20433336Y20344703D01*
X20433341Y20344706D01*
X20618816Y20477004D01*
X20618818Y20477006D01*
X20623020Y20480003D01*
X20791716Y20648111D01*
X20849979Y20729193D01*
X20905972Y20772840D01*
X20976676Y20779286D01*
X21039640Y20746484D01*
X21051582Y20732824D01*
X21052274Y20731694D01*
X21208204Y20551683D01*
X21391442Y20399556D01*
X21395894Y20396954D01*
X21395899Y20396951D01*
X21591828Y20282459D01*
X21597065Y20279399D01*
X21819552Y20194440D01*
X21824618Y20193409D01*
X21824619Y20193409D01*
X21850237Y20188197D01*
X22052928Y20146959D01*
X22187121Y20142038D01*
X22285760Y20138421D01*
X22285764Y20138421D01*
X22290924Y20138232D01*
X22296044Y20138888D01*
X22296046Y20138888D01*
X22522023Y20167836D01*
X22522024Y20167836D01*
X22527151Y20168493D01*
X22570272Y20181430D01*
X22750316Y20235446D01*
X22750317Y20235447D01*
X22755262Y20236930D01*
X22969133Y20341705D01*
X22973336Y20344703D01*
X22973341Y20344706D01*
X23158816Y20477004D01*
X23158818Y20477006D01*
X23163020Y20480003D01*
X23331716Y20648111D01*
X23389979Y20729193D01*
X23445972Y20772840D01*
X23516676Y20779286D01*
X23579640Y20746484D01*
X23591582Y20732824D01*
X23592274Y20731694D01*
X23748204Y20551683D01*
X23931442Y20399556D01*
X23935894Y20396954D01*
X23935899Y20396951D01*
X24131828Y20282459D01*
X24137065Y20279399D01*
X24359552Y20194440D01*
X24364618Y20193409D01*
X24364619Y20193409D01*
X24390237Y20188197D01*
X24592928Y20146959D01*
X24727121Y20142038D01*
X24825760Y20138421D01*
X24825764Y20138421D01*
X24830924Y20138232D01*
X24836044Y20138888D01*
X24836046Y20138888D01*
X25062023Y20167836D01*
X25062024Y20167836D01*
X25067151Y20168493D01*
X25110272Y20181430D01*
X25290316Y20235446D01*
X25290317Y20235447D01*
X25295262Y20236930D01*
X25509133Y20341705D01*
X25513336Y20344703D01*
X25513341Y20344706D01*
X25698816Y20477004D01*
X25698818Y20477006D01*
X25703020Y20480003D01*
X25871716Y20648111D01*
X25929979Y20729193D01*
X25985972Y20772840D01*
X26056676Y20779286D01*
X26119640Y20746484D01*
X26131582Y20732824D01*
X26132274Y20731694D01*
X26288204Y20551683D01*
X26471442Y20399556D01*
X26475894Y20396954D01*
X26475899Y20396951D01*
X26671828Y20282459D01*
X26677065Y20279399D01*
X26899552Y20194440D01*
X26904618Y20193409D01*
X26904619Y20193409D01*
X26930237Y20188197D01*
X27132928Y20146959D01*
X27267121Y20142038D01*
X27365760Y20138421D01*
X27365764Y20138421D01*
X27370924Y20138232D01*
X27376044Y20138888D01*
X27376046Y20138888D01*
X27602023Y20167836D01*
X27602024Y20167836D01*
X27607151Y20168493D01*
X27650272Y20181430D01*
X27830316Y20235446D01*
X27830317Y20235447D01*
X27835262Y20236930D01*
X28049133Y20341705D01*
X28053336Y20344703D01*
X28053341Y20344706D01*
X28130155Y20399497D01*
X29019326Y20399497D01*
X29024607Y20392442D01*
X29212821Y20282459D01*
X29222108Y20278009D01*
X29434861Y20196767D01*
X29444763Y20193890D01*
X29667911Y20148490D01*
X29678163Y20147267D01*
X29905738Y20138923D01*
X29916024Y20139390D01*
X30141915Y20168327D01*
X30152001Y20170470D01*
X30370128Y20235912D01*
X30379723Y20239672D01*
X30584237Y20339863D01*
X30593083Y20345137D01*
X30658631Y20391892D01*
X30667032Y20402592D01*
X30660045Y20415744D01*
X29857811Y21217979D01*
X29843868Y21225592D01*
X29842034Y21225461D01*
X29835420Y21221210D01*
X29026083Y20411872D01*
X29019326Y20399497D01*
X28130155Y20399497D01*
X28238816Y20477004D01*
X28238818Y20477006D01*
X28243020Y20480003D01*
X28411716Y20648111D01*
X28414732Y20652308D01*
X28414739Y20652316D01*
X28477170Y20739198D01*
X28533164Y20782846D01*
X28603868Y20789292D01*
X28650626Y20765831D01*
X28654976Y20765110D01*
X28665387Y20769598D01*
X29472979Y21577189D01*
X29479356Y21588868D01*
X30209408Y21588868D01*
X30209539Y21587034D01*
X30213790Y21580420D01*
X31019826Y20774385D01*
X31033096Y20767139D01*
X31095005Y20790922D01*
X31164523Y20776510D01*
X31206899Y20739755D01*
X31209574Y20736101D01*
X31212274Y20731694D01*
X31368204Y20551683D01*
X31551442Y20399556D01*
X31555894Y20396954D01*
X31555899Y20396951D01*
X31751828Y20282459D01*
X31757065Y20279399D01*
X31979552Y20194440D01*
X31984618Y20193409D01*
X31984619Y20193409D01*
X32010237Y20188197D01*
X32212928Y20146959D01*
X32347121Y20142038D01*
X32445760Y20138421D01*
X32445764Y20138421D01*
X32450924Y20138232D01*
X32456044Y20138888D01*
X32456046Y20138888D01*
X32682023Y20167836D01*
X32682024Y20167836D01*
X32687151Y20168493D01*
X32730272Y20181430D01*
X32910316Y20235446D01*
X32910317Y20235447D01*
X32915262Y20236930D01*
X33129133Y20341705D01*
X33133336Y20344703D01*
X33133341Y20344706D01*
X33318816Y20477004D01*
X33318818Y20477006D01*
X33323020Y20480003D01*
X33491716Y20648111D01*
X33630690Y20841514D01*
X33654198Y20889077D01*
X33733917Y21050376D01*
X33733918Y21050378D01*
X33736211Y21055018D01*
X33805443Y21282889D01*
X33822442Y21412009D01*
X33836092Y21515687D01*
X33836092Y21515691D01*
X33836529Y21519008D01*
X33838264Y21590000D01*
X36608910Y21590000D01*
X36609600Y21583435D01*
X36610257Y21577189D01*
X36627618Y21412009D01*
X36682923Y21241797D01*
X36686226Y21236075D01*
X36686227Y21236074D01*
X36694188Y21222285D01*
X36772409Y21086803D01*
X36776827Y21081896D01*
X36776828Y21081895D01*
X36876356Y20971358D01*
X36892164Y20953801D01*
X36897506Y20949920D01*
X36897508Y20949918D01*
X36985159Y20886236D01*
X37036955Y20848604D01*
X37042983Y20845920D01*
X37042985Y20845919D01*
X37194423Y20778495D01*
X37200454Y20775810D01*
X37287984Y20757205D01*
X37369057Y20739972D01*
X37369061Y20739972D01*
X37375514Y20738600D01*
X37554486Y20738600D01*
X37560939Y20739972D01*
X37560943Y20739972D01*
X37642016Y20757205D01*
X37729546Y20775810D01*
X37735577Y20778495D01*
X37887015Y20845919D01*
X37887017Y20845920D01*
X37893045Y20848604D01*
X37969776Y20904352D01*
X38005677Y20930436D01*
X38072545Y20954295D01*
X38079738Y20954500D01*
X42089437Y20954500D01*
X42157558Y20934498D01*
X42164998Y20929329D01*
X42218295Y20889385D01*
X42354684Y20838255D01*
X42416866Y20831500D01*
X43013134Y20831500D01*
X43075316Y20838255D01*
X43211705Y20889385D01*
X43212448Y20889942D01*
X43277851Y20904246D01*
X43343063Y20880494D01*
X43386955Y20848604D01*
X43392983Y20845920D01*
X43392985Y20845919D01*
X43544423Y20778495D01*
X43550454Y20775810D01*
X43637984Y20757205D01*
X43719057Y20739972D01*
X43719061Y20739972D01*
X43725514Y20738600D01*
X43904486Y20738600D01*
X43910939Y20739972D01*
X43910943Y20739972D01*
X43992016Y20757205D01*
X44079546Y20775810D01*
X44085577Y20778495D01*
X44237015Y20845919D01*
X44237017Y20845920D01*
X44243045Y20848604D01*
X44286937Y20880494D01*
X44353806Y20904352D01*
X44417500Y20889981D01*
X44418295Y20889385D01*
X44554684Y20838255D01*
X44616866Y20831500D01*
X45213134Y20831500D01*
X45275316Y20838255D01*
X45411705Y20889385D01*
X45528261Y20976739D01*
X45615615Y21093295D01*
X45666745Y21229684D01*
X45673500Y21291866D01*
X45673500Y21888134D01*
X45666745Y21950316D01*
X45615615Y22086705D01*
X45528261Y22203261D01*
X45411705Y22290615D01*
X45275316Y22341745D01*
X45213134Y22348500D01*
X44616866Y22348500D01*
X44554684Y22341745D01*
X44418295Y22290615D01*
X44417552Y22290058D01*
X44352149Y22275754D01*
X44286938Y22299506D01*
X44268843Y22312652D01*
X44243045Y22331396D01*
X44237017Y22334080D01*
X44237015Y22334081D01*
X44085577Y22401505D01*
X44085576Y22401505D01*
X44079546Y22404190D01*
X43969147Y22427656D01*
X43910943Y22440028D01*
X43910939Y22440028D01*
X43904486Y22441400D01*
X43725514Y22441400D01*
X43719061Y22440028D01*
X43719057Y22440028D01*
X43660853Y22427656D01*
X43550454Y22404190D01*
X43544424Y22401505D01*
X43544423Y22401505D01*
X43392985Y22334081D01*
X43392983Y22334080D01*
X43386955Y22331396D01*
X43361157Y22312652D01*
X43343062Y22299506D01*
X43276194Y22275648D01*
X43212500Y22290019D01*
X43211705Y22290615D01*
X43075316Y22341745D01*
X43013134Y22348500D01*
X42416866Y22348500D01*
X42354684Y22341745D01*
X42218295Y22290615D01*
X42165002Y22250674D01*
X42098496Y22225826D01*
X42089437Y22225500D01*
X38079738Y22225500D01*
X38011617Y22245502D01*
X38005677Y22249564D01*
X37898387Y22327515D01*
X37898386Y22327516D01*
X37893045Y22331396D01*
X37887017Y22334080D01*
X37887015Y22334081D01*
X37735577Y22401505D01*
X37735576Y22401505D01*
X37729546Y22404190D01*
X37619147Y22427656D01*
X37560943Y22440028D01*
X37560939Y22440028D01*
X37554486Y22441400D01*
X37375514Y22441400D01*
X37369061Y22440028D01*
X37369057Y22440028D01*
X37310853Y22427656D01*
X37200454Y22404190D01*
X37194424Y22401505D01*
X37194423Y22401505D01*
X37042985Y22334081D01*
X37042983Y22334080D01*
X37036955Y22331396D01*
X37031614Y22327516D01*
X37031613Y22327515D01*
X36920340Y22246670D01*
X36892164Y22226199D01*
X36887743Y22221289D01*
X36887742Y22221288D01*
X36871511Y22203261D01*
X36772409Y22093197D01*
X36755019Y22063076D01*
X36692355Y21954539D01*
X36682923Y21938203D01*
X36680881Y21931918D01*
X36648538Y21832375D01*
X36627618Y21767991D01*
X36626928Y21761428D01*
X36626928Y21761427D01*
X36609917Y21599580D01*
X36608910Y21590000D01*
X33838264Y21590000D01*
X33818750Y21827356D01*
X33760731Y22058337D01*
X33695377Y22208642D01*
X33667827Y22272004D01*
X33667825Y22272007D01*
X33665767Y22276741D01*
X33656792Y22290615D01*
X33582424Y22405569D01*
X33536406Y22476702D01*
X33376124Y22652850D01*
X33372073Y22656049D01*
X33372069Y22656053D01*
X33193278Y22797253D01*
X33193273Y22797256D01*
X33189224Y22800454D01*
X33184708Y22802947D01*
X33184705Y22802949D01*
X32985250Y22913054D01*
X32985246Y22913056D01*
X32980726Y22915551D01*
X32975857Y22917275D01*
X32975853Y22917277D01*
X32761105Y22993324D01*
X32761101Y22993325D01*
X32756230Y22995050D01*
X32751140Y22995957D01*
X32751135Y22995958D01*
X32623814Y23018636D01*
X32521764Y23036814D01*
X32432637Y23037903D01*
X32288795Y23039661D01*
X32288793Y23039661D01*
X32283625Y23039724D01*
X32048209Y23003700D01*
X31821838Y22929711D01*
X31610590Y22819742D01*
X31606457Y22816639D01*
X31606454Y22816637D01*
X31424275Y22679853D01*
X31420140Y22676748D01*
X31255602Y22504569D01*
X31213064Y22442210D01*
X31158155Y22397210D01*
X31087631Y22389039D01*
X31035940Y22413412D01*
X31033940Y22413693D01*
X31022755Y22408544D01*
X30217021Y21602811D01*
X30209408Y21588868D01*
X29479356Y21588868D01*
X29480592Y21591132D01*
X29480461Y21592966D01*
X29476210Y21599580D01*
X28670220Y22405569D01*
X28657803Y22412349D01*
X28594899Y22387301D01*
X28525210Y22400865D01*
X28477360Y22444312D01*
X28459216Y22472358D01*
X28456406Y22476702D01*
X28296124Y22652850D01*
X28292073Y22656049D01*
X28292069Y22656053D01*
X28138018Y22777715D01*
X29022081Y22777715D01*
X29028825Y22765386D01*
X29832189Y21962021D01*
X29846132Y21954408D01*
X29847966Y21954539D01*
X29854580Y21958790D01*
X30662331Y22766542D01*
X30669348Y22779393D01*
X30661574Y22790063D01*
X30653004Y22796831D01*
X30644417Y22802536D01*
X30445055Y22912590D01*
X30435643Y22916820D01*
X30220971Y22992840D01*
X30211014Y22995470D01*
X29986805Y23035409D01*
X29976554Y23036378D01*
X29748830Y23039160D01*
X29738546Y23038440D01*
X29513437Y23003994D01*
X29503410Y23001605D01*
X29286951Y22930856D01*
X29277442Y22926859D01*
X29075451Y22821708D01*
X29066716Y22816207D01*
X29030535Y22789042D01*
X29022081Y22777715D01*
X28138018Y22777715D01*
X28113278Y22797253D01*
X28113273Y22797256D01*
X28109224Y22800454D01*
X28104708Y22802947D01*
X28104705Y22802949D01*
X27905250Y22913054D01*
X27905246Y22913056D01*
X27900726Y22915551D01*
X27895857Y22917275D01*
X27895853Y22917277D01*
X27681105Y22993324D01*
X27681101Y22993325D01*
X27676230Y22995050D01*
X27671140Y22995957D01*
X27671135Y22995958D01*
X27543814Y23018636D01*
X27441764Y23036814D01*
X27352637Y23037903D01*
X27208795Y23039661D01*
X27208793Y23039661D01*
X27203625Y23039724D01*
X26968209Y23003700D01*
X26741838Y22929711D01*
X26530590Y22819742D01*
X26526457Y22816639D01*
X26526454Y22816637D01*
X26344275Y22679853D01*
X26340140Y22676748D01*
X26175602Y22504569D01*
X26153629Y22472358D01*
X26140186Y22452651D01*
X26085274Y22407649D01*
X26014749Y22399478D01*
X25951002Y22430733D01*
X25930306Y22455216D01*
X25919217Y22472358D01*
X25919212Y22472364D01*
X25916406Y22476702D01*
X25756124Y22652850D01*
X25752073Y22656049D01*
X25752069Y22656053D01*
X25573278Y22797253D01*
X25573273Y22797256D01*
X25569224Y22800454D01*
X25564708Y22802947D01*
X25564705Y22802949D01*
X25365250Y22913054D01*
X25365246Y22913056D01*
X25360726Y22915551D01*
X25355857Y22917275D01*
X25355853Y22917277D01*
X25141105Y22993324D01*
X25141101Y22993325D01*
X25136230Y22995050D01*
X25131140Y22995957D01*
X25131135Y22995958D01*
X25003814Y23018636D01*
X24901764Y23036814D01*
X24812637Y23037903D01*
X24668795Y23039661D01*
X24668793Y23039661D01*
X24663625Y23039724D01*
X24428209Y23003700D01*
X24201838Y22929711D01*
X23990590Y22819742D01*
X23986457Y22816639D01*
X23986454Y22816637D01*
X23804275Y22679853D01*
X23800140Y22676748D01*
X23635602Y22504569D01*
X23613629Y22472358D01*
X23600186Y22452651D01*
X23545274Y22407649D01*
X23474749Y22399478D01*
X23411002Y22430733D01*
X23390306Y22455216D01*
X23379217Y22472358D01*
X23379212Y22472364D01*
X23376406Y22476702D01*
X23216124Y22652850D01*
X23212073Y22656049D01*
X23212069Y22656053D01*
X23042381Y22790063D01*
X23029224Y22800454D01*
X22925605Y22857655D01*
X22875636Y22908086D01*
X22860500Y22967962D01*
X22860500Y23179577D01*
X22880502Y23247698D01*
X22897405Y23268673D01*
X23086329Y23457596D01*
X23148641Y23491621D01*
X23175424Y23494500D01*
X34945262Y23494500D01*
X35013383Y23474498D01*
X35019323Y23470436D01*
X35055225Y23444352D01*
X35131955Y23388604D01*
X35137983Y23385920D01*
X35137985Y23385919D01*
X35170371Y23371500D01*
X35295454Y23315810D01*
X35382984Y23297205D01*
X35464057Y23279972D01*
X35464061Y23279972D01*
X35470514Y23278600D01*
X35649486Y23278600D01*
X35655939Y23279972D01*
X35655943Y23279972D01*
X35737016Y23297205D01*
X35824546Y23315810D01*
X35949629Y23371500D01*
X35982015Y23385919D01*
X35982017Y23385920D01*
X35988045Y23388604D01*
X36039841Y23426236D01*
X36127492Y23489918D01*
X36127494Y23489920D01*
X36132836Y23493801D01*
X36152033Y23515121D01*
X36248172Y23621895D01*
X36248173Y23621896D01*
X36252591Y23626803D01*
X36342077Y23781797D01*
X36381734Y23903849D01*
X36395342Y23945730D01*
X36395342Y23945731D01*
X36397382Y23952009D01*
X36402453Y24000250D01*
X36415400Y24123435D01*
X36416090Y24130000D01*
X37878910Y24130000D01*
X37879600Y24123435D01*
X37892548Y24000250D01*
X37897618Y23952009D01*
X37899658Y23945731D01*
X37899658Y23945730D01*
X37913266Y23903849D01*
X37952923Y23781797D01*
X38042409Y23626803D01*
X38046827Y23621896D01*
X38046828Y23621895D01*
X38142967Y23515121D01*
X38162164Y23493801D01*
X38167506Y23489920D01*
X38167508Y23489918D01*
X38255159Y23426236D01*
X38306955Y23388604D01*
X38312983Y23385920D01*
X38312985Y23385919D01*
X38345371Y23371500D01*
X38470454Y23315810D01*
X38557984Y23297205D01*
X38639057Y23279972D01*
X38639061Y23279972D01*
X38645514Y23278600D01*
X38824486Y23278600D01*
X38830939Y23279972D01*
X38830943Y23279972D01*
X38912016Y23297205D01*
X38999546Y23315810D01*
X39124629Y23371500D01*
X39157015Y23385919D01*
X39157017Y23385920D01*
X39163045Y23388604D01*
X39239776Y23444352D01*
X39275677Y23470436D01*
X39342545Y23494295D01*
X39349738Y23494500D01*
X42089437Y23494500D01*
X42157558Y23474498D01*
X42164998Y23469329D01*
X42218295Y23429385D01*
X42354684Y23378255D01*
X42416866Y23371500D01*
X43013134Y23371500D01*
X43075316Y23378255D01*
X43211705Y23429385D01*
X43212448Y23429942D01*
X43277851Y23444246D01*
X43343063Y23420494D01*
X43386955Y23388604D01*
X43392983Y23385920D01*
X43392985Y23385919D01*
X43425371Y23371500D01*
X43550454Y23315810D01*
X43637984Y23297205D01*
X43719057Y23279972D01*
X43719061Y23279972D01*
X43725514Y23278600D01*
X43904486Y23278600D01*
X43910939Y23279972D01*
X43910943Y23279972D01*
X43992016Y23297205D01*
X44079546Y23315810D01*
X44204629Y23371500D01*
X44237015Y23385919D01*
X44237017Y23385920D01*
X44243045Y23388604D01*
X44286937Y23420494D01*
X44353806Y23444352D01*
X44417500Y23429981D01*
X44418295Y23429385D01*
X44554684Y23378255D01*
X44616866Y23371500D01*
X45213134Y23371500D01*
X45275316Y23378255D01*
X45411705Y23429385D01*
X45528261Y23516739D01*
X45615615Y23633295D01*
X45666745Y23769684D01*
X45673500Y23831866D01*
X45673500Y24428134D01*
X45666745Y24490316D01*
X45615615Y24626705D01*
X45528261Y24743261D01*
X45411705Y24830615D01*
X45275316Y24881745D01*
X45213134Y24888500D01*
X44616866Y24888500D01*
X44554684Y24881745D01*
X44418295Y24830615D01*
X44417552Y24830058D01*
X44352149Y24815754D01*
X44286938Y24839506D01*
X44268843Y24852652D01*
X44243045Y24871396D01*
X44237017Y24874080D01*
X44237015Y24874081D01*
X44085577Y24941505D01*
X44085576Y24941505D01*
X44079546Y24944190D01*
X43992016Y24962795D01*
X43910943Y24980028D01*
X43910939Y24980028D01*
X43904486Y24981400D01*
X43725514Y24981400D01*
X43719061Y24980028D01*
X43719057Y24980028D01*
X43637984Y24962795D01*
X43550454Y24944190D01*
X43544424Y24941505D01*
X43544423Y24941505D01*
X43392985Y24874081D01*
X43392983Y24874080D01*
X43386955Y24871396D01*
X43361157Y24852652D01*
X43343062Y24839506D01*
X43276194Y24815648D01*
X43212500Y24830019D01*
X43211705Y24830615D01*
X43075316Y24881745D01*
X43013134Y24888500D01*
X42416866Y24888500D01*
X42354684Y24881745D01*
X42218295Y24830615D01*
X42198466Y24815754D01*
X42165002Y24790674D01*
X42098496Y24765826D01*
X42089437Y24765500D01*
X39349738Y24765500D01*
X39281617Y24785502D01*
X39275677Y24789564D01*
X39168387Y24867515D01*
X39168386Y24867516D01*
X39163045Y24871396D01*
X39157017Y24874080D01*
X39157015Y24874081D01*
X39005577Y24941505D01*
X39005576Y24941505D01*
X38999546Y24944190D01*
X38912016Y24962795D01*
X38830943Y24980028D01*
X38830939Y24980028D01*
X38824486Y24981400D01*
X38645514Y24981400D01*
X38639061Y24980028D01*
X38639057Y24980028D01*
X38557984Y24962795D01*
X38470454Y24944190D01*
X38464424Y24941505D01*
X38464423Y24941505D01*
X38312985Y24874081D01*
X38312983Y24874080D01*
X38306955Y24871396D01*
X38301614Y24867516D01*
X38301613Y24867515D01*
X38190340Y24786670D01*
X38162164Y24766199D01*
X38157743Y24761289D01*
X38157742Y24761288D01*
X38094313Y24690842D01*
X38042409Y24633197D01*
X37952923Y24478203D01*
X37897618Y24307991D01*
X37878910Y24130000D01*
X36416090Y24130000D01*
X36397382Y24307991D01*
X36342077Y24478203D01*
X36252591Y24633197D01*
X36200688Y24690842D01*
X36137258Y24761288D01*
X36137257Y24761289D01*
X36132836Y24766199D01*
X36104661Y24786670D01*
X35993387Y24867515D01*
X35993386Y24867516D01*
X35988045Y24871396D01*
X35982017Y24874080D01*
X35982015Y24874081D01*
X35830577Y24941505D01*
X35830576Y24941505D01*
X35824546Y24944190D01*
X35737016Y24962795D01*
X35655943Y24980028D01*
X35655939Y24980028D01*
X35649486Y24981400D01*
X35470514Y24981400D01*
X35464061Y24980028D01*
X35464057Y24980028D01*
X35382984Y24962795D01*
X35295454Y24944190D01*
X35289427Y24941507D01*
X35289419Y24941504D01*
X35251953Y24924823D01*
X35181586Y24915389D01*
X35117289Y24945496D01*
X35079476Y25005585D01*
X35080872Y25078866D01*
X35125342Y25215730D01*
X35125342Y25215731D01*
X35127382Y25222009D01*
X35146090Y25400000D01*
X35127382Y25577991D01*
X35072077Y25748203D01*
X34982591Y25903197D01*
X34956887Y25931745D01*
X34867258Y26031288D01*
X34867257Y26031289D01*
X34862836Y26036199D01*
X34841972Y26051358D01*
X34723387Y26137515D01*
X34723386Y26137516D01*
X34718045Y26141396D01*
X34712017Y26144080D01*
X34712015Y26144081D01*
X34560577Y26211505D01*
X34560576Y26211505D01*
X34554546Y26214190D01*
X34467016Y26232795D01*
X34385943Y26250028D01*
X34385939Y26250028D01*
X34379486Y26251400D01*
X34200514Y26251400D01*
X34194061Y26250028D01*
X34194057Y26250028D01*
X34112984Y26232795D01*
X34025454Y26214190D01*
X34019424Y26211505D01*
X34019423Y26211505D01*
X33867985Y26144081D01*
X33867983Y26144080D01*
X33861955Y26141396D01*
X33856614Y26137516D01*
X33856613Y26137515D01*
X33749323Y26059564D01*
X33682455Y26035705D01*
X33675262Y26035500D01*
X21034020Y26035500D01*
X21022786Y26036030D01*
X21015281Y26037708D01*
X20951539Y26035705D01*
X20946988Y26035562D01*
X20943031Y26035500D01*
X20915017Y26035500D01*
X20911092Y26035004D01*
X20911091Y26035004D01*
X20910996Y26034992D01*
X20899151Y26034059D01*
X20869330Y26033122D01*
X20862718Y26032914D01*
X20862717Y26032914D01*
X20854795Y26032665D01*
X20835252Y26026987D01*
X20815888Y26022977D01*
X20803560Y26021420D01*
X20803558Y26021420D01*
X20795701Y26020427D01*
X20788337Y26017511D01*
X20788332Y26017510D01*
X20754444Y26004093D01*
X20743215Y26000248D01*
X20729241Y25996188D01*
X20700607Y25987869D01*
X20693781Y25983832D01*
X20683091Y25977510D01*
X20665341Y25968813D01*
X20646412Y25961319D01*
X20639996Y25956658D01*
X20639995Y25956657D01*
X20610519Y25935241D01*
X20600595Y25928722D01*
X20569224Y25910170D01*
X20569219Y25910166D01*
X20562401Y25906134D01*
X20548014Y25891747D01*
X20532980Y25878906D01*
X20516513Y25866942D01*
X20511460Y25860834D01*
X20488228Y25832751D01*
X20480238Y25823971D01*
X19291517Y24635250D01*
X19283191Y24627674D01*
X19276697Y24623553D01*
X19271274Y24617778D01*
X19229915Y24573735D01*
X19227160Y24570893D01*
X19207361Y24551094D01*
X19204937Y24547969D01*
X19204929Y24547960D01*
X19204863Y24547874D01*
X19197155Y24538849D01*
X19166783Y24506506D01*
X19162965Y24499562D01*
X19162964Y24499560D01*
X19156978Y24488671D01*
X19146127Y24472153D01*
X19133650Y24456067D01*
X19116024Y24415334D01*
X19110807Y24404686D01*
X19089431Y24365803D01*
X19087460Y24358128D01*
X19087458Y24358122D01*
X19084369Y24346089D01*
X19077966Y24327387D01*
X19069883Y24308708D01*
X19068644Y24300883D01*
X19062940Y24264873D01*
X19060535Y24253260D01*
X19049500Y24210282D01*
X19049500Y24189935D01*
X19047949Y24170224D01*
X19044765Y24150121D01*
X19045511Y24142229D01*
X19048941Y24105944D01*
X19049500Y24094086D01*
X19049500Y22968512D01*
X19029498Y22900391D01*
X18981680Y22856749D01*
X18910590Y22819742D01*
X18906457Y22816639D01*
X18906454Y22816637D01*
X18724275Y22679853D01*
X18720140Y22676748D01*
X18555602Y22504569D01*
X18533629Y22472358D01*
X18520186Y22452651D01*
X18465274Y22407649D01*
X18394749Y22399478D01*
X18331002Y22430733D01*
X18310306Y22455216D01*
X18299217Y22472358D01*
X18299212Y22472364D01*
X18296406Y22476702D01*
X18136124Y22652850D01*
X18132073Y22656049D01*
X18132069Y22656053D01*
X17953278Y22797253D01*
X17953273Y22797256D01*
X17949224Y22800454D01*
X17944708Y22802947D01*
X17944705Y22802949D01*
X17745250Y22913054D01*
X17745246Y22913056D01*
X17740726Y22915551D01*
X17735857Y22917275D01*
X17735853Y22917277D01*
X17521105Y22993324D01*
X17521101Y22993325D01*
X17516230Y22995050D01*
X17511140Y22995957D01*
X17511135Y22995958D01*
X17383814Y23018636D01*
X17281764Y23036814D01*
X17192637Y23037903D01*
X17048795Y23039661D01*
X17048793Y23039661D01*
X17043625Y23039724D01*
X16808209Y23003700D01*
X16581838Y22929711D01*
X16370590Y22819742D01*
X16366457Y22816639D01*
X16366454Y22816637D01*
X16184275Y22679853D01*
X16180140Y22676748D01*
X16015602Y22504569D01*
X15993629Y22472358D01*
X15980186Y22452651D01*
X15925274Y22407649D01*
X15854749Y22399478D01*
X15791002Y22430733D01*
X15770306Y22455216D01*
X15759217Y22472358D01*
X15759212Y22472364D01*
X15756406Y22476702D01*
X15596124Y22652850D01*
X15592073Y22656049D01*
X15592069Y22656053D01*
X15413278Y22797253D01*
X15413273Y22797256D01*
X15409224Y22800454D01*
X15404708Y22802947D01*
X15404705Y22802949D01*
X15205250Y22913054D01*
X15205246Y22913056D01*
X15200726Y22915551D01*
X15195857Y22917275D01*
X15195853Y22917277D01*
X14981105Y22993324D01*
X14981101Y22993325D01*
X14976230Y22995050D01*
X14971140Y22995957D01*
X14971135Y22995958D01*
X14843814Y23018636D01*
X14741764Y23036814D01*
X14652637Y23037903D01*
X14508795Y23039661D01*
X14508793Y23039661D01*
X14503625Y23039724D01*
X14268209Y23003700D01*
X14041838Y22929711D01*
X13830590Y22819742D01*
X13826457Y22816639D01*
X13826454Y22816637D01*
X13644275Y22679853D01*
X13640140Y22676748D01*
X13475602Y22504569D01*
X13453629Y22472358D01*
X13440186Y22452651D01*
X13385274Y22407649D01*
X13314749Y22399478D01*
X13251002Y22430733D01*
X13230306Y22455216D01*
X13219217Y22472358D01*
X13219212Y22472364D01*
X13216406Y22476702D01*
X13056124Y22652850D01*
X13052073Y22656049D01*
X13052069Y22656053D01*
X12873278Y22797253D01*
X12873273Y22797256D01*
X12869224Y22800454D01*
X12864708Y22802947D01*
X12864705Y22802949D01*
X12665250Y22913054D01*
X12665246Y22913056D01*
X12660726Y22915551D01*
X12655857Y22917275D01*
X12655853Y22917277D01*
X12441105Y22993324D01*
X12441101Y22993325D01*
X12436230Y22995050D01*
X12431140Y22995957D01*
X12431135Y22995958D01*
X12303814Y23018636D01*
X12201764Y23036814D01*
X12112637Y23037903D01*
X11968795Y23039661D01*
X11968793Y23039661D01*
X11963625Y23039724D01*
X11728209Y23003700D01*
X11501838Y22929711D01*
X11290590Y22819742D01*
X11286457Y22816639D01*
X11286454Y22816637D01*
X11104275Y22679853D01*
X11100140Y22676748D01*
X10935602Y22504569D01*
X10913629Y22472358D01*
X10900186Y22452651D01*
X10845274Y22407649D01*
X10774749Y22399478D01*
X10711002Y22430733D01*
X10690306Y22455216D01*
X10679217Y22472358D01*
X10679212Y22472364D01*
X10676406Y22476702D01*
X10516124Y22652850D01*
X10512073Y22656049D01*
X10512069Y22656053D01*
X10333278Y22797253D01*
X10333273Y22797256D01*
X10329224Y22800454D01*
X10324708Y22802947D01*
X10324705Y22802949D01*
X10125250Y22913054D01*
X10125246Y22913056D01*
X10120726Y22915551D01*
X10115857Y22917275D01*
X10115853Y22917277D01*
X9901105Y22993324D01*
X9901101Y22993325D01*
X9896230Y22995050D01*
X9891140Y22995957D01*
X9891135Y22995958D01*
X9763814Y23018636D01*
X9661764Y23036814D01*
X9572637Y23037903D01*
X9428795Y23039661D01*
X9428793Y23039661D01*
X9423625Y23039724D01*
X9188209Y23003700D01*
X8961838Y22929711D01*
X8750590Y22819742D01*
X8746457Y22816639D01*
X8746454Y22816637D01*
X8564275Y22679853D01*
X8560140Y22676748D01*
X8395602Y22504569D01*
X8373629Y22472358D01*
X8360186Y22452651D01*
X8305274Y22407649D01*
X8234749Y22399478D01*
X8171002Y22430733D01*
X8150306Y22455216D01*
X8139217Y22472358D01*
X8139212Y22472364D01*
X8136406Y22476702D01*
X7976124Y22652850D01*
X7972073Y22656049D01*
X7972069Y22656053D01*
X7793278Y22797253D01*
X7793273Y22797256D01*
X7789224Y22800454D01*
X7784708Y22802947D01*
X7784705Y22802949D01*
X7585250Y22913054D01*
X7585246Y22913056D01*
X7580726Y22915551D01*
X7575857Y22917275D01*
X7575853Y22917277D01*
X7361105Y22993324D01*
X7361101Y22993325D01*
X7356230Y22995050D01*
X7351140Y22995957D01*
X7351135Y22995958D01*
X7223814Y23018636D01*
X7121764Y23036814D01*
X7032637Y23037903D01*
X6888795Y23039661D01*
X6888793Y23039661D01*
X6883625Y23039724D01*
X6648209Y23003700D01*
X6421838Y22929711D01*
X6210590Y22819742D01*
X6206457Y22816639D01*
X6206454Y22816637D01*
X6024275Y22679853D01*
X6020140Y22676748D01*
X5855602Y22504569D01*
X5833629Y22472358D01*
X5820186Y22452651D01*
X5765274Y22407649D01*
X5694749Y22399478D01*
X5631002Y22430733D01*
X5610306Y22455216D01*
X5599217Y22472358D01*
X5599212Y22472364D01*
X5596406Y22476702D01*
X5436124Y22652850D01*
X5432073Y22656049D01*
X5432069Y22656053D01*
X5253278Y22797253D01*
X5253273Y22797256D01*
X5249224Y22800454D01*
X5244708Y22802947D01*
X5244705Y22802949D01*
X5045250Y22913054D01*
X5045246Y22913056D01*
X5040726Y22915551D01*
X5035857Y22917275D01*
X5035853Y22917277D01*
X4821105Y22993324D01*
X4821101Y22993325D01*
X4816230Y22995050D01*
X4811140Y22995957D01*
X4811135Y22995958D01*
X4683814Y23018636D01*
X4581764Y23036814D01*
X4492637Y23037903D01*
X4348795Y23039661D01*
X4348793Y23039661D01*
X4343625Y23039724D01*
X4108209Y23003700D01*
X3881838Y22929711D01*
X3670590Y22819742D01*
X3666457Y22816639D01*
X3666454Y22816637D01*
X3484275Y22679853D01*
X3480140Y22676748D01*
X3315602Y22504569D01*
X3293630Y22472358D01*
X3278088Y22449575D01*
X3223176Y22404573D01*
X3152652Y22396402D01*
X3088905Y22427656D01*
X3052175Y22488414D01*
X3048000Y22520580D01*
X3048000Y26670000D01*
X39148910Y26670000D01*
X39167618Y26492009D01*
X39222923Y26321797D01*
X39312409Y26166803D01*
X39316827Y26161896D01*
X39316828Y26161895D01*
X39427742Y26038712D01*
X39432164Y26033801D01*
X39437506Y26029920D01*
X39437508Y26029918D01*
X39533062Y25960494D01*
X39576955Y25928604D01*
X39582983Y25925920D01*
X39582985Y25925919D01*
X39734423Y25858495D01*
X39740454Y25855810D01*
X39827984Y25837205D01*
X39909057Y25819972D01*
X39909061Y25819972D01*
X39915514Y25818600D01*
X40094486Y25818600D01*
X40100939Y25819972D01*
X40100943Y25819972D01*
X40182016Y25837205D01*
X40269546Y25855810D01*
X40275577Y25858495D01*
X40427015Y25925919D01*
X40427017Y25925920D01*
X40433045Y25928604D01*
X40488383Y25968809D01*
X40545677Y26010436D01*
X40612545Y26034295D01*
X40619738Y26034500D01*
X42089437Y26034500D01*
X42157558Y26014498D01*
X42164998Y26009329D01*
X42218295Y25969385D01*
X42354684Y25918255D01*
X42416866Y25911500D01*
X43013134Y25911500D01*
X43075316Y25918255D01*
X43211705Y25969385D01*
X43212448Y25969942D01*
X43277851Y25984246D01*
X43343063Y25960494D01*
X43386955Y25928604D01*
X43392983Y25925920D01*
X43392985Y25925919D01*
X43544423Y25858495D01*
X43550454Y25855810D01*
X43637984Y25837205D01*
X43719057Y25819972D01*
X43719061Y25819972D01*
X43725514Y25818600D01*
X43904486Y25818600D01*
X43910939Y25819972D01*
X43910943Y25819972D01*
X43992016Y25837205D01*
X44079546Y25855810D01*
X44085577Y25858495D01*
X44237015Y25925919D01*
X44237017Y25925920D01*
X44243045Y25928604D01*
X44286937Y25960494D01*
X44353806Y25984352D01*
X44417500Y25969981D01*
X44418295Y25969385D01*
X44554684Y25918255D01*
X44616866Y25911500D01*
X45213134Y25911500D01*
X45275316Y25918255D01*
X45411705Y25969385D01*
X45528261Y26056739D01*
X45615615Y26173295D01*
X45666745Y26309684D01*
X45673500Y26371866D01*
X45673500Y26968134D01*
X45666745Y27030316D01*
X45615615Y27166705D01*
X45528261Y27283261D01*
X45411705Y27370615D01*
X45275316Y27421745D01*
X45213134Y27428500D01*
X44616866Y27428500D01*
X44554684Y27421745D01*
X44418295Y27370615D01*
X44417552Y27370058D01*
X44352149Y27355754D01*
X44286938Y27379506D01*
X44268843Y27392652D01*
X44243045Y27411396D01*
X44237017Y27414080D01*
X44237015Y27414081D01*
X44085577Y27481505D01*
X44085576Y27481505D01*
X44079546Y27484190D01*
X43992016Y27502795D01*
X43910943Y27520028D01*
X43910939Y27520028D01*
X43904486Y27521400D01*
X43725514Y27521400D01*
X43719061Y27520028D01*
X43719057Y27520028D01*
X43637984Y27502795D01*
X43550454Y27484190D01*
X43544424Y27481505D01*
X43544423Y27481505D01*
X43392985Y27414081D01*
X43392983Y27414080D01*
X43386955Y27411396D01*
X43361157Y27392652D01*
X43343062Y27379506D01*
X43276194Y27355648D01*
X43212500Y27370019D01*
X43211705Y27370615D01*
X43075316Y27421745D01*
X43013134Y27428500D01*
X42416866Y27428500D01*
X42354684Y27421745D01*
X42218295Y27370615D01*
X42198466Y27355754D01*
X42165002Y27330674D01*
X42098496Y27305826D01*
X42089437Y27305500D01*
X40619738Y27305500D01*
X40551617Y27325502D01*
X40545677Y27329564D01*
X40438387Y27407515D01*
X40438386Y27407516D01*
X40433045Y27411396D01*
X40427017Y27414080D01*
X40427015Y27414081D01*
X40275577Y27481505D01*
X40275576Y27481505D01*
X40269546Y27484190D01*
X40182016Y27502795D01*
X40100943Y27520028D01*
X40100939Y27520028D01*
X40094486Y27521400D01*
X39915514Y27521400D01*
X39909061Y27520028D01*
X39909057Y27520028D01*
X39827984Y27502795D01*
X39740454Y27484190D01*
X39734424Y27481505D01*
X39734423Y27481505D01*
X39582985Y27414081D01*
X39582983Y27414080D01*
X39576955Y27411396D01*
X39571614Y27407516D01*
X39571613Y27407515D01*
X39460340Y27326670D01*
X39432164Y27306199D01*
X39427743Y27301289D01*
X39427742Y27301288D01*
X39411511Y27283261D01*
X39312409Y27173197D01*
X39222923Y27018203D01*
X39167618Y26847991D01*
X39148910Y26670000D01*
X3048000Y26670000D01*
X3048000Y28442788D01*
X3068002Y28510909D01*
X3121658Y28557402D01*
X3191932Y28567506D01*
X3256512Y28538012D01*
X3281433Y28508623D01*
X3344987Y28404912D01*
X3491250Y28236062D01*
X3663126Y28093368D01*
X3856000Y27980662D01*
X4064692Y27900970D01*
X4069760Y27899939D01*
X4069763Y27899938D01*
X4177017Y27878117D01*
X4283597Y27856433D01*
X4288772Y27856243D01*
X4288774Y27856243D01*
X4501673Y27848436D01*
X4501677Y27848436D01*
X4506837Y27848247D01*
X4511957Y27848903D01*
X4511959Y27848903D01*
X4723288Y27875975D01*
X4723289Y27875975D01*
X4728416Y27876632D01*
X4733366Y27878117D01*
X4937429Y27939339D01*
X4937434Y27939341D01*
X4942384Y27940826D01*
X5142994Y28039104D01*
X5324860Y28168827D01*
X5392331Y28236062D01*
X5433479Y28277067D01*
X5495851Y28310983D01*
X5566658Y28305795D01*
X5623419Y28263149D01*
X5640401Y28232046D01*
X5681676Y28121946D01*
X5690214Y28106351D01*
X5766715Y28004276D01*
X5779276Y27991715D01*
X5881351Y27915214D01*
X5896946Y27906676D01*
X6017394Y27861522D01*
X6032649Y27857895D01*
X6083514Y27852369D01*
X6090328Y27852000D01*
X6712885Y27852000D01*
X6728124Y27856475D01*
X6729329Y27857865D01*
X6731000Y27865548D01*
X6731000Y27870116D01*
X7239000Y27870116D01*
X7243475Y27854877D01*
X7244865Y27853672D01*
X7252548Y27852001D01*
X7879669Y27852001D01*
X7886490Y27852371D01*
X7937352Y27857895D01*
X7952604Y27861521D01*
X8073054Y27906676D01*
X8088649Y27915214D01*
X8190724Y27991715D01*
X8203285Y28004276D01*
X8279786Y28106351D01*
X8288324Y28121946D01*
X8333478Y28242394D01*
X8337105Y28257649D01*
X8342631Y28308514D01*
X8343000Y28315328D01*
X8343000Y28575000D01*
X23786526Y28575000D01*
X23806391Y28322597D01*
X23807545Y28317790D01*
X23807546Y28317784D01*
X23825646Y28242394D01*
X23865495Y28076409D01*
X23867388Y28071838D01*
X23867389Y28071836D01*
X23960003Y27848247D01*
X23962384Y27842498D01*
X24094672Y27626624D01*
X24259102Y27434102D01*
X24451624Y27269672D01*
X24667498Y27137384D01*
X24672068Y27135491D01*
X24672072Y27135489D01*
X24896836Y27042389D01*
X24901409Y27040495D01*
X24976531Y27022460D01*
X25142784Y26982546D01*
X25142790Y26982545D01*
X25147597Y26981391D01*
X25247416Y26973535D01*
X25334345Y26966693D01*
X25334352Y26966693D01*
X25336801Y26966500D01*
X25463199Y26966500D01*
X25465648Y26966693D01*
X25465655Y26966693D01*
X25552584Y26973535D01*
X25652403Y26981391D01*
X25657210Y26982545D01*
X25657216Y26982546D01*
X25823469Y27022460D01*
X25898591Y27040495D01*
X25903164Y27042389D01*
X26127928Y27135489D01*
X26127932Y27135491D01*
X26132502Y27137384D01*
X26348376Y27269672D01*
X26540898Y27434102D01*
X26705328Y27626624D01*
X26837616Y27842498D01*
X26839998Y27848247D01*
X26932611Y28071836D01*
X26932612Y28071838D01*
X26934505Y28076409D01*
X26974354Y28242394D01*
X26992454Y28317784D01*
X26992455Y28317790D01*
X26993609Y28322597D01*
X27013474Y28575000D01*
X26993609Y28827403D01*
X26990037Y28842285D01*
X26954821Y28988968D01*
X26934505Y29073591D01*
X26878003Y29210000D01*
X40418910Y29210000D01*
X40437618Y29032009D01*
X40492923Y28861797D01*
X40582409Y28706803D01*
X40586827Y28701896D01*
X40586828Y28701895D01*
X40682731Y28595384D01*
X40702164Y28573801D01*
X40707506Y28569920D01*
X40707508Y28569918D01*
X40792837Y28507923D01*
X40846955Y28468604D01*
X40852983Y28465920D01*
X40852985Y28465919D01*
X41004423Y28398495D01*
X41010454Y28395810D01*
X41097984Y28377205D01*
X41179057Y28359972D01*
X41179061Y28359972D01*
X41185514Y28358600D01*
X41364486Y28358600D01*
X41370939Y28359972D01*
X41370943Y28359972D01*
X41452016Y28377205D01*
X41539546Y28395810D01*
X41545577Y28398495D01*
X41697015Y28465919D01*
X41697017Y28465920D01*
X41703045Y28468604D01*
X41758127Y28508623D01*
X41815677Y28550436D01*
X41882545Y28574295D01*
X41889738Y28574500D01*
X42089437Y28574500D01*
X42157558Y28554498D01*
X42164998Y28549329D01*
X42218295Y28509385D01*
X42354684Y28458255D01*
X42416866Y28451500D01*
X43013134Y28451500D01*
X43075316Y28458255D01*
X43211705Y28509385D01*
X43212448Y28509942D01*
X43277851Y28524246D01*
X43343063Y28500494D01*
X43386955Y28468604D01*
X43392983Y28465920D01*
X43392985Y28465919D01*
X43544423Y28398495D01*
X43550454Y28395810D01*
X43637984Y28377205D01*
X43719057Y28359972D01*
X43719061Y28359972D01*
X43725514Y28358600D01*
X43904486Y28358600D01*
X43910939Y28359972D01*
X43910943Y28359972D01*
X43992016Y28377205D01*
X44079546Y28395810D01*
X44085577Y28398495D01*
X44237015Y28465919D01*
X44237017Y28465920D01*
X44243045Y28468604D01*
X44286937Y28500494D01*
X44353806Y28524352D01*
X44417500Y28509981D01*
X44418295Y28509385D01*
X44554684Y28458255D01*
X44616866Y28451500D01*
X45213134Y28451500D01*
X45275316Y28458255D01*
X45411705Y28509385D01*
X45528261Y28596739D01*
X45615615Y28713295D01*
X45666745Y28849684D01*
X45673500Y28911866D01*
X45673500Y29508134D01*
X45666745Y29570316D01*
X45615615Y29706705D01*
X45528261Y29823261D01*
X45411705Y29910615D01*
X45275316Y29961745D01*
X45213134Y29968500D01*
X44616866Y29968500D01*
X44554684Y29961745D01*
X44418295Y29910615D01*
X44417552Y29910058D01*
X44352149Y29895754D01*
X44286938Y29919506D01*
X44268843Y29932652D01*
X44243045Y29951396D01*
X44237017Y29954080D01*
X44237015Y29954081D01*
X44085577Y30021505D01*
X44085576Y30021505D01*
X44079546Y30024190D01*
X43992016Y30042795D01*
X43910943Y30060028D01*
X43910939Y30060028D01*
X43904486Y30061400D01*
X43725514Y30061400D01*
X43719061Y30060028D01*
X43719057Y30060028D01*
X43637984Y30042795D01*
X43550454Y30024190D01*
X43544424Y30021505D01*
X43544423Y30021505D01*
X43392985Y29954081D01*
X43392983Y29954080D01*
X43386955Y29951396D01*
X43361157Y29932652D01*
X43343062Y29919506D01*
X43276194Y29895648D01*
X43212500Y29910019D01*
X43211705Y29910615D01*
X43075316Y29961745D01*
X43013134Y29968500D01*
X42416866Y29968500D01*
X42354684Y29961745D01*
X42218295Y29910615D01*
X42177883Y29880328D01*
X42165002Y29870674D01*
X42098496Y29845826D01*
X42089437Y29845500D01*
X41889738Y29845500D01*
X41821617Y29865502D01*
X41815677Y29869564D01*
X41708387Y29947515D01*
X41708386Y29947516D01*
X41703045Y29951396D01*
X41697017Y29954080D01*
X41697015Y29954081D01*
X41545577Y30021505D01*
X41545576Y30021505D01*
X41539546Y30024190D01*
X41452016Y30042795D01*
X41370943Y30060028D01*
X41370939Y30060028D01*
X41364486Y30061400D01*
X41185514Y30061400D01*
X41179061Y30060028D01*
X41179057Y30060028D01*
X41097984Y30042795D01*
X41010454Y30024190D01*
X41004424Y30021505D01*
X41004423Y30021505D01*
X40852985Y29954081D01*
X40852983Y29954080D01*
X40846955Y29951396D01*
X40841614Y29947516D01*
X40841613Y29947515D01*
X40717084Y29857039D01*
X40702164Y29846199D01*
X40697743Y29841289D01*
X40697742Y29841288D01*
X40681511Y29823261D01*
X40582409Y29713197D01*
X40492923Y29558203D01*
X40437618Y29387991D01*
X40418910Y29210000D01*
X26878003Y29210000D01*
X26839511Y29302928D01*
X26839509Y29302932D01*
X26837616Y29307502D01*
X26705328Y29523376D01*
X26540898Y29715898D01*
X26348376Y29880328D01*
X26132502Y30012616D01*
X26127932Y30014509D01*
X26127928Y30014511D01*
X25903164Y30107611D01*
X25903162Y30107612D01*
X25898591Y30109505D01*
X25813968Y30129821D01*
X25657216Y30167454D01*
X25657210Y30167455D01*
X25652403Y30168609D01*
X25552584Y30176465D01*
X25465655Y30183307D01*
X25465648Y30183307D01*
X25463199Y30183500D01*
X25336801Y30183500D01*
X25334352Y30183307D01*
X25334345Y30183307D01*
X25247416Y30176465D01*
X25147597Y30168609D01*
X25142790Y30167455D01*
X25142784Y30167454D01*
X24986032Y30129821D01*
X24901409Y30109505D01*
X24896838Y30107612D01*
X24896836Y30107611D01*
X24672072Y30014511D01*
X24672068Y30014509D01*
X24667498Y30012616D01*
X24451624Y29880328D01*
X24259102Y29715898D01*
X24094672Y29523376D01*
X23962384Y29307502D01*
X23960491Y29302932D01*
X23960489Y29302928D01*
X23921997Y29210000D01*
X23865495Y29073591D01*
X23845179Y28988968D01*
X23809964Y28842285D01*
X23806391Y28827403D01*
X23786526Y28575000D01*
X8343000Y28575000D01*
X8343000Y28937885D01*
X8338525Y28953124D01*
X8337135Y28954329D01*
X8329452Y28956000D01*
X7257115Y28956000D01*
X7241876Y28951525D01*
X7240671Y28950135D01*
X7239000Y28942452D01*
X7239000Y27870116D01*
X6731000Y27870116D01*
X6731000Y29482115D01*
X7239000Y29482115D01*
X7243475Y29466876D01*
X7244865Y29465671D01*
X7252548Y29464000D01*
X8324884Y29464000D01*
X8340123Y29468475D01*
X8341328Y29469865D01*
X8342999Y29477548D01*
X8342999Y30104669D01*
X8342629Y30111490D01*
X8337105Y30162352D01*
X8333479Y30177604D01*
X8288324Y30298054D01*
X8279786Y30313649D01*
X8203285Y30415724D01*
X8190724Y30428285D01*
X8088649Y30504786D01*
X8073054Y30513324D01*
X7952606Y30558478D01*
X7937351Y30562105D01*
X7886486Y30567631D01*
X7879672Y30568000D01*
X7257115Y30568000D01*
X7241876Y30563525D01*
X7240671Y30562135D01*
X7239000Y30554452D01*
X7239000Y29482115D01*
X6731000Y29482115D01*
X6731000Y30549884D01*
X6726525Y30565123D01*
X6725135Y30566328D01*
X6717452Y30567999D01*
X6090331Y30567999D01*
X6083510Y30567629D01*
X6032648Y30562105D01*
X6017396Y30558479D01*
X5896946Y30513324D01*
X5881351Y30504786D01*
X5779276Y30428285D01*
X5766715Y30415724D01*
X5690214Y30313649D01*
X5681676Y30298054D01*
X5640297Y30187678D01*
X5597655Y30130913D01*
X5531093Y30106214D01*
X5461744Y30121422D01*
X5429121Y30147109D01*
X5378151Y30203124D01*
X5378148Y30203127D01*
X5374670Y30206949D01*
X5370619Y30210148D01*
X5370615Y30210152D01*
X5203414Y30342200D01*
X5203410Y30342202D01*
X5199359Y30345402D01*
X5003789Y30453362D01*
X4998920Y30455086D01*
X4998916Y30455088D01*
X4798087Y30526205D01*
X4798083Y30526206D01*
X4793212Y30527931D01*
X4788119Y30528838D01*
X4788116Y30528839D01*
X4578373Y30566200D01*
X4578367Y30566201D01*
X4573284Y30567106D01*
X4499452Y30568008D01*
X4355081Y30569772D01*
X4355079Y30569772D01*
X4349911Y30569835D01*
X4129091Y30536045D01*
X3916756Y30466643D01*
X3718607Y30363493D01*
X3714474Y30360390D01*
X3714471Y30360388D01*
X3631450Y30298054D01*
X3539965Y30229365D01*
X3385629Y30067862D01*
X3382715Y30063590D01*
X3382714Y30063589D01*
X3278088Y29910213D01*
X3223177Y29865210D01*
X3152652Y29857039D01*
X3088905Y29888293D01*
X3052175Y29949050D01*
X3048000Y29981217D01*
X3048000Y31750000D01*
X8668910Y31750000D01*
X8687618Y31572009D01*
X8742923Y31401797D01*
X8832409Y31246803D01*
X8952164Y31113801D01*
X9096955Y31008604D01*
X9102983Y31005920D01*
X9102985Y31005919D01*
X9254423Y30938495D01*
X9260454Y30935810D01*
X9347984Y30917205D01*
X9429057Y30899972D01*
X9429061Y30899972D01*
X9435514Y30898600D01*
X9614486Y30898600D01*
X9620939Y30899972D01*
X9620943Y30899972D01*
X9702016Y30917205D01*
X9789546Y30935810D01*
X9795577Y30938495D01*
X9947015Y31005919D01*
X9947017Y31005920D01*
X9953045Y31008604D01*
X10065677Y31090436D01*
X10132545Y31114295D01*
X10139738Y31114500D01*
X43200262Y31114500D01*
X43268383Y31094498D01*
X43274323Y31090436D01*
X43386955Y31008604D01*
X43392983Y31005920D01*
X43392985Y31005919D01*
X43544423Y30938495D01*
X43550454Y30935810D01*
X43637984Y30917205D01*
X43719057Y30899972D01*
X43719061Y30899972D01*
X43725514Y30898600D01*
X43904486Y30898600D01*
X43910939Y30899972D01*
X43910943Y30899972D01*
X43992016Y30917205D01*
X44079546Y30935810D01*
X44085577Y30938495D01*
X44237015Y31005919D01*
X44237017Y31005920D01*
X44243045Y31008604D01*
X44387836Y31113801D01*
X44507591Y31246803D01*
X44597077Y31401797D01*
X44652382Y31572009D01*
X44671090Y31750000D01*
X44652382Y31927991D01*
X44597077Y32098203D01*
X44507591Y32253197D01*
X44387836Y32386199D01*
X44369429Y32399573D01*
X44248387Y32487515D01*
X44248386Y32487516D01*
X44243045Y32491396D01*
X44237017Y32494080D01*
X44237015Y32494081D01*
X44085577Y32561505D01*
X44085576Y32561505D01*
X44079546Y32564190D01*
X43992016Y32582795D01*
X43910943Y32600028D01*
X43910939Y32600028D01*
X43904486Y32601400D01*
X43725514Y32601400D01*
X43719061Y32600028D01*
X43719057Y32600028D01*
X43637984Y32582795D01*
X43550454Y32564190D01*
X43544424Y32561505D01*
X43544423Y32561505D01*
X43392985Y32494081D01*
X43392983Y32494080D01*
X43386955Y32491396D01*
X43381614Y32487516D01*
X43381613Y32487515D01*
X43274323Y32409564D01*
X43207455Y32385705D01*
X43200262Y32385500D01*
X43112634Y32385500D01*
X43044513Y32405502D01*
X42998020Y32459158D01*
X42987916Y32529432D01*
X43015548Y32591813D01*
X43085835Y32676776D01*
X43154200Y32822059D01*
X43155685Y32829842D01*
X43155686Y32829846D01*
X43182802Y32971994D01*
X43182802Y32971995D01*
X43184287Y32979779D01*
X43174205Y33140027D01*
X43157504Y33191427D01*
X43127039Y33285191D01*
X43127037Y33285194D01*
X43124588Y33292733D01*
X43038553Y33428303D01*
X43035793Y33430895D01*
X43008512Y33494443D01*
X43020221Y33564467D01*
X43059546Y33611451D01*
X43112492Y33649918D01*
X43112494Y33649920D01*
X43117836Y33653801D01*
X43122258Y33658712D01*
X43233172Y33781895D01*
X43233173Y33781896D01*
X43237591Y33786803D01*
X43327077Y33941797D01*
X43382382Y34112009D01*
X43401090Y34290000D01*
X43382382Y34467991D01*
X43327077Y34638203D01*
X43237591Y34793197D01*
X43117836Y34926199D01*
X42973045Y35031396D01*
X42967017Y35034080D01*
X42967015Y35034081D01*
X42815577Y35101505D01*
X42815576Y35101505D01*
X42809546Y35104190D01*
X42722016Y35122795D01*
X42640943Y35140028D01*
X42640939Y35140028D01*
X42634486Y35141400D01*
X42455514Y35141400D01*
X42449061Y35140028D01*
X42449057Y35140028D01*
X42367984Y35122795D01*
X42280454Y35104190D01*
X42274424Y35101505D01*
X42274423Y35101505D01*
X42122985Y35034081D01*
X42122983Y35034080D01*
X42116955Y35031396D01*
X41972164Y34926199D01*
X41852409Y34793197D01*
X41762923Y34638203D01*
X41707618Y34467991D01*
X41706928Y34461428D01*
X41706928Y34461427D01*
X41698582Y34382024D01*
X41671568Y34316367D01*
X41662367Y34306100D01*
X41048672Y33692405D01*
X40986360Y33658379D01*
X40959577Y33655500D01*
X27284738Y33655500D01*
X27216617Y33675502D01*
X27210677Y33679564D01*
X27103387Y33757515D01*
X27103386Y33757516D01*
X27098045Y33761396D01*
X27092017Y33764080D01*
X27092015Y33764081D01*
X26940577Y33831505D01*
X26940576Y33831505D01*
X26934546Y33834190D01*
X26847016Y33852795D01*
X26765943Y33870028D01*
X26765939Y33870028D01*
X26759486Y33871400D01*
X26580514Y33871400D01*
X26574061Y33870028D01*
X26574057Y33870028D01*
X26492984Y33852795D01*
X26405454Y33834190D01*
X26399424Y33831505D01*
X26399423Y33831505D01*
X26247985Y33764081D01*
X26247983Y33764080D01*
X26241955Y33761396D01*
X26236614Y33757516D01*
X26236613Y33757515D01*
X26129323Y33679564D01*
X26062455Y33655705D01*
X26055262Y33655500D01*
X19029738Y33655500D01*
X18961617Y33675502D01*
X18955677Y33679564D01*
X18848387Y33757515D01*
X18848386Y33757516D01*
X18843045Y33761396D01*
X18837017Y33764080D01*
X18837015Y33764081D01*
X18685577Y33831505D01*
X18685576Y33831505D01*
X18679546Y33834190D01*
X18592016Y33852795D01*
X18510943Y33870028D01*
X18510939Y33870028D01*
X18504486Y33871400D01*
X18325514Y33871400D01*
X18319061Y33870028D01*
X18319057Y33870028D01*
X18237984Y33852795D01*
X18150454Y33834190D01*
X18144424Y33831505D01*
X18144423Y33831505D01*
X17992985Y33764081D01*
X17992983Y33764080D01*
X17986955Y33761396D01*
X17842164Y33656199D01*
X17837743Y33651289D01*
X17837742Y33651288D01*
X17728262Y33529697D01*
X17722409Y33523197D01*
X17632923Y33368203D01*
X17577618Y33197991D01*
X17558910Y33020000D01*
X17577618Y32842009D01*
X17632923Y32671797D01*
X17636226Y32666075D01*
X17636227Y32666074D01*
X17689098Y32574500D01*
X17705836Y32505505D01*
X17682616Y32438413D01*
X17626809Y32394526D01*
X17579979Y32385500D01*
X10139738Y32385500D01*
X10071617Y32405502D01*
X10065677Y32409564D01*
X9958387Y32487515D01*
X9958386Y32487516D01*
X9953045Y32491396D01*
X9947017Y32494080D01*
X9947015Y32494081D01*
X9795577Y32561505D01*
X9795576Y32561505D01*
X9789546Y32564190D01*
X9702016Y32582795D01*
X9620943Y32600028D01*
X9620939Y32600028D01*
X9614486Y32601400D01*
X9435514Y32601400D01*
X9429061Y32600028D01*
X9429057Y32600028D01*
X9347984Y32582795D01*
X9260454Y32564190D01*
X9254424Y32561505D01*
X9254423Y32561505D01*
X9102985Y32494081D01*
X9102983Y32494080D01*
X9096955Y32491396D01*
X9091614Y32487516D01*
X9091613Y32487515D01*
X8970572Y32399573D01*
X8952164Y32386199D01*
X8832409Y32253197D01*
X8742923Y32098203D01*
X8687618Y31927991D01*
X8668910Y31750000D01*
X3048000Y31750000D01*
X3048000Y35893345D01*
X3068002Y35961466D01*
X3121658Y36007959D01*
X3191932Y36018063D01*
X3256512Y35988569D01*
X3272152Y35971589D01*
X3272274Y35971694D01*
X3428204Y35791683D01*
X3611442Y35639556D01*
X3615894Y35636954D01*
X3615899Y35636951D01*
X3811828Y35522459D01*
X3817065Y35519399D01*
X4039552Y35434440D01*
X4044618Y35433409D01*
X4044619Y35433409D01*
X4076322Y35426959D01*
X4272928Y35386959D01*
X4407121Y35382038D01*
X4505760Y35378421D01*
X4505764Y35378421D01*
X4510924Y35378232D01*
X4516044Y35378888D01*
X4516046Y35378888D01*
X4742023Y35407836D01*
X4742024Y35407836D01*
X4747151Y35408493D01*
X4831803Y35433890D01*
X4970316Y35475446D01*
X4970317Y35475447D01*
X4975262Y35476930D01*
X5189133Y35581705D01*
X5193336Y35584703D01*
X5193341Y35584706D01*
X5378816Y35717004D01*
X5378818Y35717006D01*
X5383020Y35720003D01*
X5551716Y35888111D01*
X5609979Y35969193D01*
X5665972Y36012840D01*
X5736676Y36019286D01*
X5799640Y35986484D01*
X5811582Y35972824D01*
X5812274Y35971694D01*
X5968204Y35791683D01*
X6151442Y35639556D01*
X6155894Y35636954D01*
X6155899Y35636951D01*
X6351828Y35522459D01*
X6357065Y35519399D01*
X6579552Y35434440D01*
X6584618Y35433409D01*
X6584619Y35433409D01*
X6616322Y35426959D01*
X6812928Y35386959D01*
X6947121Y35382038D01*
X7045760Y35378421D01*
X7045764Y35378421D01*
X7050924Y35378232D01*
X7056044Y35378888D01*
X7056046Y35378888D01*
X7282023Y35407836D01*
X7282024Y35407836D01*
X7287151Y35408493D01*
X7371803Y35433890D01*
X7510316Y35475446D01*
X7510317Y35475447D01*
X7515262Y35476930D01*
X7729133Y35581705D01*
X7733336Y35584703D01*
X7733341Y35584706D01*
X7918816Y35717004D01*
X7918818Y35717006D01*
X7923020Y35720003D01*
X8091716Y35888111D01*
X8149979Y35969193D01*
X8205972Y36012840D01*
X8276676Y36019286D01*
X8339640Y35986484D01*
X8351582Y35972824D01*
X8352274Y35971694D01*
X8508204Y35791683D01*
X8691442Y35639556D01*
X8695894Y35636954D01*
X8695899Y35636951D01*
X8891828Y35522459D01*
X8897065Y35519399D01*
X9119552Y35434440D01*
X9124618Y35433409D01*
X9124619Y35433409D01*
X9156322Y35426959D01*
X9352928Y35386959D01*
X9487121Y35382038D01*
X9585760Y35378421D01*
X9585764Y35378421D01*
X9590924Y35378232D01*
X9596044Y35378888D01*
X9596046Y35378888D01*
X9822023Y35407836D01*
X9822024Y35407836D01*
X9827151Y35408493D01*
X9911803Y35433890D01*
X10050316Y35475446D01*
X10050317Y35475447D01*
X10055262Y35476930D01*
X10269133Y35581705D01*
X10273336Y35584703D01*
X10273341Y35584706D01*
X10458816Y35717004D01*
X10458818Y35717006D01*
X10463020Y35720003D01*
X10631716Y35888111D01*
X10689979Y35969193D01*
X10745972Y36012840D01*
X10816676Y36019286D01*
X10879640Y35986484D01*
X10891582Y35972824D01*
X10892274Y35971694D01*
X11048204Y35791683D01*
X11231442Y35639556D01*
X11235894Y35636954D01*
X11235899Y35636951D01*
X11431828Y35522459D01*
X11437065Y35519399D01*
X11659552Y35434440D01*
X11664618Y35433409D01*
X11664619Y35433409D01*
X11696322Y35426959D01*
X11892928Y35386959D01*
X12027121Y35382038D01*
X12125760Y35378421D01*
X12125764Y35378421D01*
X12130924Y35378232D01*
X12136044Y35378888D01*
X12136046Y35378888D01*
X12362023Y35407836D01*
X12362024Y35407836D01*
X12367151Y35408493D01*
X12451803Y35433890D01*
X12590316Y35475446D01*
X12590317Y35475447D01*
X12595262Y35476930D01*
X12809133Y35581705D01*
X12813336Y35584703D01*
X12813341Y35584706D01*
X12998816Y35717004D01*
X12998818Y35717006D01*
X13003020Y35720003D01*
X13171716Y35888111D01*
X13229979Y35969193D01*
X13285972Y36012840D01*
X13356676Y36019286D01*
X13419640Y35986484D01*
X13431582Y35972824D01*
X13432274Y35971694D01*
X13588204Y35791683D01*
X13771442Y35639556D01*
X13775894Y35636954D01*
X13775899Y35636951D01*
X13971828Y35522459D01*
X13977065Y35519399D01*
X14199552Y35434440D01*
X14204618Y35433409D01*
X14204619Y35433409D01*
X14236322Y35426959D01*
X14432928Y35386959D01*
X14567121Y35382038D01*
X14665760Y35378421D01*
X14665764Y35378421D01*
X14670924Y35378232D01*
X14676044Y35378888D01*
X14676046Y35378888D01*
X14902023Y35407836D01*
X14902024Y35407836D01*
X14907151Y35408493D01*
X14991803Y35433890D01*
X15130316Y35475446D01*
X15130317Y35475447D01*
X15135262Y35476930D01*
X15349133Y35581705D01*
X15353336Y35584703D01*
X15353341Y35584706D01*
X15538816Y35717004D01*
X15538818Y35717006D01*
X15543020Y35720003D01*
X15711716Y35888111D01*
X15769979Y35969193D01*
X15825972Y36012840D01*
X15896676Y36019286D01*
X15959640Y35986484D01*
X15971582Y35972824D01*
X15972274Y35971694D01*
X16128204Y35791683D01*
X16311442Y35639556D01*
X16315894Y35636954D01*
X16315899Y35636951D01*
X16511828Y35522459D01*
X16517065Y35519399D01*
X16739552Y35434440D01*
X16744618Y35433409D01*
X16744619Y35433409D01*
X16776322Y35426959D01*
X16972928Y35386959D01*
X17107121Y35382038D01*
X17205760Y35378421D01*
X17205764Y35378421D01*
X17210924Y35378232D01*
X17216044Y35378888D01*
X17216046Y35378888D01*
X17442023Y35407836D01*
X17442024Y35407836D01*
X17447151Y35408493D01*
X17531803Y35433890D01*
X17670316Y35475446D01*
X17670317Y35475447D01*
X17675262Y35476930D01*
X17889133Y35581705D01*
X17893336Y35584703D01*
X17893341Y35584706D01*
X18078816Y35717004D01*
X18078818Y35717006D01*
X18083020Y35720003D01*
X18251716Y35888111D01*
X18309979Y35969193D01*
X18365972Y36012840D01*
X18436676Y36019286D01*
X18499640Y35986484D01*
X18511582Y35972824D01*
X18512274Y35971694D01*
X18668204Y35791683D01*
X18851442Y35639556D01*
X18855894Y35636954D01*
X18855899Y35636951D01*
X19051828Y35522459D01*
X19057065Y35519399D01*
X19279552Y35434440D01*
X19284618Y35433409D01*
X19284619Y35433409D01*
X19316322Y35426959D01*
X19512928Y35386959D01*
X19647121Y35382038D01*
X19745760Y35378421D01*
X19745764Y35378421D01*
X19750924Y35378232D01*
X19756044Y35378888D01*
X19756046Y35378888D01*
X19982023Y35407836D01*
X19982024Y35407836D01*
X19987151Y35408493D01*
X20071803Y35433890D01*
X20210316Y35475446D01*
X20210317Y35475447D01*
X20215262Y35476930D01*
X20429133Y35581705D01*
X20433336Y35584703D01*
X20433341Y35584706D01*
X20618816Y35717004D01*
X20618818Y35717006D01*
X20623020Y35720003D01*
X20791716Y35888111D01*
X20849979Y35969193D01*
X20905972Y36012840D01*
X20976676Y36019286D01*
X21039640Y35986484D01*
X21051582Y35972824D01*
X21052274Y35971694D01*
X21208204Y35791683D01*
X21391442Y35639556D01*
X21395894Y35636954D01*
X21395899Y35636951D01*
X21591828Y35522459D01*
X21597065Y35519399D01*
X21819552Y35434440D01*
X21824618Y35433409D01*
X21824619Y35433409D01*
X21856322Y35426959D01*
X22052928Y35386959D01*
X22187121Y35382038D01*
X22285760Y35378421D01*
X22285764Y35378421D01*
X22290924Y35378232D01*
X22296044Y35378888D01*
X22296046Y35378888D01*
X22522023Y35407836D01*
X22522024Y35407836D01*
X22527151Y35408493D01*
X22611803Y35433890D01*
X22750316Y35475446D01*
X22750317Y35475447D01*
X22755262Y35476930D01*
X22969133Y35581705D01*
X22973336Y35584703D01*
X22973341Y35584706D01*
X23050155Y35639497D01*
X23939326Y35639497D01*
X23944607Y35632442D01*
X24132821Y35522459D01*
X24142108Y35518009D01*
X24354861Y35436767D01*
X24364763Y35433890D01*
X24587911Y35388490D01*
X24598163Y35387267D01*
X24825738Y35378923D01*
X24836024Y35379390D01*
X25061915Y35408327D01*
X25072001Y35410470D01*
X25290128Y35475912D01*
X25299723Y35479672D01*
X25504237Y35579863D01*
X25513083Y35585137D01*
X25578631Y35631892D01*
X25584602Y35639497D01*
X26479326Y35639497D01*
X26484607Y35632442D01*
X26672821Y35522459D01*
X26682108Y35518009D01*
X26894861Y35436767D01*
X26904763Y35433890D01*
X27127911Y35388490D01*
X27138163Y35387267D01*
X27365738Y35378923D01*
X27376024Y35379390D01*
X27601915Y35408327D01*
X27612001Y35410470D01*
X27830128Y35475912D01*
X27839723Y35479672D01*
X28044237Y35579863D01*
X28053083Y35585137D01*
X28118631Y35631892D01*
X28127032Y35642592D01*
X28120045Y35655744D01*
X27317811Y36457979D01*
X27303868Y36465592D01*
X27302034Y36465461D01*
X27295420Y36461210D01*
X26486083Y35651872D01*
X26479326Y35639497D01*
X25584602Y35639497D01*
X25587032Y35642592D01*
X25580045Y35655744D01*
X24777811Y36457979D01*
X24763868Y36465592D01*
X24762034Y36465461D01*
X24755420Y36461210D01*
X23946083Y35651872D01*
X23939326Y35639497D01*
X23050155Y35639497D01*
X23158816Y35717004D01*
X23158818Y35717006D01*
X23163020Y35720003D01*
X23331716Y35888111D01*
X23334732Y35892308D01*
X23334739Y35892316D01*
X23397170Y35979198D01*
X23453164Y36022846D01*
X23523868Y36029292D01*
X23570626Y36005831D01*
X23574976Y36005110D01*
X23585387Y36009598D01*
X24392979Y36817189D01*
X24399356Y36828868D01*
X25129408Y36828868D01*
X25129539Y36827034D01*
X25133790Y36820420D01*
X25939826Y36014385D01*
X25951832Y36007829D01*
X25956671Y36011526D01*
X26022946Y36036985D01*
X26092464Y36022572D01*
X26116418Y36005732D01*
X26125387Y36009598D01*
X26932979Y36817189D01*
X26939356Y36828868D01*
X27669408Y36828868D01*
X27669539Y36827034D01*
X27673790Y36820420D01*
X28479826Y36014385D01*
X28491831Y36007830D01*
X28508279Y36020395D01*
X28574554Y36045854D01*
X28644072Y36031441D01*
X28680007Y36002767D01*
X28828204Y35831683D01*
X29011442Y35679556D01*
X29015894Y35676954D01*
X29015899Y35676951D01*
X29212607Y35562004D01*
X29217065Y35559399D01*
X29439552Y35474440D01*
X29444618Y35473409D01*
X29444619Y35473409D01*
X29498956Y35462354D01*
X29672928Y35426959D01*
X29807121Y35422038D01*
X29905760Y35418421D01*
X29905764Y35418421D01*
X29910924Y35418232D01*
X29916044Y35418888D01*
X29916046Y35418888D01*
X30142023Y35447836D01*
X30142024Y35447836D01*
X30147151Y35448493D01*
X30230200Y35473409D01*
X30370316Y35515446D01*
X30370317Y35515447D01*
X30375262Y35516930D01*
X30589133Y35621705D01*
X30593336Y35624703D01*
X30593341Y35624706D01*
X30778816Y35757004D01*
X30778818Y35757006D01*
X30783020Y35760003D01*
X30951716Y35928111D01*
X30996095Y35989871D01*
X31052089Y36033518D01*
X31122792Y36039964D01*
X31185756Y36007161D01*
X31205847Y35982182D01*
X31212274Y35971694D01*
X31368204Y35791683D01*
X31551442Y35639556D01*
X31555894Y35636954D01*
X31555899Y35636951D01*
X31751828Y35522459D01*
X31757065Y35519399D01*
X31979552Y35434440D01*
X31984618Y35433409D01*
X31984619Y35433409D01*
X32016322Y35426959D01*
X32212928Y35386959D01*
X32347121Y35382038D01*
X32445760Y35378421D01*
X32445764Y35378421D01*
X32450924Y35378232D01*
X32456044Y35378888D01*
X32456046Y35378888D01*
X32682023Y35407836D01*
X32682024Y35407836D01*
X32687151Y35408493D01*
X32771803Y35433890D01*
X32910316Y35475446D01*
X32910317Y35475447D01*
X32915262Y35476930D01*
X33129133Y35581705D01*
X33133336Y35584703D01*
X33133341Y35584706D01*
X33318816Y35717004D01*
X33318818Y35717006D01*
X33323020Y35720003D01*
X33491716Y35888111D01*
X33630690Y36081514D01*
X33650460Y36121514D01*
X33733917Y36290376D01*
X33733918Y36290378D01*
X33736211Y36295018D01*
X33805443Y36522889D01*
X33836529Y36759008D01*
X33838264Y36830000D01*
X33818750Y37067356D01*
X33760731Y37298337D01*
X33688482Y37464500D01*
X33667827Y37512004D01*
X33667825Y37512007D01*
X33665767Y37516741D01*
X33640879Y37555213D01*
X33579193Y37650563D01*
X33536406Y37716702D01*
X33514935Y37740299D01*
X33478535Y37780301D01*
X33376124Y37892850D01*
X33372073Y37896049D01*
X33372069Y37896053D01*
X33193278Y38037253D01*
X33193273Y38037256D01*
X33189224Y38040454D01*
X33184708Y38042947D01*
X33184705Y38042949D01*
X32985250Y38153054D01*
X32985246Y38153056D01*
X32980726Y38155551D01*
X32975857Y38157275D01*
X32975853Y38157277D01*
X32761105Y38233324D01*
X32761101Y38233325D01*
X32756230Y38235050D01*
X32751140Y38235957D01*
X32751135Y38235958D01*
X32623814Y38258636D01*
X32521764Y38276814D01*
X32425445Y38277991D01*
X32288795Y38279661D01*
X32288793Y38279661D01*
X32283625Y38279724D01*
X32048209Y38243700D01*
X31821838Y38169711D01*
X31811682Y38164424D01*
X31675314Y38093435D01*
X31610590Y38059742D01*
X31606457Y38056639D01*
X31606454Y38056637D01*
X31436494Y37929027D01*
X31420140Y37916748D01*
X31416568Y37913010D01*
X31267197Y37756702D01*
X31255602Y37744569D01*
X31233467Y37712120D01*
X31178558Y37667119D01*
X31108033Y37658946D01*
X31044286Y37690200D01*
X31023588Y37714685D01*
X31014706Y37728414D01*
X30996406Y37756702D01*
X30992878Y37760580D01*
X30878975Y37885757D01*
X30836124Y37932850D01*
X30832073Y37936049D01*
X30832069Y37936053D01*
X30653278Y38077253D01*
X30653273Y38077256D01*
X30649224Y38080454D01*
X30644708Y38082947D01*
X30644705Y38082949D01*
X30445250Y38193054D01*
X30445246Y38193056D01*
X30440726Y38195551D01*
X30435857Y38197275D01*
X30435853Y38197277D01*
X30221105Y38273324D01*
X30221101Y38273325D01*
X30216230Y38275050D01*
X30211140Y38275957D01*
X30211135Y38275958D01*
X30083814Y38298636D01*
X29981764Y38316814D01*
X29892637Y38317903D01*
X29748795Y38319661D01*
X29748793Y38319661D01*
X29743625Y38319724D01*
X29508209Y38283700D01*
X29281838Y38209711D01*
X29070590Y38099742D01*
X29066457Y38096639D01*
X29066454Y38096637D01*
X28884275Y37959853D01*
X28880140Y37956748D01*
X28715602Y37784569D01*
X28655877Y37697015D01*
X28600966Y37652013D01*
X28530441Y37643842D01*
X28516187Y37650563D01*
X28493939Y37653693D01*
X28482756Y37648545D01*
X27677021Y36842811D01*
X27669408Y36828868D01*
X26939356Y36828868D01*
X26940592Y36831132D01*
X26940461Y36832966D01*
X26936210Y36839580D01*
X26130220Y37645569D01*
X26118688Y37651866D01*
X26113721Y37647974D01*
X26047762Y37621707D01*
X25978073Y37635270D01*
X25953788Y37651685D01*
X25952321Y37652948D01*
X25942756Y37648545D01*
X25137021Y36842811D01*
X25129408Y36828868D01*
X24399356Y36828868D01*
X24400592Y36831132D01*
X24400461Y36832966D01*
X24396210Y36839580D01*
X23590220Y37645569D01*
X23577803Y37652349D01*
X23514899Y37627301D01*
X23445210Y37640865D01*
X23397360Y37684312D01*
X23379216Y37712358D01*
X23376406Y37716702D01*
X23354935Y37740299D01*
X23318535Y37780301D01*
X23216124Y37892850D01*
X23212073Y37896049D01*
X23212069Y37896053D01*
X23058018Y38017715D01*
X23942081Y38017715D01*
X23948825Y38005386D01*
X24752189Y37202021D01*
X24766132Y37194408D01*
X24767966Y37194539D01*
X24774580Y37198790D01*
X25582331Y38006542D01*
X25588432Y38017715D01*
X26482081Y38017715D01*
X26488825Y38005386D01*
X27292189Y37202021D01*
X27306132Y37194408D01*
X27307966Y37194539D01*
X27314580Y37198790D01*
X28122331Y38006542D01*
X28129348Y38019393D01*
X28121574Y38030063D01*
X28113004Y38036831D01*
X28104417Y38042536D01*
X27905055Y38152590D01*
X27895643Y38156820D01*
X27680971Y38232840D01*
X27671014Y38235470D01*
X27446805Y38275409D01*
X27436554Y38276378D01*
X27208830Y38279160D01*
X27198546Y38278440D01*
X26973437Y38243994D01*
X26963410Y38241605D01*
X26746951Y38170856D01*
X26737442Y38166859D01*
X26535451Y38061708D01*
X26526716Y38056207D01*
X26490535Y38029042D01*
X26482081Y38017715D01*
X25588432Y38017715D01*
X25589348Y38019393D01*
X25581574Y38030063D01*
X25573004Y38036831D01*
X25564417Y38042536D01*
X25365055Y38152590D01*
X25355643Y38156820D01*
X25140971Y38232840D01*
X25131014Y38235470D01*
X24906805Y38275409D01*
X24896554Y38276378D01*
X24668830Y38279160D01*
X24658546Y38278440D01*
X24433437Y38243994D01*
X24423410Y38241605D01*
X24206951Y38170856D01*
X24197442Y38166859D01*
X23995451Y38061708D01*
X23986716Y38056207D01*
X23950535Y38029042D01*
X23942081Y38017715D01*
X23058018Y38017715D01*
X23033278Y38037253D01*
X23033273Y38037256D01*
X23029224Y38040454D01*
X23024708Y38042947D01*
X23024705Y38042949D01*
X22825250Y38153054D01*
X22825246Y38153056D01*
X22820726Y38155551D01*
X22815857Y38157275D01*
X22815853Y38157277D01*
X22601105Y38233324D01*
X22601101Y38233325D01*
X22596230Y38235050D01*
X22591140Y38235957D01*
X22591135Y38235958D01*
X22463814Y38258636D01*
X22361764Y38276814D01*
X22265445Y38277991D01*
X22128795Y38279661D01*
X22128793Y38279661D01*
X22123625Y38279724D01*
X21888209Y38243700D01*
X21661838Y38169711D01*
X21661261Y38171476D01*
X21598733Y38164424D01*
X21535081Y38195873D01*
X21498537Y38256742D01*
X21500702Y38327705D01*
X21531364Y38377632D01*
X21756899Y38603167D01*
X21819211Y38637193D01*
X21871112Y38637543D01*
X22048597Y38601433D01*
X22053772Y38601243D01*
X22053774Y38601243D01*
X22266673Y38593436D01*
X22266677Y38593436D01*
X22271837Y38593247D01*
X22276957Y38593903D01*
X22276959Y38593903D01*
X22488288Y38620975D01*
X22488289Y38620975D01*
X22493416Y38621632D01*
X22498366Y38623117D01*
X22702429Y38684339D01*
X22702434Y38684341D01*
X22707384Y38685826D01*
X22907994Y38784104D01*
X23089860Y38913827D01*
X23099702Y38923634D01*
X23198479Y39022067D01*
X23260851Y39055983D01*
X23331658Y39050795D01*
X23388419Y39008149D01*
X23405401Y38977046D01*
X23446676Y38866946D01*
X23455214Y38851351D01*
X23531715Y38749276D01*
X23544276Y38736715D01*
X23646351Y38660214D01*
X23661946Y38651676D01*
X23782394Y38606522D01*
X23797649Y38602895D01*
X23848514Y38597369D01*
X23855328Y38597000D01*
X24477885Y38597000D01*
X24493124Y38601475D01*
X24494329Y38602865D01*
X24496000Y38610548D01*
X24496000Y38615116D01*
X25004000Y38615116D01*
X25008475Y38599877D01*
X25009865Y38598672D01*
X25017548Y38597001D01*
X25644669Y38597001D01*
X25651490Y38597371D01*
X25702352Y38602895D01*
X25717604Y38606521D01*
X25838054Y38651676D01*
X25853649Y38660214D01*
X25955724Y38736715D01*
X25968285Y38749276D01*
X26044786Y38851351D01*
X26053324Y38866946D01*
X26098478Y38987394D01*
X26102105Y39002649D01*
X26107631Y39053514D01*
X26108000Y39060328D01*
X26108000Y39370000D01*
X33433910Y39370000D01*
X33434600Y39363435D01*
X33446216Y39252923D01*
X33452618Y39192009D01*
X33507923Y39021797D01*
X33511226Y39016075D01*
X33511227Y39016074D01*
X33532736Y38978819D01*
X33597409Y38866803D01*
X33601827Y38861896D01*
X33601828Y38861895D01*
X33712742Y38738712D01*
X33717164Y38733801D01*
X33722506Y38729920D01*
X33722508Y38729918D01*
X33850133Y38637193D01*
X33861955Y38628604D01*
X33867983Y38625920D01*
X33867985Y38625919D01*
X34019421Y38558496D01*
X34025454Y38555810D01*
X34112984Y38537205D01*
X34194057Y38519972D01*
X34194061Y38519972D01*
X34200514Y38518600D01*
X34379486Y38518600D01*
X34385939Y38519972D01*
X34385943Y38519972D01*
X34467016Y38537205D01*
X34554546Y38555810D01*
X34560573Y38558493D01*
X34560581Y38558496D01*
X34598047Y38575177D01*
X34668414Y38584611D01*
X34732711Y38554504D01*
X34770524Y38494415D01*
X34769128Y38421135D01*
X34722618Y38277991D01*
X34721928Y38271428D01*
X34721928Y38271427D01*
X34714134Y38197277D01*
X34703910Y38100000D01*
X34704600Y38093435D01*
X34721479Y37932850D01*
X34722618Y37922009D01*
X34724658Y37915731D01*
X34724658Y37915730D01*
X34732092Y37892850D01*
X34777923Y37751797D01*
X34867409Y37596803D01*
X34871827Y37591896D01*
X34871828Y37591895D01*
X34911506Y37547828D01*
X34987164Y37463801D01*
X35131955Y37358604D01*
X35137983Y37355920D01*
X35137985Y37355919D01*
X35278575Y37293325D01*
X35295454Y37285810D01*
X35382984Y37267205D01*
X35464057Y37249972D01*
X35464061Y37249972D01*
X35470514Y37248600D01*
X35649486Y37248600D01*
X35655939Y37249972D01*
X35655943Y37249972D01*
X35737016Y37267205D01*
X35824546Y37285810D01*
X35841425Y37293325D01*
X35982015Y37355919D01*
X35982017Y37355920D01*
X35988045Y37358604D01*
X36100677Y37440436D01*
X36167545Y37464295D01*
X36174738Y37464500D01*
X43835262Y37464500D01*
X43903383Y37444498D01*
X43909323Y37440436D01*
X44021955Y37358604D01*
X44027983Y37355920D01*
X44027985Y37355919D01*
X44168575Y37293325D01*
X44185454Y37285810D01*
X44272984Y37267205D01*
X44354057Y37249972D01*
X44354061Y37249972D01*
X44360514Y37248600D01*
X44539486Y37248600D01*
X44545939Y37249972D01*
X44545943Y37249972D01*
X44627016Y37267205D01*
X44714546Y37285810D01*
X44731425Y37293325D01*
X44872015Y37355919D01*
X44872017Y37355920D01*
X44878045Y37358604D01*
X45022836Y37463801D01*
X45098494Y37547828D01*
X45138172Y37591895D01*
X45138173Y37591896D01*
X45142591Y37596803D01*
X45232077Y37751797D01*
X45277908Y37892850D01*
X45285342Y37915730D01*
X45285342Y37915731D01*
X45287382Y37922009D01*
X45288522Y37932850D01*
X45305400Y38093435D01*
X45306090Y38100000D01*
X45295866Y38197277D01*
X45288072Y38271427D01*
X45288072Y38271428D01*
X45287382Y38277991D01*
X45275063Y38315907D01*
X45234119Y38441918D01*
X45232077Y38448203D01*
X45142591Y38603197D01*
X45028492Y38729918D01*
X45027258Y38731288D01*
X45027257Y38731289D01*
X45022836Y38736199D01*
X45004838Y38749276D01*
X44883387Y38837515D01*
X44883386Y38837516D01*
X44878045Y38841396D01*
X44872017Y38844080D01*
X44872015Y38844081D01*
X44720577Y38911505D01*
X44720576Y38911505D01*
X44714546Y38914190D01*
X44627016Y38932795D01*
X44545943Y38950028D01*
X44545939Y38950028D01*
X44539486Y38951400D01*
X44360514Y38951400D01*
X44354061Y38950028D01*
X44354057Y38950028D01*
X44272984Y38932795D01*
X44185454Y38914190D01*
X44179424Y38911505D01*
X44179423Y38911505D01*
X44027985Y38844081D01*
X44027983Y38844080D01*
X44021955Y38841396D01*
X44016614Y38837516D01*
X44016613Y38837515D01*
X43909323Y38759564D01*
X43842455Y38735705D01*
X43835262Y38735500D01*
X40840021Y38735500D01*
X40771900Y38755502D01*
X40725407Y38809158D01*
X40715303Y38879432D01*
X40730902Y38924500D01*
X40747205Y38952736D01*
X40779197Y39008149D01*
X40783773Y39016074D01*
X40783774Y39016075D01*
X40787077Y39021797D01*
X40842382Y39192009D01*
X40848785Y39252923D01*
X40860400Y39363435D01*
X40861090Y39370000D01*
X40842382Y39547991D01*
X40787077Y39718203D01*
X40697591Y39873197D01*
X40577836Y40006199D01*
X40433045Y40111396D01*
X40427017Y40114080D01*
X40427015Y40114081D01*
X40275577Y40181505D01*
X40275576Y40181505D01*
X40269546Y40184190D01*
X40152824Y40209000D01*
X40100943Y40220028D01*
X40100939Y40220028D01*
X40094486Y40221400D01*
X39915514Y40221400D01*
X39909061Y40220028D01*
X39909057Y40220028D01*
X39857176Y40209000D01*
X39740454Y40184190D01*
X39734424Y40181505D01*
X39734423Y40181505D01*
X39582985Y40114081D01*
X39582983Y40114080D01*
X39576955Y40111396D01*
X39571614Y40107516D01*
X39571613Y40107515D01*
X39464323Y40029564D01*
X39397455Y40005705D01*
X39390262Y40005500D01*
X34904738Y40005500D01*
X34836617Y40025502D01*
X34830677Y40029564D01*
X34723387Y40107515D01*
X34723386Y40107516D01*
X34718045Y40111396D01*
X34712017Y40114080D01*
X34712015Y40114081D01*
X34560577Y40181505D01*
X34560576Y40181505D01*
X34554546Y40184190D01*
X34437824Y40209000D01*
X34385943Y40220028D01*
X34385939Y40220028D01*
X34379486Y40221400D01*
X34200514Y40221400D01*
X34194061Y40220028D01*
X34194057Y40220028D01*
X34142176Y40209000D01*
X34025454Y40184190D01*
X34019424Y40181505D01*
X34019423Y40181505D01*
X33867985Y40114081D01*
X33867983Y40114080D01*
X33861955Y40111396D01*
X33717164Y40006199D01*
X33597409Y39873197D01*
X33507923Y39718203D01*
X33452618Y39547991D01*
X33433910Y39370000D01*
X26108000Y39370000D01*
X26108000Y39682885D01*
X26103525Y39698124D01*
X26102135Y39699329D01*
X26094452Y39701000D01*
X25022115Y39701000D01*
X25006876Y39696525D01*
X25005671Y39695135D01*
X25004000Y39687452D01*
X25004000Y38615116D01*
X24496000Y38615116D01*
X24496000Y40083000D01*
X24516002Y40151121D01*
X24569658Y40197614D01*
X24622000Y40209000D01*
X26089884Y40209000D01*
X26105123Y40213475D01*
X26106328Y40214865D01*
X26107999Y40222548D01*
X26107999Y40849669D01*
X26107629Y40856490D01*
X26102105Y40907352D01*
X26098479Y40922604D01*
X26053324Y41043054D01*
X26044786Y41058649D01*
X25968285Y41160724D01*
X25955725Y41173284D01*
X25953202Y41175175D01*
X25951329Y41177680D01*
X25949374Y41179635D01*
X25949656Y41179917D01*
X25910688Y41232035D01*
X25905664Y41302854D01*
X25939725Y41365146D01*
X26002056Y41399136D01*
X26028769Y41402000D01*
X46940672Y41402000D01*
X46960057Y41400500D01*
G37*
%TD.AperFunction*%
%TA.AperFunction,Conductor*%
G36*
X19060631Y41381998D02*
G01*
X19107124Y41328342D01*
X19117228Y41258068D01*
X19087734Y41193488D01*
X19050690Y41164237D01*
X18998753Y41137200D01*
X18943607Y41108493D01*
X18939474Y41105390D01*
X18939471Y41105388D01*
X18769100Y40977470D01*
X18764965Y40974365D01*
X18610629Y40812862D01*
X18607720Y40808597D01*
X18607714Y40808589D01*
X18522556Y40683751D01*
X18484743Y40628320D01*
X18390688Y40425695D01*
X18330989Y40210430D01*
X18307251Y39988305D01*
X18320110Y39765285D01*
X18321247Y39760239D01*
X18321248Y39760233D01*
X18335606Y39696525D01*
X18369222Y39547361D01*
X18407461Y39453189D01*
X18438575Y39376565D01*
X18453266Y39340384D01*
X18455966Y39335978D01*
X18455968Y39335974D01*
X18511818Y39244834D01*
X18530356Y39176301D01*
X18508899Y39108624D01*
X18454260Y39063291D01*
X18404385Y39053000D01*
X10989000Y39053000D01*
X10920879Y39073002D01*
X10874386Y39126658D01*
X10863000Y39179000D01*
X10863000Y39732885D01*
X10858525Y39748124D01*
X10857135Y39749329D01*
X10849452Y39751000D01*
X9377000Y39751000D01*
X9308879Y39771002D01*
X9262386Y39824658D01*
X9251000Y39877000D01*
X9251000Y40133000D01*
X9271002Y40201121D01*
X9324658Y40247614D01*
X9377000Y40259000D01*
X10844884Y40259000D01*
X10860123Y40263475D01*
X10861328Y40264865D01*
X10862999Y40272548D01*
X10862999Y40899669D01*
X10862629Y40906490D01*
X10857105Y40957352D01*
X10853479Y40972604D01*
X10808324Y41093054D01*
X10799786Y41108649D01*
X10730996Y41200435D01*
X10706148Y41266942D01*
X10721201Y41336324D01*
X10771375Y41386554D01*
X10831822Y41402000D01*
X18992510Y41402000D01*
X19060631Y41381998D01*
G37*
%TD.AperFunction*%
%TD*%
M02*
