%TF.GenerationSoftware,KiCad,Pcbnew,6.0.1-79c1e3a40b~116~ubuntu20.04.1*%
%TF.CreationDate,2022-02-08T10:59:44-05:00*%
%TF.ProjectId,gameKey-PCB-MainControl,67616d65-4b65-4792-9d50-43422d4d6169,rev?*%
%TF.SameCoordinates,Original*%
%TF.FileFunction,Soldermask,Top*%
%TF.FilePolarity,Negative*%
%FSLAX46Y46*%
G04 Gerber Fmt 4.6, Leading zero omitted, Abs format (unit mm)*
G04 Created by KiCad (PCBNEW 6.0.1-79c1e3a40b~116~ubuntu20.04.1) date 2022-02-08 10:59:44*
%MOMM*%
%LPD*%
G01*
G04 APERTURE LIST*
G04 Aperture macros list*
%AMRoundRect*
0 Rectangle with rounded corners*
0 $1 Rounding radius*
0 $2 $3 $4 $5 $6 $7 $8 $9 X,Y pos of 4 corners*
0 Add a 4 corners polygon primitive as box body*
4,1,4,$2,$3,$4,$5,$6,$7,$8,$9,$2,$3,0*
0 Add four circle primitives for the rounded corners*
1,1,$1+$1,$2,$3*
1,1,$1+$1,$4,$5*
1,1,$1+$1,$6,$7*
1,1,$1+$1,$8,$9*
0 Add four rect primitives between the rounded corners*
20,1,$1+$1,$2,$3,$4,$5,0*
20,1,$1+$1,$4,$5,$6,$7,0*
20,1,$1+$1,$6,$7,$8,$9,0*
20,1,$1+$1,$8,$9,$2,$3,0*%
G04 Aperture macros list end*
%ADD10C,2.301600*%
%ADD11RoundRect,0.431800X-1.143000X0.381000X-1.143000X-0.381000X1.143000X-0.381000X1.143000X0.381000X0*%
%ADD12RoundRect,0.050800X-0.850000X0.850000X-0.850000X-0.850000X0.850000X-0.850000X0.850000X0.850000X0*%
%ADD13O,1.801600X1.801600*%
%ADD14RoundRect,0.050800X0.450000X-1.000000X0.450000X1.000000X-0.450000X1.000000X-0.450000X-1.000000X0*%
%ADD15C,1.981200*%
G04 APERTURE END LIST*
D10*
%TO.C,H1*%
X25400000Y28575000D03*
%TD*%
D11*
%TO.C,J9*%
X8255000Y15240000D03*
X8255000Y12700000D03*
X8255000Y10160000D03*
X8255000Y7620000D03*
X8255000Y5080000D03*
X8255000Y2540000D03*
%TD*%
%TO.C,J7*%
X26035000Y15240000D03*
X26035000Y12700000D03*
X26035000Y10160000D03*
X26035000Y7620000D03*
X26035000Y5080000D03*
X26035000Y2540000D03*
%TD*%
%TO.C,J5*%
X43815000Y15240000D03*
X43815000Y12700000D03*
X43815000Y10160000D03*
X43815000Y7620000D03*
X43815000Y5080000D03*
X43815000Y2540000D03*
%TD*%
%TO.C,J6*%
X34925000Y15240000D03*
X34925000Y12700000D03*
X34925000Y10160000D03*
X34925000Y7620000D03*
X34925000Y5080000D03*
X34925000Y2540000D03*
%TD*%
D12*
%TO.C,J4*%
X9505000Y40005000D03*
D13*
X6965000Y40005000D03*
%TD*%
D12*
%TO.C,J1*%
X6985000Y29210000D03*
D13*
X4445000Y29210000D03*
%TD*%
D12*
%TO.C,J3*%
X24750000Y39955000D03*
D13*
X22210000Y39955000D03*
X19670000Y39955000D03*
%TD*%
D14*
%TO.C,J2*%
X38910000Y36500000D03*
X40910000Y39700000D03*
X42910000Y36500000D03*
X44910000Y39700000D03*
%TD*%
D15*
%TO.C,B1*%
X32385000Y36830000D03*
X29845000Y36870000D03*
X27305000Y36830000D03*
X24765000Y36830000D03*
X22225000Y36830000D03*
X19685000Y36830000D03*
X17145000Y36830000D03*
X14605000Y36830000D03*
X12065000Y36830000D03*
X9525000Y36830000D03*
X6985000Y36830000D03*
X4445000Y36830000D03*
X4445000Y21590000D03*
X6985000Y21590000D03*
X9525000Y21590000D03*
X12065000Y21590000D03*
X14605000Y21590000D03*
X17145000Y21590000D03*
X19685000Y21590000D03*
X22225000Y21590000D03*
X24765000Y21590000D03*
X27305000Y21590000D03*
X29845000Y21590000D03*
X32385000Y21590000D03*
%TD*%
D11*
%TO.C,J8*%
X17145000Y15240000D03*
X17145000Y12700000D03*
X17145000Y10160000D03*
X17145000Y7620000D03*
X17145000Y5080000D03*
X17145000Y2540000D03*
%TD*%
%TO.C,J10*%
X43815000Y31750000D03*
X43815000Y29210000D03*
X43815000Y26670000D03*
X43815000Y24130000D03*
X43815000Y21590000D03*
X43815000Y19050000D03*
%TD*%
M02*
