%TF.GenerationSoftware,KiCad,Pcbnew,6.0.1-79c1e3a40b~116~ubuntu20.04.1*%
%TF.CreationDate,2022-02-08T10:59:44-05:00*%
%TF.ProjectId,gameKey-PCB-MainControl,67616d65-4b65-4792-9d50-43422d4d6169,rev?*%
%TF.SameCoordinates,Original*%
%TF.FileFunction,Legend,Bot*%
%TF.FilePolarity,Positive*%
%FSLAX46Y46*%
G04 Gerber Fmt 4.6, Leading zero omitted, Abs format (unit mm)*
G04 Created by KiCad (PCBNEW 6.0.1-79c1e3a40b~116~ubuntu20.04.1) date 2022-02-08 10:59:44*
%MOMM*%
%LPD*%
G01*
G04 APERTURE LIST*
%ADD10C,0.150000*%
%ADD11C,0.120000*%
G04 APERTURE END LIST*
D10*
%TO.C,D6*%
X35663095Y12247619D02*
X35663095Y13247619D01*
X35425000Y13247619D01*
X35282142Y13200000D01*
X35186904Y13104761D01*
X35139285Y13009523D01*
X35091666Y12819047D01*
X35091666Y12676190D01*
X35139285Y12485714D01*
X35186904Y12390476D01*
X35282142Y12295238D01*
X35425000Y12247619D01*
X35663095Y12247619D01*
X34234523Y13247619D02*
X34425000Y13247619D01*
X34520238Y13200000D01*
X34567857Y13152380D01*
X34663095Y13009523D01*
X34710714Y12819047D01*
X34710714Y12438095D01*
X34663095Y12342857D01*
X34615476Y12295238D01*
X34520238Y12247619D01*
X34329761Y12247619D01*
X34234523Y12295238D01*
X34186904Y12342857D01*
X34139285Y12438095D01*
X34139285Y12676190D01*
X34186904Y12771428D01*
X34234523Y12819047D01*
X34329761Y12866666D01*
X34520238Y12866666D01*
X34615476Y12819047D01*
X34663095Y12771428D01*
X34710714Y12676190D01*
%TO.C,D7*%
X35663095Y9707619D02*
X35663095Y10707619D01*
X35425000Y10707619D01*
X35282142Y10660000D01*
X35186904Y10564761D01*
X35139285Y10469523D01*
X35091666Y10279047D01*
X35091666Y10136190D01*
X35139285Y9945714D01*
X35186904Y9850476D01*
X35282142Y9755238D01*
X35425000Y9707619D01*
X35663095Y9707619D01*
X34758333Y10707619D02*
X34091666Y10707619D01*
X34520238Y9707619D01*
%TO.C,D8*%
X35663095Y7167619D02*
X35663095Y8167619D01*
X35425000Y8167619D01*
X35282142Y8120000D01*
X35186904Y8024761D01*
X35139285Y7929523D01*
X35091666Y7739047D01*
X35091666Y7596190D01*
X35139285Y7405714D01*
X35186904Y7310476D01*
X35282142Y7215238D01*
X35425000Y7167619D01*
X35663095Y7167619D01*
X34520238Y7739047D02*
X34615476Y7786666D01*
X34663095Y7834285D01*
X34710714Y7929523D01*
X34710714Y7977142D01*
X34663095Y8072380D01*
X34615476Y8120000D01*
X34520238Y8167619D01*
X34329761Y8167619D01*
X34234523Y8120000D01*
X34186904Y8072380D01*
X34139285Y7977142D01*
X34139285Y7929523D01*
X34186904Y7834285D01*
X34234523Y7786666D01*
X34329761Y7739047D01*
X34520238Y7739047D01*
X34615476Y7691428D01*
X34663095Y7643809D01*
X34710714Y7548571D01*
X34710714Y7358095D01*
X34663095Y7262857D01*
X34615476Y7215238D01*
X34520238Y7167619D01*
X34329761Y7167619D01*
X34234523Y7215238D01*
X34186904Y7262857D01*
X34139285Y7358095D01*
X34139285Y7548571D01*
X34186904Y7643809D01*
X34234523Y7691428D01*
X34329761Y7739047D01*
%TO.C,D9*%
X35663095Y4627619D02*
X35663095Y5627619D01*
X35425000Y5627619D01*
X35282142Y5580000D01*
X35186904Y5484761D01*
X35139285Y5389523D01*
X35091666Y5199047D01*
X35091666Y5056190D01*
X35139285Y4865714D01*
X35186904Y4770476D01*
X35282142Y4675238D01*
X35425000Y4627619D01*
X35663095Y4627619D01*
X34615476Y4627619D02*
X34425000Y4627619D01*
X34329761Y4675238D01*
X34282142Y4722857D01*
X34186904Y4865714D01*
X34139285Y5056190D01*
X34139285Y5437142D01*
X34186904Y5532380D01*
X34234523Y5580000D01*
X34329761Y5627619D01*
X34520238Y5627619D01*
X34615476Y5580000D01*
X34663095Y5532380D01*
X34710714Y5437142D01*
X34710714Y5199047D01*
X34663095Y5103809D01*
X34615476Y5056190D01*
X34520238Y5008571D01*
X34329761Y5008571D01*
X34234523Y5056190D01*
X34186904Y5103809D01*
X34139285Y5199047D01*
%TO.C,D10*%
X36139285Y2087619D02*
X36139285Y3087619D01*
X35901190Y3087619D01*
X35758333Y3040000D01*
X35663095Y2944761D01*
X35615476Y2849523D01*
X35567857Y2659047D01*
X35567857Y2516190D01*
X35615476Y2325714D01*
X35663095Y2230476D01*
X35758333Y2135238D01*
X35901190Y2087619D01*
X36139285Y2087619D01*
X34615476Y2087619D02*
X35186904Y2087619D01*
X34901190Y2087619D02*
X34901190Y3087619D01*
X34996428Y2944761D01*
X35091666Y2849523D01*
X35186904Y2801904D01*
X33996428Y3087619D02*
X33901190Y3087619D01*
X33805952Y3040000D01*
X33758333Y2992380D01*
X33710714Y2897142D01*
X33663095Y2706666D01*
X33663095Y2468571D01*
X33710714Y2278095D01*
X33758333Y2182857D01*
X33805952Y2135238D01*
X33901190Y2087619D01*
X33996428Y2087619D01*
X34091666Y2135238D01*
X34139285Y2182857D01*
X34186904Y2278095D01*
X34234523Y2468571D01*
X34234523Y2706666D01*
X34186904Y2897142D01*
X34139285Y2992380D01*
X34091666Y3040000D01*
X33996428Y3087619D01*
%TO.C,D11*%
X27249285Y12247619D02*
X27249285Y13247619D01*
X27011190Y13247619D01*
X26868333Y13200000D01*
X26773095Y13104761D01*
X26725476Y13009523D01*
X26677857Y12819047D01*
X26677857Y12676190D01*
X26725476Y12485714D01*
X26773095Y12390476D01*
X26868333Y12295238D01*
X27011190Y12247619D01*
X27249285Y12247619D01*
X25725476Y12247619D02*
X26296904Y12247619D01*
X26011190Y12247619D02*
X26011190Y13247619D01*
X26106428Y13104761D01*
X26201666Y13009523D01*
X26296904Y12961904D01*
X24773095Y12247619D02*
X25344523Y12247619D01*
X25058809Y12247619D02*
X25058809Y13247619D01*
X25154047Y13104761D01*
X25249285Y13009523D01*
X25344523Y12961904D01*
%TO.C,D12*%
X27249285Y9707619D02*
X27249285Y10707619D01*
X27011190Y10707619D01*
X26868333Y10660000D01*
X26773095Y10564761D01*
X26725476Y10469523D01*
X26677857Y10279047D01*
X26677857Y10136190D01*
X26725476Y9945714D01*
X26773095Y9850476D01*
X26868333Y9755238D01*
X27011190Y9707619D01*
X27249285Y9707619D01*
X25725476Y9707619D02*
X26296904Y9707619D01*
X26011190Y9707619D02*
X26011190Y10707619D01*
X26106428Y10564761D01*
X26201666Y10469523D01*
X26296904Y10421904D01*
X25344523Y10612380D02*
X25296904Y10660000D01*
X25201666Y10707619D01*
X24963571Y10707619D01*
X24868333Y10660000D01*
X24820714Y10612380D01*
X24773095Y10517142D01*
X24773095Y10421904D01*
X24820714Y10279047D01*
X25392142Y9707619D01*
X24773095Y9707619D01*
%TO.C,D13*%
X27249285Y7167619D02*
X27249285Y8167619D01*
X27011190Y8167619D01*
X26868333Y8120000D01*
X26773095Y8024761D01*
X26725476Y7929523D01*
X26677857Y7739047D01*
X26677857Y7596190D01*
X26725476Y7405714D01*
X26773095Y7310476D01*
X26868333Y7215238D01*
X27011190Y7167619D01*
X27249285Y7167619D01*
X25725476Y7167619D02*
X26296904Y7167619D01*
X26011190Y7167619D02*
X26011190Y8167619D01*
X26106428Y8024761D01*
X26201666Y7929523D01*
X26296904Y7881904D01*
X25392142Y8167619D02*
X24773095Y8167619D01*
X25106428Y7786666D01*
X24963571Y7786666D01*
X24868333Y7739047D01*
X24820714Y7691428D01*
X24773095Y7596190D01*
X24773095Y7358095D01*
X24820714Y7262857D01*
X24868333Y7215238D01*
X24963571Y7167619D01*
X25249285Y7167619D01*
X25344523Y7215238D01*
X25392142Y7262857D01*
%TO.C,D14*%
X27249285Y4627619D02*
X27249285Y5627619D01*
X27011190Y5627619D01*
X26868333Y5580000D01*
X26773095Y5484761D01*
X26725476Y5389523D01*
X26677857Y5199047D01*
X26677857Y5056190D01*
X26725476Y4865714D01*
X26773095Y4770476D01*
X26868333Y4675238D01*
X27011190Y4627619D01*
X27249285Y4627619D01*
X25725476Y4627619D02*
X26296904Y4627619D01*
X26011190Y4627619D02*
X26011190Y5627619D01*
X26106428Y5484761D01*
X26201666Y5389523D01*
X26296904Y5341904D01*
X24868333Y5294285D02*
X24868333Y4627619D01*
X25106428Y5675238D02*
X25344523Y4960952D01*
X24725476Y4960952D01*
%TO.C,D15*%
X27249285Y2087619D02*
X27249285Y3087619D01*
X27011190Y3087619D01*
X26868333Y3040000D01*
X26773095Y2944761D01*
X26725476Y2849523D01*
X26677857Y2659047D01*
X26677857Y2516190D01*
X26725476Y2325714D01*
X26773095Y2230476D01*
X26868333Y2135238D01*
X27011190Y2087619D01*
X27249285Y2087619D01*
X25725476Y2087619D02*
X26296904Y2087619D01*
X26011190Y2087619D02*
X26011190Y3087619D01*
X26106428Y2944761D01*
X26201666Y2849523D01*
X26296904Y2801904D01*
X24820714Y3087619D02*
X25296904Y3087619D01*
X25344523Y2611428D01*
X25296904Y2659047D01*
X25201666Y2706666D01*
X24963571Y2706666D01*
X24868333Y2659047D01*
X24820714Y2611428D01*
X24773095Y2516190D01*
X24773095Y2278095D01*
X24820714Y2182857D01*
X24868333Y2135238D01*
X24963571Y2087619D01*
X25201666Y2087619D01*
X25296904Y2135238D01*
X25344523Y2182857D01*
%TO.C,D16*%
X18359285Y12247619D02*
X18359285Y13247619D01*
X18121190Y13247619D01*
X17978333Y13200000D01*
X17883095Y13104761D01*
X17835476Y13009523D01*
X17787857Y12819047D01*
X17787857Y12676190D01*
X17835476Y12485714D01*
X17883095Y12390476D01*
X17978333Y12295238D01*
X18121190Y12247619D01*
X18359285Y12247619D01*
X16835476Y12247619D02*
X17406904Y12247619D01*
X17121190Y12247619D02*
X17121190Y13247619D01*
X17216428Y13104761D01*
X17311666Y13009523D01*
X17406904Y12961904D01*
X15978333Y13247619D02*
X16168809Y13247619D01*
X16264047Y13200000D01*
X16311666Y13152380D01*
X16406904Y13009523D01*
X16454523Y12819047D01*
X16454523Y12438095D01*
X16406904Y12342857D01*
X16359285Y12295238D01*
X16264047Y12247619D01*
X16073571Y12247619D01*
X15978333Y12295238D01*
X15930714Y12342857D01*
X15883095Y12438095D01*
X15883095Y12676190D01*
X15930714Y12771428D01*
X15978333Y12819047D01*
X16073571Y12866666D01*
X16264047Y12866666D01*
X16359285Y12819047D01*
X16406904Y12771428D01*
X16454523Y12676190D01*
%TO.C,D17*%
X18359285Y9707619D02*
X18359285Y10707619D01*
X18121190Y10707619D01*
X17978333Y10660000D01*
X17883095Y10564761D01*
X17835476Y10469523D01*
X17787857Y10279047D01*
X17787857Y10136190D01*
X17835476Y9945714D01*
X17883095Y9850476D01*
X17978333Y9755238D01*
X18121190Y9707619D01*
X18359285Y9707619D01*
X16835476Y9707619D02*
X17406904Y9707619D01*
X17121190Y9707619D02*
X17121190Y10707619D01*
X17216428Y10564761D01*
X17311666Y10469523D01*
X17406904Y10421904D01*
X16502142Y10707619D02*
X15835476Y10707619D01*
X16264047Y9707619D01*
%TO.C,D18*%
X18359285Y7167619D02*
X18359285Y8167619D01*
X18121190Y8167619D01*
X17978333Y8120000D01*
X17883095Y8024761D01*
X17835476Y7929523D01*
X17787857Y7739047D01*
X17787857Y7596190D01*
X17835476Y7405714D01*
X17883095Y7310476D01*
X17978333Y7215238D01*
X18121190Y7167619D01*
X18359285Y7167619D01*
X16835476Y7167619D02*
X17406904Y7167619D01*
X17121190Y7167619D02*
X17121190Y8167619D01*
X17216428Y8024761D01*
X17311666Y7929523D01*
X17406904Y7881904D01*
X16264047Y7739047D02*
X16359285Y7786666D01*
X16406904Y7834285D01*
X16454523Y7929523D01*
X16454523Y7977142D01*
X16406904Y8072380D01*
X16359285Y8120000D01*
X16264047Y8167619D01*
X16073571Y8167619D01*
X15978333Y8120000D01*
X15930714Y8072380D01*
X15883095Y7977142D01*
X15883095Y7929523D01*
X15930714Y7834285D01*
X15978333Y7786666D01*
X16073571Y7739047D01*
X16264047Y7739047D01*
X16359285Y7691428D01*
X16406904Y7643809D01*
X16454523Y7548571D01*
X16454523Y7358095D01*
X16406904Y7262857D01*
X16359285Y7215238D01*
X16264047Y7167619D01*
X16073571Y7167619D01*
X15978333Y7215238D01*
X15930714Y7262857D01*
X15883095Y7358095D01*
X15883095Y7548571D01*
X15930714Y7643809D01*
X15978333Y7691428D01*
X16073571Y7739047D01*
%TO.C,D19*%
X18359285Y4627619D02*
X18359285Y5627619D01*
X18121190Y5627619D01*
X17978333Y5580000D01*
X17883095Y5484761D01*
X17835476Y5389523D01*
X17787857Y5199047D01*
X17787857Y5056190D01*
X17835476Y4865714D01*
X17883095Y4770476D01*
X17978333Y4675238D01*
X18121190Y4627619D01*
X18359285Y4627619D01*
X16835476Y4627619D02*
X17406904Y4627619D01*
X17121190Y4627619D02*
X17121190Y5627619D01*
X17216428Y5484761D01*
X17311666Y5389523D01*
X17406904Y5341904D01*
X16359285Y4627619D02*
X16168809Y4627619D01*
X16073571Y4675238D01*
X16025952Y4722857D01*
X15930714Y4865714D01*
X15883095Y5056190D01*
X15883095Y5437142D01*
X15930714Y5532380D01*
X15978333Y5580000D01*
X16073571Y5627619D01*
X16264047Y5627619D01*
X16359285Y5580000D01*
X16406904Y5532380D01*
X16454523Y5437142D01*
X16454523Y5199047D01*
X16406904Y5103809D01*
X16359285Y5056190D01*
X16264047Y5008571D01*
X16073571Y5008571D01*
X15978333Y5056190D01*
X15930714Y5103809D01*
X15883095Y5199047D01*
%TO.C,D20*%
X18359285Y2087619D02*
X18359285Y3087619D01*
X18121190Y3087619D01*
X17978333Y3040000D01*
X17883095Y2944761D01*
X17835476Y2849523D01*
X17787857Y2659047D01*
X17787857Y2516190D01*
X17835476Y2325714D01*
X17883095Y2230476D01*
X17978333Y2135238D01*
X18121190Y2087619D01*
X18359285Y2087619D01*
X17406904Y2992380D02*
X17359285Y3040000D01*
X17264047Y3087619D01*
X17025952Y3087619D01*
X16930714Y3040000D01*
X16883095Y2992380D01*
X16835476Y2897142D01*
X16835476Y2801904D01*
X16883095Y2659047D01*
X17454523Y2087619D01*
X16835476Y2087619D01*
X16216428Y3087619D02*
X16121190Y3087619D01*
X16025952Y3040000D01*
X15978333Y2992380D01*
X15930714Y2897142D01*
X15883095Y2706666D01*
X15883095Y2468571D01*
X15930714Y2278095D01*
X15978333Y2182857D01*
X16025952Y2135238D01*
X16121190Y2087619D01*
X16216428Y2087619D01*
X16311666Y2135238D01*
X16359285Y2182857D01*
X16406904Y2278095D01*
X16454523Y2468571D01*
X16454523Y2706666D01*
X16406904Y2897142D01*
X16359285Y2992380D01*
X16311666Y3040000D01*
X16216428Y3087619D01*
%TO.C,D21*%
X9469285Y12247619D02*
X9469285Y13247619D01*
X9231190Y13247619D01*
X9088333Y13200000D01*
X8993095Y13104761D01*
X8945476Y13009523D01*
X8897857Y12819047D01*
X8897857Y12676190D01*
X8945476Y12485714D01*
X8993095Y12390476D01*
X9088333Y12295238D01*
X9231190Y12247619D01*
X9469285Y12247619D01*
X8516904Y13152380D02*
X8469285Y13200000D01*
X8374047Y13247619D01*
X8135952Y13247619D01*
X8040714Y13200000D01*
X7993095Y13152380D01*
X7945476Y13057142D01*
X7945476Y12961904D01*
X7993095Y12819047D01*
X8564523Y12247619D01*
X7945476Y12247619D01*
X6993095Y12247619D02*
X7564523Y12247619D01*
X7278809Y12247619D02*
X7278809Y13247619D01*
X7374047Y13104761D01*
X7469285Y13009523D01*
X7564523Y12961904D01*
%TO.C,D23*%
X9469285Y7167619D02*
X9469285Y8167619D01*
X9231190Y8167619D01*
X9088333Y8120000D01*
X8993095Y8024761D01*
X8945476Y7929523D01*
X8897857Y7739047D01*
X8897857Y7596190D01*
X8945476Y7405714D01*
X8993095Y7310476D01*
X9088333Y7215238D01*
X9231190Y7167619D01*
X9469285Y7167619D01*
X8516904Y8072380D02*
X8469285Y8120000D01*
X8374047Y8167619D01*
X8135952Y8167619D01*
X8040714Y8120000D01*
X7993095Y8072380D01*
X7945476Y7977142D01*
X7945476Y7881904D01*
X7993095Y7739047D01*
X8564523Y7167619D01*
X7945476Y7167619D01*
X7612142Y8167619D02*
X6993095Y8167619D01*
X7326428Y7786666D01*
X7183571Y7786666D01*
X7088333Y7739047D01*
X7040714Y7691428D01*
X6993095Y7596190D01*
X6993095Y7358095D01*
X7040714Y7262857D01*
X7088333Y7215238D01*
X7183571Y7167619D01*
X7469285Y7167619D01*
X7564523Y7215238D01*
X7612142Y7262857D01*
%TO.C,D24*%
X9469285Y4627619D02*
X9469285Y5627619D01*
X9231190Y5627619D01*
X9088333Y5580000D01*
X8993095Y5484761D01*
X8945476Y5389523D01*
X8897857Y5199047D01*
X8897857Y5056190D01*
X8945476Y4865714D01*
X8993095Y4770476D01*
X9088333Y4675238D01*
X9231190Y4627619D01*
X9469285Y4627619D01*
X8516904Y5532380D02*
X8469285Y5580000D01*
X8374047Y5627619D01*
X8135952Y5627619D01*
X8040714Y5580000D01*
X7993095Y5532380D01*
X7945476Y5437142D01*
X7945476Y5341904D01*
X7993095Y5199047D01*
X8564523Y4627619D01*
X7945476Y4627619D01*
X7088333Y5294285D02*
X7088333Y4627619D01*
X7326428Y5675238D02*
X7564523Y4960952D01*
X6945476Y4960952D01*
%TO.C,D25*%
X9469285Y2087619D02*
X9469285Y3087619D01*
X9231190Y3087619D01*
X9088333Y3040000D01*
X8993095Y2944761D01*
X8945476Y2849523D01*
X8897857Y2659047D01*
X8897857Y2516190D01*
X8945476Y2325714D01*
X8993095Y2230476D01*
X9088333Y2135238D01*
X9231190Y2087619D01*
X9469285Y2087619D01*
X8516904Y2992380D02*
X8469285Y3040000D01*
X8374047Y3087619D01*
X8135952Y3087619D01*
X8040714Y3040000D01*
X7993095Y2992380D01*
X7945476Y2897142D01*
X7945476Y2801904D01*
X7993095Y2659047D01*
X8564523Y2087619D01*
X7945476Y2087619D01*
X7040714Y3087619D02*
X7516904Y3087619D01*
X7564523Y2611428D01*
X7516904Y2659047D01*
X7421666Y2706666D01*
X7183571Y2706666D01*
X7088333Y2659047D01*
X7040714Y2611428D01*
X6993095Y2516190D01*
X6993095Y2278095D01*
X7040714Y2182857D01*
X7088333Y2135238D01*
X7183571Y2087619D01*
X7421666Y2087619D01*
X7516904Y2135238D01*
X7564523Y2182857D01*
%TO.C,D22*%
X9469285Y9707619D02*
X9469285Y10707619D01*
X9231190Y10707619D01*
X9088333Y10660000D01*
X8993095Y10564761D01*
X8945476Y10469523D01*
X8897857Y10279047D01*
X8897857Y10136190D01*
X8945476Y9945714D01*
X8993095Y9850476D01*
X9088333Y9755238D01*
X9231190Y9707619D01*
X9469285Y9707619D01*
X8516904Y10612380D02*
X8469285Y10660000D01*
X8374047Y10707619D01*
X8135952Y10707619D01*
X8040714Y10660000D01*
X7993095Y10612380D01*
X7945476Y10517142D01*
X7945476Y10421904D01*
X7993095Y10279047D01*
X8564523Y9707619D01*
X7945476Y9707619D01*
X7564523Y10612380D02*
X7516904Y10660000D01*
X7421666Y10707619D01*
X7183571Y10707619D01*
X7088333Y10660000D01*
X7040714Y10612380D01*
X6993095Y10517142D01*
X6993095Y10421904D01*
X7040714Y10279047D01*
X7612142Y9707619D01*
X6993095Y9707619D01*
%TO.C,D26*%
X45029285Y28757619D02*
X45029285Y29757619D01*
X44791190Y29757619D01*
X44648333Y29710000D01*
X44553095Y29614761D01*
X44505476Y29519523D01*
X44457857Y29329047D01*
X44457857Y29186190D01*
X44505476Y28995714D01*
X44553095Y28900476D01*
X44648333Y28805238D01*
X44791190Y28757619D01*
X45029285Y28757619D01*
X44076904Y29662380D02*
X44029285Y29710000D01*
X43934047Y29757619D01*
X43695952Y29757619D01*
X43600714Y29710000D01*
X43553095Y29662380D01*
X43505476Y29567142D01*
X43505476Y29471904D01*
X43553095Y29329047D01*
X44124523Y28757619D01*
X43505476Y28757619D01*
X42648333Y29757619D02*
X42838809Y29757619D01*
X42934047Y29710000D01*
X42981666Y29662380D01*
X43076904Y29519523D01*
X43124523Y29329047D01*
X43124523Y28948095D01*
X43076904Y28852857D01*
X43029285Y28805238D01*
X42934047Y28757619D01*
X42743571Y28757619D01*
X42648333Y28805238D01*
X42600714Y28852857D01*
X42553095Y28948095D01*
X42553095Y29186190D01*
X42600714Y29281428D01*
X42648333Y29329047D01*
X42743571Y29376666D01*
X42934047Y29376666D01*
X43029285Y29329047D01*
X43076904Y29281428D01*
X43124523Y29186190D01*
%TO.C,D27*%
X45029285Y26217619D02*
X45029285Y27217619D01*
X44791190Y27217619D01*
X44648333Y27170000D01*
X44553095Y27074761D01*
X44505476Y26979523D01*
X44457857Y26789047D01*
X44457857Y26646190D01*
X44505476Y26455714D01*
X44553095Y26360476D01*
X44648333Y26265238D01*
X44791190Y26217619D01*
X45029285Y26217619D01*
X44076904Y27122380D02*
X44029285Y27170000D01*
X43934047Y27217619D01*
X43695952Y27217619D01*
X43600714Y27170000D01*
X43553095Y27122380D01*
X43505476Y27027142D01*
X43505476Y26931904D01*
X43553095Y26789047D01*
X44124523Y26217619D01*
X43505476Y26217619D01*
X43172142Y27217619D02*
X42505476Y27217619D01*
X42934047Y26217619D01*
%TO.C,D28*%
X45029285Y23677619D02*
X45029285Y24677619D01*
X44791190Y24677619D01*
X44648333Y24630000D01*
X44553095Y24534761D01*
X44505476Y24439523D01*
X44457857Y24249047D01*
X44457857Y24106190D01*
X44505476Y23915714D01*
X44553095Y23820476D01*
X44648333Y23725238D01*
X44791190Y23677619D01*
X45029285Y23677619D01*
X44076904Y24582380D02*
X44029285Y24630000D01*
X43934047Y24677619D01*
X43695952Y24677619D01*
X43600714Y24630000D01*
X43553095Y24582380D01*
X43505476Y24487142D01*
X43505476Y24391904D01*
X43553095Y24249047D01*
X44124523Y23677619D01*
X43505476Y23677619D01*
X42934047Y24249047D02*
X43029285Y24296666D01*
X43076904Y24344285D01*
X43124523Y24439523D01*
X43124523Y24487142D01*
X43076904Y24582380D01*
X43029285Y24630000D01*
X42934047Y24677619D01*
X42743571Y24677619D01*
X42648333Y24630000D01*
X42600714Y24582380D01*
X42553095Y24487142D01*
X42553095Y24439523D01*
X42600714Y24344285D01*
X42648333Y24296666D01*
X42743571Y24249047D01*
X42934047Y24249047D01*
X43029285Y24201428D01*
X43076904Y24153809D01*
X43124523Y24058571D01*
X43124523Y23868095D01*
X43076904Y23772857D01*
X43029285Y23725238D01*
X42934047Y23677619D01*
X42743571Y23677619D01*
X42648333Y23725238D01*
X42600714Y23772857D01*
X42553095Y23868095D01*
X42553095Y24058571D01*
X42600714Y24153809D01*
X42648333Y24201428D01*
X42743571Y24249047D01*
%TO.C,D29*%
X45029285Y21137619D02*
X45029285Y22137619D01*
X44791190Y22137619D01*
X44648333Y22090000D01*
X44553095Y21994761D01*
X44505476Y21899523D01*
X44457857Y21709047D01*
X44457857Y21566190D01*
X44505476Y21375714D01*
X44553095Y21280476D01*
X44648333Y21185238D01*
X44791190Y21137619D01*
X45029285Y21137619D01*
X44076904Y22042380D02*
X44029285Y22090000D01*
X43934047Y22137619D01*
X43695952Y22137619D01*
X43600714Y22090000D01*
X43553095Y22042380D01*
X43505476Y21947142D01*
X43505476Y21851904D01*
X43553095Y21709047D01*
X44124523Y21137619D01*
X43505476Y21137619D01*
X43029285Y21137619D02*
X42838809Y21137619D01*
X42743571Y21185238D01*
X42695952Y21232857D01*
X42600714Y21375714D01*
X42553095Y21566190D01*
X42553095Y21947142D01*
X42600714Y22042380D01*
X42648333Y22090000D01*
X42743571Y22137619D01*
X42934047Y22137619D01*
X43029285Y22090000D01*
X43076904Y22042380D01*
X43124523Y21947142D01*
X43124523Y21709047D01*
X43076904Y21613809D01*
X43029285Y21566190D01*
X42934047Y21518571D01*
X42743571Y21518571D01*
X42648333Y21566190D01*
X42600714Y21613809D01*
X42553095Y21709047D01*
%TO.C,D30*%
X45029285Y18597619D02*
X45029285Y19597619D01*
X44791190Y19597619D01*
X44648333Y19550000D01*
X44553095Y19454761D01*
X44505476Y19359523D01*
X44457857Y19169047D01*
X44457857Y19026190D01*
X44505476Y18835714D01*
X44553095Y18740476D01*
X44648333Y18645238D01*
X44791190Y18597619D01*
X45029285Y18597619D01*
X44124523Y19597619D02*
X43505476Y19597619D01*
X43838809Y19216666D01*
X43695952Y19216666D01*
X43600714Y19169047D01*
X43553095Y19121428D01*
X43505476Y19026190D01*
X43505476Y18788095D01*
X43553095Y18692857D01*
X43600714Y18645238D01*
X43695952Y18597619D01*
X43981666Y18597619D01*
X44076904Y18645238D01*
X44124523Y18692857D01*
X42886428Y19597619D02*
X42791190Y19597619D01*
X42695952Y19550000D01*
X42648333Y19502380D01*
X42600714Y19407142D01*
X42553095Y19216666D01*
X42553095Y18978571D01*
X42600714Y18788095D01*
X42648333Y18692857D01*
X42695952Y18645238D01*
X42791190Y18597619D01*
X42886428Y18597619D01*
X42981666Y18645238D01*
X43029285Y18692857D01*
X43076904Y18788095D01*
X43124523Y18978571D01*
X43124523Y19216666D01*
X43076904Y19407142D01*
X43029285Y19502380D01*
X42981666Y19550000D01*
X42886428Y19597619D01*
%TO.C,D5*%
X44553095Y2087619D02*
X44553095Y3087619D01*
X44315000Y3087619D01*
X44172142Y3040000D01*
X44076904Y2944761D01*
X44029285Y2849523D01*
X43981666Y2659047D01*
X43981666Y2516190D01*
X44029285Y2325714D01*
X44076904Y2230476D01*
X44172142Y2135238D01*
X44315000Y2087619D01*
X44553095Y2087619D01*
X43076904Y3087619D02*
X43553095Y3087619D01*
X43600714Y2611428D01*
X43553095Y2659047D01*
X43457857Y2706666D01*
X43219761Y2706666D01*
X43124523Y2659047D01*
X43076904Y2611428D01*
X43029285Y2516190D01*
X43029285Y2278095D01*
X43076904Y2182857D01*
X43124523Y2135238D01*
X43219761Y2087619D01*
X43457857Y2087619D01*
X43553095Y2135238D01*
X43600714Y2182857D01*
%TO.C,D2*%
X44553095Y9707619D02*
X44553095Y10707619D01*
X44315000Y10707619D01*
X44172142Y10660000D01*
X44076904Y10564761D01*
X44029285Y10469523D01*
X43981666Y10279047D01*
X43981666Y10136190D01*
X44029285Y9945714D01*
X44076904Y9850476D01*
X44172142Y9755238D01*
X44315000Y9707619D01*
X44553095Y9707619D01*
X43600714Y10612380D02*
X43553095Y10660000D01*
X43457857Y10707619D01*
X43219761Y10707619D01*
X43124523Y10660000D01*
X43076904Y10612380D01*
X43029285Y10517142D01*
X43029285Y10421904D01*
X43076904Y10279047D01*
X43648333Y9707619D01*
X43029285Y9707619D01*
%TO.C,D4*%
X44553095Y4627619D02*
X44553095Y5627619D01*
X44315000Y5627619D01*
X44172142Y5580000D01*
X44076904Y5484761D01*
X44029285Y5389523D01*
X43981666Y5199047D01*
X43981666Y5056190D01*
X44029285Y4865714D01*
X44076904Y4770476D01*
X44172142Y4675238D01*
X44315000Y4627619D01*
X44553095Y4627619D01*
X43124523Y5294285D02*
X43124523Y4627619D01*
X43362619Y5675238D02*
X43600714Y4960952D01*
X42981666Y4960952D01*
%TO.C,D3*%
X44553095Y7167619D02*
X44553095Y8167619D01*
X44315000Y8167619D01*
X44172142Y8120000D01*
X44076904Y8024761D01*
X44029285Y7929523D01*
X43981666Y7739047D01*
X43981666Y7596190D01*
X44029285Y7405714D01*
X44076904Y7310476D01*
X44172142Y7215238D01*
X44315000Y7167619D01*
X44553095Y7167619D01*
X43648333Y8167619D02*
X43029285Y8167619D01*
X43362619Y7786666D01*
X43219761Y7786666D01*
X43124523Y7739047D01*
X43076904Y7691428D01*
X43029285Y7596190D01*
X43029285Y7358095D01*
X43076904Y7262857D01*
X43124523Y7215238D01*
X43219761Y7167619D01*
X43505476Y7167619D01*
X43600714Y7215238D01*
X43648333Y7262857D01*
%TO.C,D1*%
X44553095Y12247619D02*
X44553095Y13247619D01*
X44315000Y13247619D01*
X44172142Y13200000D01*
X44076904Y13104761D01*
X44029285Y13009523D01*
X43981666Y12819047D01*
X43981666Y12676190D01*
X44029285Y12485714D01*
X44076904Y12390476D01*
X44172142Y12295238D01*
X44315000Y12247619D01*
X44553095Y12247619D01*
X43029285Y12247619D02*
X43600714Y12247619D01*
X43315000Y12247619D02*
X43315000Y13247619D01*
X43410238Y13104761D01*
X43505476Y13009523D01*
X43600714Y12961904D01*
D11*
%TO.C,D6*%
X33425000Y11850000D02*
X33425000Y13550000D01*
X33425000Y13550000D02*
X35975000Y13550000D01*
X33425000Y11850000D02*
X35975000Y11850000D01*
%TO.C,D7*%
X33425000Y9310000D02*
X33425000Y11010000D01*
X33425000Y11010000D02*
X35975000Y11010000D01*
X33425000Y9310000D02*
X35975000Y9310000D01*
%TO.C,D8*%
X33425000Y8470000D02*
X35975000Y8470000D01*
X33425000Y6770000D02*
X35975000Y6770000D01*
X33425000Y6770000D02*
X33425000Y8470000D01*
%TO.C,D9*%
X33425000Y4230000D02*
X35975000Y4230000D01*
X33425000Y5930000D02*
X35975000Y5930000D01*
X33425000Y4230000D02*
X33425000Y5930000D01*
%TO.C,D10*%
X33425000Y1690000D02*
X33425000Y3390000D01*
X33425000Y1690000D02*
X35975000Y1690000D01*
X33425000Y3390000D02*
X35975000Y3390000D01*
%TO.C,D11*%
X24535000Y11850000D02*
X27085000Y11850000D01*
X24535000Y13550000D02*
X27085000Y13550000D01*
X24535000Y11850000D02*
X24535000Y13550000D01*
%TO.C,D12*%
X24535000Y11010000D02*
X27085000Y11010000D01*
X24535000Y9310000D02*
X24535000Y11010000D01*
X24535000Y9310000D02*
X27085000Y9310000D01*
%TO.C,D13*%
X24535000Y6770000D02*
X27085000Y6770000D01*
X24535000Y6770000D02*
X24535000Y8470000D01*
X24535000Y8470000D02*
X27085000Y8470000D01*
%TO.C,D14*%
X24535000Y5930000D02*
X27085000Y5930000D01*
X24535000Y4230000D02*
X24535000Y5930000D01*
X24535000Y4230000D02*
X27085000Y4230000D01*
%TO.C,D15*%
X24535000Y1690000D02*
X24535000Y3390000D01*
X24535000Y1690000D02*
X27085000Y1690000D01*
X24535000Y3390000D02*
X27085000Y3390000D01*
%TO.C,D16*%
X15645000Y11850000D02*
X18195000Y11850000D01*
X15645000Y13550000D02*
X18195000Y13550000D01*
X15645000Y11850000D02*
X15645000Y13550000D01*
%TO.C,D17*%
X15645000Y9310000D02*
X18195000Y9310000D01*
X15645000Y11010000D02*
X18195000Y11010000D01*
X15645000Y9310000D02*
X15645000Y11010000D01*
%TO.C,D18*%
X15645000Y8470000D02*
X18195000Y8470000D01*
X15645000Y6770000D02*
X15645000Y8470000D01*
X15645000Y6770000D02*
X18195000Y6770000D01*
%TO.C,D19*%
X15645000Y4230000D02*
X15645000Y5930000D01*
X15645000Y4230000D02*
X18195000Y4230000D01*
X15645000Y5930000D02*
X18195000Y5930000D01*
%TO.C,D20*%
X15645000Y1690000D02*
X18195000Y1690000D01*
X15645000Y3390000D02*
X18195000Y3390000D01*
X15645000Y1690000D02*
X15645000Y3390000D01*
%TO.C,D21*%
X6755000Y11850000D02*
X9305000Y11850000D01*
X6755000Y11850000D02*
X6755000Y13550000D01*
X6755000Y13550000D02*
X9305000Y13550000D01*
%TO.C,D23*%
X6755000Y6770000D02*
X6755000Y8470000D01*
X6755000Y6770000D02*
X9305000Y6770000D01*
X6755000Y8470000D02*
X9305000Y8470000D01*
%TO.C,D24*%
X6755000Y4230000D02*
X9305000Y4230000D01*
X6755000Y4230000D02*
X6755000Y5930000D01*
X6755000Y5930000D02*
X9305000Y5930000D01*
%TO.C,D25*%
X6755000Y3390000D02*
X9305000Y3390000D01*
X6755000Y1690000D02*
X6755000Y3390000D01*
X6755000Y1690000D02*
X9305000Y1690000D01*
%TO.C,D22*%
X6755000Y9310000D02*
X6755000Y11010000D01*
X6755000Y11010000D02*
X9305000Y11010000D01*
X6755000Y9310000D02*
X9305000Y9310000D01*
%TO.C,D26*%
X45315000Y30060000D02*
X42765000Y30060000D01*
X45315000Y28360000D02*
X42765000Y28360000D01*
X45315000Y30060000D02*
X45315000Y28360000D01*
%TO.C,D27*%
X45315000Y27520000D02*
X42765000Y27520000D01*
X45315000Y25820000D02*
X42765000Y25820000D01*
X45315000Y27520000D02*
X45315000Y25820000D01*
%TO.C,D28*%
X45315000Y24980000D02*
X42765000Y24980000D01*
X45315000Y23280000D02*
X42765000Y23280000D01*
X45315000Y24980000D02*
X45315000Y23280000D01*
%TO.C,D29*%
X45315000Y20740000D02*
X42765000Y20740000D01*
X45315000Y22440000D02*
X42765000Y22440000D01*
X45315000Y22440000D02*
X45315000Y20740000D01*
%TO.C,D30*%
X45315000Y19900000D02*
X45315000Y18200000D01*
X45315000Y18200000D02*
X42765000Y18200000D01*
X45315000Y19900000D02*
X42765000Y19900000D01*
%TO.C,D5*%
X42315000Y1690000D02*
X44865000Y1690000D01*
X42315000Y1690000D02*
X42315000Y3390000D01*
X42315000Y3390000D02*
X44865000Y3390000D01*
%TO.C,D2*%
X42315000Y11010000D02*
X44865000Y11010000D01*
X42315000Y9310000D02*
X42315000Y11010000D01*
X42315000Y9310000D02*
X44865000Y9310000D01*
%TO.C,D4*%
X42315000Y4230000D02*
X42315000Y5930000D01*
X42315000Y5930000D02*
X44865000Y5930000D01*
X42315000Y4230000D02*
X44865000Y4230000D01*
%TO.C,D3*%
X42315000Y6770000D02*
X42315000Y8470000D01*
X42315000Y6770000D02*
X44865000Y6770000D01*
X42315000Y8470000D02*
X44865000Y8470000D01*
%TO.C,D1*%
X42315000Y11850000D02*
X42315000Y13550000D01*
X42315000Y11850000D02*
X44865000Y11850000D01*
X42315000Y13550000D02*
X44865000Y13550000D01*
%TD*%
M02*
