%TF.GenerationSoftware,KiCad,Pcbnew,6.0.1-79c1e3a40b~116~ubuntu20.04.1*%
%TF.CreationDate,2022-02-08T10:59:44-05:00*%
%TF.ProjectId,gameKey-PCB-MainControl,67616d65-4b65-4792-9d50-43422d4d6169,rev?*%
%TF.SameCoordinates,Original*%
%TF.FileFunction,Paste,Top*%
%TF.FilePolarity,Positive*%
%FSLAX46Y46*%
G04 Gerber Fmt 4.6, Leading zero omitted, Abs format (unit mm)*
G04 Created by KiCad (PCBNEW 6.0.1-79c1e3a40b~116~ubuntu20.04.1) date 2022-02-08 10:59:44*
%MOMM*%
%LPD*%
G01*
G04 APERTURE LIST*
G04 Aperture macros list*
%AMRoundRect*
0 Rectangle with rounded corners*
0 $1 Rounding radius*
0 $2 $3 $4 $5 $6 $7 $8 $9 X,Y pos of 4 corners*
0 Add a 4 corners polygon primitive as box body*
4,1,4,$2,$3,$4,$5,$6,$7,$8,$9,$2,$3,0*
0 Add four circle primitives for the rounded corners*
1,1,$1+$1,$2,$3*
1,1,$1+$1,$4,$5*
1,1,$1+$1,$6,$7*
1,1,$1+$1,$8,$9*
0 Add four rect primitives between the rounded corners*
20,1,$1+$1,$2,$3,$4,$5,0*
20,1,$1+$1,$4,$5,$6,$7,0*
20,1,$1+$1,$6,$7,$8,$9,0*
20,1,$1+$1,$8,$9,$2,$3,0*%
G04 Aperture macros list end*
%ADD10RoundRect,0.381000X-1.143000X0.381000X-1.143000X-0.381000X1.143000X-0.381000X1.143000X0.381000X0*%
%ADD11R,0.900000X2.000000*%
G04 APERTURE END LIST*
D10*
%TO.C,J9*%
X8255000Y15240000D03*
X8255000Y12700000D03*
X8255000Y10160000D03*
X8255000Y7620000D03*
X8255000Y5080000D03*
X8255000Y2540000D03*
%TD*%
%TO.C,J7*%
X26035000Y15240000D03*
X26035000Y12700000D03*
X26035000Y10160000D03*
X26035000Y7620000D03*
X26035000Y5080000D03*
X26035000Y2540000D03*
%TD*%
%TO.C,J5*%
X43815000Y15240000D03*
X43815000Y12700000D03*
X43815000Y10160000D03*
X43815000Y7620000D03*
X43815000Y5080000D03*
X43815000Y2540000D03*
%TD*%
%TO.C,J6*%
X34925000Y15240000D03*
X34925000Y12700000D03*
X34925000Y10160000D03*
X34925000Y7620000D03*
X34925000Y5080000D03*
X34925000Y2540000D03*
%TD*%
D11*
%TO.C,J2*%
X38910000Y36500000D03*
X40910000Y39700000D03*
X42910000Y36500000D03*
X44910000Y39700000D03*
%TD*%
D10*
%TO.C,J8*%
X17145000Y15240000D03*
X17145000Y12700000D03*
X17145000Y10160000D03*
X17145000Y7620000D03*
X17145000Y5080000D03*
X17145000Y2540000D03*
%TD*%
%TO.C,J10*%
X43815000Y31750000D03*
X43815000Y29210000D03*
X43815000Y26670000D03*
X43815000Y24130000D03*
X43815000Y21590000D03*
X43815000Y19050000D03*
%TD*%
M02*
