%TF.GenerationSoftware,KiCad,Pcbnew,6.0.1-79c1e3a40b~116~ubuntu20.04.1*%
%TF.CreationDate,2022-02-08T10:59:44-05:00*%
%TF.ProjectId,gameKey-PCB-MainControl,67616d65-4b65-4792-9d50-43422d4d6169,rev?*%
%TF.SameCoordinates,Original*%
%TF.FileFunction,Legend,Top*%
%TF.FilePolarity,Positive*%
%FSLAX46Y46*%
G04 Gerber Fmt 4.6, Leading zero omitted, Abs format (unit mm)*
G04 Created by KiCad (PCBNEW 6.0.1-79c1e3a40b~116~ubuntu20.04.1) date 2022-02-08 10:59:44*
%MOMM*%
%LPD*%
G01*
G04 APERTURE LIST*
%ADD10C,0.150000*%
%ADD11C,0.300000*%
%ADD12C,0.304800*%
%ADD13C,0.152400*%
%ADD14C,0.120000*%
G04 APERTURE END LIST*
D10*
X2436904Y26741428D02*
X2770238Y26741428D01*
X2913095Y26217619D02*
X2436904Y26217619D01*
X2436904Y27217619D01*
X2913095Y27217619D01*
X3341666Y26217619D02*
X3341666Y27217619D01*
X3913095Y26217619D01*
X3913095Y27217619D01*
D11*
X40294285Y13521428D02*
X40437142Y13521428D01*
X40580000Y13450000D01*
X40651428Y13378571D01*
X40722857Y13235714D01*
X40794285Y12950000D01*
X40794285Y12592857D01*
X40722857Y12307142D01*
X40651428Y12164285D01*
X40580000Y12092857D01*
X40437142Y12021428D01*
X40294285Y12021428D01*
X40151428Y12092857D01*
X40080000Y12164285D01*
X40008571Y12307142D01*
X39937142Y12592857D01*
X39937142Y12950000D01*
X40008571Y13235714D01*
X40080000Y13378571D01*
X40151428Y13450000D01*
X40294285Y13521428D01*
X13624285Y13521428D02*
X13767142Y13521428D01*
X13910000Y13450000D01*
X13981428Y13378571D01*
X14052857Y13235714D01*
X14124285Y12950000D01*
X14124285Y12592857D01*
X14052857Y12307142D01*
X13981428Y12164285D01*
X13910000Y12092857D01*
X13767142Y12021428D01*
X13624285Y12021428D01*
X13481428Y12092857D01*
X13410000Y12164285D01*
X13338571Y12307142D01*
X13267142Y12592857D01*
X13267142Y12950000D01*
X13338571Y13235714D01*
X13410000Y13378571D01*
X13481428Y13450000D01*
X13624285Y13521428D01*
X13267142Y8298571D02*
X13338571Y8370000D01*
X13481428Y8441428D01*
X13838571Y8441428D01*
X13981428Y8370000D01*
X14052857Y8298571D01*
X14124285Y8155714D01*
X14124285Y8012857D01*
X14052857Y7798571D01*
X13195714Y6941428D01*
X14124285Y6941428D01*
X30475714Y14704285D02*
X30404285Y14632857D01*
X30190000Y14561428D01*
X30047142Y14561428D01*
X29832857Y14632857D01*
X29690000Y14775714D01*
X29618571Y14918571D01*
X29547142Y15204285D01*
X29547142Y15418571D01*
X29618571Y15704285D01*
X29690000Y15847142D01*
X29832857Y15990000D01*
X30047142Y16061428D01*
X30190000Y16061428D01*
X30404285Y15990000D01*
X30475714Y15918571D01*
X31904285Y14561428D02*
X31047142Y14561428D01*
X31475714Y14561428D02*
X31475714Y16061428D01*
X31332857Y15847142D01*
X31190000Y15704285D01*
X31047142Y15632857D01*
D12*
X27023422Y40585571D02*
X27023422Y39424428D01*
X21535571Y39533285D02*
X21535571Y40259000D01*
X23059571Y40259000D01*
X17208862Y40585571D02*
X17208862Y39424428D01*
X16628291Y40005000D02*
X17789434Y40005000D01*
D11*
X39937142Y8298571D02*
X40008571Y8370000D01*
X40151428Y8441428D01*
X40508571Y8441428D01*
X40651428Y8370000D01*
X40722857Y8298571D01*
X40794285Y8155714D01*
X40794285Y8012857D01*
X40722857Y7798571D01*
X39865714Y6941428D01*
X40794285Y6941428D01*
X22871428Y2861428D02*
X22871428Y1861428D01*
X22514285Y3432857D02*
X22157142Y2361428D01*
X23085714Y2361428D01*
X39365714Y31214285D02*
X39294285Y31142857D01*
X39080000Y31071428D01*
X38937142Y31071428D01*
X38722857Y31142857D01*
X38580000Y31285714D01*
X38508571Y31428571D01*
X38437142Y31714285D01*
X38437142Y31928571D01*
X38508571Y32214285D01*
X38580000Y32357142D01*
X38722857Y32500000D01*
X38937142Y32571428D01*
X39080000Y32571428D01*
X39294285Y32500000D01*
X39365714Y32428571D01*
X40722857Y32571428D02*
X40008571Y32571428D01*
X39937142Y31857142D01*
X40008571Y31928571D01*
X40151428Y32000000D01*
X40508571Y32000000D01*
X40651428Y31928571D01*
X40722857Y31857142D01*
X40794285Y31714285D01*
X40794285Y31357142D01*
X40722857Y31214285D01*
X40651428Y31142857D01*
X40508571Y31071428D01*
X40151428Y31071428D01*
X40008571Y31142857D01*
X39937142Y31214285D01*
X31904285Y9481428D02*
X31047142Y9481428D01*
X31475714Y9481428D02*
X31475714Y10981428D01*
X31332857Y10767142D01*
X31190000Y10624285D01*
X31047142Y10552857D01*
X30975714Y5901428D02*
X31904285Y5901428D01*
X31404285Y5330000D01*
X31618571Y5330000D01*
X31761428Y5258571D01*
X31832857Y5187142D01*
X31904285Y5044285D01*
X31904285Y4687142D01*
X31832857Y4544285D01*
X31761428Y4472857D01*
X31618571Y4401428D01*
X31190000Y4401428D01*
X31047142Y4472857D01*
X30975714Y4544285D01*
X31047142Y8298571D02*
X31118571Y8370000D01*
X31261428Y8441428D01*
X31618571Y8441428D01*
X31761428Y8370000D01*
X31832857Y8298571D01*
X31904285Y8155714D01*
X31904285Y8012857D01*
X31832857Y7798571D01*
X30975714Y6941428D01*
X31904285Y6941428D01*
X14124285Y9481428D02*
X13267142Y9481428D01*
X13695714Y9481428D02*
X13695714Y10981428D01*
X13552857Y10767142D01*
X13410000Y10624285D01*
X13267142Y10552857D01*
X40794285Y9481428D02*
X39937142Y9481428D01*
X40365714Y9481428D02*
X40365714Y10981428D01*
X40222857Y10767142D01*
X40080000Y10624285D01*
X39937142Y10552857D01*
X21585714Y14704285D02*
X21514285Y14632857D01*
X21300000Y14561428D01*
X21157142Y14561428D01*
X20942857Y14632857D01*
X20800000Y14775714D01*
X20728571Y14918571D01*
X20657142Y15204285D01*
X20657142Y15418571D01*
X20728571Y15704285D01*
X20800000Y15847142D01*
X20942857Y15990000D01*
X21157142Y16061428D01*
X21300000Y16061428D01*
X21514285Y15990000D01*
X21585714Y15918571D01*
X22157142Y15918571D02*
X22228571Y15990000D01*
X22371428Y16061428D01*
X22728571Y16061428D01*
X22871428Y15990000D01*
X22942857Y15918571D01*
X23014285Y15775714D01*
X23014285Y15632857D01*
X22942857Y15418571D01*
X22085714Y14561428D01*
X23014285Y14561428D01*
X22157142Y8298571D02*
X22228571Y8370000D01*
X22371428Y8441428D01*
X22728571Y8441428D01*
X22871428Y8370000D01*
X22942857Y8298571D01*
X23014285Y8155714D01*
X23014285Y8012857D01*
X22942857Y7798571D01*
X22085714Y6941428D01*
X23014285Y6941428D01*
X22085714Y5901428D02*
X23014285Y5901428D01*
X22514285Y5330000D01*
X22728571Y5330000D01*
X22871428Y5258571D01*
X22942857Y5187142D01*
X23014285Y5044285D01*
X23014285Y4687142D01*
X22942857Y4544285D01*
X22871428Y4472857D01*
X22728571Y4401428D01*
X22300000Y4401428D01*
X22157142Y4472857D01*
X22085714Y4544285D01*
X4377142Y8298571D02*
X4448571Y8370000D01*
X4591428Y8441428D01*
X4948571Y8441428D01*
X5091428Y8370000D01*
X5162857Y8298571D01*
X5234285Y8155714D01*
X5234285Y8012857D01*
X5162857Y7798571D01*
X4305714Y6941428D01*
X5234285Y6941428D01*
X39365714Y14704285D02*
X39294285Y14632857D01*
X39080000Y14561428D01*
X38937142Y14561428D01*
X38722857Y14632857D01*
X38580000Y14775714D01*
X38508571Y14918571D01*
X38437142Y15204285D01*
X38437142Y15418571D01*
X38508571Y15704285D01*
X38580000Y15847142D01*
X38722857Y15990000D01*
X38937142Y16061428D01*
X39080000Y16061428D01*
X39294285Y15990000D01*
X39365714Y15918571D01*
X40294285Y16061428D02*
X40437142Y16061428D01*
X40580000Y15990000D01*
X40651428Y15918571D01*
X40722857Y15775714D01*
X40794285Y15490000D01*
X40794285Y15132857D01*
X40722857Y14847142D01*
X40651428Y14704285D01*
X40580000Y14632857D01*
X40437142Y14561428D01*
X40294285Y14561428D01*
X40151428Y14632857D01*
X40080000Y14704285D01*
X40008571Y14847142D01*
X39937142Y15132857D01*
X39937142Y15490000D01*
X40008571Y15775714D01*
X40080000Y15918571D01*
X40151428Y15990000D01*
X40294285Y16061428D01*
X4305714Y5901428D02*
X5234285Y5901428D01*
X4734285Y5330000D01*
X4948571Y5330000D01*
X5091428Y5258571D01*
X5162857Y5187142D01*
X5234285Y5044285D01*
X5234285Y4687142D01*
X5162857Y4544285D01*
X5091428Y4472857D01*
X4948571Y4401428D01*
X4520000Y4401428D01*
X4377142Y4472857D01*
X4305714Y4544285D01*
D12*
X31151285Y40789571D02*
X31659285Y39265571D01*
X32167285Y40789571D01*
X32602714Y40644428D02*
X32675285Y40717000D01*
X32820428Y40789571D01*
X33183285Y40789571D01*
X33328428Y40717000D01*
X33401000Y40644428D01*
X33473571Y40499285D01*
X33473571Y40354142D01*
X33401000Y40136428D01*
X32530142Y39265571D01*
X33473571Y39265571D01*
D11*
X5091428Y2861428D02*
X5091428Y1861428D01*
X4734285Y3432857D02*
X4377142Y2361428D01*
X5305714Y2361428D01*
X39865714Y5901428D02*
X40794285Y5901428D01*
X40294285Y5330000D01*
X40508571Y5330000D01*
X40651428Y5258571D01*
X40722857Y5187142D01*
X40794285Y5044285D01*
X40794285Y4687142D01*
X40722857Y4544285D01*
X40651428Y4472857D01*
X40508571Y4401428D01*
X40080000Y4401428D01*
X39937142Y4472857D01*
X39865714Y4544285D01*
X31404285Y13521428D02*
X31547142Y13521428D01*
X31690000Y13450000D01*
X31761428Y13378571D01*
X31832857Y13235714D01*
X31904285Y12950000D01*
X31904285Y12592857D01*
X31832857Y12307142D01*
X31761428Y12164285D01*
X31690000Y12092857D01*
X31547142Y12021428D01*
X31404285Y12021428D01*
X31261428Y12092857D01*
X31190000Y12164285D01*
X31118571Y12307142D01*
X31047142Y12592857D01*
X31047142Y12950000D01*
X31118571Y13235714D01*
X31190000Y13378571D01*
X31261428Y13450000D01*
X31404285Y13521428D01*
X4734285Y13521428D02*
X4877142Y13521428D01*
X5020000Y13450000D01*
X5091428Y13378571D01*
X5162857Y13235714D01*
X5234285Y12950000D01*
X5234285Y12592857D01*
X5162857Y12307142D01*
X5091428Y12164285D01*
X5020000Y12092857D01*
X4877142Y12021428D01*
X4734285Y12021428D01*
X4591428Y12092857D01*
X4520000Y12164285D01*
X4448571Y12307142D01*
X4377142Y12592857D01*
X4377142Y12950000D01*
X4448571Y13235714D01*
X4520000Y13378571D01*
X4591428Y13450000D01*
X4734285Y13521428D01*
X5234285Y9481428D02*
X4377142Y9481428D01*
X4805714Y9481428D02*
X4805714Y10981428D01*
X4662857Y10767142D01*
X4520000Y10624285D01*
X4377142Y10552857D01*
X39937142Y24808571D02*
X40008571Y24880000D01*
X40151428Y24951428D01*
X40508571Y24951428D01*
X40651428Y24880000D01*
X40722857Y24808571D01*
X40794285Y24665714D01*
X40794285Y24522857D01*
X40722857Y24308571D01*
X39865714Y23451428D01*
X40794285Y23451428D01*
D10*
X11765595Y39552619D02*
X11765595Y40552619D01*
X12098928Y39838333D01*
X12432261Y40552619D01*
X12432261Y39552619D01*
X13098928Y40552619D02*
X13289404Y40552619D01*
X13384642Y40505000D01*
X13479880Y40409761D01*
X13527500Y40219285D01*
X13527500Y39885952D01*
X13479880Y39695476D01*
X13384642Y39600238D01*
X13289404Y39552619D01*
X13098928Y39552619D01*
X13003690Y39600238D01*
X12908452Y39695476D01*
X12860833Y39885952D01*
X12860833Y40219285D01*
X12908452Y40409761D01*
X13003690Y40505000D01*
X13098928Y40552619D01*
X13956071Y39552619D02*
X13956071Y40552619D01*
X14194166Y40552619D01*
X14337023Y40505000D01*
X14432261Y40409761D01*
X14479880Y40314523D01*
X14527500Y40124047D01*
X14527500Y39981190D01*
X14479880Y39790714D01*
X14432261Y39695476D01*
X14337023Y39600238D01*
X14194166Y39552619D01*
X13956071Y39552619D01*
X14956071Y40076428D02*
X15289404Y40076428D01*
X15432261Y39552619D02*
X14956071Y39552619D01*
X14956071Y40552619D01*
X15432261Y40552619D01*
D11*
X40651428Y19371428D02*
X40651428Y18371428D01*
X40294285Y19942857D02*
X39937142Y18871428D01*
X40865714Y18871428D01*
X23014285Y9481428D02*
X22157142Y9481428D01*
X22585714Y9481428D02*
X22585714Y10981428D01*
X22442857Y10767142D01*
X22300000Y10624285D01*
X22157142Y10552857D01*
D12*
X38628389Y33709428D02*
X38628389Y34870571D01*
X40138600Y36104285D02*
X41662600Y37120285D01*
X40138600Y37120285D02*
X41662600Y36104285D01*
X43535669Y33709428D02*
X43535669Y34870571D01*
X44116240Y34290000D02*
X42955097Y34290000D01*
X45844166Y36612285D02*
X46569880Y36612285D01*
X45045880Y36104285D02*
X45844166Y36612285D01*
X45045880Y37120285D01*
D11*
X3805714Y14704285D02*
X3734285Y14632857D01*
X3520000Y14561428D01*
X3377142Y14561428D01*
X3162857Y14632857D01*
X3020000Y14775714D01*
X2948571Y14918571D01*
X2877142Y15204285D01*
X2877142Y15418571D01*
X2948571Y15704285D01*
X3020000Y15847142D01*
X3162857Y15990000D01*
X3377142Y16061428D01*
X3520000Y16061428D01*
X3734285Y15990000D01*
X3805714Y15918571D01*
X5091428Y15561428D02*
X5091428Y14561428D01*
X4734285Y16132857D02*
X4377142Y15061428D01*
X5305714Y15061428D01*
X12695714Y14704285D02*
X12624285Y14632857D01*
X12410000Y14561428D01*
X12267142Y14561428D01*
X12052857Y14632857D01*
X11910000Y14775714D01*
X11838571Y14918571D01*
X11767142Y15204285D01*
X11767142Y15418571D01*
X11838571Y15704285D01*
X11910000Y15847142D01*
X12052857Y15990000D01*
X12267142Y16061428D01*
X12410000Y16061428D01*
X12624285Y15990000D01*
X12695714Y15918571D01*
X13195714Y16061428D02*
X14124285Y16061428D01*
X13624285Y15490000D01*
X13838571Y15490000D01*
X13981428Y15418571D01*
X14052857Y15347142D01*
X14124285Y15204285D01*
X14124285Y14847142D01*
X14052857Y14704285D01*
X13981428Y14632857D01*
X13838571Y14561428D01*
X13410000Y14561428D01*
X13267142Y14632857D01*
X13195714Y14704285D01*
D13*
X4832047Y33576380D02*
X4832047Y32850666D01*
X4783666Y32705523D01*
X4686904Y32608761D01*
X4541761Y32560380D01*
X4445000Y32560380D01*
X5799666Y32560380D02*
X5315857Y32560380D01*
X5315857Y33576380D01*
X6718904Y32657142D02*
X6670523Y32608761D01*
X6525380Y32560380D01*
X6428619Y32560380D01*
X6283476Y32608761D01*
X6186714Y32705523D01*
X6138333Y32802285D01*
X6089952Y32995809D01*
X6089952Y33140952D01*
X6138333Y33334476D01*
X6186714Y33431238D01*
X6283476Y33528000D01*
X6428619Y33576380D01*
X6525380Y33576380D01*
X6670523Y33528000D01*
X6718904Y33479619D01*
X7444619Y33576380D02*
X7444619Y32850666D01*
X7396238Y32705523D01*
X7299476Y32608761D01*
X7154333Y32560380D01*
X7057571Y32560380D01*
X8412238Y32560380D02*
X7928428Y32560380D01*
X7928428Y33576380D01*
X9331476Y32657142D02*
X9283095Y32608761D01*
X9137952Y32560380D01*
X9041190Y32560380D01*
X8896047Y32608761D01*
X8799285Y32705523D01*
X8750904Y32802285D01*
X8702523Y32995809D01*
X8702523Y33140952D01*
X8750904Y33334476D01*
X8799285Y33431238D01*
X8896047Y33528000D01*
X9041190Y33576380D01*
X9137952Y33576380D01*
X9283095Y33528000D01*
X9331476Y33479619D01*
X10057190Y33576380D02*
X10057190Y32850666D01*
X10008809Y32705523D01*
X9912047Y32608761D01*
X9766904Y32560380D01*
X9670142Y32560380D01*
X11024809Y32560380D02*
X10541000Y32560380D01*
X10541000Y33576380D01*
X11944047Y32657142D02*
X11895666Y32608761D01*
X11750523Y32560380D01*
X11653761Y32560380D01*
X11508619Y32608761D01*
X11411857Y32705523D01*
X11363476Y32802285D01*
X11315095Y32995809D01*
X11315095Y33140952D01*
X11363476Y33334476D01*
X11411857Y33431238D01*
X11508619Y33528000D01*
X11653761Y33576380D01*
X11750523Y33576380D01*
X11895666Y33528000D01*
X11944047Y33479619D01*
X12669761Y33576380D02*
X12669761Y32850666D01*
X12621380Y32705523D01*
X12524619Y32608761D01*
X12379476Y32560380D01*
X12282714Y32560380D01*
X13637380Y32560380D02*
X13153571Y32560380D01*
X13153571Y33576380D01*
X14556619Y32657142D02*
X14508238Y32608761D01*
X14363095Y32560380D01*
X14266333Y32560380D01*
X14121190Y32608761D01*
X14024428Y32705523D01*
X13976047Y32802285D01*
X13927666Y32995809D01*
X13927666Y33140952D01*
X13976047Y33334476D01*
X14024428Y33431238D01*
X14121190Y33528000D01*
X14266333Y33576380D01*
X14363095Y33576380D01*
X14508238Y33528000D01*
X14556619Y33479619D01*
D11*
X40294285Y30031428D02*
X40437142Y30031428D01*
X40580000Y29960000D01*
X40651428Y29888571D01*
X40722857Y29745714D01*
X40794285Y29460000D01*
X40794285Y29102857D01*
X40722857Y28817142D01*
X40651428Y28674285D01*
X40580000Y28602857D01*
X40437142Y28531428D01*
X40294285Y28531428D01*
X40151428Y28602857D01*
X40080000Y28674285D01*
X40008571Y28817142D01*
X39937142Y29102857D01*
X39937142Y29460000D01*
X40008571Y29745714D01*
X40080000Y29888571D01*
X40151428Y29960000D01*
X40294285Y30031428D01*
X13195714Y5901428D02*
X14124285Y5901428D01*
X13624285Y5330000D01*
X13838571Y5330000D01*
X13981428Y5258571D01*
X14052857Y5187142D01*
X14124285Y5044285D01*
X14124285Y4687142D01*
X14052857Y4544285D01*
X13981428Y4472857D01*
X13838571Y4401428D01*
X13410000Y4401428D01*
X13267142Y4472857D01*
X13195714Y4544285D01*
X13981428Y2861428D02*
X13981428Y1861428D01*
X13624285Y3432857D02*
X13267142Y2361428D01*
X14195714Y2361428D01*
X39865714Y22411428D02*
X40794285Y22411428D01*
X40294285Y21840000D01*
X40508571Y21840000D01*
X40651428Y21768571D01*
X40722857Y21697142D01*
X40794285Y21554285D01*
X40794285Y21197142D01*
X40722857Y21054285D01*
X40651428Y20982857D01*
X40508571Y20911428D01*
X40080000Y20911428D01*
X39937142Y20982857D01*
X39865714Y21054285D01*
X40794285Y25991428D02*
X39937142Y25991428D01*
X40365714Y25991428D02*
X40365714Y27491428D01*
X40222857Y27277142D01*
X40080000Y27134285D01*
X39937142Y27062857D01*
X22514285Y13521428D02*
X22657142Y13521428D01*
X22800000Y13450000D01*
X22871428Y13378571D01*
X22942857Y13235714D01*
X23014285Y12950000D01*
X23014285Y12592857D01*
X22942857Y12307142D01*
X22871428Y12164285D01*
X22800000Y12092857D01*
X22657142Y12021428D01*
X22514285Y12021428D01*
X22371428Y12092857D01*
X22300000Y12164285D01*
X22228571Y12307142D01*
X22157142Y12592857D01*
X22157142Y12950000D01*
X22228571Y13235714D01*
X22300000Y13378571D01*
X22371428Y13450000D01*
X22514285Y13521428D01*
X40651428Y2861428D02*
X40651428Y1861428D01*
X40294285Y3432857D02*
X39937142Y2361428D01*
X40865714Y2361428D01*
X31761428Y2861428D02*
X31761428Y1861428D01*
X31404285Y3432857D02*
X31047142Y2361428D01*
X31975714Y2361428D01*
D10*
%TO.C,J1*%
X8767380Y28876666D02*
X9481666Y28876666D01*
X9624523Y28829047D01*
X9719761Y28733809D01*
X9767380Y28590952D01*
X9767380Y28495714D01*
X9767380Y29876666D02*
X9767380Y29305238D01*
X9767380Y29590952D02*
X8767380Y29590952D01*
X8910238Y29495714D01*
X9005476Y29400476D01*
X9053095Y29305238D01*
D14*
%TO.C,J9*%
X10795000Y16510000D02*
X5715000Y16510000D01*
X5715000Y16510000D02*
X5715000Y1270000D01*
X5715000Y1270000D02*
X10795000Y1270000D01*
X10795000Y1270000D02*
X10795000Y16510000D01*
%TO.C,J7*%
X28575000Y16510000D02*
X23495000Y16510000D01*
X23495000Y16510000D02*
X23495000Y1270000D01*
X23495000Y1270000D02*
X28575000Y1270000D01*
X28575000Y1270000D02*
X28575000Y16510000D01*
%TO.C,J5*%
X46355000Y16510000D02*
X41275000Y16510000D01*
X41275000Y16510000D02*
X41275000Y1270000D01*
X41275000Y1270000D02*
X46355000Y1270000D01*
X46355000Y1270000D02*
X46355000Y16510000D01*
%TO.C,J6*%
X37465000Y16510000D02*
X32385000Y16510000D01*
X32385000Y16510000D02*
X32385000Y1270000D01*
X32385000Y1270000D02*
X37465000Y1270000D01*
X37465000Y1270000D02*
X37465000Y16510000D01*
%TO.C,J4*%
X8235000Y38675000D02*
X5635000Y38675000D01*
X10835000Y41335000D02*
X10835000Y40005000D01*
X8235000Y41335000D02*
X5635000Y41335000D01*
X9505000Y41335000D02*
X10835000Y41335000D01*
X8235000Y41335000D02*
X8235000Y38675000D01*
X5635000Y41335000D02*
X5635000Y38675000D01*
%TO.C,J1*%
X5715000Y30540000D02*
X5715000Y27880000D01*
X5715000Y27880000D02*
X3115000Y27880000D01*
X3115000Y30540000D02*
X3115000Y27880000D01*
X8315000Y30540000D02*
X8315000Y29210000D01*
X5715000Y30540000D02*
X3115000Y30540000D01*
X6985000Y30540000D02*
X8315000Y30540000D01*
%TO.C,J3*%
X23480000Y38625000D02*
X18340000Y38625000D01*
X18340000Y41285000D02*
X18340000Y38625000D01*
X24750000Y41285000D02*
X26080000Y41285000D01*
X23480000Y41285000D02*
X18340000Y41285000D01*
X26080000Y41285000D02*
X26080000Y39955000D01*
X23480000Y41285000D02*
X23480000Y38625000D01*
%TO.C,J2*%
X37550000Y36790000D02*
X38200000Y36790000D01*
X46270000Y36790000D02*
X46270000Y39410000D01*
X43620000Y36790000D02*
X46270000Y36790000D01*
X37550000Y36790000D02*
X37550000Y39410000D01*
X39620000Y36790000D02*
X42200000Y36790000D01*
X37550000Y39410000D02*
X40200000Y39410000D01*
X41620000Y39410000D02*
X44200000Y39410000D01*
X38200000Y35560000D02*
X38200000Y36790000D01*
X45620000Y39410000D02*
X46270000Y39410000D01*
%TO.C,B1*%
X36195000Y20320000D02*
X36195000Y38100000D01*
X36195000Y33020000D02*
X37465000Y33020000D01*
X3175000Y38100000D02*
X3175000Y20320000D01*
X37465000Y25400000D02*
X36195000Y25400000D01*
X37465000Y33020000D02*
X37465000Y25400000D01*
X3175000Y20320000D02*
X36195000Y20320000D01*
X36195000Y38100000D02*
X3175000Y38100000D01*
%TO.C,J8*%
X19685000Y16510000D02*
X14605000Y16510000D01*
X14605000Y16510000D02*
X14605000Y1270000D01*
X14605000Y1270000D02*
X19685000Y1270000D01*
X19685000Y1270000D02*
X19685000Y16510000D01*
%TO.C,J10*%
X46355000Y33020000D02*
X41275000Y33020000D01*
X41275000Y33020000D02*
X41275000Y17780000D01*
X41275000Y17780000D02*
X46355000Y17780000D01*
X46355000Y17780000D02*
X46355000Y33020000D01*
%TD*%
M02*
