%TF.GenerationSoftware,KiCad,Pcbnew,6.0.1-79c1e3a40b~116~ubuntu20.04.1*%
%TF.CreationDate,2022-02-08T10:59:44-05:00*%
%TF.ProjectId,gameKey-PCB-MainControl,67616d65-4b65-4792-9d50-43422d4d6169,rev?*%
%TF.SameCoordinates,Original*%
%TF.FileFunction,Soldermask,Bot*%
%TF.FilePolarity,Negative*%
%FSLAX46Y46*%
G04 Gerber Fmt 4.6, Leading zero omitted, Abs format (unit mm)*
G04 Created by KiCad (PCBNEW 6.0.1-79c1e3a40b~116~ubuntu20.04.1) date 2022-02-08 10:59:44*
%MOMM*%
%LPD*%
G01*
G04 APERTURE LIST*
G04 Aperture macros list*
%AMRoundRect*
0 Rectangle with rounded corners*
0 $1 Rounding radius*
0 $2 $3 $4 $5 $6 $7 $8 $9 X,Y pos of 4 corners*
0 Add a 4 corners polygon primitive as box body*
4,1,4,$2,$3,$4,$5,$6,$7,$8,$9,$2,$3,0*
0 Add four circle primitives for the rounded corners*
1,1,$1+$1,$2,$3*
1,1,$1+$1,$4,$5*
1,1,$1+$1,$6,$7*
1,1,$1+$1,$8,$9*
0 Add four rect primitives between the rounded corners*
20,1,$1+$1,$2,$3,$4,$5,0*
20,1,$1+$1,$4,$5,$6,$7,0*
20,1,$1+$1,$6,$7,$8,$9,0*
20,1,$1+$1,$8,$9,$2,$3,0*%
G04 Aperture macros list end*
%ADD10C,2.301600*%
%ADD11RoundRect,0.050800X-0.850000X0.850000X-0.850000X-0.850000X0.850000X-0.850000X0.850000X0.850000X0*%
%ADD12O,1.801600X1.801600*%
%ADD13C,1.981200*%
%ADD14RoundRect,0.050800X-0.250000X-0.250000X0.250000X-0.250000X0.250000X0.250000X-0.250000X0.250000X0*%
%ADD15RoundRect,0.050800X0.250000X0.250000X-0.250000X0.250000X-0.250000X-0.250000X0.250000X-0.250000X0*%
G04 APERTURE END LIST*
D10*
%TO.C,H1*%
X25400000Y28575000D03*
%TD*%
D11*
%TO.C,J4*%
X9505000Y40005000D03*
D12*
X6965000Y40005000D03*
%TD*%
D11*
%TO.C,J1*%
X6985000Y29210000D03*
D12*
X4445000Y29210000D03*
%TD*%
D11*
%TO.C,J3*%
X24750000Y39955000D03*
D12*
X22210000Y39955000D03*
X19670000Y39955000D03*
%TD*%
D13*
%TO.C,B1*%
X32385000Y36830000D03*
X29845000Y36870000D03*
X27305000Y36830000D03*
X24765000Y36830000D03*
X22225000Y36830000D03*
X19685000Y36830000D03*
X17145000Y36830000D03*
X14605000Y36830000D03*
X12065000Y36830000D03*
X9525000Y36830000D03*
X6985000Y36830000D03*
X4445000Y36830000D03*
X4445000Y21590000D03*
X6985000Y21590000D03*
X9525000Y21590000D03*
X12065000Y21590000D03*
X14605000Y21590000D03*
X17145000Y21590000D03*
X19685000Y21590000D03*
X22225000Y21590000D03*
X24765000Y21590000D03*
X27305000Y21590000D03*
X29845000Y21590000D03*
X32385000Y21590000D03*
%TD*%
D14*
%TO.C,D6*%
X33825000Y12700000D03*
X36025000Y12700000D03*
%TD*%
%TO.C,D7*%
X33825000Y10160000D03*
X36025000Y10160000D03*
%TD*%
%TO.C,D8*%
X33825000Y7620000D03*
X36025000Y7620000D03*
%TD*%
%TO.C,D9*%
X33825000Y5080000D03*
X36025000Y5080000D03*
%TD*%
%TO.C,D10*%
X33825000Y2540000D03*
X36025000Y2540000D03*
%TD*%
%TO.C,D11*%
X24935000Y12700000D03*
X27135000Y12700000D03*
%TD*%
%TO.C,D12*%
X24935000Y10160000D03*
X27135000Y10160000D03*
%TD*%
%TO.C,D13*%
X24935000Y7620000D03*
X27135000Y7620000D03*
%TD*%
%TO.C,D14*%
X24935000Y5080000D03*
X27135000Y5080000D03*
%TD*%
%TO.C,D15*%
X24935000Y2540000D03*
X27135000Y2540000D03*
%TD*%
%TO.C,D16*%
X16045000Y12700000D03*
X18245000Y12700000D03*
%TD*%
%TO.C,D17*%
X16045000Y10160000D03*
X18245000Y10160000D03*
%TD*%
%TO.C,D18*%
X16045000Y7620000D03*
X18245000Y7620000D03*
%TD*%
%TO.C,D19*%
X16045000Y5080000D03*
X18245000Y5080000D03*
%TD*%
%TO.C,D20*%
X16045000Y2540000D03*
X18245000Y2540000D03*
%TD*%
%TO.C,D21*%
X7155000Y12700000D03*
X9355000Y12700000D03*
%TD*%
%TO.C,D23*%
X7155000Y7620000D03*
X9355000Y7620000D03*
%TD*%
%TO.C,D24*%
X7155000Y5080000D03*
X9355000Y5080000D03*
%TD*%
%TO.C,D25*%
X7155000Y2540000D03*
X9355000Y2540000D03*
%TD*%
%TO.C,D22*%
X7155000Y10160000D03*
X9355000Y10160000D03*
%TD*%
D15*
%TO.C,D26*%
X44915000Y29210000D03*
X42715000Y29210000D03*
%TD*%
%TO.C,D27*%
X44915000Y26670000D03*
X42715000Y26670000D03*
%TD*%
%TO.C,D28*%
X44915000Y24130000D03*
X42715000Y24130000D03*
%TD*%
%TO.C,D29*%
X44915000Y21590000D03*
X42715000Y21590000D03*
%TD*%
%TO.C,D30*%
X44915000Y19050000D03*
X42715000Y19050000D03*
%TD*%
D14*
%TO.C,D5*%
X42715000Y2540000D03*
X44915000Y2540000D03*
%TD*%
%TO.C,D2*%
X42715000Y10160000D03*
X44915000Y10160000D03*
%TD*%
%TO.C,D4*%
X42715000Y5080000D03*
X44915000Y5080000D03*
%TD*%
%TO.C,D3*%
X42715000Y7620000D03*
X44915000Y7620000D03*
%TD*%
%TO.C,D1*%
X42715000Y12700000D03*
X44915000Y12700000D03*
%TD*%
M02*
